<?xml version="1.0" encoding="UTF-8"?>
<svg width="405px" height="726px" viewBox="0 0 405 726" version="1.1" xmlns="http://www.w3.org/2000/svg" xmlns:xlink="http://www.w3.org/1999/xlink">
    <!-- Generator: Sketch 51 (57462) - http://www.bohemiancoding.com/sketch -->
    <title>Apple watch</title>
    <desc>Created with Sketch.</desc>
    <defs>
        <linearGradient x1="50%" y1="0%" x2="50%" y2="100%" id="linearGradient-1">
            <stop stop-color="#B6C5D9" stop-opacity="0.8" offset="0%"></stop>
            <stop stop-color="#D6DFEA" stop-opacity="0" offset="100%"></stop>
        </linearGradient>
        <path d="M192,726 C161.919552,726 131.839103,723.836017 102,720 C89.1429424,717.692906 79.5148256,707.302752 79,695 C75.9634931,654.219402 68.9824654,612.451482 64,602 C59.9614915,592.547289 53.4017762,585.215029 28,570 L356,570 C330.598224,585.215029 324.038508,592.547289 320,602 C315.017535,612.451482 308.036507,654.219402 305,695 C304.485174,707.302752 294.857058,717.692906 282,720 C252.160897,723.836017 222.080448,726 192,726 Z" id="path-2"></path>
        <linearGradient x1="58.2712051%" y1="100%" x2="58.2712054%" y2="0%" id="linearGradient-3">
            <stop stop-color="#B6C5D9" stop-opacity="0.8" offset="0%"></stop>
            <stop stop-color="#D6DFEA" stop-opacity="0" offset="100%"></stop>
        </linearGradient>
        <path d="M192,0 C222.080448,-1.13686838e-13 252.160897,2.16398289 282,6 C294.857058,8.30709351 304.485174,18.6972485 305,31 C308.036507,71.7805981 315.017535,113.548518 320,124 C324.038508,133.452711 330.598224,140.784971 356,156 L28,156 C53.4017762,140.784971 59.9614915,133.452711 64,124 C68.9824654,113.548518 75.9634931,71.7805981 79,31 C79.5148256,18.6972485 89.1429424,8.30709351 102,6 C131.839103,2.16398289 161.919552,-1.13686838e-13 192,0 Z" id="path-4"></path>
        <linearGradient x1="50%" y1="0%" x2="50%" y2="100%" id="linearGradient-5">
            <stop stop-color="#F2F5F9" stop-opacity="0" offset="0%"></stop>
            <stop stop-color="#D6DFEA" offset="100%"></stop>
        </linearGradient>
        <path d="M70,142 L314,142 C352.659932,142 384,173.340068 384,212 L384,514 C384,552.659932 352.659932,584 314,584 L70,584 C31.3400675,584 4.73447626e-15,552.659932 0,514 L0,212 C-4.73447626e-15,173.340068 31.3400675,142 70,142 Z" id="path-6"></path>
        <linearGradient x1="50%" y1="0%" x2="50%" y2="100%" id="linearGradient-7">
            <stop stop-color="#393E41" stop-opacity="0" offset="0%"></stop>
            <stop stop-color="#000000" stop-opacity="0.2" offset="100%"></stop>
        </linearGradient>
        <path d="M84,158 L300,158 C338.659932,158 370,189.340068 370,228 L370,498 C370,536.659932 338.659932,568 300,568 L84,568 C45.3400675,568 14,536.659932 14,498 L14,228 C14,189.340068 45.3400675,158 84,158 Z" id="path-8"></path>
        <linearGradient x1="100%" y1="50%" x2="0%" y2="50%" id="linearGradient-9">
            <stop stop-color="#FFFFFF" stop-opacity="0" offset="0%"></stop>
            <stop stop-color="#B6C5D9" offset="100%"></stop>
        </linearGradient>
        <path d="M384,373 C386.761424,373 389,375.238576 389,378 L389,483 C389,485.761424 386.761424,488 384,488 L384,373 Z" id="path-10"></path>
        <path d="M384,240 L392,240 C399.179702,240 405,245.820298 405,253 L405,307 C405,314.179702 399.179702,320 392,320 L384,320 C377.333333,313.446586 374,300.113253 374,280 C374,259.886747 377.333333,246.553414 384,240 Z" id="path-11"></path>
    </defs>
    <g id="Handsome" stroke="none" stroke-width="1" fill="none" fill-rule="evenodd">
        <g id="Primary" transform="translate(-3168.000000, -3834.000000)">
            <g id="Apple-watch" transform="translate(3168.000000, 3834.000000)">
                <g id="Detail">
                    <use fill="#D6DFEA" xlink:href="#path-2"></use>
                    <use fill="url(#linearGradient-1)" xlink:href="#path-2"></use>
                </g>
                <g id="Detail">
                    <use fill="#D6DFEA" xlink:href="#path-4"></use>
                    <use fill="url(#linearGradient-3)" xlink:href="#path-4"></use>
                </g>
                <g id="Detail">
                    <use fill="#F2F5F9" xlink:href="#path-6"></use>
                    <use fill="url(#linearGradient-5)" xlink:href="#path-6"></use>
                </g>
                <g id="Detail">
                    <use fill="#393E41" xlink:href="#path-8"></use>
                    <use fill="url(#linearGradient-7)" xlink:href="#path-8"></use>
                </g>
                <g id="Detail">
                    <use fill="#E6E6EF" xlink:href="#path-10"></use>
                    <use fill="url(#linearGradient-9)" xlink:href="#path-10"></use>
                </g>
                <path d="M192,411.5 C161.348196,411.5 136.5,386.651804 136.5,356 C136.5,325.348196 161.348196,300.5 192,300.5 C222.651804,300.5 247.5,325.348196 247.5,356 C247.5,386.651804 222.651804,411.5 192,411.5 Z M192,390.5 C211.053824,390.5 226.5,375.053824 226.5,356 C226.5,336.946176 211.053824,321.5 192,321.5 C172.946176,321.5 157.5,336.946176 157.5,356 C157.5,375.053824 172.946176,390.5 192,390.5 Z" id="Detail" fill="#52C883" fill-rule="nonzero"></path>
                <path d="M230.733328,395.748986 C226.58037,399.796359 219.932689,399.710765 215.885316,395.557807 C211.837944,391.40485 211.923537,384.757168 216.076495,380.709796 C222.704669,374.250138 226.5,365.439848 226.5,356 C226.5,336.946176 211.053824,321.5 192,321.5 C186.20101,321.5 181.5,316.79899 181.5,311 C181.5,305.20101 186.20101,300.5 192,300.5 C222.651804,300.5 247.5,325.348196 247.5,356 C247.5,371.161904 241.376708,385.376205 230.733328,395.748986 Z" id="Detail" fill="#00A07D" fill-rule="nonzero"></path>
                <path d="M192,436.5 C147.541078,436.5 111.5,400.458922 111.5,356 C111.5,311.541078 147.541078,275.5 192,275.5 C236.458922,275.5 272.5,311.541078 272.5,356 C272.5,400.458922 236.458922,436.5 192,436.5 Z M192,415.5 C224.860943,415.5 251.5,388.860943 251.5,356 C251.5,323.139057 224.860943,296.5 192,296.5 C159.139057,296.5 132.5,323.139057 132.5,356 C132.5,388.860943 159.139057,415.5 192,415.5 Z" id="Detail" fill="#FEEC80" fill-rule="nonzero"></path>
                <path d="M125.662724,401.614283 C122.373366,396.838468 123.578378,390.300354 128.354193,387.010996 C133.130008,383.721639 139.668122,384.92665 142.95748,389.702465 C154.001782,405.737675 172.168523,415.5 192,415.5 C224.860943,415.5 251.5,388.860943 251.5,356 C251.5,323.139057 224.860943,296.5 192,296.5 C186.20101,296.5 181.5,291.79899 181.5,286 C181.5,280.20101 186.20101,275.5 192,275.5 C236.458922,275.5 272.5,311.541078 272.5,356 C272.5,400.458922 236.458922,436.5 192,436.5 C165.18555,436.5 140.585434,423.28055 125.662724,401.614283 Z" id="Detail" fill="#FFC62C" fill-rule="nonzero"></path>
                <path d="M192,461.5 C133.733959,461.5 86.5,414.266041 86.5,356 C86.5,297.733959 133.733959,250.5 192,250.5 C250.266041,250.5 297.5,297.733959 297.5,356 C297.5,414.266041 250.266041,461.5 192,461.5 Z M192,440.5 C238.668061,440.5 276.5,402.668061 276.5,356 C276.5,309.331939 238.668061,271.5 192,271.5 C145.331939,271.5 107.5,309.331939 107.5,356 C107.5,402.668061 145.331939,440.5 192,440.5 Z" id="Detail" fill="#E8799D" fill-rule="nonzero"></path>
                <path d="M86.5,356 C86.5,350.20101 91.2010101,345.5 97,345.5 C102.79899,345.5 107.5,350.20101 107.5,356 C107.5,402.668061 145.331939,440.5 192,440.5 C238.668061,440.5 276.5,402.668061 276.5,356 C276.5,309.331939 238.668061,271.5 192,271.5 C186.20101,271.5 181.5,266.79899 181.5,261 C181.5,255.20101 186.20101,250.5 192,250.5 C250.266041,250.5 297.5,297.733959 297.5,356 C297.5,414.266041 250.266041,461.5 192,461.5 C133.733959,461.5 86.5,414.266041 86.5,356 Z" id="Detail" fill="#C74D75" fill-rule="nonzero"></path>
                <path d="M192,483.5 C121.583694,483.5 64.5,426.416306 64.5,356 C64.5,285.583694 121.583694,228.5 192,228.5 C262.416306,228.5 319.5,285.583694 319.5,356 C319.5,426.416306 262.416306,483.5 192,483.5 Z M192,472.5 C256.341173,472.5 308.5,420.341173 308.5,356 C308.5,291.658827 256.341173,239.5 192,239.5 C127.658827,239.5 75.5,291.658827 75.5,356 C75.5,420.341173 127.658827,472.5 192,472.5 Z" id="Detail" fill="#6F7981" fill-rule="nonzero"></path>
                <circle id="Detail" fill="#6F7981" cx="295" cy="222" r="25"></circle>
                <circle id="Detail" fill="#6F7981" cx="89" cy="222" r="25"></circle>
                <path d="M181.822398,348.912148 L192.812169,356.324842 L191.13459,358.811955 L180.144819,351.399261 C178.655327,352.502799 176.573211,352.608834 174.948854,351.513191 L135.984088,325.231125 C133.923696,323.841373 133.380035,321.04448 134.769787,318.984088 C136.159539,316.923696 138.956432,316.380035 141.016824,317.769787 L179.98159,344.051853 C181.605947,345.147496 182.287607,347.117722 181.822398,348.912148 Z" id="Detail" fill="#E6E6EF"></path>
                <path d="M203.487732,351.22354 L192.763356,359.015256 L191,356.588205 L201.724377,348.796489 C201.196826,347.019392 201.809312,345.026576 203.394442,343.874912 L281.86909,286.859743 C283.879725,285.398931 286.693888,285.844651 288.1547,287.855286 C289.615512,289.86592 289.169792,292.680084 287.159157,294.140896 L208.684509,351.156065 C207.099379,352.307729 205.014831,352.274424 203.487732,351.22354 Z" id="Detail" fill="#E6E6EF"></path>
                <path d="M76.5,497 L307.5,497 C314.403559,497 320,502.596441 320,509.5 C320,516.403559 314.403559,522 307.5,522 L76.5,522 C69.5964406,522 64,516.403559 64,509.5 C64,502.596441 69.5964406,497 76.5,497 Z" id="Detail" fill="#6F7981"></path>
                <path d="M192,335 C193.104569,335 194,335.895431 194,337 L194,479 C194,480.104569 193.104569,481 192,481 C190.895431,481 190,480.104569 190,479 L190,337 C190,335.895431 190.895431,335 192,335 Z" id="Detail" fill="#FF6663"></path>
                <circle id="Detail" stroke="#FF6663" stroke-width="3" fill="#E6E6EF" cx="192" cy="356" r="7"></circle>
                <g id="Detail">
                    <use fill="#E6E6EF" xlink:href="#path-11"></use>
                    <use fill="url(#linearGradient-9)" xlink:href="#path-11"></use>
                </g>
            </g>
        </g>
    </g>
</svg>