<?xml version="1.0" encoding="UTF-8"?>
<svg width="779px" height="509px" viewBox="0 0 779 509" version="1.1" xmlns="http://www.w3.org/2000/svg" xmlns:xlink="http://www.w3.org/1999/xlink">
    <!-- Generator: Sketch 51 (57462) - http://www.bohemiancoding.com/sketch -->
    <title>Bike</title>
    <desc>Created with Sketch.</desc>
    <defs>
        <linearGradient x1="50%" y1="0%" x2="50%" y2="100%" id="linearGradient-1">
            <stop stop-color="#00A07D" stop-opacity="0" offset="0%"></stop>
            <stop stop-color="#000000" stop-opacity="0.1" offset="100%"></stop>
        </linearGradient>
        <path d="M152,259 C211.094468,259 259,211.094468 259,152 C259,92.9055318 211.094468,45 152,45 C92.9055318,45 45,92.9055318 45,152 C45,211.094468 92.9055318,259 152,259 Z M152,269 C87.3826843,269 35,216.617316 35,152 C35,87.3826843 87.3826843,35 152,35 C216.617316,35 269,87.3826843 269,152 C269,216.617316 216.617316,269 152,269 Z" id="path-2"></path>
        <linearGradient x1="50%" y1="0%" x2="50%" y2="100%" id="linearGradient-3">
            <stop stop-color="#393E41" stop-opacity="0" offset="0%"></stop>
            <stop stop-color="#000000" stop-opacity="0.2" offset="100%"></stop>
        </linearGradient>
        <path d="M152,269 C216.617316,269 269,216.617316 269,152 C269,87.3826843 216.617316,35 152,35 C87.3826843,35 35,87.3826843 35,152 C35,216.617316 87.3826843,269 152,269 Z M152,304 C68.052718,304 0,235.947282 0,152 C0,68.052718 68.052718,0 152,0 C235.947282,0 304,68.052718 304,152 C304,235.947282 235.947282,304 152,304 Z" id="path-4"></path>
        <circle id="path-5" cx="152" cy="152" r="36"></circle>
        <path d="M152,269 C216.617316,269 269,216.617316 269,152 C269,87.3826843 216.617316,35 152,35 C87.3826843,35 35,87.3826843 35,152 C35,216.617316 87.3826843,269 152,269 Z M152,304 C68.052718,304 0,235.947282 0,152 C0,68.052718 68.052718,0 152,0 C235.947282,0 304,68.052718 304,152 C304,235.947282 235.947282,304 152,304 Z" id="path-6"></path>
        <path d="M152,259 C211.094468,259 259,211.094468 259,152 C259,92.9055318 211.094468,45 152,45 C92.9055318,45 45,92.9055318 45,152 C45,211.094468 92.9055318,259 152,259 Z M152,269 C87.3826843,269 35,216.617316 35,152 C35,87.3826843 87.3826843,35 152,35 C216.617316,35 269,87.3826843 269,152 C269,216.617316 216.617316,269 152,269 Z" id="path-7"></path>
        <circle id="path-8" cx="152" cy="152" r="36"></circle>
        <path d="M545,202 L359,386 C356.745345,388.087403 353.503794,389.232559 350,389 L152,369 C145.905602,368.44062 141.49553,363.056716 142,357 C142.397297,354.085892 143.86268,351.392649 146,350 L290,235 L271,180 L250,118 L269,112 L323,269 C330.262703,268.180264 339.361599,266.064136 349,263 C367.34681,257.481506 386.685384,249.352542 405,239 C452.149216,213.021247 489.834866,176.392494 513,129 C510.595623,124.038136 508.674012,119.72492 507,116 C504.792826,110.992936 507.041674,105.076295 512,103 C517.073822,100.567319 522.957637,102.828713 525,108 C539.6985,140.492707 576.355575,222.175074 635,353 C637.424985,357.930565 635.202584,363.857303 630,366 C625.190676,368.41154 619.29682,366.176741 617,361 C587.575786,295.592398 563.669938,242.448702 545,202 Z M537,182 C531.933387,171.11977 527.388206,160.981716 523,152 C498.278936,196.73235 460.633655,231.490717 415,256 C385.373097,273.240875 352.554434,284.870741 330,289 L356,362 L537,182 Z M336,368 L296,254 L176,351 L336,368 Z" id="path-9"></path>
        <path d="M234,131 C216.555741,131 213,115.131647 213,108 C213,89.609359 217.158307,89.8779881 262.778787,95.2763656 C307.701243,99.8047365 329,87.8645068 329,106 C329,124.913994 280.405364,116.076753 270,122 C258.651159,128.121894 250.581247,131 234,131 Z" id="path-10"></path>
        <path d="M457.038879,24.7659749 C451.658565,25.9094571 446.366677,22.4903228 445.219117,17.1291247 C444.071558,11.7679266 447.502884,6.4948413 452.883199,5.35135909 C477.426171,0.135223293 496.360827,-1.31668346 510.061255,1.21329449 C526.248034,4.20241248 536.373937,13.2614458 537.774474,27.5561621 C538.855799,38.5928208 536.019047,46.6602086 529.128886,57.7479856 C528.780393,58.3087863 528.421823,58.8797021 527.957087,59.6152382 C527.873722,59.7471798 527.052607,61.044896 526.814037,61.4230988 C521.90698,69.202193 519.913858,73.4604373 519.061061,79.0449407 C517.917804,86.5315113 519.484715,95.5169137 524.782361,107.327443 C527.027206,112.332083 508.83918,120.432501 506.594336,115.427862 C499.828041,100.343137 497.604445,87.5919993 499.365678,76.0586388 C500.734619,67.094185 503.693172,60.7733294 509.947171,50.858944 C510.19456,50.466762 511.021296,49.1601612 511.098044,49.0386919 C511.538623,48.3413906 511.873088,47.8088542 512.191067,47.2971567 C516.993393,39.569163 518.511621,35.2515008 517.946647,29.4850289 C517.494481,24.8699567 514.544113,22.2304409 506.431053,20.7322494 C495.83164,18.7749178 479.242886,20.0469411 457.038879,24.7659749 Z" id="path-11"></path>
        <path d="M330.578917,436 L344.343623,378.802947 C344.98779,376.126213 347.639582,374.488382 350.266567,375.144748 C352.893553,375.801114 354.500944,378.503125 353.856777,381.179859 L340.664085,436 L350.5,436 C355.19442,436 359,439.80558 359,444.5 C359,449.19442 355.19442,453 350.5,453 L318.5,453 C313.80558,453 310,449.19442 310,444.5 C310,439.80558 313.80558,436 318.5,436 L330.578917,436 Z" id="path-12"></path>
        <path d="M38,66 C53.463973,66 66,53.463973 66,38 C66,22.536027 53.463973,10 38,10 C22.536027,10 10,22.536027 10,38 C10,53.463973 22.536027,66 38,66 Z M38,76 C17.0131795,76 0,58.9868205 0,38 C0,17.0131795 17.0131795,0 38,0 C58.9868205,0 76,17.0131795 76,38 C76,58.9868205 58.9868205,76 38,76 Z" id="path-13"></path>
        <circle id="path-14" cx="38" cy="38" r="28"></circle>
        <path d="M358.333585,321 L348.5,321 C343.80558,321 340,317.19442 340,312.5 C340,307.80558 343.80558,304 348.5,304 L380.5,304 C385.19442,304 389,307.80558 389,312.5 C389,317.19442 385.19442,321 380.5,321 L368.418753,321 L354.654047,378.197053 C354.00988,380.873787 351.358087,382.511618 348.731102,381.855252 C346.104117,381.198886 344.496725,378.496875 345.140892,375.820141 L358.333585,321 Z" id="path-15"></path>
        <path d="M675.635791,172.050644 C674.033296,175.667704 670.449058,178 666.492909,178 L584.507091,178 C580.550942,178 576.966704,175.667704 575.364209,172.050644 L543,99 L521,99 C518.238576,99 516,96.7614237 516,94 C516,91.2385763 518.238576,89 521,89 L702,89 C705.313708,89 708,91.6862915 708,95 L675.635791,172.050644 Z" id="path-16"></path>
    </defs>
    <g id="Handsome" stroke="none" stroke-width="1" fill="none" fill-rule="evenodd">
        <g id="Primary" transform="translate(-1241.000000, -8575.000000)">
            <g id="Bike" transform="translate(1241.000000, 8575.000000)">
                <g id="Whell-R" transform="translate(475.000000, 205.000000)">
                    <g id="Detail" fill-rule="nonzero">
                        <use fill="#00A07D" xlink:href="#path-2"></use>
                        <use fill="url(#linearGradient-1)" xlink:href="#path-2"></use>
                    </g>
                    <g id="Detail" fill-rule="nonzero">
                        <use fill="#393E41" xlink:href="#path-4"></use>
                        <use fill="url(#linearGradient-3)" xlink:href="#path-4"></use>
                    </g>
                    <g id="Detail">
                        <use fill="#393E41" xlink:href="#path-5"></use>
                        <use fill="url(#linearGradient-3)" xlink:href="#path-5"></use>
                    </g>
                </g>
                <g id="Wheel-L" transform="translate(0.000000, 205.000000)">
                    <g id="Detail" fill-rule="nonzero">
                        <use fill="#393E41" xlink:href="#path-6"></use>
                        <use fill="url(#linearGradient-3)" xlink:href="#path-6"></use>
                    </g>
                    <g id="Detail" fill-rule="nonzero">
                        <use fill="#00A07D" xlink:href="#path-7"></use>
                        <use fill="url(#linearGradient-1)" xlink:href="#path-7"></use>
                    </g>
                    <g id="Detail">
                        <use fill="#393E41" xlink:href="#path-8"></use>
                        <use fill="url(#linearGradient-3)" xlink:href="#path-8"></use>
                    </g>
                </g>
                <g id="Detail" fill-rule="nonzero">
                    <use fill="#00A07D" xlink:href="#path-9"></use>
                    <use fill="url(#linearGradient-1)" xlink:href="#path-9"></use>
                </g>
                <g id="Dedail">
                    <use fill="#393E41" xlink:href="#path-10"></use>
                    <use fill="url(#linearGradient-3)" xlink:href="#path-10"></use>
                </g>
                <g id="Detail" fill-rule="nonzero">
                    <use fill="#393E41" xlink:href="#path-11"></use>
                    <use fill="url(#linearGradient-3)" xlink:href="#path-11"></use>
                </g>
                <g id="Pedal" fill-rule="nonzero">
                    <use fill="#393E41" xlink:href="#path-12"></use>
                    <use fill="url(#linearGradient-3)" xlink:href="#path-12"></use>
                </g>
                <g id="Detail" transform="translate(312.000000, 340.000000)">
                    <g fill-rule="nonzero">
                        <use fill="#393E41" xlink:href="#path-13"></use>
                        <use fill="url(#linearGradient-3)" xlink:href="#path-13"></use>
                    </g>
                    <g>
                        <use fill="#00A07D" xlink:href="#path-14"></use>
                        <use fill="url(#linearGradient-1)" xlink:href="#path-14"></use>
                    </g>
                </g>
                <g id="Pedal" fill-rule="nonzero">
                    <use fill="#393E41" xlink:href="#path-15"></use>
                    <use fill="url(#linearGradient-3)" xlink:href="#path-15"></use>
                </g>
                <g id="Basket">
                    <use fill="#393E41" xlink:href="#path-16"></use>
                    <use fill="url(#linearGradient-3)" xlink:href="#path-16"></use>
                </g>
            </g>
        </g>
    </g>
</svg>