<?xml version="1.0" encoding="UTF-8"?>
<svg width="673px" height="450px" viewBox="0 0 673 450" version="1.1" xmlns="http://www.w3.org/2000/svg" xmlns:xlink="http://www.w3.org/1999/xlink">
    <!-- Generator: Sketch 51 (57462) - http://www.bohemiancoding.com/sketch -->
    <title>Calendar</title>
    <desc>Created with Sketch.</desc>
    <defs>
        <linearGradient x1="50%" y1="0%" x2="50%" y2="100%" id="linearGradient-1">
            <stop stop-color="#B6C5D9" stop-opacity="0" offset="0%"></stop>
            <stop stop-color="#403F9F" stop-opacity="0.05" offset="100%"></stop>
        </linearGradient>
        <linearGradient x1="0%" y1="1.70790843%" x2="100%" y2="100%" id="linearGradient-2">
            <stop stop-color="#000000" stop-opacity="0.1" offset="0%"></stop>
            <stop stop-color="#B6C5D9" stop-opacity="0" offset="100%"></stop>
        </linearGradient>
        <path d="M596,105 L671.959593,437.774625 C673.188634,443.158982 669.820084,448.5202 664.435727,449.749241 C663.705664,449.915886 662.959193,450 662.210352,450 L596,450 L596,105 Z" id="path-3"></path>
        <linearGradient x1="50%" y1="0%" x2="50%" y2="100%" id="linearGradient-4">
            <stop stop-color="#F2F5F9" stop-opacity="0" offset="0%"></stop>
            <stop stop-color="#B6C5D9" stop-opacity="0.05" offset="100%"></stop>
        </linearGradient>
        <rect id="path-5" x="0" y="39" width="606" height="411"></rect>
        <linearGradient x1="50%" y1="0%" x2="50%" y2="100%" id="linearGradient-6">
            <stop stop-color="#403F9F" stop-opacity="0" offset="0%"></stop>
            <stop stop-color="#000000" stop-opacity="0.1" offset="100%"></stop>
        </linearGradient>
        <path d="M10,39 L596,39 C601.522847,39 606,43.4771525 606,49 L606,105 L0,105 L-1.77635684e-15,49 C-2.45271059e-15,43.4771525 4.4771525,39 10,39 Z" id="path-7"></path>
        <linearGradient x1="50%" y1="0%" x2="50%" y2="100%" id="linearGradient-8">
            <stop stop-color="#A7A7EE" stop-opacity="0" offset="0%"></stop>
            <stop stop-color="#403F9F" stop-opacity="0.1" offset="100%"></stop>
        </linearGradient>
        <path d="M39.5,39.5 L28.5,39.5 C28.5,31.041104 27.130839,23.1796722 24.8137654,17.5524934 C23.785678,15.0557098 22.6313985,13.1618711 21.508519,12.0084503 C21.0770823,11.5652789 20.6912804,11.273858 20.3738085,11.1160879 C20.1948566,11.0271564 20.0847489,11 20,11 C19.9152511,11 19.8051434,11.0271564 19.6261915,11.1160879 C19.3087196,11.273858 18.9229177,11.5652789 18.491481,12.0084503 C17.3686015,13.1618711 16.214322,15.0557098 15.1862346,17.5524934 C12.869161,23.1796722 11.5,31.041104 11.5,39.5 C11.5,47.958896 12.869161,55.8203278 15.1862346,61.4475066 C16.214322,63.9442902 17.3686015,65.8381289 18.491481,66.9915497 C18.9229177,67.4347211 19.3087196,67.726142 19.6261915,67.8839121 C19.8051434,67.9728436 19.9152511,68 20,68 L20,79 C7.89614921,79 0.5,61.0379233 0.5,39.5 C0.5,17.9620767 7.89614921,0 20,0 C32.1038508,0 39.5,17.9620767 39.5,39.5 Z" id="path-9"></path>
        <circle id="path-10" cx="13" cy="13" r="13"></circle>
        <path d="M13,20 C0.896149212,20 -6.5,2.03792334 -6.5,-19.5 C-6.5,-41.0379233 0.896149212,-59 13,-59 C25.1038508,-59 32.5,-41.0379233 32.5,-19.5 C32.5,-9.25693063 30.7434386,0.382412297 27.6101351,7.51782731 C24.2514784,15.1664349 19.3202375,20 13,20 Z M13,9 C13.0794132,9 13.1807252,8.97607003 13.3438124,8.89850162 C13.6335922,8.76067491 13.98748,8.50513471 14.386918,8.11360852 C15.4398291,7.08155303 16.5388755,5.37134015 17.5384053,3.09512917 C20.0148913,-2.54452717 21.5,-10.694241 21.5,-19.5 C21.5,-27.958896 20.130839,-35.8203278 17.8137654,-41.4475066 C16.785678,-43.9442902 15.6313985,-45.8381289 14.508519,-46.9915497 C14.0770823,-47.4347211 13.6912804,-47.726142 13.3738085,-47.8839121 C13.1948566,-47.9728436 13.0847489,-48 13,-48 C12.9152511,-48 12.8051434,-47.9728436 12.6261915,-47.8839121 C12.3087196,-47.726142 11.9229177,-47.4347211 11.491481,-46.9915497 C10.3686015,-45.8381289 9.21432196,-43.9442902 8.18623461,-41.4475066 C5.86916099,-35.8203278 4.5,-27.958896 4.5,-19.5 C4.5,-11.041104 5.86916099,-3.17967215 8.18623461,2.44750663 C9.21432196,4.94429021 10.3686015,6.83812887 11.491481,7.99154967 C11.9229177,8.43472108 12.3087196,8.72614196 12.6261915,8.88391205 C12.8051434,8.9728436 12.9152511,9 13,9 Z" id="path-12"></path>
        <path d="M39.5,39.5 L28.5,39.5 C28.5,31.041104 27.130839,23.1796722 24.8137654,17.5524934 C23.785678,15.0557098 22.6313985,13.1618711 21.508519,12.0084503 C21.0770823,11.5652789 20.6912804,11.273858 20.3738085,11.1160879 C20.1948566,11.0271564 20.0847489,11 20,11 C19.9152511,11 19.8051434,11.0271564 19.6261915,11.1160879 C19.3087196,11.273858 18.9229177,11.5652789 18.491481,12.0084503 C17.3686015,13.1618711 16.214322,15.0557098 15.1862346,17.5524934 C12.869161,23.1796722 11.5,31.041104 11.5,39.5 C11.5,47.958896 12.869161,55.8203278 15.1862346,61.4475066 C16.214322,63.9442902 17.3686015,65.8381289 18.491481,66.9915497 C18.9229177,67.4347211 19.3087196,67.726142 19.6261915,67.8839121 C19.8051434,67.9728436 19.9152511,68 20,68 L20,79 C7.89614921,79 0.5,61.0379233 0.5,39.5 C0.5,17.9620767 7.89614921,0 20,0 C32.1038508,0 39.5,17.9620767 39.5,39.5 Z" id="path-13"></path>
        <circle id="path-14" cx="13" cy="13" r="13"></circle>
        <path d="M13,20 C0.896149212,20 -6.5,2.03792334 -6.5,-19.5 C-6.5,-41.0379233 0.896149212,-59 13,-59 C25.1038508,-59 32.5,-41.0379233 32.5,-19.5 C32.5,-9.25693063 30.7434386,0.382412297 27.6101351,7.51782731 C24.2514784,15.1664349 19.3202375,20 13,20 Z M13,9 C13.0794132,9 13.1807252,8.97607003 13.3438124,8.89850162 C13.6335922,8.76067491 13.98748,8.50513471 14.386918,8.11360852 C15.4398291,7.08155303 16.5388755,5.37134015 17.5384053,3.09512917 C20.0148913,-2.54452717 21.5,-10.694241 21.5,-19.5 C21.5,-27.958896 20.130839,-35.8203278 17.8137654,-41.4475066 C16.785678,-43.9442902 15.6313985,-45.8381289 14.508519,-46.9915497 C14.0770823,-47.4347211 13.6912804,-47.726142 13.3738085,-47.8839121 C13.1948566,-47.9728436 13.0847489,-48 13,-48 C12.9152511,-48 12.8051434,-47.9728436 12.6261915,-47.8839121 C12.3087196,-47.726142 11.9229177,-47.4347211 11.491481,-46.9915497 C10.3686015,-45.8381289 9.21432196,-43.9442902 8.18623461,-41.4475066 C5.86916099,-35.8203278 4.5,-27.958896 4.5,-19.5 C4.5,-11.041104 5.86916099,-3.17967215 8.18623461,2.44750663 C9.21432196,4.94429021 10.3686015,6.83812887 11.491481,7.99154967 C11.9229177,8.43472108 12.3087196,8.72614196 12.6261915,8.88391205 C12.8051434,8.9728436 12.9152511,9 13,9 Z" id="path-16"></path>
        <path d="M39.5,39.5 L28.5,39.5 C28.5,31.041104 27.130839,23.1796722 24.8137654,17.5524934 C23.785678,15.0557098 22.6313985,13.1618711 21.508519,12.0084503 C21.0770823,11.5652789 20.6912804,11.273858 20.3738085,11.1160879 C20.1948566,11.0271564 20.0847489,11 20,11 C19.9152511,11 19.8051434,11.0271564 19.6261915,11.1160879 C19.3087196,11.273858 18.9229177,11.5652789 18.491481,12.0084503 C17.3686015,13.1618711 16.214322,15.0557098 15.1862346,17.5524934 C12.869161,23.1796722 11.5,31.041104 11.5,39.5 C11.5,47.958896 12.869161,55.8203278 15.1862346,61.4475066 C16.214322,63.9442902 17.3686015,65.8381289 18.491481,66.9915497 C18.9229177,67.4347211 19.3087196,67.726142 19.6261915,67.8839121 C19.8051434,67.9728436 19.9152511,68 20,68 L20,79 C7.89614921,79 0.5,61.0379233 0.5,39.5 C0.5,17.9620767 7.89614921,0 20,0 C32.1038508,0 39.5,17.9620767 39.5,39.5 Z" id="path-17"></path>
        <circle id="path-18" cx="13" cy="13" r="13"></circle>
        <path d="M13,20 C0.896149212,20 -6.5,2.03792334 -6.5,-19.5 C-6.5,-41.0379233 0.896149212,-59 13,-59 C25.1038508,-59 32.5,-41.0379233 32.5,-19.5 C32.5,-9.25693063 30.7434386,0.382412297 27.6101351,7.51782731 C24.2514784,15.1664349 19.3202375,20 13,20 Z M13,9 C13.0794132,9 13.1807252,8.97607003 13.3438124,8.89850162 C13.6335922,8.76067491 13.98748,8.50513471 14.386918,8.11360852 C15.4398291,7.08155303 16.5388755,5.37134015 17.5384053,3.09512917 C20.0148913,-2.54452717 21.5,-10.694241 21.5,-19.5 C21.5,-27.958896 20.130839,-35.8203278 17.8137654,-41.4475066 C16.785678,-43.9442902 15.6313985,-45.8381289 14.508519,-46.9915497 C14.0770823,-47.4347211 13.6912804,-47.726142 13.3738085,-47.8839121 C13.1948566,-47.9728436 13.0847489,-48 13,-48 C12.9152511,-48 12.8051434,-47.9728436 12.6261915,-47.8839121 C12.3087196,-47.726142 11.9229177,-47.4347211 11.491481,-46.9915497 C10.3686015,-45.8381289 9.21432196,-43.9442902 8.18623461,-41.4475066 C5.86916099,-35.8203278 4.5,-27.958896 4.5,-19.5 C4.5,-11.041104 5.86916099,-3.17967215 8.18623461,2.44750663 C9.21432196,4.94429021 10.3686015,6.83812887 11.491481,7.99154967 C11.9229177,8.43472108 12.3087196,8.72614196 12.6261915,8.88391205 C12.8051434,8.9728436 12.9152511,9 13,9 Z" id="path-20"></path>
        <path d="M39.5,39.5 L28.5,39.5 C28.5,31.041104 27.130839,23.1796722 24.8137654,17.5524934 C23.785678,15.0557098 22.6313985,13.1618711 21.508519,12.0084503 C21.0770823,11.5652789 20.6912804,11.273858 20.3738085,11.1160879 C20.1948566,11.0271564 20.0847489,11 20,11 C19.9152511,11 19.8051434,11.0271564 19.6261915,11.1160879 C19.3087196,11.273858 18.9229177,11.5652789 18.491481,12.0084503 C17.3686015,13.1618711 16.214322,15.0557098 15.1862346,17.5524934 C12.869161,23.1796722 11.5,31.041104 11.5,39.5 C11.5,47.958896 12.869161,55.8203278 15.1862346,61.4475066 C16.214322,63.9442902 17.3686015,65.8381289 18.491481,66.9915497 C18.9229177,67.4347211 19.3087196,67.726142 19.6261915,67.8839121 C19.8051434,67.9728436 19.9152511,68 20,68 L20,79 C7.89614921,79 0.5,61.0379233 0.5,39.5 C0.5,17.9620767 7.89614921,0 20,0 C32.1038508,0 39.5,17.9620767 39.5,39.5 Z" id="path-21"></path>
        <circle id="path-22" cx="13" cy="13" r="13"></circle>
        <path d="M13,20 C0.896149212,20 -6.5,2.03792334 -6.5,-19.5 C-6.5,-41.0379233 0.896149212,-59 13,-59 C25.1038508,-59 32.5,-41.0379233 32.5,-19.5 C32.5,-9.25693063 30.7434386,0.382412297 27.6101351,7.51782731 C24.2514784,15.1664349 19.3202375,20 13,20 Z M13,9 C13.0794132,9 13.1807252,8.97607003 13.3438124,8.89850162 C13.6335922,8.76067491 13.98748,8.50513471 14.386918,8.11360852 C15.4398291,7.08155303 16.5388755,5.37134015 17.5384053,3.09512917 C20.0148913,-2.54452717 21.5,-10.694241 21.5,-19.5 C21.5,-27.958896 20.130839,-35.8203278 17.8137654,-41.4475066 C16.785678,-43.9442902 15.6313985,-45.8381289 14.508519,-46.9915497 C14.0770823,-47.4347211 13.6912804,-47.726142 13.3738085,-47.8839121 C13.1948566,-47.9728436 13.0847489,-48 13,-48 C12.9152511,-48 12.8051434,-47.9728436 12.6261915,-47.8839121 C12.3087196,-47.726142 11.9229177,-47.4347211 11.491481,-46.9915497 C10.3686015,-45.8381289 9.21432196,-43.9442902 8.18623461,-41.4475066 C5.86916099,-35.8203278 4.5,-27.958896 4.5,-19.5 C4.5,-11.041104 5.86916099,-3.17967215 8.18623461,2.44750663 C9.21432196,4.94429021 10.3686015,6.83812887 11.491481,7.99154967 C11.9229177,8.43472108 12.3087196,8.72614196 12.6261915,8.88391205 C12.8051434,8.9728436 12.9152511,9 13,9 Z" id="path-24"></path>
        <path d="M39.5,39.5 L28.5,39.5 C28.5,31.041104 27.130839,23.1796722 24.8137654,17.5524934 C23.785678,15.0557098 22.6313985,13.1618711 21.508519,12.0084503 C21.0770823,11.5652789 20.6912804,11.273858 20.3738085,11.1160879 C20.1948566,11.0271564 20.0847489,11 20,11 C19.9152511,11 19.8051434,11.0271564 19.6261915,11.1160879 C19.3087196,11.273858 18.9229177,11.5652789 18.491481,12.0084503 C17.3686015,13.1618711 16.214322,15.0557098 15.1862346,17.5524934 C12.869161,23.1796722 11.5,31.041104 11.5,39.5 C11.5,47.958896 12.869161,55.8203278 15.1862346,61.4475066 C16.214322,63.9442902 17.3686015,65.8381289 18.491481,66.9915497 C18.9229177,67.4347211 19.3087196,67.726142 19.6261915,67.8839121 C19.8051434,67.9728436 19.9152511,68 20,68 L20,79 C7.89614921,79 0.5,61.0379233 0.5,39.5 C0.5,17.9620767 7.89614921,0 20,0 C32.1038508,0 39.5,17.9620767 39.5,39.5 Z" id="path-25"></path>
        <circle id="path-26" cx="13" cy="13" r="13"></circle>
        <path d="M13,20 C0.896149212,20 -6.5,2.03792334 -6.5,-19.5 C-6.5,-41.0379233 0.896149212,-59 13,-59 C25.1038508,-59 32.5,-41.0379233 32.5,-19.5 C32.5,-9.25693063 30.7434386,0.382412297 27.6101351,7.51782731 C24.2514784,15.1664349 19.3202375,20 13,20 Z M13,9 C13.0794132,9 13.1807252,8.97607003 13.3438124,8.89850162 C13.6335922,8.76067491 13.98748,8.50513471 14.386918,8.11360852 C15.4398291,7.08155303 16.5388755,5.37134015 17.5384053,3.09512917 C20.0148913,-2.54452717 21.5,-10.694241 21.5,-19.5 C21.5,-27.958896 20.130839,-35.8203278 17.8137654,-41.4475066 C16.785678,-43.9442902 15.6313985,-45.8381289 14.508519,-46.9915497 C14.0770823,-47.4347211 13.6912804,-47.726142 13.3738085,-47.8839121 C13.1948566,-47.9728436 13.0847489,-48 13,-48 C12.9152511,-48 12.8051434,-47.9728436 12.6261915,-47.8839121 C12.3087196,-47.726142 11.9229177,-47.4347211 11.491481,-46.9915497 C10.3686015,-45.8381289 9.21432196,-43.9442902 8.18623461,-41.4475066 C5.86916099,-35.8203278 4.5,-27.958896 4.5,-19.5 C4.5,-11.041104 5.86916099,-3.17967215 8.18623461,2.44750663 C9.21432196,4.94429021 10.3686015,6.83812887 11.491481,7.99154967 C11.9229177,8.43472108 12.3087196,8.72614196 12.6261915,8.88391205 C12.8051434,8.9728436 12.9152511,9 13,9 Z" id="path-28"></path>
        <path d="M39.5,39.5 L28.5,39.5 C28.5,31.041104 27.130839,23.1796722 24.8137654,17.5524934 C23.785678,15.0557098 22.6313985,13.1618711 21.508519,12.0084503 C21.0770823,11.5652789 20.6912804,11.273858 20.3738085,11.1160879 C20.1948566,11.0271564 20.0847489,11 20,11 C19.9152511,11 19.8051434,11.0271564 19.6261915,11.1160879 C19.3087196,11.273858 18.9229177,11.5652789 18.491481,12.0084503 C17.3686015,13.1618711 16.214322,15.0557098 15.1862346,17.5524934 C12.869161,23.1796722 11.5,31.041104 11.5,39.5 C11.5,47.958896 12.869161,55.8203278 15.1862346,61.4475066 C16.214322,63.9442902 17.3686015,65.8381289 18.491481,66.9915497 C18.9229177,67.4347211 19.3087196,67.726142 19.6261915,67.8839121 C19.8051434,67.9728436 19.9152511,68 20,68 L20,79 C7.89614921,79 0.5,61.0379233 0.5,39.5 C0.5,17.9620767 7.89614921,0 20,0 C32.1038508,0 39.5,17.9620767 39.5,39.5 Z" id="path-29"></path>
        <circle id="path-30" cx="13" cy="13" r="13"></circle>
        <path d="M13,20 C0.896149212,20 -6.5,2.03792334 -6.5,-19.5 C-6.5,-41.0379233 0.896149212,-59 13,-59 C25.1038508,-59 32.5,-41.0379233 32.5,-19.5 C32.5,-9.25693063 30.7434386,0.382412297 27.6101351,7.51782731 C24.2514784,15.1664349 19.3202375,20 13,20 Z M13,9 C13.0794132,9 13.1807252,8.97607003 13.3438124,8.89850162 C13.6335922,8.76067491 13.98748,8.50513471 14.386918,8.11360852 C15.4398291,7.08155303 16.5388755,5.37134015 17.5384053,3.09512917 C20.0148913,-2.54452717 21.5,-10.694241 21.5,-19.5 C21.5,-27.958896 20.130839,-35.8203278 17.8137654,-41.4475066 C16.785678,-43.9442902 15.6313985,-45.8381289 14.508519,-46.9915497 C14.0770823,-47.4347211 13.6912804,-47.726142 13.3738085,-47.8839121 C13.1948566,-47.9728436 13.0847489,-48 13,-48 C12.9152511,-48 12.8051434,-47.9728436 12.6261915,-47.8839121 C12.3087196,-47.726142 11.9229177,-47.4347211 11.491481,-46.9915497 C10.3686015,-45.8381289 9.21432196,-43.9442902 8.18623461,-41.4475066 C5.86916099,-35.8203278 4.5,-27.958896 4.5,-19.5 C4.5,-11.041104 5.86916099,-3.17967215 8.18623461,2.44750663 C9.21432196,4.94429021 10.3686015,6.83812887 11.491481,7.99154967 C11.9229177,8.43472108 12.3087196,8.72614196 12.6261915,8.88391205 C12.8051434,8.9728436 12.9152511,9 13,9 Z" id="path-32"></path>
        <path d="M39.5,39.5 L28.5,39.5 C28.5,31.041104 27.130839,23.1796722 24.8137654,17.5524934 C23.785678,15.0557098 22.6313985,13.1618711 21.508519,12.0084503 C21.0770823,11.5652789 20.6912804,11.273858 20.3738085,11.1160879 C20.1948566,11.0271564 20.0847489,11 20,11 C19.9152511,11 19.8051434,11.0271564 19.6261915,11.1160879 C19.3087196,11.273858 18.9229177,11.5652789 18.491481,12.0084503 C17.3686015,13.1618711 16.214322,15.0557098 15.1862346,17.5524934 C12.869161,23.1796722 11.5,31.041104 11.5,39.5 C11.5,47.958896 12.869161,55.8203278 15.1862346,61.4475066 C16.214322,63.9442902 17.3686015,65.8381289 18.491481,66.9915497 C18.9229177,67.4347211 19.3087196,67.726142 19.6261915,67.8839121 C19.8051434,67.9728436 19.9152511,68 20,68 L20,79 C7.89614921,79 0.5,61.0379233 0.5,39.5 C0.5,17.9620767 7.89614921,0 20,0 C32.1038508,0 39.5,17.9620767 39.5,39.5 Z" id="path-33"></path>
        <circle id="path-34" cx="13" cy="13" r="13"></circle>
        <path d="M13,20 C0.896149212,20 -6.5,2.03792334 -6.5,-19.5 C-6.5,-41.0379233 0.896149212,-59 13,-59 C25.1038508,-59 32.5,-41.0379233 32.5,-19.5 C32.5,-9.25693063 30.7434386,0.382412297 27.6101351,7.51782731 C24.2514784,15.1664349 19.3202375,20 13,20 Z M13,9 C13.0794132,9 13.1807252,8.97607003 13.3438124,8.89850162 C13.6335922,8.76067491 13.98748,8.50513471 14.386918,8.11360852 C15.4398291,7.08155303 16.5388755,5.37134015 17.5384053,3.09512917 C20.0148913,-2.54452717 21.5,-10.694241 21.5,-19.5 C21.5,-27.958896 20.130839,-35.8203278 17.8137654,-41.4475066 C16.785678,-43.9442902 15.6313985,-45.8381289 14.508519,-46.9915497 C14.0770823,-47.4347211 13.6912804,-47.726142 13.3738085,-47.8839121 C13.1948566,-47.9728436 13.0847489,-48 13,-48 C12.9152511,-48 12.8051434,-47.9728436 12.6261915,-47.8839121 C12.3087196,-47.726142 11.9229177,-47.4347211 11.491481,-46.9915497 C10.3686015,-45.8381289 9.21432196,-43.9442902 8.18623461,-41.4475066 C5.86916099,-35.8203278 4.5,-27.958896 4.5,-19.5 C4.5,-11.041104 5.86916099,-3.17967215 8.18623461,2.44750663 C9.21432196,4.94429021 10.3686015,6.83812887 11.491481,7.99154967 C11.9229177,8.43472108 12.3087196,8.72614196 12.6261915,8.88391205 C12.8051434,8.9728436 12.9152511,9 13,9 Z" id="path-36"></path>
    </defs>
    <g id="Handsome" stroke="none" stroke-width="1" fill="none" fill-rule="evenodd">
        <g id="Primary" transform="translate(-1294.000000, -10920.000000)">
            <g id="Calendar" transform="translate(1294.000000, 10920.000000)">
                <g id="Detail">
                    <use fill="#B6C5D9" xlink:href="#path-3"></use>
                    <use fill="url(#linearGradient-1)" xlink:href="#path-3"></use>
                    <use fill="url(#linearGradient-2)" xlink:href="#path-3"></use>
                </g>
                <g id="Detail">
                    <use fill="#F2F5F9" xlink:href="#path-5"></use>
                    <use fill="url(#linearGradient-4)" xlink:href="#path-5"></use>
                </g>
                <g id="Date" transform="translate(25.000000, 127.000000)" fill="#D6DFEA">
                    <rect x="320" y="0" width="76" height="57"></rect>
                    <rect x="320" y="61" width="76" height="57"></rect>
                    <rect x="400" y="0" width="76" height="57"></rect>
                    <rect x="400" y="61" width="76" height="57"></rect>
                    <rect x="480" y="0" width="76" height="57"></rect>
                    <rect x="480" y="61" width="76" height="57"></rect>
                    <rect x="0" y="122" width="76" height="57"></rect>
                    <rect x="80" y="122" width="76" height="57"></rect>
                    <rect x="160" y="122" width="76" height="57"></rect>
                    <rect x="240" y="122" width="76" height="57"></rect>
                    <rect x="320" y="122" width="76" height="57"></rect>
                    <rect x="400" y="122" width="76" height="57"></rect>
                    <rect x="480" y="122" width="76" height="57"></rect>
                    <rect x="0" y="183" width="76" height="57"></rect>
                    <rect x="80" y="183" width="76" height="57"></rect>
                    <rect x="160" y="183" width="76" height="57"></rect>
                    <rect x="240" y="183" width="76" height="57"></rect>
                    <rect x="320" y="183" width="76" height="57"></rect>
                    <rect x="400" y="183" width="76" height="57"></rect>
                    <rect x="480" y="183" width="76" height="57"></rect>
                    <rect x="0" y="244" width="76" height="57"></rect>
                    <rect x="80" y="244" width="76" height="57"></rect>
                    <rect x="160" y="244" width="76" height="57"></rect>
                    <rect x="240" y="244" width="76" height="57"></rect>
                    <rect x="320" y="244" width="76" height="57"></rect>
                    <rect x="0" y="61" width="76" height="57"></rect>
                    <rect x="80" y="61" width="76" height="57"></rect>
                    <rect x="160" y="61" width="76" height="57"></rect>
                    <rect x="240" y="0" width="76" height="57"></rect>
                    <rect x="240" y="61" width="76" height="57"></rect>
                </g>
                <rect id="Detail" fill="#B6C5D9" x="115" y="396" width="38" height="10" rx="5"></rect>
                <rect id="Detail" fill="#B6C5D9" x="115" y="381" width="56" height="10" rx="5"></rect>
                <path d="M53.5,325 L312.5,325 C319.955844,325 326,331.044156 326,338.5 C326,345.955844 319.955844,352 312.5,352 L53.5,352 C46.0441559,352 40,345.955844 40,338.5 C40,331.044156 46.0441559,325 53.5,325 Z" id="Detail" fill="#B6C5D9"></path>
                <path d="M133.5,264 L552.5,264 C559.955844,264 566,270.044156 566,277.5 C566,284.955844 559.955844,291 552.5,291 L133.5,291 C126.044156,291 120,284.955844 120,277.5 C120,270.044156 126.044156,264 133.5,264 Z" id="Detail" fill="#B6C5D9"></path>
                <path d="M303,208.5 C304.292416,204.804928 307.945446,202 312,202 C317.634776,202 322,206.389355 322,212 C322,223.185451 305.656263,231 303,231 C300.343737,231 284,223.185451 284,212 C284,206.389358 288.365224,202 294,202 C298.054554,202 301.707584,204.804928 303,208.5 Z" id="Heart" fill="#B6C5D9"></path>
                <path d="M542.534151,168.412436 L531.81499,174.055681 C531.326292,174.312962 530.721558,174.125362 530.464277,173.636665 C530.361771,173.44196 530.326347,173.218882 530.363494,173.002 L532.411348,161.045466 C532.466855,160.721383 532.359501,160.390721 532.12421,160.161049 L523.448334,151.692383 C523.053119,151.306607 523.045467,150.673488 523.431243,150.278273 C523.584647,150.121115 523.785521,150.018828 524.002849,149.987204 L535.990167,148.242919 C536.315992,148.195508 536.597599,147.990747 536.743153,147.695411 L542.10302,136.820012 C542.347169,136.324623 542.946682,136.120953 543.442071,136.365102 C543.639676,136.46249 543.799592,136.622406 543.89698,136.820012 L549.256847,147.695411 C549.402401,147.990747 549.684008,148.195508 550.009833,148.242919 L561.997151,149.987204 C562.54368,150.06673 562.922261,150.574248 562.842735,151.120777 C562.811111,151.338105 562.708824,151.538979 562.551666,151.692383 L553.87579,160.161049 C553.640499,160.390721 553.533145,160.721383 553.588652,161.045466 L555.636506,173.002 C555.729741,173.546358 555.364034,174.063229 554.819676,174.156464 C554.602794,174.193611 554.379716,174.158186 554.18501,174.055681 L543.465849,168.412436 C543.174254,168.258922 542.825746,168.258922 542.534151,168.412436 Z" id="Star" fill="#B6C5D9"></path>
                <g id="Detail">
                    <use fill="#403F9F" xlink:href="#path-7"></use>
                    <use fill="url(#linearGradient-6)" xlink:href="#path-7"></use>
                </g>
                <g id="Details" transform="translate(52.000000, 0.000000)">
                    <g id="Detail">
                        <g fill-rule="nonzero">
                            <use fill="#A7A7EE" xlink:href="#path-9"></use>
                            <use fill="url(#linearGradient-8)" xlink:href="#path-9"></use>
                        </g>
                        <g transform="translate(7.000000, 59.000000)">
                            <mask id="mask-11" fill="white">
                                <use xlink:href="#path-10"></use>
                            </mask>
                            <use id="Mask" fill="#FFFFFF" xlink:href="#path-10"></use>
                            <g fill-rule="nonzero" mask="url(#mask-11)">
                                <use fill="#A7A7EE" xlink:href="#path-12"></use>
                                <use fill="url(#linearGradient-8)" xlink:href="#path-12"></use>
                            </g>
                        </g>
                    </g>
                    <g id="Detail" transform="translate(77.000000, 0.000000)">
                        <g fill-rule="nonzero">
                            <use fill="#A7A7EE" xlink:href="#path-13"></use>
                            <use fill="url(#linearGradient-8)" xlink:href="#path-13"></use>
                        </g>
                        <g transform="translate(7.000000, 59.000000)">
                            <mask id="mask-15" fill="white">
                                <use xlink:href="#path-14"></use>
                            </mask>
                            <use id="Mask" fill="#FFFFFF" xlink:href="#path-14"></use>
                            <g fill-rule="nonzero" mask="url(#mask-15)">
                                <use fill="#A7A7EE" xlink:href="#path-16"></use>
                                <use fill="url(#linearGradient-8)" xlink:href="#path-16"></use>
                            </g>
                        </g>
                    </g>
                    <g id="Detail" transform="translate(154.000000, 0.000000)">
                        <g fill-rule="nonzero">
                            <use fill="#A7A7EE" xlink:href="#path-17"></use>
                            <use fill="url(#linearGradient-8)" xlink:href="#path-17"></use>
                        </g>
                        <g transform="translate(7.000000, 59.000000)">
                            <mask id="mask-19" fill="white">
                                <use xlink:href="#path-18"></use>
                            </mask>
                            <use id="Mask" fill="#FFFFFF" xlink:href="#path-18"></use>
                            <g fill-rule="nonzero" mask="url(#mask-19)">
                                <use fill="#A7A7EE" xlink:href="#path-20"></use>
                                <use fill="url(#linearGradient-8)" xlink:href="#path-20"></use>
                            </g>
                        </g>
                    </g>
                    <g id="Detail" transform="translate(231.000000, 0.000000)">
                        <g fill-rule="nonzero">
                            <use fill="#A7A7EE" xlink:href="#path-21"></use>
                            <use fill="url(#linearGradient-8)" xlink:href="#path-21"></use>
                        </g>
                        <g transform="translate(7.000000, 59.000000)">
                            <mask id="mask-23" fill="white">
                                <use xlink:href="#path-22"></use>
                            </mask>
                            <use id="Mask" fill="#FFFFFF" xlink:href="#path-22"></use>
                            <g fill-rule="nonzero" mask="url(#mask-23)">
                                <use fill="#A7A7EE" xlink:href="#path-24"></use>
                                <use fill="url(#linearGradient-8)" xlink:href="#path-24"></use>
                            </g>
                        </g>
                    </g>
                    <g id="Detail" transform="translate(308.000000, 0.000000)">
                        <g fill-rule="nonzero">
                            <use fill="#A7A7EE" xlink:href="#path-25"></use>
                            <use fill="url(#linearGradient-8)" xlink:href="#path-25"></use>
                        </g>
                        <g transform="translate(7.000000, 59.000000)">
                            <mask id="mask-27" fill="white">
                                <use xlink:href="#path-26"></use>
                            </mask>
                            <use id="Mask" fill="#FFFFFF" xlink:href="#path-26"></use>
                            <g fill-rule="nonzero" mask="url(#mask-27)">
                                <use fill="#A7A7EE" xlink:href="#path-28"></use>
                                <use fill="url(#linearGradient-8)" xlink:href="#path-28"></use>
                            </g>
                        </g>
                    </g>
                    <g id="Detail" transform="translate(385.000000, 0.000000)">
                        <g fill-rule="nonzero">
                            <use fill="#A7A7EE" xlink:href="#path-29"></use>
                            <use fill="url(#linearGradient-8)" xlink:href="#path-29"></use>
                        </g>
                        <g transform="translate(7.000000, 59.000000)">
                            <mask id="mask-31" fill="white">
                                <use xlink:href="#path-30"></use>
                            </mask>
                            <use id="Mask" fill="#FFFFFF" xlink:href="#path-30"></use>
                            <g fill-rule="nonzero" mask="url(#mask-31)">
                                <use fill="#A7A7EE" xlink:href="#path-32"></use>
                                <use fill="url(#linearGradient-8)" xlink:href="#path-32"></use>
                            </g>
                        </g>
                    </g>
                    <g id="Detail" transform="translate(462.000000, 0.000000)">
                        <g fill-rule="nonzero">
                            <use fill="#A7A7EE" xlink:href="#path-33"></use>
                            <use fill="url(#linearGradient-8)" xlink:href="#path-33"></use>
                        </g>
                        <g transform="translate(7.000000, 59.000000)">
                            <mask id="mask-35" fill="white">
                                <use xlink:href="#path-34"></use>
                            </mask>
                            <use id="Mask" fill="#FFFFFF" xlink:href="#path-34"></use>
                            <g fill-rule="nonzero" mask="url(#mask-35)">
                                <use fill="#A7A7EE" xlink:href="#path-36"></use>
                                <use fill="url(#linearGradient-8)" xlink:href="#path-36"></use>
                            </g>
                        </g>
                    </g>
                </g>
            </g>
        </g>
    </g>
</svg>