<?xml version="1.0" encoding="UTF-8"?>
<svg width="690px" height="559px" viewBox="0 0 690 559" version="1.1" xmlns="http://www.w3.org/2000/svg" xmlns:xlink="http://www.w3.org/1999/xlink">
    <!-- Generator: Sketch 51 (57462) - http://www.bohemiancoding.com/sketch -->
    <title>Cash machine</title>
    <desc>Created with Sketch.</desc>
    <defs>
        <linearGradient x1="50%" y1="0%" x2="50%" y2="100%" id="linearGradient-1">
            <stop stop-color="#4E565C" stop-opacity="0" offset="0%"></stop>
            <stop stop-color="#000000" stop-opacity="0.1" offset="100%"></stop>
        </linearGradient>
        <path d="M10,397 L680,397 C685.522847,397 690,401.477153 690,407 L690,519 C690,524.522847 685.522847,529 680,529 L10,529 C4.4771525,529 0,524.522847 0,519 L0,407 C0,401.477153 4.4771525,397 10,397 Z" id="path-2"></path>
        <linearGradient x1="50%" y1="0%" x2="50%" y2="100%" id="linearGradient-3">
            <stop stop-color="#393E41" stop-opacity="0" offset="0%"></stop>
            <stop stop-color="#000000" stop-opacity="0.104251585" offset="100%"></stop>
        </linearGradient>
        <path d="M50,529 L126,529 L126,556 C126,557.656854 124.656854,559 123,559 L53,559 C51.3431458,559 50,557.656854 50,556 L50,529 Z" id="path-4"></path>
        <path d="M564,529 L640,529 L640,556 C640,557.656854 638.656854,559 637,559 L567,559 C565.343146,559 564,557.656854 564,556 L564,529 Z" id="path-5"></path>
        <path d="M330,302 L635,302 C640.522847,302 645,306.477153 645,312 L645,397 L320,397 L320,312 C320,306.477153 324.477153,302 330,302 Z" id="path-6"></path>
        <linearGradient x1="50%" y1="0%" x2="50%" y2="100%" id="linearGradient-7">
            <stop stop-color="#B6C5D9" stop-opacity="0" offset="0%"></stop>
            <stop stop-color="#000000" stop-opacity="0.05" offset="100%"></stop>
        </linearGradient>
        <path d="M10,1.77635684e-15 L269,0 C274.522847,-1.01453063e-15 279,4.4771525 279,10 L279,357 C279,362.522847 274.522847,367 269,367 L10,367 C4.4771525,367 6.76353751e-16,362.522847 0,357 L0,10 C-6.76353751e-16,4.4771525 4.4771525,1.01453063e-15 10,1.77635684e-15 Z" id="path-8"></path>
        <path d="M10,0 L245,0 C250.522847,0 255,4.4771525 255,10 L255,138 L0,138 L0,10 C0,4.4771525 4.4771525,0 10,0 Z" id="path-9"></path>
        <linearGradient x1="50%" y1="0%" x2="50%" y2="100%" id="linearGradient-10">
            <stop stop-color="#F2F5F9" stop-opacity="0" offset="0%"></stop>
            <stop stop-color="#B6C5D9" stop-opacity="0.1" offset="100%"></stop>
        </linearGradient>
        <path d="M131.5,0 C116.864454,0 105,11.8644541 105,26.5 L105,215 L0,215 L0,31 C0,13.8791728 13.8791728,0 31,0 L132,0 C131.831056,0.00152091015 131.665705,0 131.5,0 Z" id="path-11"></path>
        <path d="M236.5,27 C221.864454,27 210,38.8644541 210,53.5 L210,54.8875502 L209.875,99.0625 C209.875,113.387386 198.262386,125 183.9375,125 C169.612614,125 158,113.387386 158,99.0625 L158,27 C211.27276,27 237.439427,27 236.5,27 Z" id="path-12"></path>
    </defs>
    <g id="Handsome" stroke="none" stroke-width="1" fill="none" fill-rule="evenodd">
        <g id="Primary" transform="translate(-415.000000, -7391.000000)">
            <g id="Cash-machine" transform="translate(415.000000, 7391.000000)">
                <g id="Detail">
                    <use fill="#4E565C" xlink:href="#path-2"></use>
                    <use fill="url(#linearGradient-1)" xlink:href="#path-2"></use>
                </g>
                <g id="Detail" transform="translate(319.000000, 437.000000)">
                    <circle fill="#F2F5F9" cx="26" cy="26" r="26"></circle>
                    <rect fill="#B6C5D9" x="22" y="14" width="8" height="24" rx="4"></rect>
                </g>
                <g id="Leg">
                    <use fill="#393E41" xlink:href="#path-4"></use>
                    <use fill="url(#linearGradient-3)" xlink:href="#path-4"></use>
                </g>
                <g id="Leg">
                    <use fill="#393E41" xlink:href="#path-5"></use>
                    <use fill="url(#linearGradient-3)" xlink:href="#path-5"></use>
                </g>
                <g id="Detail">
                    <use fill="#393E41" xlink:href="#path-6"></use>
                    <use fill="url(#linearGradient-3)" xlink:href="#path-6"></use>
                </g>
                <g id="Tablet" transform="translate(343.000000, 0.000000)">
                    <g id="Detail">
                        <use fill="#B6C5D9" xlink:href="#path-8"></use>
                        <use fill="url(#linearGradient-7)" xlink:href="#path-8"></use>
                    </g>
                    <path d="M22.9875,20 L256.0125,20 C257.662451,20 259,21.2612466 259,22.8170732 L259,325.182927 C259,326.738753 257.662451,328 256.0125,328 L22.9875,328 C21.3375493,328 20,326.738753 20,325.182927 L20,22.8170732 C20,21.2612466 21.3375493,20 22.9875,20 Z" id="Screen" fill="#F2F5F9"></path>
                    <path d="M35,32 L243,32 C244.656854,32 246,33.6725966 246,35.7358491 L246,94.2641509 C246,96.3274034 244.656854,98 243,98 L35,98 C33.3431458,98 32,96.3274034 32,94.2641509 L32,35.7358491 C32,33.6725966 33.3431458,32 35,32 Z" id="Button" fill="#403F9F"></path>
                    <path d="M35,102 L98,102 C99.6568542,102 101,103.343146 101,105 L101,168 C101,169.656854 99.6568542,171 98,171 L35,171 C33.3431458,171 32,169.656854 32,168 L32,105 C32,103.343146 33.3431458,102 35,102 Z" id="Button" fill="#A7A7EE"></path>
                    <path d="M108,102 L171,102 C172.656854,102 174,103.343146 174,105 L174,168 C174,169.656854 172.656854,171 171,171 L108,171 C106.343146,171 105,169.656854 105,168 L105,105 C105,103.343146 106.343146,102 108,102 Z" id="Button" fill="#A7A7EE"></path>
                    <path d="M181,102 L244,102 C245.656854,102 247,103.343146 247,105 L247,168 C247,169.656854 245.656854,171 244,171 L181,171 C179.343146,171 178,169.656854 178,168 L178,105 C178,103.343146 179.343146,102 181,102 Z" id="Button" fill="#A7A7EE"></path>
                    <path d="M35,174 L98,174 C99.6568542,174 101,175.343146 101,177 L101,240 C101,241.656854 99.6568542,243 98,243 L35,243 C33.3431458,243 32,241.656854 32,240 L32,177 C32,175.343146 33.3431458,174 35,174 Z" id="Button" fill="#A7A7EE"></path>
                    <path d="M108,174 L171,174 C172.656854,174 174,175.343146 174,177 L174,240 C174,241.656854 172.656854,243 171,243 L108,243 C106.343146,243 105,241.656854 105,240 L105,177 C105,175.343146 106.343146,174 108,174 Z" id="Button" fill="#A7A7EE"></path>
                    <path d="M181,174 L244,174 C245.656854,174 247,175.343146 247,177 L247,240 C247,241.656854 245.656854,243 244,243 L181,243 C179.343146,243 178,241.656854 178,240 L178,177 C178,175.343146 179.343146,174 181,174 Z" id="Button" fill="#A7A7EE"></path>
                    <path d="M35,247 L98,247 C99.6568542,247 101,248.343146 101,250 L101,313 C101,314.656854 99.6568542,316 98,316 L35,316 C33.3431458,316 32,314.656854 32,313 L32,250 C32,248.343146 33.3431458,247 35,247 Z" id="Button" fill="#A7A7EE"></path>
                    <path d="M108,247 L171,247 C172.656854,247 174,248.343146 174,250 L174,313 C174,314.656854 172.656854,316 171,316 L108,316 C106.343146,316 105,314.656854 105,313 L105,250 C105,248.343146 106.343146,247 108,247 Z" id="Button" fill="#A7A7EE"></path>
                    <path d="M181,247 L244,247 C245.656854,247 247,248.343146 247,250 L247,313 C247,314.656854 245.656854,316 244,316 L181,316 C179.343146,316 178,314.656854 178,313 L178,250 C178,248.343146 179.343146,247 181,247 Z" id="Button" fill="#A7A7EE"></path>
                </g>
                <g id="Receipt-machine" transform="translate(45.000000, 259.000000)">
                    <g id="Detail">
                        <use fill="#393E41" xlink:href="#path-9"></use>
                        <use fill="url(#linearGradient-3)" xlink:href="#path-9"></use>
                    </g>
                    <path d="M45,30 L150,30 C158.284271,30 165,36.7157288 165,45 C165,53.2842712 158.284271,60 150,60 L45,60 C36.7157288,60 30,53.2842712 30,45 C30,36.7157288 36.7157288,30 45,30 Z" id="Detail" fill="#6F7981"></path>
                    <path d="M198,30 L222,30 C223.656854,30 225,31.3431458 225,33 L225,57 C225,58.6568542 223.656854,60 222,60 L198,60 C196.343146,60 195,58.6568542 195,57 L195,33 C195,31.3431458 196.343146,30 198,30 Z" id="Button" fill="#FF6663"></path>
                </g>
                <g id="Receipt" transform="translate(90.000000, 104.000000)">
                    <g id="Detail">
                        <use fill="#F2F5F9" xlink:href="#path-11"></use>
                        <use fill="url(#linearGradient-10)" xlink:href="#path-11"></use>
                    </g>
                    <path d="M158,26.5 L158,99.0625 C158,113.06875 169.10175,124.482048 182.985718,124.982861 L183,125 L105,125 L105,26.5 C105,11.8644541 116.864454,0 131.5,0 C146.135546,0 158,11.8644541 158,26.5 Z" id="Detail" fill="#B6C5D9"></path>
                    <g id="Detail">
                        <use fill="#F2F5F9" xlink:href="#path-12"></use>
                        <use fill="url(#linearGradient-10)" xlink:href="#path-12"></use>
                    </g>
                    <path d="M15,101 L90,101 C92.7614237,101 95,103.238576 95,106 C95,108.761424 92.7614237,111 90,111 L15,111 C12.2385763,111 10,108.761424 10,106 C10,103.238576 12.2385763,101 15,101 Z" id="Text" fill="#D6DFEA"></path>
                    <path d="M15,81 L90,81 C92.7614237,81 95,83.2385763 95,86 C95,88.7614237 92.7614237,91 90,91 L15,91 C12.2385763,91 10,88.7614237 10,86 C10,83.2385763 12.2385763,81 15,81 Z" id="Text" fill="#D6DFEA"></path>
                    <path d="M15,61 L65,61 C67.7614237,61 70,63.2385763 70,66 C70,68.7614237 67.7614237,71 65,71 L15,71 C12.2385763,71 10,68.7614237 10,66 C10,63.2385763 12.2385763,61 15,61 Z" id="Text" fill="#D6DFEA"></path>
                    <path d="M75,41 L90,41 C92.7614237,41 95,43.2385763 95,46 C95,48.7614237 92.7614237,51 90,51 L75,51 C72.2385763,51 70,48.7614237 70,46 C70,43.2385763 72.2385763,41 75,41 Z" id="Text" fill="#D6DFEA"></path>
                    <rect id="Text" fill="#D6DFEA" x="10" y="41" width="50" height="10" rx="5"></rect>
                </g>
            </g>
        </g>
    </g>
</svg>