<?xml version="1.0" encoding="UTF-8"?>
<svg width="705px" height="769px" viewBox="0 0 705 769" version="1.1" xmlns="http://www.w3.org/2000/svg" xmlns:xlink="http://www.w3.org/1999/xlink">
    <!-- Generator: Sketch 51 (57462) - http://www.bohemiancoding.com/sketch -->
    <title>Chat</title>
    <desc>Created with Sketch.</desc>
    <defs>
        <path d="M68.3333333,0 C71.6666667,6.34584977e-14 73.3333333,1.66743649 73.3333333,5.00230947 C73.3333333,20.2097852 83.285448,26.6789838 98.3333333,26.6789838 C122.948703,26.6789838 218.77592,26.6789838 236.666667,26.6789838 C252.763463,26.6789838 261.666667,20.2097852 261.666667,5.00230947 C261.666667,1.66743649 263.333333,6.30410076e-14 266.666667,0 L301.666667,9.4816531e-14 C320.076158,9.4816531e-14 335,14.9307349 335,33.3487298 L335,688.65127 C335,707.069265 320.076158,722 301.666667,722 L33.3333333,722 C14.9238417,722 0,707.069265 0,688.65127 L0,33.3487298 C0,14.9307349 14.9238417,9.4816531e-14 33.3333333,9.4816531e-14 L68.3333333,0 Z" id="path-1"></path>
        <path d="M335,2.21802326 L335,760.781977 C335,762.006957 334.673236,763 334.270153,763 L0.729847495,763 C0.326763854,763 4.14870268e-14,762.006957 0,760.781977 L0,2.21802326 C0,0.993042837 0.326763854,6.30400125e-14 0.729847495,6.30400125e-14 L334.270153,0 C334.673236,0 335,0.993042837 335,2.21802326 Z" id="path-3"></path>
        <linearGradient x1="100%" y1="0%" x2="0%" y2="100%" id="linearGradient-5">
            <stop stop-color="#000000" stop-opacity="0.182659647" offset="0%"></stop>
            <stop stop-color="#000000" stop-opacity="0" offset="100%"></stop>
        </linearGradient>
        <linearGradient x1="50%" y1="0%" x2="50%" y2="100%" id="linearGradient-6">
            <stop stop-color="#FFC62C" stop-opacity="0" offset="0%"></stop>
            <stop stop-color="#FF6663" stop-opacity="0.1" offset="100%"></stop>
        </linearGradient>
        <circle id="path-7" cx="22" cy="22" r="22"></circle>
        <linearGradient x1="50%" y1="0%" x2="50%" y2="100%" id="linearGradient-8">
            <stop stop-color="#F0F0F6" stop-opacity="0" offset="0%"></stop>
            <stop stop-color="#000000" stop-opacity="0.03" offset="100%"></stop>
        </linearGradient>
        <rect id="path-9" x="0" y="53" width="463" height="183" rx="91.5"></rect>
        <circle id="path-10" cx="71.5" cy="71.5" r="71.5"></circle>
        <path d="M69.3579336,73.1476015 L127.453875,73.1476015 L123.822878,143.95203 C123.471488,160.217029 110.010837,173 93.8671587,173 C78.2319521,173 65.7269373,160.572499 65.7269373,144.859779 C65.7269373,144.822101 65.7365429,144.401856 65.7269373,143.95203 L69.3579336,73.1476015 Z" id="path-12"></path>
        <linearGradient x1="0%" y1="84.0596594%" x2="100%" y2="0%" id="linearGradient-13">
            <stop stop-color="#000000" stop-opacity="0.1" offset="0%"></stop>
            <stop stop-color="#FF6663" stop-opacity="0" offset="100%"></stop>
        </linearGradient>
        <path d="M122.546125,112.755362 C130.69113,115.534835 136.311704,123.198088 136.162362,131.623616 C135.993345,141.461436 129.955917,149.248447 121.93767,151.697819 C117.095037,179.268625 84.5209368,200.612546 66.7195572,200.612546 C47.4559342,200.612546 10.8929889,175.61814 10.8929889,144.785978 C12.7084871,130.545461 13.6162362,122.886049 13.6162362,121.807742 C13.6162362,120.729435 12.7084871,112.654529 10.8929889,97.5830258 C10.8929889,66.7508635 35.8873949,41.7564576 66.7195572,41.7564576 C97.5517195,41.7564576 122.546125,66.7508635 122.546125,97.5830258 L122.546125,112.755362 Z" id="path-14"></path>
        <linearGradient x1="50%" y1="0%" x2="50%" y2="100%" id="linearGradient-15">
            <stop stop-color="#1F1845" stop-opacity="0" offset="0%"></stop>
            <stop stop-color="#000000" stop-opacity="0.2" offset="100%"></stop>
        </linearGradient>
        <path d="M122.383623,167.017511 L123.453875,146.147601 L122.546125,130.596618 C113.342634,125.48481 107.114391,115.665319 107.114391,104.391144 C107.114391,101.875962 107.424372,99.4331792 108.008215,97.098916 C107.561496,97.119001 107.112192,97.1291513 106.660517,97.1291513 C91.4677407,97.1291513 78.9572441,85.6449479 77.3363687,70.883883 C72.7723077,73.1569799 67.6258581,74.4354244 62.1808118,74.4354244 C54.0873854,74.4354244 46.6536593,71.6109116 40.8115834,66.8938359 C38.2426402,68.2323136 35.3222248,68.9889299 32.2250923,68.9889299 C28.0741776,68.9889299 24.2406921,67.629854 21.1453446,65.3324109 C16.5726635,71.7824626 13.3348661,79.2455159 11.8345121,87.3190102 C4.59343835,81.1583762 0,71.9790842 0,61.7269373 C0,44.2680359 13.3211607,29.9204584 30.3538862,28.2938004 C35.2331942,15.4679524 47.6426927,6.35424354 62.1808118,6.35424354 C68.2527598,6.35424354 73.9533967,7.94401532 78.889191,10.7300275 C86.2240453,4.06328713 95.9677652,0 106.660517,0 C128.595308,0 146.536462,17.098799 147.882089,38.6945096 C163.937687,41.6444315 176.103321,55.7114608 176.103321,72.6199262 C176.103321,82.1007604 172.278426,90.6882425 166.087553,96.9234566 C166.700103,99.3106705 167.02583,101.812868 167.02583,104.391144 C167.02583,114.33569 162.180025,123.148438 154.72088,128.596921 C155.052219,130.463593 155.225092,132.38504 155.225092,134.346863 C155.225092,152.146054 140.112107,166.621627 122.383623,167.017511 Z" id="path-16"></path>
        <linearGradient x1="64.0162101%" y1="22.9658099%" x2="0%" y2="100%" id="linearGradient-17">
            <stop stop-color="#000000" stop-opacity="0.1" offset="0%"></stop>
            <stop stop-color="#FF6663" stop-opacity="0" offset="100%"></stop>
        </linearGradient>
        <circle id="path-18" cx="22" cy="22" r="22"></circle>
        <rect id="path-19" x="26" y="45" width="463" height="183" rx="91.5"></rect>
        <circle id="path-20" cx="71.5" cy="71.5" r="71.5"></circle>
        <path d="M71.5,87 C82.8218374,87 92,102.395299 92,121.386364 L92,141.613636 C92,160.604701 82.8218374,176 71.5,176 C60.1781626,176 51,160.604701 51,141.613636 L51,121.386364 C51,102.395299 60.1781626,87 71.5,87 Z" id="path-22"></path>
        <linearGradient x1="100%" y1="0%" x2="0%" y2="104.573707%" id="linearGradient-23">
            <stop stop-color="#000000" stop-opacity="0.35" offset="0%"></stop>
            <stop stop-color="#FFC62C" stop-opacity="0" offset="100%"></stop>
        </linearGradient>
        <linearGradient x1="50%" y1="0%" x2="50%" y2="100%" id="linearGradient-24">
            <stop stop-color="#403F9F" stop-opacity="0" offset="0%"></stop>
            <stop stop-color="#000000" stop-opacity="0.2" offset="100%"></stop>
        </linearGradient>
        <path d="M40.6101523,39.8255058 C55.368933,-1.62277625 116.620316,-13.60424 148.844061,18.1687139 C181.353853,50.478008 196.544229,29.9732964 213.784406,44.3373374 C231.141873,59.1390595 213.843051,86.192018 196.647371,101.186416 C179.613513,116.404167 218.948301,144.303231 208.372711,180.594653 C197.928473,216.810048 136.307496,158.656344 71.8808874,185.735719 C7.4542786,212.815093 -21.0896139,136.371113 18.0614213,109.307713 C57.2124565,82.2443133 26.4186804,81.7284791 40.6101523,39.8255058 Z" id="path-25"></path>
        <linearGradient x1="0%" y1="0%" x2="100%" y2="100%" id="linearGradient-27">
            <stop stop-color="#000000" stop-opacity="0.3" offset="0%"></stop>
            <stop stop-color="#1F1845" stop-opacity="0" offset="100%"></stop>
        </linearGradient>
        <path d="M54.7804738,134.040209 C46.4797522,120.008094 59.0421146,111.50142 62.8747709,117.822565 C64.7877484,120.54533 65.4084123,123.135053 65.57287,125.931387 C72.9291351,138.445695 100.785691,111.757865 109.641821,101.604922 C119.30716,90.8978001 120.693931,79.6202412 127.629148,101.604922 C132.51681,116.154521 150.093672,110.398271 163.603802,98.9019816 C163.749023,103.160425 163.603611,107.710451 163.603802,112.416684 C163.603611,116.665995 169,122.285573 169,142.14903 C169,161.828388 148.268226,189 124.931049,189 C107.150347,189 79.9233784,177.0225 67.3716027,156.564713 C56.9138547,156.552575 63.4476173,148.031188 54.7804738,134.040209 Z" id="path-28"></path>
        <linearGradient x1="100%" y1="0%" x2="0%" y2="100%" id="linearGradient-29">
            <stop stop-color="#000000" stop-opacity="0.2" offset="0%"></stop>
            <stop stop-color="#FFC62C" stop-opacity="0" offset="100%"></stop>
        </linearGradient>
    </defs>
    <g id="Handsome" stroke="none" stroke-width="1" fill="none" fill-rule="evenodd">
        <g id="Primary" transform="translate(-2148.000000, -2654.000000)">
            <g id="Chat" transform="translate(2148.000000, 2654.000000)">
                <path d="M229.384279,0 L494.615721,0 C526.860468,-5.92323033e-15 553,26.1393839 553,58.3839479 L553,710.616052 C553,742.860616 526.860468,769 494.615721,769 L229.384279,769 C197.139532,769 171,742.860616 171,710.616052 L171,58.3839479 C171,26.1393839 197.139532,5.92323033e-15 229.384279,0 Z" id="iPhone" fill="#1C2321"></path>
                <g id="Group-5" transform="translate(194.000000, 23.000000)">
                    <mask id="mask-2" fill="white">
                        <use xlink:href="#path-1"></use>
                    </mask>
                    <use id="Screen" fill="#FFFFFF" xlink:href="#path-1"></use>
                    <g id="Bg" mask="url(#mask-2)">
                        <g transform="translate(0.000000, -11.000000)">
                            <mask id="mask-4" fill="white">
                                <use xlink:href="#path-3"></use>
                            </mask>
                            <use id="Bg" stroke="none" fill="#757DC0" fill-rule="evenodd" xlink:href="#path-3"></use>
                            <path d="M459.703696,847.149426 C439.867599,785.524466 530.772847,581.216487 497.670183,529.240186 C464.567519,477.263885 360.226125,615.713332 324.536936,501.260898 C288.847747,386.808463 316.024407,332.064862 270.115438,305.07149 C224.20647,278.078117 232.818513,485.070362 185.283525,438.377417 C137.748537,391.684471 179.254372,238.144935 131.865103,218.446348 C84.4758346,198.747762 106.515943,303.308345 70.753894,317.164233 C34.9918451,331.020121 42.0167501,195.069477 7.59046539,164.032044 C-26.8358193,132.994611 -78.5784646,182.417391 -39.8898779,305.07149 C-1.20129127,427.725589 -127.78253,304.960637 -153.685606,361.731036 C-179.588682,418.501434 25.5200631,443.514857 7.59046539,501.260898 C-10.3391323,559.006939 -254.612465,457.138342 -204.149035,572.037899 C-153.685606,686.937457 70.753894,554.379879 70.753894,643.29103 C70.753894,732.20218 -39.8898779,662.99273 -39.8898779,757.866279 C-39.8898779,852.739829 479.539793,908.774386 459.703696,847.149426 Z" id="Flowers" stroke="none" fill="#464D89" fill-rule="evenodd" mask="url(#mask-4)"></path>
                            <path d="M37.3831467,309.794428 C33.4141998,351.05846 38.4671617,395.744172 51.4448318,447.3893 C51.6284881,448.120168 51.8128074,448.849627 51.9978727,449.577968 C54.2134819,421.961917 64.0785299,402.022004 81.5930166,389.758229 C110.13431,369.7734 142.978288,367.435082 154.952094,384.535449 C166.9259,401.635816 153.495298,431.699308 124.954004,451.684137 C106.462721,464.631872 82.847442,466.640955 54.1081665,457.711385 C61.6487542,486.17595 70.8221066,514.581497 86.6748792,560.497785 C87.614067,563.218068 88.5031716,565.793383 89.3458945,568.234668 C91.4449849,540.238656 101.328969,520.054709 118.997847,507.682827 C147.539141,487.697998 180.383118,485.35968 192.356924,502.460047 C204.330731,519.560415 190.900128,549.623906 162.358835,569.608735 C143.96062,582.491304 120.489857,584.545053 91.9465472,575.769981 C103.590658,609.517237 104.914372,613.506062 110.005013,629.365372 C117.585563,652.981715 123.360335,673.239189 127.722753,692.09807 C130.183632,665.300371 140.003378,645.887224 157.181992,633.858629 C185.723285,613.8738 218.567263,611.535482 230.541069,628.63585 C242.514875,645.736217 229.084273,675.799708 200.54298,695.784537 C182.091268,708.704565 158.537468,710.732707 129.881579,701.868964 C139.221737,746.319125 140.147384,783.060267 131.342691,815.323088 C131.124585,816.122288 130.299896,816.593358 129.500695,816.375252 C128.701495,816.157146 128.230425,815.332457 128.448531,814.533256 C137.522284,781.284522 136.086917,743.044557 125.568878,696.149401 C121.144735,676.424158 115.160608,655.242881 107.14856,630.282258 C101.385598,612.328405 100.457571,609.610814 83.8391329,561.476837 C66.0495639,509.950773 56.652646,480.423765 48.5352865,448.120427 C35.4149603,395.907594 30.3392909,350.701586 34.4575722,308.881745 C34.1650462,308.787284 33.8719964,308.691705 33.5784228,308.595008 C34.5496202,277.152436 44.5489833,254.76954 63.5765123,241.446321 C92.1178057,221.461492 124.961783,219.123174 136.935589,236.223541 C148.909395,253.323908 135.478793,283.3874 106.9375,303.372228 C88.7239475,316.125495 65.5391631,318.266228 37.3831467,309.794428 Z" id="Flowers" stroke="none" fill="#A7A7EE" fill-rule="nonzero" mask="url(#mask-4)"></path>
                        </g>
                    </g>
                    <rect id="Sh" fill="url(#linearGradient-5)" mask="url(#mask-2)" transform="translate(78.500000, 178.500000) scale(-1, 1) translate(-78.500000, -178.500000) " x="-153" y="87" width="463" height="183" rx="91.5"></rect>
                    <rect id="Sh" fill="url(#linearGradient-5)" mask="url(#mask-2)" x="60" y="419" width="463" height="183" rx="91.5"></rect>
                </g>
                <g id="Bubble" transform="translate(376.000000, 628.000000)">
                    <path d="M52,15 L87,15 C110.195959,15 129,33.8040405 129,57 L129,89 L52,89 C31.5654643,89 15,72.4345357 15,52 L15,52 C15,31.5654643 31.5654643,15 52,15 Z" id="Sh" fill="url(#linearGradient-5)"></path>
                    <path d="M37,0 L72,0 C95.1959595,-4.26102863e-15 114,18.8040405 114,42 L114,74 L37,74 C16.5654643,74 2.50250888e-15,57.4345357 0,37 L0,37 C-2.50250888e-15,16.5654643 16.5654643,3.75376332e-15 37,0 Z" id="Bg" fill="#EDEDF3"></path>
                    <g id="Emoji" transform="translate(35.000000, 15.000000)">
                        <g id="Detail">
                            <use fill="#FFC62C" xlink:href="#path-7"></use>
                            <use fill="url(#linearGradient-6)" xlink:href="#path-7"></use>
                        </g>
                        <circle id="Detail" fill="#313131" cx="14" cy="18" r="4"></circle>
                        <path d="M14,28 C14,31.9728495 17.581722,36 22,36 C26.418278,36 30,31.9728495 30,28 C30,24.0038786 14,24.0038786 14,28 Z" id="Detail" fill="#FD6563"></path>
                        <circle id="Detail" fill="#313131" cx="30" cy="18" r="4"></circle>
                    </g>
                </g>
                <g id="Bubble" transform="translate(234.000000, 369.000000)">
                    <g id="Bg">
                        <use fill="#F0F0F6" xlink:href="#path-9"></use>
                        <use fill="url(#linearGradient-8)" xlink:href="#path-9"></use>
                    </g>
                    <g id="Oval" transform="translate(290.000000, 73.000000)">
                        <mask id="mask-11" fill="white">
                            <use xlink:href="#path-10"></use>
                        </mask>
                        <use id="Bg" fill="#FFFFFF" xlink:href="#path-10"></use>
                        <g id="Neck" mask="url(#mask-11)">
                            <use fill="#FFC62C" xlink:href="#path-12"></use>
                            <use fill="url(#linearGradient-6)" xlink:href="#path-12"></use>
                        </g>
                        <path d="M125.638376,108.549815 C113.67891,125.302222 92.7858688,136.690037 79.3431734,136.690037 C75.9410253,136.690037 71.4182327,135.699306 66.6346863,133.96679 L69.3579336,73.1476015 L127.453875,73.1476015 L125.638376,108.549815 Z" id="Sh" fill="url(#linearGradient-13)" mask="url(#mask-11)"></path>
                    </g>
                    <rect id="Text" fill="#DBDBE8" x="70" y="152" width="100" height="15" rx="7.5"></rect>
                    <rect id="Text" fill="#DBDBE8" x="70" y="122" width="190" height="15" rx="7.5"></rect>
                    <rect id="Text" fill="#DBDBE8" x="70" y="92" width="190" height="15" rx="7.5"></rect>
                    <g id="Face" transform="translate(294.000000, 0.000000)">
                        <g>
                            <use fill="#FFC62C" xlink:href="#path-14"></use>
                            <use fill="url(#linearGradient-6)" xlink:href="#path-14"></use>
                        </g>
                        <g id="Hair">
                            <use fill="#1F1845" xlink:href="#path-16"></use>
                            <use fill="url(#linearGradient-15)" xlink:href="#path-16"></use>
                        </g>
                        <path d="M109.253129,115.266431 C108.41093,115.2782 107.005835,115.284133 106.660517,115.284133 C91.4677407,115.284133 78.9572441,103.799929 77.3363687,89.0388645 C72.7723077,91.3119615 67.6258581,92.5904059 62.1808118,92.5904059 C54.0873854,92.5904059 46.6536593,89.7658931 40.8115834,85.0488174 C38.2426402,86.3872951 35.3222248,87.1439114 32.2250923,87.1439114 C28.0741776,87.1439114 24.2406921,85.7848355 21.1453446,83.4873924 C16.5738206,89.935812 13.3365048,97.3967206 11.8356514,105.467863 C11.5546824,103.095877 11.2404616,100.467598 10.8929889,97.5830258 C10.8929889,85.5685491 14.6882755,74.4405091 21.1453469,65.3324074 C24.2406921,67.629854 28.0741776,68.9889299 32.2250923,68.9889299 C35.3222248,68.9889299 38.2426402,68.2323136 40.8115834,66.8938359 C46.6536593,71.6109116 54.0873854,74.4354244 62.1808118,74.4354244 C67.6258581,74.4354244 72.7723077,73.1569799 77.3363687,70.883883 C78.9572441,85.6449479 91.4677407,97.1291513 106.660517,97.1291513 C107.112192,97.1291513 107.561496,97.119001 108.008215,97.098916 C107.424372,99.4331792 107.810265,101.984012 108.008215,104.497208 C108.902038,115.845291 109.512525,115.262806 109.253129,115.266431 Z" id="Sh" fill="url(#linearGradient-17)"></path>
                    </g>
                </g>
                <g id="Bibble" transform="translate(211.000000, 313.000000)">
                    <path d="M57,15 L92,15 C112.434536,15 129,31.5654643 129,52 L129,52 C129,72.4345357 112.434536,89 92,89 L15,89 L15,57 C15,33.8040405 33.8040405,15 57,15 Z" id="Sh" fill="url(#linearGradient-5)"></path>
                    <path d="M42,0 L77,0 C97.4345357,-3.75376332e-15 114,16.5654643 114,37 L114,37 C114,57.4345357 97.4345357,74 77,74 L0,74 L0,42 C-2.84068575e-15,18.8040405 18.8040405,4.26102863e-15 42,0 Z" id="Bubble" fill="#EDEDF3"></path>
                    <g id="Emoji" transform="translate(35.000000, 15.000000)">
                        <g id="Detail">
                            <use fill="#FFC62C" xlink:href="#path-18"></use>
                            <use fill="url(#linearGradient-6)" xlink:href="#path-18"></use>
                        </g>
                        <circle id="Detail" fill="#313131" cx="14" cy="18" r="4"></circle>
                        <path d="M14,28 C14,32.418278 17.581722,36 22,36 C26.418278,36 30,32.418278 30,28" id="Detail" stroke="#313131" stroke-width="3" stroke-linecap="round" stroke-linejoin="round"></path>
                        <circle id="Detail" fill="#313131" cx="30" cy="18" r="4"></circle>
                    </g>
                </g>
                <g id="Bubble" transform="translate(0.000000, 50.000000)">
                    <g id="Bg">
                        <use fill="#F0F0F6" xlink:href="#path-19"></use>
                        <use fill="url(#linearGradient-8)" xlink:href="#path-19"></use>
                    </g>
                    <rect id="Text" fill="#DBDBE8" x="229" y="174" width="110" height="15" rx="7.5"></rect>
                    <rect id="Text" fill="#DBDBE8" x="229" y="144" width="190" height="15" rx="7.5"></rect>
                    <rect id="Text" fill="#DBDBE8" x="229" y="114" width="190" height="15" rx="7.5"></rect>
                    <rect id="Text" fill="#DBDBE8" x="229" y="84" width="190" height="15" rx="7.5"></rect>
                    <g id="Oval" transform="translate(46.000000, 65.000000)">
                        <mask id="mask-21" fill="white">
                            <use xlink:href="#path-20"></use>
                        </mask>
                        <use id="Bg" fill="#FFFFFF" xlink:href="#path-20"></use>
                        <g id="Neck" mask="url(#mask-21)">
                            <use fill="#FFC62C" xlink:href="#path-22"></use>
                            <use fill="url(#linearGradient-6)" xlink:href="#path-22"></use>
                        </g>
                        <path d="M92,134.110916 C89.2274571,134.691703 86.4076181,135 83.5588235,135 C74.0390055,135 62.499652,132.385707 51,127.461925 L51,116 C51,106.058875 59.0588745,98 69,98 L74,98 C83.9411255,98 92,106.058875 92,116 L92,134.110916 Z" id="Sh" fill="url(#linearGradient-23)" mask="url(#mask-21)"></path>
                    </g>
                    <g id="Face">
                        <g id="Group">
                            <mask id="mask-26" fill="white">
                                <use xlink:href="#path-25"></use>
                            </mask>
                            <g id="Hair">
                                <use fill="#464D89" xlink:href="#path-25"></use>
                                <use fill="url(#linearGradient-24)" xlink:href="#path-25"></use>
                            </g>
                            <path d="M139.925822,218.700077 C137.422486,220.363213 135.24776,222.35808 133.510924,224.810603 C129.583405,230.187381 124.445656,231.704998 118.264646,230.906354 C103.363178,228.208585 82.3185631,210.092347 53.0585508,202.906705 C23.1072929,169.259124 47.0641198,95.1215181 64.0608325,125.550307 C77.2593268,148.91328 110.01866,139.885655 162.373299,98.4793172 C186.356892,137.324556 193.306458,168.396669 183.118132,191.423049 C180.228377,198.046441 177.68822,203.230924 175.071123,207.549493 C162.43066,210.829457 149.063064,212.556268 139.925822,218.700077 Z" id="Sh" fill="url(#linearGradient-27)" mask="url(#mask-26)"></path>
                        </g>
                        <g>
                            <use fill="#FFC62C" xlink:href="#path-28"></use>
                            <use fill="url(#linearGradient-6)" xlink:href="#path-28"></use>
                        </g>
                        <path d="M62.5,151 C63.0522847,151 63.5,151.447715 63.5,152 C63.5,152.552285 63.0522847,153 62.5,153 C62.1214607,153 61.4945893,153.757555 60.9689846,155.259283 C60.3566581,157.008787 60,159.418028 60,162 C60,164.581972 60.3566581,166.991213 60.9689846,168.740717 C61.4945893,170.242445 62.1214607,171 62.5,171 C62.8785393,171 63.5054107,170.242445 64.0310154,168.740717 C64.6433419,166.991213 65,164.581972 65,162 C65,161.217253 64.9674065,160.447273 64.9036221,159.701924 C64.8565317,159.15165 65.2644421,158.667391 65.8147156,158.620301 C66.3649891,158.57321 66.8492483,158.981121 66.8963388,159.531394 C66.9649982,160.333711 67,161.160583 67,162 C67,168.058966 65.270638,173 62.5,173 C59.729362,173 58,168.058966 58,162 C58,155.941034 59.729362,151 62.5,151 Z" id="Detail" fill="#FFFFFF" fill-rule="nonzero"></path>
                        <path d="M127.653266,119.797528 C120.647639,97.7156273 119.249468,109.085679 109.492899,119.797528 C100.575748,130.116827 77.3582361,146.840467 65,126.133438 C72.4902044,138.856146 100.575748,111.949436 109.492899,101.694928 C119.249468,90.9182877 120.647639,79.548236 127.653266,101.694928 C132.567705,116.382152 150.289053,110.578691 163.974,98.9795379 C164.056654,103.281484 163.910047,107.868827 163.974,112.556488 C163.910047,116.89782 132.567705,134.549543 127.653266,119.797528 Z" id="Sh" fill="url(#linearGradient-29)"></path>
                    </g>
                </g>
            </g>
        </g>
    </g>
</svg>