<?xml version="1.0" encoding="UTF-8"?>
<svg width="665px" height="445px" viewBox="0 0 665 445" version="1.1" xmlns="http://www.w3.org/2000/svg" xmlns:xlink="http://www.w3.org/1999/xlink">
    <!-- Generator: Sketch 51 (57462) - http://www.bohemiancoding.com/sketch -->
    <title>Credit cards</title>
    <desc>Created with Sketch.</desc>
    <defs>
        <linearGradient x1="50%" y1="0%" x2="50%" y2="100%" id="linearGradient-1">
            <stop stop-color="#E8799D" stop-opacity="0" offset="0%"></stop>
            <stop stop-color="#C74D75" stop-opacity="0.1" offset="100%"></stop>
        </linearGradient>
        <rect id="path-2" x="0" y="0" width="585" height="365" rx="30"></rect>
        <linearGradient x1="0%" y1="0%" x2="108.586029%" y2="107.475557%" id="linearGradient-4">
            <stop stop-color="#000000" stop-opacity="0.1" offset="0%"></stop>
            <stop stop-color="#000000" stop-opacity="0" offset="100%"></stop>
        </linearGradient>
        <linearGradient x1="50%" y1="0%" x2="50%" y2="100%" id="linearGradient-5">
            <stop stop-color="#757DC0" stop-opacity="0" offset="0%"></stop>
            <stop stop-color="#464D89" stop-opacity="0.1" offset="100%"></stop>
        </linearGradient>
        <rect id="path-6" x="0" y="0" width="585" height="365" rx="30"></rect>
    </defs>
    <g id="Handsome" stroke="none" stroke-width="1" fill="none" fill-rule="evenodd">
        <g id="Primary" transform="translate(-428.000000, -9764.000000)">
            <g id="Credit-cards" transform="translate(428.000000, 9764.000000)">
                <g id="Detail" transform="translate(80.000000, 80.000000)">
                    <mask id="mask-3" fill="white">
                        <use xlink:href="#path-2"></use>
                    </mask>
                    <g>
                        <use fill="#E8799D" xlink:href="#path-2"></use>
                        <use fill="url(#linearGradient-1)" xlink:href="#path-2"></use>
                    </g>
                    <rect fill="#C74D75" mask="url(#mask-3)" x="0" y="70" width="585" height="83"></rect>
                    <rect id="Sh" fill="url(#linearGradient-4)" mask="url(#mask-3)" x="-50" y="-50" width="585" height="365" rx="30"></rect>
                </g>
                <g id="Detail">
                    <use fill="#757DC0" xlink:href="#path-6"></use>
                    <use fill="url(#linearGradient-5)" xlink:href="#path-6"></use>
                </g>
                <circle id="Detail" fill="#FF6663" cx="461" cy="287" r="38"></circle>
                <circle id="Detail" fill="#FFC62C" cx="507" cy="287" r="38"></circle>
                <rect id="Detail" fill="#5B64B0" x="40" y="193" width="112" height="37" rx="18.5"></rect>
                <rect id="Detail" fill="#5B64B0" x="40" y="288" width="146" height="37" rx="18.5"></rect>
                <rect id="Detail" fill="#5B64B0" x="171" y="193" width="112" height="37" rx="18.5"></rect>
                <rect id="Detail" fill="#5B64B0" x="205" y="288" width="96" height="37" rx="18.5"></rect>
                <rect id="Detail" fill="#5B64B0" x="302" y="193" width="112" height="37" rx="18.5"></rect>
                <rect id="Detail" fill="#5B64B0" x="433" y="193" width="112" height="37" rx="18.5"></rect>
                <path d="M484,256.748474 C493.115949,263.68992 499,274.657813 499,287 C499,299.342187 493.115949,310.31008 484,317.251526 C474.884051,310.31008 469,299.342187 469,287 C469,274.657813 474.884051,263.68992 484,256.748474 Z" id="Detail" fill="#FF9547"></path>
                <path d="M152,146 L152,163 C152,168.522847 147.522847,173 142,173 L50,173 C44.4771525,173 40,168.522847 40,163 L40,146 L77,146 L77,144 L40,144 L40,120 L77,120 L77,118 L40,118 L40,103 C40,97.4771525 44.4771525,93 50,93 L142,93 C147.522847,93 152,97.4771525 152,103 L152,118 L115,118 L115,120 L152,120 L152,144 L115,144 L115,146 L152,146 Z M115,154 L115,112 C115,101.50659 106.49341,93 96,93 C85.5065898,93 77,101.50659 77,112 L77,154 C77,164.49341 85.5065898,173 96,173 C106.49341,173 115,164.49341 115,154 Z M96,95 C105.388841,95 113,102.611159 113,112 L113,154 C113,163.388841 105.388841,171 96,171 C86.6111593,171 79,163.388841 79,154 L79,112 C79,102.611159 86.6111593,95 96,95 Z" id="Detail" fill="#5B64B0"></path>
            </g>
        </g>
    </g>
</svg>