<?xml version="1.0" encoding="UTF-8"?>
<svg width="508px" height="590px" viewBox="0 0 508 590" version="1.1" xmlns="http://www.w3.org/2000/svg" xmlns:xlink="http://www.w3.org/1999/xlink">
    <!-- Generator: Sketch 51 (57462) - http://www.bohemiancoding.com/sketch -->
    <title>Fish</title>
    <desc>Created with Sketch.</desc>
    <defs>
        <linearGradient x1="50%" y1="0%" x2="50%" y2="100%" id="linearGradient-1">
            <stop stop-color="#7E5A9B" stop-opacity="0" offset="0%"></stop>
            <stop stop-color="#000000" stop-opacity="0.3" offset="100%"></stop>
        </linearGradient>
        <linearGradient x1="88.6309274%" y1="14.3732718%" x2="50%" y2="50%" id="linearGradient-2">
            <stop stop-color="#7E5A9B" stop-opacity="0" offset="0%"></stop>
            <stop stop-color="#000000" stop-opacity="0.5" offset="100%"></stop>
        </linearGradient>
        <circle id="path-3" cx="69.5" cy="69.5" r="69.5"></circle>
        <linearGradient x1="50%" y1="0%" x2="50%" y2="100%" id="linearGradient-5">
            <stop stop-color="#D7BCED" stop-opacity="0" offset="0%"></stop>
            <stop stop-color="#000000" stop-opacity="0.1" offset="100%"></stop>
        </linearGradient>
        <path d="M216,117 C205.617694,128.307714 198.350308,140.568102 193,153 C178.306373,129.260538 189.092163,101.958994 155,96 C115.424566,87.8357306 229.778199,26.2637117 276,69 C254.744861,79.7177947 234.153585,95.3588721 216,117 Z" id="path-6"></path>
        <path d="M216,71 C268.561596,10.7233259 338.10031,-4.2720446 389,1 C440.46681,5.15327313 469.580352,27.3606574 476,44 C481.913898,59.1194524 479.529006,187.167273 400,231 C319.310334,273.697143 250.014422,226.784346 238,220 C225.979506,213.115969 208.408666,211.600413 203,229 C198.635374,242.407728 219.621441,257.683734 243,263 C286.349803,272.44551 331.988815,293.331545 332,341 C331.988815,388.332927 262.514147,447.923343 257,439 C250.936437,428.903065 284.80882,373.723684 233,364 C213.694372,360.000174 158.796905,343.00785 157,307 C136.76801,332.301301 140.361967,354.104366 223,424 C275.327197,467.967966 193.402731,585.227169 206,531 C217.687964,475.963328 171.82908,444.836112 92,439 C11.7626803,431.990296 -29.2798241,344.574147 24,286 C76.811065,226.479431 167.464221,267.915055 175,232 C183.28356,195.730936 167.896244,126.526459 216,71 Z" id="path-7"></path>
        <linearGradient x1="91.3302682%" y1="66.9292806%" x2="29.7502127%" y2="30.8525956%" id="linearGradient-9">
            <stop stop-color="#7E5A9B" stop-opacity="0" offset="0%"></stop>
            <stop stop-color="#000000" stop-opacity="0.3" offset="100%"></stop>
        </linearGradient>
        <linearGradient x1="100%" y1="0%" x2="0%" y2="100%" id="linearGradient-10">
            <stop stop-color="#7E5A9B" stop-opacity="0" offset="0%"></stop>
            <stop stop-color="#000000" stop-opacity="0.3" offset="100%"></stop>
        </linearGradient>
        <linearGradient x1="100%" y1="0%" x2="0%" y2="100%" id="linearGradient-11">
            <stop stop-color="#000000" stop-opacity="0.4" offset="0%"></stop>
            <stop stop-color="#7E5A9B" stop-opacity="0" offset="100%"></stop>
        </linearGradient>
        <path d="M92,0 C74.0449004,1.13686838e-13 36.4571263,26.5 7,37 C-22.3005088,47.5 47.8387164,74 70,74 C93.4730748,74 110.583685,-1.13686838e-13 92,0 Z" id="path-12"></path>
        <circle id="path-13" cx="69.5" cy="69.5" r="69.5"></circle>
    </defs>
    <g id="Handsome" stroke="none" stroke-width="1" fill="none" fill-rule="evenodd">
        <g id="Primary" transform="translate(-2246.000000, -10850.000000)">
            <g id="Fish" transform="translate(2246.000000, 10850.000000)">
                <g id="Eye-L" transform="translate(369.000000, 22.000000)">
                    <mask id="mask-4" fill="white">
                        <use xlink:href="#path-3"></use>
                    </mask>
                    <g id="Eye">
                        <use fill="#7E5A9B" xlink:href="#path-3"></use>
                        <use fill="url(#linearGradient-1)" xlink:href="#path-3"></use>
                        <use fill="url(#linearGradient-2)" xlink:href="#path-3"></use>
                    </g>
                </g>
                <g id="Fin">
                    <use fill="#B491D1" xlink:href="#path-6"></use>
                    <use fill="url(#linearGradient-5)" xlink:href="#path-6"></use>
                </g>
                <g id="Body" transform="translate(0.000000, 45.000000)">
                    <mask id="mask-8" fill="white">
                        <use xlink:href="#path-7"></use>
                    </mask>
                    <g>
                        <use fill="#7E5A9B" xlink:href="#path-7"></use>
                        <use fill="url(#linearGradient-1)" xlink:href="#path-7"></use>
                    </g>
                    <path d="M203,229 C200.496764,241.291428 220.0809,257.293477 244,263 C252.198783,270.625536 258,278.386963 258,286 C258,329.341668 213.044109,332.707352 208,357 C184.342946,350.019372 157.961494,332.861837 157,307 C160.692475,303.88332 180.092737,287.953397 189,272 C199.186616,252.915443 203.075305,228.772994 203,229 Z" id="Sh" fill="url(#linearGradient-9)" mask="url(#mask-8)"></path>
                    <path d="M476,44 C475.919185,44.1007306 475.958724,44.2012584 476,44 C481.911257,59.4178787 479.526397,187.438959 400,231 C319.309879,273.950759 250.014899,227.047758 238,220 C234.930757,218.507079 231.498862,217.09941 228,216 C389.349958,250.459474 459.85768,118.164023 476,44 Z" id="Sh" fill="url(#linearGradient-10)" mask="url(#mask-8)"></path>
                    <g id="Stops" mask="url(#mask-8)" fill="#8964A8">
                        <g transform="translate(-18.000000, 25.000000)" id="Spot">
                            <path d="M148,447 C177,447 177,431.648421 177,404 C177,377.107199 164.077403,355 148,355 C132.19574,355 104,361.062987 104,388 C104,415.60421 119.273143,447 148,447 Z"></path>
                            <path d="M60,403 C76.4787311,403 65.143612,386.713144 65,371 C65.143612,356.075044 37,352.564519 37,368 C37,383.202619 44.0856111,403 60,403 Z"></path>
                            <path d="M252,432 C261.649055,432 259.666761,415.975458 256,412 C251.542434,407.103143 239,413.099034 239,419 C239,424.580826 243.065034,432 252,432 Z"></path>
                            <path d="M61,312 C108.04815,331.431287 121,272.735767 121,248 C121,223.871445 0,276.656157 0,301 C0,325.520478 12.9518502,292.95404 61,312 Z"></path>
                            <path d="M288,301 C335.419766,320.095372 308.306326,281.667247 308,257 C308.306326,232.478515 238,203.8064 238,228 C238,252.995132 240.277159,281.362674 288,301 Z"></path>
                            <path d="M250,46 C297.823181,65.5083959 285.480511,6.81284611 271,1 C256.463235,-5.30748937 202.677315,26.6351572 250,46 Z"></path>
                            <path d="M386,89 C409.603977,88.7846176 427.31855,123.714672 443,106 C459.790281,88.1577473 430.003209,49.1863833 405,54 C379.871038,58.3970415 332,23.1565826 332,48 C332,72.3752715 361.94549,88.7846176 386,89 Z"></path>
                            <path d="M373,115 C390.125381,134.51459 392.878293,107.661486 388,102 C382.288922,95.4954224 355.403481,95.4946875 373,115 Z"></path>
                            <path d="M270,370 C293.591375,381.044107 291.976496,371.52915 292,358 C291.976496,344.675846 272.124267,338.426277 263,342 C253.249114,345.54267 246.508318,359.899003 270,370 Z"></path>
                        </g>
                    </g>
                </g>
                <g id="Fin" transform="translate(209.000000, 141.000000)">
                    <path d="M100,21 C102.021964,41.5903558 87.8852283,84 70,84 C49.2128125,84 -14.2505872,60.5121688 3,49 C14.067236,60.5420958 54.2855954,74.0055091 70,74 C85.3391429,74.0055091 97.9001787,42.8677531 100,21 Z" id="Sh" fill="url(#linearGradient-11)"></path>
                    <g>
                        <use fill="#B491D1" xlink:href="#path-12"></use>
                        <use fill="url(#linearGradient-5)" xlink:href="#path-12"></use>
                    </g>
                </g>
                <g id="Eye-R" transform="translate(289.000000, 0.000000)">
                    <g id="Eye">
                        <use fill="#7E5A9B" xlink:href="#path-13"></use>
                        <use fill="url(#linearGradient-1)" xlink:href="#path-13"></use>
                    </g>
                    <circle id="Eye" fill="#FFFFFF" cx="66" cy="47" r="40"></circle>
                    <path d="M53.6222521,57.4932047 C55.6938462,55.6610141 57,52.9830413 57,50 C57,44.4771525 52.5228475,40 47,40 C44.0169587,40 41.3389859,41.3061538 39.5067953,43.3777479 C39.1753644,41.9723225 39,40.5066405 39,39 C39,28.5065898 47.5065898,20 58,20 C68.4934102,20 77,28.5065898 77,39 C77,49.4934102 68.4934102,58 58,58 C56.4933595,58 55.0276775,57.8246356 53.6222521,57.4932047 Z" id="Eye" fill="#000000"></path>
                </g>
            </g>
        </g>
    </g>
</svg>