<?xml version="1.0" encoding="UTF-8"?>
<svg width="343px" height="753px" viewBox="0 0 343 753" version="1.1" xmlns="http://www.w3.org/2000/svg" xmlns:xlink="http://www.w3.org/1999/xlink">
    <!-- Generator: Sketch 51 (57462) - http://www.bohemiancoding.com/sketch -->
    <title>Girl and Phone</title>
    <desc>Created with Sketch.</desc>
    <defs>
        <linearGradient x1="50%" y1="0%" x2="50%" y2="100%" id="linearGradient-1">
            <stop stop-color="#403F9F" stop-opacity="0" offset="0%"></stop>
            <stop stop-color="#000000" stop-opacity="0.1" offset="100%"></stop>
        </linearGradient>
        <path d="M118,308 C123.693973,311.55045 138.88433,309.657641 148,313 C159.243381,316.531678 170.382042,336.332463 153,339 C134.784102,340.092832 107.951581,336.332463 97,332 C85.9092792,328.035468 87.8149502,316.066193 89,307 C92.367956,308.901452 97.4190262,309.843372 104,310 C109.947914,309.843372 114.644769,309.175651 118,308 Z" id="path-2"></path>
        <path d="M43,308 C42.1338497,312.009902 42.1574787,317.333963 44,324 C46.0191845,336.212229 33.57906,366.670995 16,364 C-2.29941828,360.518549 -3.83727171,336.212229 6,327 C14.3520214,319.603206 15.533946,315.035348 16,309 C18.936597,309.725137 22.9490624,310.169844 28,310 C34.0377157,310.169844 38.9172662,309.443976 43,308 Z" id="path-3"></path>
        <linearGradient x1="50%" y1="0%" x2="50%" y2="100%" id="linearGradient-4">
            <stop stop-color="#1F1845" stop-opacity="0" offset="0%"></stop>
            <stop stop-color="#000000" stop-opacity="0.2" offset="100%"></stop>
        </linearGradient>
        <path d="M24,0 L115,0 C127.502127,25.7024149 133.499077,55.0357483 133,88 C132.388253,121.601547 129.389778,193.601547 124,304 C121.701706,308.666667 115.038428,311 104,311 C93.5303355,311 86.867058,308.666667 84,304 C78.4235604,228.753489 74.4871086,171.45162 72,132 L49,304 C46.4593312,308.666667 39.4628899,311 28,311 C16.799467,311 10.1361896,308.666667 8,304 C1.15924433,180.631565 0.159752714,99.9648983 5,62 C10.2260805,24.6747289 16.556194,4.00806226 24,0 Z" id="path-5"></path>
        <path d="M312,269 C288.272646,361.457641 137.156026,374.924867 67,313 C-4.10013012,251.811223 -14.4871365,168.856489 17,101 C47.6586458,33.3810355 110.366054,0 180,0 C250.426243,0 296.761157,72.0049819 246,109 C194.540606,145.821036 336.21443,177.174973 312,269 Z" id="path-7"></path>
        <linearGradient x1="16.126432%" y1="-8.50739097%" x2="64.0182%" y2="108.976227%" id="linearGradient-8">
            <stop stop-color="#000000" stop-opacity="0.64600317" offset="0%"></stop>
            <stop stop-color="#1F1845" stop-opacity="0" offset="100%"></stop>
        </linearGradient>
        <path d="M42,168 C46.4812792,182.319929 48.1863663,183.093176 48,185 C48.1863663,186.782734 45.7915774,191.319802 41,194 C36.7307101,197.590316 29.988002,198.820236 29,197 C27.1547111,194.81331 4.04499789e-16,144.026052 0,127 C0,113.815793 1.64943604,77.8402076 9,52 C16.1914255,25.7426389 30.4402696,11.1708997 53,4 C53.8054731,3.31691273 67.2672524,1.01226893e-15 73,0 C110.445712,-6.92599027e-15 141,30.564592 141,68 C141,72.7057568 140.567419,77.133013 140,81 L126,152 C115.596055,160.78053 100.590485,165.116934 81,165 C60.9361668,165.116934 46.2031618,161.340084 37,154 C38.2655638,158.185335 40.0076261,163.070169 42,168 Z" id="path-9"></path>
        <linearGradient x1="13.0643888%" y1="0%" x2="100%" y2="100%" id="linearGradient-10">
            <stop stop-color="#000000" stop-opacity="0.155089447" offset="0%"></stop>
            <stop stop-color="#000000" stop-opacity="0" offset="100%"></stop>
        </linearGradient>
        <path d="M35.0000047,0.415558446 L35,11.5 C35,21.1649831 27.1649831,29 17.5,29 C7.83501688,29 1.33226763e-15,21.1649831 0,11.5 L0,1.36394064 C5.00932852,2.43172939 10.3449092,3 16,3 C22.9848345,3 29.3064179,2.05332285 35.0000047,0.415558446 Z" id="path-11"></path>
        <linearGradient x1="0%" y1="0%" x2="100%" y2="100%" id="linearGradient-13">
            <stop stop-color="#000000" stop-opacity="0.2" offset="0%"></stop>
            <stop stop-color="#FF6663" stop-opacity="0" offset="100%"></stop>
        </linearGradient>
        <path d="M34.7767017,14.3031258 C31.2176618,16.0309457 27.2219983,17 23,17 C13.2766483,17 4.75375515,11.8602262 0,4.14935806 L5.1159077e-13,1.36394064 C5.00932852,2.43172939 10.3449092,3 16,3 C22.9848345,3 29.3064179,2.05332285 35.0000047,0.415558446 L35,11.5 C35,12.4541356 34.9236414,13.3904367 34.7767017,14.3031258 Z" id="path-14"></path>
        <linearGradient x1="100%" y1="100%" x2="0%" y2="0%" id="linearGradient-16">
            <stop stop-color="#000000" stop-opacity="0.1" offset="0%"></stop>
            <stop stop-color="#FF6663" stop-opacity="0" offset="100%"></stop>
        </linearGradient>
        <linearGradient x1="50%" y1="-277.697167%" x2="50%" y2="77.0167791%" id="linearGradient-17">
            <stop stop-color="#000000" offset="0%"></stop>
            <stop stop-color="#000000" stop-opacity="0" offset="100%"></stop>
        </linearGradient>
        <path d="M7,43 C1.99610262,34.5754767 -0.1736645,29.4726283 0,25 C0.27968191,20.5848804 2.05543463,6.79153367 6,2 C11.0175961,-2.4483581 17.9714676,0.937928746 26,8 C30.3315156,12.6555937 35.1218401,22.5223654 38,24 C40.0744372,24.1569419 41.3506523,16.0795344 43,16 C45.17209,16.1715431 41.9693611,36.487798 42,38 C41.1693403,47.9509874 38.936811,51.7146248 41,61 C40.6307689,59.94761 63.2903746,120.989439 38,124 C13.4199803,126.379263 20.9455139,96.1161455 21,66 C14.8642777,54.6188716 12.0251031,51.0201711 7,43 Z" id="path-18"></path>
        <path d="M20,65 C-6.50299047,67.1959111 -0.0914879874,25.134834 3,6 C6.42870107,7.01262066 9.48232893,6.93569758 14,5.92307692 C18.2060598,4.55145719 20.9474067,2.62329963 23,1 C22.8991148,0.430154134 47.4473377,61.7853036 20,65 Z" id="path-20"></path>
        <linearGradient x1="42.2196673%" y1="6.24717136%" x2="10.6106425%" y2="100%" id="linearGradient-22">
            <stop stop-color="#403F9F" stop-opacity="0" offset="0%"></stop>
            <stop stop-color="#000000" stop-opacity="0.2" offset="100%"></stop>
        </linearGradient>
        <path d="M32,53 C30.4810663,59.7676693 25.8498812,66 17,66 C11.5774506,66 7.91078392,64 6,60 L3,6 L32,53 Z" id="path-23"></path>
    </defs>
    <g id="Handsome" stroke="none" stroke-width="1" fill="none" fill-rule="evenodd">
        <g id="Primary" transform="translate(-589.000000, -346.000000)">
            <g id="Girl-and-Phone" transform="translate(589.000000, 346.000000)">
                <path d="M59,718 C70.9914595,668.068889 178.829331,639 253,639 C327.315333,639 378.828341,690.790532 312,725 C245.559013,759.223165 47.973436,767.791256 59,718 Z" id="Sh" fill="#F0F0F6"></path>
                <g id="Legs" transform="translate(125.000000, 364.000000)">
                    <g id="Leg-R">
                        <use fill="#403F9F" xlink:href="#path-2"></use>
                        <use fill="url(#linearGradient-1)" xlink:href="#path-2"></use>
                    </g>
                    <g id="Leg-L">
                        <use fill="#403F9F" xlink:href="#path-3"></use>
                        <use fill="url(#linearGradient-1)" xlink:href="#path-3"></use>
                    </g>
                    <mask id="mask-6" fill="white">
                        <use xlink:href="#path-5"></use>
                    </mask>
                    <g>
                        <use fill="#1F1845" xlink:href="#path-5"></use>
                        <use fill="url(#linearGradient-4)" xlink:href="#path-5"></use>
                    </g>
                    <path d="M97.663637,59.0582676 C98.1837414,58.8724994 98.7559642,59.1435325 98.9417324,59.663637 C99.1275006,60.1837414 98.8564675,60.7559642 98.336363,60.9417324 C91.8679837,63.2520742 86.6201249,69.0707008 81.9597365,82.2809018 C78.7063796,93.3964054 75.3793324,115.687622 71.9949093,149.100775 C71.9392531,149.650248 71.4486987,150.050566 70.8992255,149.994909 C70.3497523,149.939253 69.9494345,149.448699 70.0050907,148.899225 C73.4016933,115.365829 76.7413128,92.9903788 80.0569291,81.6674084 C84.9236457,67.8677248 90.5903913,61.5846524 97.663637,59.0582676 Z" id="Line" fill="#FFFFFF" fill-rule="nonzero" mask="url(#mask-6)"></path>
                </g>
                <g id="Hair">
                    <g>
                        <use fill="#1F1845" xlink:href="#path-7"></use>
                        <use fill="url(#linearGradient-4)" xlink:href="#path-7"></use>
                    </g>
                    <path d="M248.746915,149.700744 C275.02451,176.218581 327.500504,210.219586 312,269 C298.622742,321.126744 244.75356,348.145612 187.730069,350.701446 C127.311738,333.787279 83,278.31842 83,212.5 C83,186.508572 89.9100971,162.131085 101.993386,141.104441 C104.269359,152.166484 110.489798,161 121,161 C130.368254,187.292073 152.862611,208 187,208 C221.137389,208 239.432183,185.387413 246,170 C248.83576,163.356239 249.22275,157.197212 248.746915,149.700744 Z" id="Sh" fill="url(#linearGradient-8)"></path>
                </g>
                <g id="Body" transform="translate(114.000000, 212.000000)">
                    <g>
                        <use fill="#403F9F" xlink:href="#path-9"></use>
                        <use fill="url(#linearGradient-1)" xlink:href="#path-9"></use>
                    </g>
                    <path d="M36.8560402,153.904152 L31,128.760733 L40.5887092,82.1804929 C61.4335965,137.329599 71.8560402,164.904152 71.8560402,164.904152 C57.376026,164.904152 45.7093593,161.237486 36.8560402,153.904152 Z" id="Sh" fill="url(#linearGradient-10)"></path>
                </g>
                <g id="Neck" transform="translate(171.000000, 204.000000)">
                    <mask id="mask-12" fill="white">
                        <use xlink:href="#path-11"></use>
                    </mask>
                    <use fill="#FF6663" xlink:href="#path-11"></use>
                    <mask id="mask-15" fill="white">
                        <use xlink:href="#path-14"></use>
                    </mask>
                    <use id="Sh" fill="url(#linearGradient-13)" xlink:href="#path-14"></use>
                </g>
                <g id="Face" transform="translate(101.000000, 109.000000)">
                    <path d="M0,22 C-9.09385486e-13,6.51144203 14.3826989,3.04932954 20,5 C50.0775016,15.4447478 104.788073,18.6812341 145,0 C145,32.8253794 151.567817,45.6125868 145,61 C138.432183,76.3874132 120.137389,99 86,99 C51.8626115,99 29.3682541,78.2920735 20,52 C6.4182955,52 9.09513785e-13,37.2490494 0,22 Z" fill="#FF6663"></path>
                    <path d="M20.0062764,5.00217933 C50.0851122,15.4451979 104.79087,18.6799347 145,0 C145,14.0845859 146.209176,24.4800181 147.071043,32.974629 C147.047373,32.9831045 147.023692,32.9915615 147,33 C107.383301,47.1104344 54.6450343,36.808695 20.0062764,5.00217933 Z" id="Sh" fill="url(#linearGradient-16)"></path>
                    <circle id="Sh" fill="url(#linearGradient-17)" cx="15.5" cy="27.5" r="9.5"></circle>
                </g>
                <g id="Headphones" transform="translate(112.000000, 130.000000)">
                    <polygon id="Plug" fill="#E2E2E2" points="111.002431 155 109.000768 153 110.727617 148.968894 113.61234 148.968894"></polygon>
                    <polygon id="Plug" fill="#FFFFFF" points="114 148 119 148 116 155 111 155"></polygon>
                    <path d="M68.617372,117.528705 C64.3363178,113.444444 46.2387709,98.6054759 43.9881425,96.6426229 C32.4540283,86.583312 24.1997152,77.3650127 17.8988297,66.4847231 C10.1126915,53.0397181 6,37.8444075 6,20 C6,19.4477153 6.44771525,19 7,19 C7.55228475,19 8,19.4477153 8,20 C8,37.491145 12.0191679,52.3409105 19.6295601,65.4824396 C25.8037322,76.1439221 33.9200663,85.2081285 45.3027047,95.1353318 C47.503307,97.0545553 65.651974,111.935439 69.9979344,116.081622 C76.1642849,121.964516 80.026223,127.157881 81.9444702,132.671403 C82.2419869,142.511971 82.2851554,145.002762 82.5942843,164.993452 C82.9721974,189.432271 83.3980534,198.864077 84.7902752,206.576928 C86.376589,215.36504 89.1087235,219 94,219 C100.216251,219 102.709905,211.921032 105.369281,191.244466 C105.520907,190.065579 106.046203,185.917698 106.082724,185.631097 C106.375058,183.336982 106.609256,181.546673 106.849606,179.788445 C107.466606,175.274926 108.069324,171.406923 108.753133,167.709641 C109.69457,162.619382 110.766592,158.005746 112.041418,153.715183 C112.198718,153.185773 112.755407,152.884118 113.284817,153.041418 C113.814227,153.198718 114.115882,153.755407 113.958582,154.284817 C112.705488,158.50224 111.649135,163.048442 110.71978,168.07337 C110.042353,171.736151 109.444253,175.574514 108.831177,180.059327 C108.591784,181.810553 108.358312,183.595308 108.066681,185.883909 C108.030377,186.168806 107.504862,190.318413 107.352941,191.4996 C105.996454,202.046248 105.00513,207.578191 103.409763,212.107105 C101.350785,217.952118 98.3804664,221 94,221 C87.8991189,221 84.5593563,216.556623 82.8220827,206.9322 C81.4019649,199.064807 80.9745172,189.597747 80.5945234,165.024376 C80.2872279,145.152245 80.2428765,142.581355 80.0043226,133.182914 C78.1906016,128.074981 74.5184025,123.158475 68.617372,117.528705 Z" id="Path-16" fill="#FFFFFF" fill-rule="nonzero"></path>
                    <path d="M113.89206,65.4979217 C114.602853,64.9623226 115.295741,64.4161555 115.970916,63.8608073 C115.722445,71.7490702 113.885179,78.7736976 110.583803,85.4465875 C107.804738,91.0637616 104.447557,95.8026634 98.7715346,102.686244 C99.1608116,102.21415 94.6225678,107.678865 93.4467633,109.135712 C85.4214675,119.079223 82,126.028894 82,135 C82,135.552285 81.5522847,136 81,136 C80.4477153,136 80,135.552285 80,135 C80,125.467205 83.6041476,118.146476 91.8904218,107.879606 C93.0765714,106.409942 97.6262769,100.931425 97.2284654,101.413869 C102.814507,94.6394126 106.096016,90.0073277 108.791197,84.5597052 C111.728991,78.6217015 113.459148,72.4068056 113.89206,65.4979217 Z" id="Combined-Shape" fill="#FFFFFF" fill-rule="nonzero"></path>
                    <path d="M10,12.3263688 L10,17 C10,18.6568542 8.65685425,20 7,20 C5.34314575,20 4,18.6568542 4,17 L4,12.3263688 C4.90925538,12.758309 5.92640271,13 7,13 C8.07359729,13 9.09074462,12.758309 10,12.3263688 Z" id="Combined-Shape" fill="#E2E2E2"></path>
                    <circle id="Oval-6" fill="#FFFFFF" cx="7" cy="7" r="7"></circle>
                    <circle id="Oval-7" fill="#FFFFFF" cx="81" cy="133" r="6"></circle>
                </g>
                <g id="Phone" transform="translate(209.000000, 213.000000)">
                    <path d="M5.498706,62 L5.498706,64.941768 L1.81608227,61.2641037 C1.18394742,60.7140965 0.784356521,59.903713 0.784356521,59 C0.784356521,58.5474221 0.886753526,58.1007094 1.08387877,57.6933172 L26.2688432,5.64439072 C27.9390211,2.19268966 31.4358908,0 35.2704357,0 L57.2156435,0 C58.179003,0 58.9364362,0.53428776 59.5852005,1.15988262 C60.0177101,1.57694587 61.2440286,2.7960936 63.2641561,4.81732584 L59.9357143,4.26539115 C59.9347334,4.26749973 53.3699819,4.26779411 40.2414597,4.26627429 C36.0172724,4.2657861 32.1659353,6.68430403 30.3315326,10.4893961 L5.498706,62 Z" fill="#D6DFEA"></path>
                    <path d="M39.2704357,4 L61.2156435,4 C62.8724977,4 64.2156435,5.34314575 64.2156435,7 C64.2156435,7.45257788 64.1132465,7.89929062 63.9161212,8.30668278 L38.7311568,60.3556093 C37.0609789,63.8073103 33.5641092,66 29.7295643,66 L7.78435652,66 C6.12750227,66 4.78435652,64.6568542 4.78435652,63 C4.78435652,62.5474221 4.88675353,62.1007094 5.08387877,61.6933172 L30.2688432,9.64439072 C31.9390211,6.19268966 35.4358908,4 39.2704357,4 Z" fill="#FFFFFF"></path>
                </g>
                <g id="Hand-R" transform="translate(219.000000, 228.000000)">
                    <mask id="mask-19" fill="white">
                        <use xlink:href="#path-18"></use>
                    </mask>
                    <use id="Hand" fill="#FF6663" xlink:href="#path-18"></use>
                    <g id="Blouse" mask="url(#mask-19)">
                        <g transform="translate(18.000000, 60.000000)" id="Group-2">
                            <g>
                                <mask id="mask-21" fill="white">
                                    <use xlink:href="#path-20"></use>
                                </mask>
                                <g id="Blouse">
                                    <use fill="#403F9F" xlink:href="#path-20"></use>
                                    <use fill="url(#linearGradient-1)" xlink:href="#path-20"></use>
                                </g>
                                <mask id="mask-24" fill="white">
                                    <use xlink:href="#path-23"></use>
                                </mask>
                                <use id="Combined-Shape" fill="url(#linearGradient-22)" xlink:href="#path-23"></use>
                            </g>
                        </g>
                    </g>
                </g>
                <path d="M144,411 C143.447715,411 143,410.552285 143,410 C143,409.447715 143.447715,409 144,409 C148.312517,409 152.876157,407.650942 156.459515,404.722389 C161.254944,400.803252 164,394.379396 164,385 C164,384.447715 164.447715,384 165,384 C165.552285,384 166,384.447715 166,385 C166,394.953606 163.009213,401.952511 157.72514,406.270999 C153.750319,409.519481 148.741969,411 144,411 Z" id="Line" fill="#FFFFFF" fill-rule="nonzero"></path>
            </g>
        </g>
    </g>
</svg>