<?xml version="1.0" encoding="UTF-8"?>
<svg width="418px" height="754px" viewBox="0 0 418 754" version="1.1" xmlns="http://www.w3.org/2000/svg" xmlns:xlink="http://www.w3.org/1999/xlink">
    <!-- Generator: Sketch 51 (57462) - http://www.bohemiancoding.com/sketch -->
    <title>Girl</title>
    <desc>Created with Sketch.</desc>
    <defs>
        <linearGradient x1="50%" y1="0%" x2="50%" y2="100%" id="linearGradient-1">
            <stop stop-color="#A7A7EE" stop-opacity="0" offset="0%"></stop>
            <stop stop-color="#4C55A0" stop-opacity="0.2" offset="100%"></stop>
        </linearGradient>
        <path d="M190.180548,670.969253 C190.241963,672.845511 190.204966,674.595975 190.047696,676.039111 C189.064404,685.061969 184.566751,691.078666 177.460014,700.59163 C170.353277,710.104594 153.401697,729.959672 136.165727,718.669137 C120.015426,708.089776 145.897652,676.561538 156.955984,670 C164.562286,675.373127 181.845939,676.818478 190.180548,670.969253 Z" id="path-2"></path>
        <path d="M274.276275,668 C286.214855,672.879606 320.005237,693.400417 312.14835,708.801863 C303.472372,725.808933 269.175459,706.467429 261.219606,700.904971 C253.263753,695.342513 246.497616,688.622974 243.080557,682.220045 C241.86824,679.94839 241.211206,674.736705 241,669.438863 C248.950565,673.521504 265.899694,675.376332 274.276275,668 Z" id="path-3"></path>
        <linearGradient x1="50%" y1="0%" x2="50%" y2="100%" id="linearGradient-4">
            <stop stop-color="#403F9F" stop-opacity="0" offset="0%"></stop>
            <stop stop-color="#000000" stop-opacity="0.2" offset="100%"></stop>
        </linearGradient>
        <path d="M253.738375,360.966614 C293.057707,403.875882 281.008775,633.028503 279.738375,656.966614 C279.581183,680.380069 242.365128,674.460144 237.738375,666.966614 C232.982629,658.404648 218.476655,449.001634 213.738375,448.966614 C208.649792,449.001634 198.54571,653.785461 193.738375,666.966614 C188.019177,679.079331 158.537827,676.160506 153.738375,666.966614 C147.995607,656.704286 120.883653,426.146407 163.738375,360.966614 C168.092339,354.344462 247.670255,354.344462 253.738375,360.966614 Z" id="path-5"></path>
        <path d="M50,44 C66.3632055,-1.93287745 134.273217,-15.2107041 170,20 C206.043926,55.8050751 222.885646,33.0818075 242,49 C261.244395,65.4032296 242.06502,95.3832473 223,112 C204.114395,128.864271 247.725261,159.781941 236,200 C224.420371,240.133806 170.438441,224.791099 153,249 C135.245462,273.496438 103.160407,227.449473 48,222 C-6.53115273,216.106106 -15.3810571,151.386219 25,121 C66.0786543,90.4367652 34.2657755,90.4367652 50,44 Z" id="path-6"></path>
        <linearGradient x1="0%" y1="0%" x2="100%" y2="100%" id="linearGradient-8">
            <stop stop-color="#000000" stop-opacity="0.3" offset="0%"></stop>
            <stop stop-color="#1F1845" stop-opacity="0" offset="100%"></stop>
        </linearGradient>
        <path d="M199.078202,229.871283 C185.063596,233.506131 170.242811,235.419777 160.112261,242.228331 C157.336788,244.071414 154.925648,246.28212 153,249 C148.645521,254.958531 142.949248,256.64035 136.096302,255.755295 C119.574897,252.765635 96.2425257,232.689267 63.801662,224.726157 C30.5944075,187.437996 57.1555773,105.278896 76,139 C90.6333006,164.890786 126.953896,154.886395 185,109 C211.590846,152.048192 219.295897,186.482226 208,212 C204.7961,219.340025 201.979804,225.085456 199.078202,229.871283 Z" id="path-9"></path>
        <linearGradient x1="50%" y1="0%" x2="50%" y2="100%" id="linearGradient-11">
            <stop stop-color="#FFC62C" stop-opacity="0" offset="0%"></stop>
            <stop stop-color="#FF6663" stop-opacity="0.1" offset="100%"></stop>
        </linearGradient>
        <path d="M206.284549,43.0569848 C207.188662,43.0190216 208.094009,43 209,43 C209.912219,43 210.82003,43.0188708 211.723065,43.0562433 C212.125733,43.0171745 212.55122,42.9982412 213,43 C244.994227,42.8684633 275.22792,55.3805972 305,114 C308.501501,120.310652 350.49852,47.571994 350,41 C350.49852,34.348019 352.255753,2.44642196 356,-1.58942304e-13 C360.758813,-0.777046252 364.16699,1.86874305 361,17 C359.180383,33.6699174 413.754928,-5.76636256 417,9 C421.622245,24.4857176 408.174298,39.704226 384,45 C359.969101,51.7390376 363.536214,49.0494998 360,65 C356.507283,81.6421241 334.746415,155.435882 305,157 C296.810198,157.419241 283.146846,148.397499 268.547385,135.265728 L254,188 C239.031161,194.666667 224.031161,198 209,198 C193.992051,198 178.992051,194.666667 164,188 L149.452615,135.265728 C134.853154,148.397499 121.189802,157.419241 113,157 C83.2535851,155.435882 61.4927169,81.6421241 58,65 C54.4637857,49.0494998 58.0308987,51.7390376 34,45 C9.82570173,39.704226 -3.62224496,24.4857176 1,9 C4.24507206,-5.76636256 58.8196171,33.6699174 57,17 C53.8330096,1.86874305 57.241187,-0.777046252 62,-1.58942304e-13 C65.7442468,2.44642196 67.5014796,34.348019 68,41 C67.5014796,47.571994 109.498499,120.310652 113,114 C142.77208,55.3805972 173.005773,42.8684633 205,43 C205.45161,42.9982301 205.879632,43.0174141 206.284549,43.0569848 Z" id="path-12"></path>
        <path d="M278.270331,143.491946 C275.11303,140.999729 271.855196,138.234443 268.549481,135.258132 L254,188 C238.964395,194.666667 223.964395,198 209,198 C194.047823,198 179.047823,194.666667 164,188 L149.450519,135.258132 C147.085348,137.387622 144.744687,139.409085 142.447822,141.299798 C133.122809,138.690361 127.109893,133.143762 124.382341,130.337206 C121.654788,127.530651 116.524306,123.653497 113,114 C142.80192,55.2750777 173.010615,42.7481894 205,43 C205.463942,42.9965142 205.902943,43.0152566 206.317526,43.0556085 C207.210676,43.0185619 208.105024,43 209,43 C209.901074,43 210.797848,43.0184125 211.689966,43.0548819 C212.102345,43.0150317 212.538851,42.9965352 213,43 C244.989385,42.7481894 275.19808,55.2750777 305,114 C304.672229,118.332103 301.759638,123.777839 296.262228,130.337206 C290.764818,136.896574 284.767519,141.281487 278.270331,143.491946 Z" id="path-14"></path>
        <path d="M17,0 C26.3888407,0 34,8.64904461 34,19.3181818 L34,30.6818182 C34,41.3509554 26.3888407,50 17,50 C7.61115925,50 0,41.3509554 0,30.6818182 L0,19.3181818 C0,8.64904461 7.61115925,0 17,0 Z" id="path-15"></path>
        <linearGradient x1="100%" y1="0%" x2="0%" y2="104.573707%" id="linearGradient-16">
            <stop stop-color="#000000" stop-opacity="0.35" offset="0%"></stop>
            <stop stop-color="#FFC62C" stop-opacity="0" offset="100%"></stop>
        </linearGradient>
        <path d="M3,50 C-6.22952207,34.4257236 7.73849263,24.9841462 12,32 C14.1270281,35.0220023 14.8171405,37.8963423 15,41 C23.1793867,54.889659 54.1529231,25.2687746 64,14 C74.7468314,2.11614036 76.2887743,-10.4008485 84,14 C89.4345619,30.148634 108.978168,23.7597579 124,11 C124.161471,15.726456 123.999788,20.7765407 124,26 C123.999788,30.7163199 130,36.9535022 130,59 C130,80.8421644 106.948466,111 81,111 C61.2297456,111 30.9562435,97.7061447 17,75 C5.37209329,74.9865277 12.6369444,65.5286201 3,50 Z" id="path-17"></path>
        <linearGradient x1="100%" y1="0%" x2="0%" y2="100%" id="linearGradient-18">
            <stop stop-color="#000000" stop-opacity="0.2" offset="0%"></stop>
            <stop stop-color="#FFC62C" stop-opacity="0" offset="100%"></stop>
        </linearGradient>
    </defs>
    <g id="Handsome" stroke="none" stroke-width="1" fill="none" fill-rule="evenodd">
        <g id="Primary" transform="translate(-1421.000000, -345.000000)">
            <g id="Girl" transform="translate(1421.000000, 345.000000)">
                <path d="M74.4436047,719 C86.4350642,669.068889 194.272935,640 268.443605,640 C342.758937,640 394.271946,691.790532 327.443605,726 C261.002617,760.223165 63.4170406,768.791256 74.4436047,719 Z" id="Sh" fill="#F0F0F6"></path>
                <g id="Leg-L">
                    <use fill="#A7A7EE" xlink:href="#path-2"></use>
                    <use fill="url(#linearGradient-1)" xlink:href="#path-2"></use>
                </g>
                <g id="Leg-R">
                    <use fill="#A7A7EE" xlink:href="#path-3"></use>
                    <use fill="url(#linearGradient-1)" xlink:href="#path-3"></use>
                </g>
                <g id="Legs">
                    <use fill="#464D89" xlink:href="#path-5"></use>
                    <use fill="url(#linearGradient-4)" xlink:href="#path-5"></use>
                </g>
                <g id="Hair" transform="translate(74.000000, 0.000000)">
                    <mask id="mask-7" fill="white">
                        <use xlink:href="#path-6"></use>
                    </mask>
                    <g>
                        <use fill="#464D89" xlink:href="#path-6"></use>
                        <use fill="url(#linearGradient-4)" xlink:href="#path-6"></use>
                    </g>
                    <mask id="mask-10" fill="white">
                        <use xlink:href="#path-9"></use>
                    </mask>
                    <use id="Sh" fill="url(#linearGradient-8)" xlink:href="#path-9"></use>
                </g>
                <g id="Body" transform="translate(0.000000, 173.000000)">
                    <mask id="mask-13" fill="white">
                        <use xlink:href="#path-12"></use>
                    </mask>
                    <g>
                        <use fill="#FFC62C" xlink:href="#path-12"></use>
                        <use fill="url(#linearGradient-11)" xlink:href="#path-12"></use>
                    </g>
                    <g mask="url(#mask-13)">
                        <use fill="#A7A7EE" xlink:href="#path-14"></use>
                        <use fill="url(#linearGradient-1)" xlink:href="#path-14"></use>
                    </g>
                    <ellipse id="Detail" fill="#FFFFFF" mask="url(#mask-13)" cx="224" cy="51" rx="18" ry="22"></ellipse>
                    <ellipse id="Detail" fill="#FFFFFF" mask="url(#mask-13)" cx="194" cy="51" rx="18" ry="22"></ellipse>
                    <path d="M152.267079,145.500536 C152.411314,146.033654 152.096062,146.582757 151.562944,146.726992 C151.029826,146.871227 150.480723,146.555974 150.336488,146.022856 C150.312377,145.9338 150.312377,145.9338 150.288263,145.844966 C149.955009,144.618118 148.30656,138.831283 147.907811,137.314362 C147.108752,134.274576 146.634941,131.898081 146.416352,129.585025 C145.573529,120.666479 148.812796,112.404552 158.641698,100.095845 C158.986321,99.6642742 159.61555,99.5937893 160.047121,99.9384126 C160.478692,100.283036 160.549177,100.912265 160.204554,101.343836 C150.671442,113.282126 147.620081,121.064788 148.407481,129.396859 C148.614246,131.584793 149.068313,133.862263 149.842099,136.805902 C150.234466,138.298549 151.879827,144.074541 152.218325,145.320696 C152.242701,145.410493 152.242701,145.410493 152.267079,145.500536 Z" id="Line" fill="#FFFFFF" fill-rule="nonzero" mask="url(#mask-13)"></path>
                    <path d="M267.55405,146.740286 C267.409815,147.273404 266.860712,147.588656 266.327594,147.444422 C265.794476,147.300187 265.479224,146.751084 265.623459,146.217966 C265.829784,145.455349 267.544198,139.343505 267.968213,137.694111 C268.72835,134.737225 269.182549,132.40977 269.394828,130.177403 C270.223126,121.466845 267.133124,113.4023 257.50405,101.343836 C257.159427,100.912265 257.229911,100.283036 257.661482,99.9384126 C258.093053,99.5937893 258.722282,99.6642742 259.066906,100.095845 C268.993498,112.52689 272.269285,121.076311 271.385846,130.366731 C271.162185,132.718802 270.689236,135.142339 269.905231,138.192067 C269.474705,139.866787 267.755309,145.996394 267.55405,146.740286 Z" id="Line" fill="#FFFFFF" fill-rule="nonzero" mask="url(#mask-13)"></path>
                </g>
                <g id="Neck" transform="translate(192.000000, 188.000000)">
                    <g>
                        <use fill="#FFC62C" xlink:href="#path-15"></use>
                        <use fill="url(#linearGradient-11)" xlink:href="#path-15"></use>
                    </g>
                    <path d="M34,30.279121 C31.7008181,30.7500293 29.362415,31 27,31 C19.1055167,31 9.53629681,28.8803027 0,24.888047 L1.36111566e-10,18 C1.36111566e-10,8.61115925 7.61115925,1 17,1 C26.3888407,1 34,8.61115925 34,18 L34,30.279121 Z" id="Sh" fill="url(#linearGradient-16)"></path>
                </g>
                <g id="Face" transform="translate(135.000000, 98.000000)">
                    <g>
                        <use fill="#FFC62C" xlink:href="#path-17"></use>
                        <use fill="url(#linearGradient-11)" xlink:href="#path-17"></use>
                    </g>
                    <path d="M84,34 C76.2847076,9.60361419 74.7449027,22.165403 64,34 C54.1795481,45.4009036 28.6101172,63.8774091 15,41 C23.2489571,55.0562223 54.1795481,25.329321 64,14 C74.7449027,2.09382043 76.2847076,-10.4679684 84,14 C89.4122683,30.226646 108.928777,23.8149032 124,11 C124.091028,15.7528492 123.929569,20.8210088 124,26 C123.929569,30.7963637 89.4122683,50.2982286 84,34 Z" id="Sh" fill="url(#linearGradient-18)"></path>
                </g>
                <path d="M147.5,167 C148.052285,167 148.5,167.447715 148.5,168 C148.5,168.552285 148.052285,169 147.5,169 C147.153105,169 146.509064,169.856134 145.978052,171.525029 C145.359417,173.46931 145,176.139977 145,179 C145,181.860023 145.359417,184.53069 145.978052,186.474971 C146.509064,188.143866 147.153105,189 147.5,189 C147.846895,189 148.490936,188.143866 149.021948,186.474971 C149.640583,184.53069 150,181.860023 150,179 C150,178.133575 149.967198,177.281178 149.902993,176.455887 C149.860156,175.905266 150.271797,175.424174 150.822418,175.381338 C151.373039,175.338501 151.854131,175.750142 151.896968,176.300763 C151.965207,177.177904 152,178.082044 152,179 C152,185.639283 150.294317,191 147.5,191 C144.705683,191 143,185.639283 143,179 C143,172.360717 144.705683,167 147.5,167 Z" id="Detail" fill="#FFFFFF" fill-rule="nonzero"></path>
            </g>
        </g>
    </g>
</svg>