<?xml version="1.0" encoding="UTF-8"?>
<svg width="660px" height="786px" viewBox="0 0 660 786" version="1.1" xmlns="http://www.w3.org/2000/svg" xmlns:xlink="http://www.w3.org/1999/xlink">
    <!-- Generator: Sketch 51 (57462) - http://www.bohemiancoding.com/sketch -->
    <title>Girl and Macbook</title>
    <desc>Created with Sketch.</desc>
    <defs>
        <linearGradient x1="50%" y1="0%" x2="50%" y2="100%" id="linearGradient-1">
            <stop stop-color="#403F9F" stop-opacity="0" offset="0%"></stop>
            <stop stop-color="#000000" stop-opacity="0.2" offset="100%"></stop>
        </linearGradient>
        <path d="M439,11 C389.417554,22.4941238 335.125245,65.5548089 364,189 C383.384577,270.868675 465.71791,344.535341 611,410 L546,66 C508.380493,21.3498471 472.713827,3.01651374 439,11 Z" id="path-2"></path>
        <linearGradient x1="50%" y1="0%" x2="50%" y2="100%" id="linearGradient-3">
            <stop stop-color="#A7A7EE" stop-opacity="0" offset="0%"></stop>
            <stop stop-color="#4C55A0" stop-opacity="0.2" offset="100%"></stop>
        </linearGradient>
        <path d="M97.9673504,351.303532 C124.902974,337.010793 102.23705,412.63463 126.037911,452.212161 C141.905153,478.597182 154.108874,500.691059 162.649077,518.493794 L132.066451,571.386552 C123.732233,521.181771 112.695489,494.79239 98.9562204,492.218409 C78.3473168,488.357437 66.1461221,470.93824 74.9408128,442.639384 C83.7355034,414.340528 71.0317265,365.596271 97.9673504,351.303532 Z" id="path-4"></path>
        <path d="M614.507442,456.25536 C597.678765,508.407416 515.296428,494.779807 461.227816,494.779807 C444.453416,494.779807 344.283612,380.582484 338.002521,380.582484 C333.815127,380.582484 278.445513,411.899617 171.893678,474.533884 C155.232268,474.83154 141.662268,468.738699 131.183678,456.25536 C120.705087,443.772021 117.277199,431.41193 120.900014,419.175087 C236.559994,325.725029 308.927496,279 338.002521,279 C381.615058,279 492.335557,394.534226 513.428667,394.534226 C569.256383,394.534226 631.336119,404.103304 614.507442,456.25536 Z" id="path-5"></path>
        <linearGradient x1="64.7811554%" y1="63.5817666%" x2="-13.759223%" y2="50%" id="linearGradient-6">
            <stop stop-color="#464D89" stop-opacity="0.6" offset="0%"></stop>
            <stop stop-color="#A7A7EE" stop-opacity="0" offset="100%"></stop>
        </linearGradient>
        <path d="M495.718178,242.048958 C467.35669,242.048958 459.641907,376.73246 459.641907,386.154271 C459.641907,395.576081 496.905559,404.630134 501.322999,399.906637 C505.740439,395.18314 540.383022,332.6819 543.720677,305.139499 C547.058332,277.597098 524.079666,242.048958 495.718178,242.048958 Z" id="path-7"></path>
        <linearGradient x1="50%" y1="0%" x2="50%" y2="100%" id="linearGradient-8">
            <stop stop-color="#FFC62C" stop-opacity="0" offset="0%"></stop>
            <stop stop-color="#FF6663" stop-opacity="0.1" offset="100%"></stop>
        </linearGradient>
        <path d="M352.724036,432.370757 C334.211719,439.763315 317.000969,447.860427 312.10065,452.810707 C307.200331,457.760987 305.189522,468.353213 305.189522,477.853371 C305.189522,487.353529 304.677574,504.642741 323.322121,500.899141 C341.966669,497.155541 372.35124,463.124009 372.35124,452.810707 C372.35124,442.497405 371.236353,424.978199 352.724036,432.370757 Z" id="path-9"></path>
        <path d="M3.23813652,51.1314797 C3.23813652,-56.1817905 147.464586,14.2639269 155.496101,203 C163.072301,392.443476 -32.7123643,254.894665 22.4961009,220 C51.3585893,201.515152 39.1941069,151.305925 17.6630566,130.413745 C-8.78011259,104.755198 3.23813652,100.208586 3.23813652,51.1314797 Z" id="path-10"></path>
        <linearGradient x1="0%" y1="0%" x2="100%" y2="100%" id="linearGradient-12">
            <stop stop-color="#464D89" stop-opacity="0.3" offset="0%"></stop>
            <stop stop-color="#A7A7EE" stop-opacity="0" offset="100%"></stop>
        </linearGradient>
        <path d="M0.868464603,35.4701705 L55.0158998,0.186583938 L73.6385782,32.008428 C83.3901312,48.6715735 81.2299624,69.7307429 68.298593,84.0671613 C59.2244,94.1273045 43.7129558,94.9265751 33.6528125,85.8523821 C31.9780953,84.3417965 30.5196963,82.607474 29.3188293,80.6984257 L0.868464603,35.4701705 Z" id="path-13"></path>
        <linearGradient x1="64.0162101%" y1="22.9658099%" x2="0%" y2="100%" id="linearGradient-15">
            <stop stop-color="#000000" stop-opacity="0.1" offset="0%"></stop>
            <stop stop-color="#FF6663" stop-opacity="0" offset="100%"></stop>
        </linearGradient>
        <path d="M76.7305316,38.4188268 C69.2574391,59.479883 52.5791227,76.1829266 31.5339727,83.6895672 C30.7218577,82.7511559 29.9811715,81.7513676 29.3188293,80.6984257 L0.868464603,35.4701705 L55.0158998,0.186583938 L73.6385782,32.008428 C74.8533401,34.0841748 75.8832563,36.2281389 76.7305316,38.4188268 Z" id="path-16"></path>
        <path d="M562.748908,219.90766 C529.84179,219.90766 501.505004,336.417174 501.505004,348.266304 C501.505004,356.165724 446.729586,386.377274 337.178752,438.900955 C343.8685,440.352946 349.271743,445.456834 353.388481,454.21262 C357.505219,462.968405 362.234405,467.753156 367.576039,468.566873 C490.847794,426.055616 555.905418,400.488116 562.748908,391.864374 C573.014144,378.928762 602.190613,337.462698 603.263072,286.407771 C604.335531,235.352844 595.656026,219.90766 562.748908,219.90766 Z" id="path-18"></path>
        <path d="M528,166 C507.874668,214.046348 508.396719,276.112552 534,334 C559.939854,392.040633 704.472097,456.14828 661,320 C616.043406,183.343207 631.989236,135.635844 597,72 C561.937728,9.11462973 504.553566,-18.0652808 425,15 C346.959873,48.2952001 547.006522,118.009593 528,166 Z" id="path-19"></path>
        <path d="M418,86 C419.668174,86 464.29689,113.499774 524,117 C530.348947,112.112808 545.888453,112.112808 547,133 C547.842605,147.82532 542.77263,163.556705 530,165 C521.888704,192.874201 509.032378,215.616196 475,221 C440.967622,226.383804 419.438434,203.043788 412,188 C402.712659,173.168549 394.373065,114.122793 395,108 C404.989338,103.157977 415.711745,86 418,86 Z" id="path-20"></path>
        <linearGradient x1="100%" y1="0%" x2="0%" y2="100%" id="linearGradient-21">
            <stop stop-color="#000000" stop-opacity="0.2" offset="0%"></stop>
            <stop stop-color="#FF6663" stop-opacity="0" offset="100%"></stop>
        </linearGradient>
        <path d="M240.840237,776.314377 C220.466051,745.996915 306.913609,717.418922 309.361837,687.54631 C310.993989,667.631235 313.290489,656.309072 316.251335,653.579822 L353.981627,649.076656 C354.052477,675.756219 357.072748,695.518492 363.042438,708.363476 C371.996974,727.630952 359.945891,748.568503 329.164024,750.161671 C298.382157,751.754839 261.214423,806.631839 240.840237,776.314377 Z" id="path-22"></path>
        <path d="M547.017404,538.998408 C514.958053,538.998408 445.235455,538.998408 424.8805,538.998408 C424.8805,538.998408 405.00054,583.68134 365.240621,673.047205 C359.016797,680.229102 348.678699,683.82005 334.226329,683.82005 C319.773959,683.82005 310.684862,680.229102 306.959039,673.047205 C315.611577,523.215093 340.614515,443.753264 381.967854,434.661715 C477.460107,413.667704 560.949762,409.145456 632.436818,421.094973 C637.973285,499.697263 609.500147,538.998408 547.017404,538.998408 Z" id="path-23"></path>
    </defs>
    <g id="Handsome" stroke="none" stroke-width="1" fill="none" fill-rule="evenodd">
        <g id="Primary" transform="translate(-2175.000000, -1487.000000)">
            <g id="Girl-and-Macbook" transform="translate(2165.000000, 1487.000000)">
                <g id="Hair">
                    <use fill="#464D89" xlink:href="#path-2"></use>
                    <use fill="url(#linearGradient-1)" xlink:href="#path-2"></use>
                </g>
                <g id="Hand-L" transform="translate(117.349413, 460.458478) rotate(-100.000000) translate(-117.349413, -460.458478) ">
                    <use fill="#A7A7EE" xlink:href="#path-4"></use>
                    <use fill="url(#linearGradient-3)" xlink:href="#path-4"></use>
                </g>
                <g id="Hand-L">
                    <use fill="#464D89" xlink:href="#path-5"></use>
                    <use fill="url(#linearGradient-1)" xlink:href="#path-5"></use>
                </g>
                <g id="Hand-L">
                    <use fill="#A7A7EE" xlink:href="#path-7"></use>
                    <use fill="url(#linearGradient-3)" xlink:href="#path-7"></use>
                    <use fill="url(#linearGradient-6)" xlink:href="#path-7"></use>
                </g>
                <g id="Hand-R">
                    <use fill="#FFC62C" xlink:href="#path-9"></use>
                    <use fill="url(#linearGradient-8)" xlink:href="#path-9"></use>
                </g>
                <g id="Macbook" transform="translate(84.000000, 353.000000)">
                    <path d="M12.4393792,8.05698097e-15 L175.690522,0 L213,153 L36.8448354,153 C35.1248264,153 33.6277105,151.823908 33.2201437,150.152544 L0.35707348,15.3865281 C-1.27045656,8.71229658 2.81960217,1.98212055 9.49247534,0.354259201 C10.4571156,0.118933205 11.446461,1.12305063e-14 12.4393792,8.05698097e-15 Z" id="Detail" fill="#D6DFEA"></path>
                    <circle id="Logo" fill="#F2F5F9" cx="101" cy="77" r="11"></circle>
                    <path d="M213.909012,134.341463 L323.662805,134.341463 C328.819595,134.341463 333,138.518319 333,143.670732 C333,148.823144 328.819595,153 323.662805,153 L203.52423,153 L203.52423,142.8 L170.140373,6.04238259 C169.500558,3.42137153 171.108441,0.778390721 173.731679,0.13911973 C174.110898,0.0467057887 174.49983,7.16426367e-17 174.890165,0 C178.543918,-6.7061368e-16 181.724187,2.49570105 182.589966,6.04238259 L213.909012,134.341463 Z" id="Detail" fill="#B6C5D9"></path>
                </g>
                <g id="Group" transform="translate(477.503899, 209.000000)">
                    <mask id="mask-11" fill="white">
                        <use xlink:href="#path-10"></use>
                    </mask>
                    <g id="Body">
                        <use fill="#A7A7EE" xlink:href="#path-10"></use>
                        <use fill="url(#linearGradient-3)" xlink:href="#path-10"></use>
                    </g>
                    <path d="M149.000504,148.581577 C152.403109,165.426499 154.670019,183.587543 155.496101,203 C157.371871,249.903767 146.781744,276.763106 130.621424,290.098737 C109.333835,294.611978 87.4694311,295.634419 65.0282108,293.16606 C50.6999354,286.869996 37.4794421,277.377979 27.907574,267.092678 C38.9126208,173.030895 65.0568811,126 106.340361,126 C122.872787,126 137.413866,134.92693 149.000504,148.581577 Z" id="Sh" fill="url(#linearGradient-12)" mask="url(#mask-11)"></path>
                    <ellipse id="Detail" fill="#FFFFFF" mask="url(#mask-11)" cx="-3" cy="9.5" rx="33" ry="36.5"></ellipse>
                    <ellipse id="Detail" fill="#FFFFFF" mask="url(#mask-11)" cx="46" cy="25.5" rx="33" ry="36.5"></ellipse>
                </g>
                <g id="Neck" transform="translate(460.000000, 147.000000)">
                    <mask id="mask-14" fill="white">
                        <use xlink:href="#path-13"></use>
                    </mask>
                    <g>
                        <use fill="#FFC62C" xlink:href="#path-13"></use>
                        <use fill="url(#linearGradient-8)" xlink:href="#path-13"></use>
                    </g>
                    <mask id="mask-17" fill="white">
                        <use xlink:href="#path-16"></use>
                    </mask>
                    <use id="Sh" fill="url(#linearGradient-15)" xlink:href="#path-16"></use>
                </g>
                <g id="Hand-R">
                    <use fill="#A7A7EE" xlink:href="#path-18"></use>
                    <use fill="url(#linearGradient-3)" xlink:href="#path-18"></use>
                </g>
                <path d="M562.748908,217.40766 C563.577335,217.40766 564.248908,218.079233 564.248908,218.90766 C564.248908,219.736087 563.577335,220.40766 562.748908,220.40766 C549.143148,220.40766 534.54422,242.670223 521.195481,279.158904 C511.656157,305.234574 503.005004,339.582883 503.005004,347.266304 C503.005004,352.122195 490.530829,360.969897 464.399016,375.412368 C443.80697,386.793134 414.835488,401.491098 377.4476,419.523641 C377.216614,419.635048 376.985307,419.746582 376.753678,419.858243 C368.498147,423.837995 367.052712,421.204989 375.214038,417.271161 C375.465106,417.150145 375.715797,417.029277 375.966112,416.908559 C413.376666,398.86669 442.372213,384.1584 462.947865,372.786695 C487.258137,359.350949 500.005004,350.309832 500.005004,347.266304 C500.005004,339.137839 508.726074,304.511933 518.378093,278.128212 C532.206283,240.328957 547.237182,217.40766 562.748908,217.40766 Z" id="Line" fill="#FFFFFF" fill-rule="nonzero"></path>
                <g id="Hair">
                    <use fill="#464D89" xlink:href="#path-19"></use>
                    <use fill="url(#linearGradient-1)" xlink:href="#path-19"></use>
                </g>
                <g id="Face">
                    <use fill="#FFC62C" xlink:href="#path-20"></use>
                    <use fill="url(#linearGradient-8)" xlink:href="#path-20"></use>
                </g>
                <circle id="Sh" fill="url(#linearGradient-21)" cx="530.761993" cy="139.761993" r="8.76199262"></circle>
                <g id="Leg-R">
                    <use fill="#A7A7EE" xlink:href="#path-22"></use>
                    <use fill="url(#linearGradient-3)" xlink:href="#path-22"></use>
                </g>
                <g id="Leg-R">
                    <use fill="#464D89" xlink:href="#path-23"></use>
                    <use fill="url(#linearGradient-1)" xlink:href="#path-23"></use>
                </g>
            </g>
        </g>
    </g>
</svg>