<?xml version="1.0" encoding="UTF-8"?>
<svg width="696px" height="850px" viewBox="0 0 696 850" version="1.1" xmlns="http://www.w3.org/2000/svg" xmlns:xlink="http://www.w3.org/1999/xlink">
    <!-- Generator: Sketch 51 (57462) - http://www.bohemiancoding.com/sketch -->
    <title>Girl in VR</title>
    <desc>Created with Sketch.</desc>
    <defs>
        <linearGradient x1="50%" y1="0%" x2="50%" y2="100%" id="linearGradient-1">
            <stop stop-color="#403F9F" stop-opacity="0" offset="0%"></stop>
            <stop stop-color="#000000" stop-opacity="0.2" offset="100%"></stop>
        </linearGradient>
        <path d="M80,336 C25.8600042,292.498116 -21.1507081,194.809904 10,102 C40.762508,9.8619644 149.016775,-29.9200303 233,25 C315.689602,80.4775768 316.057842,135.551462 431,160 C545.171088,184.916874 588.400598,336.419442 483,394 C376.749556,452.541554 134.12007,379.393372 80,336 Z" id="path-2"></path>
        <linearGradient x1="0%" y1="0%" x2="100%" y2="100%" id="linearGradient-4">
            <stop stop-color="#000000" stop-opacity="0.3" offset="0%"></stop>
            <stop stop-color="#1F1845" stop-opacity="0" offset="100%"></stop>
        </linearGradient>
        <path d="M474.033463,398.488107 C388.555433,437.295051 230.648744,403.811596 139.347519,367.126996 C116.140978,346.076374 93.4670127,321.145019 72,292 C33.700158,240.730235 28.700158,190.730235 57,142 L228,142 C261.864887,170.812004 289.531554,191.478671 311,204 C343.839797,222.259188 441.405704,239.12888 477,279 C506.783908,312.818399 498.092025,361.131028 474.033463,398.488107 Z" id="path-5"></path>
        <linearGradient x1="50%" y1="0%" x2="50%" y2="100%" id="linearGradient-7">
            <stop stop-color="#FFC62C" stop-opacity="0" offset="0%"></stop>
            <stop stop-color="#FF6663" stop-opacity="0.3" offset="100%"></stop>
        </linearGradient>
        <path d="M62,356 C35.2570932,353.363093 20.2570932,346.363093 17,335 C12.3371522,317.692918 -4.4880933,298.302983 1,291 C7.20730529,284.323775 15.8973394,306.546698 21,309 C27.7475593,311.707095 24.8947685,235.903677 50,255 C75.1096519,274.724265 69.2635356,291.552565 66,314 C64.0475702,329.605033 62.7142368,343.605033 62,356 Z" id="path-8"></path>
        <linearGradient x1="50%" y1="0%" x2="50%" y2="100%" id="linearGradient-9">
            <stop stop-color="#A7A7EE" stop-opacity="0" offset="0%"></stop>
            <stop stop-color="#4C55A0" stop-opacity="0.2" offset="100%"></stop>
        </linearGradient>
        <path d="M282,280 C232.058674,280 64.1753849,317.159085 55,319 C45.4028453,321.214217 40.9476051,345.724004 55,354 C68.630625,362.891817 240.533067,359.156443 251,359 C262.178129,359.156443 332.36991,280 282,280 Z" id="path-10"></path>
        <path d="M419,777 C425.221801,793.149654 482.566407,828.446811 483,839 C482.566407,848.651938 502,855.072278 502,834 C502,812.111686 482.566407,797.456284 483,782 C482.566407,765.779506 475.124244,737.382536 453,743 C429.834811,747.058327 411.389795,760.059406 419,777 Z" id="path-11"></path>
        <path d="M282,280 L565,280 C592.540442,280 585.103027,322.5 565,323 C551.734992,322.910749 391,346.91208 391,355 C391,360.391947 397.666667,401.058614 411,477 L282,498 C246.751494,446.157434 219,403.939331 219,367 C219,330.060669 233.583702,280 282,280 Z" id="path-12"></path>
        <path d="M291,509 C276.789297,546.395994 273.313856,608.013139 291,632 C308.544901,656.122901 404.658334,769.959753 419,777 C433.335766,784.511234 455,767.932408 455,752 C455,735.740002 405.451925,641.934908 367,604 C328.533654,567.31609 305.06946,472.750897 291,509 Z" id="path-13"></path>
        <path d="M29,-2.84217094e-14 L29,-2.84217094e-14 C45.0162577,-3.13638482e-14 58,12.9837423 58,29 L58,58 C58,74.0162577 45.0162577,87 29,87 L29,87 C12.9837423,87 -5.14400148e-15,74.0162577 -7.10542736e-15,58 L0,29 C-1.96142588e-15,12.9837423 12.9837423,-2.54795706e-14 29,-2.84217094e-14 Z" id="path-14"></path>
        <linearGradient x1="100%" y1="50%" x2="0%" y2="100%" id="linearGradient-15">
            <stop stop-color="#000000" stop-opacity="0.2" offset="0%"></stop>
            <stop stop-color="#FFC42C" stop-opacity="0" offset="100%"></stop>
        </linearGradient>
        <path d="M158,541 C165.512162,581.670786 226.512162,607.004119 341,617 C348.782574,616.067643 354.449241,611.400976 358,603 C364.244659,589.95007 364.348985,580.305646 364,580 C426.794192,580.305646 452.475542,500.441225 410,452 C368.071087,404.139486 148.13691,479.658691 158,541 Z" id="path-16"></path>
        <path d="M377,142 C399.378633,142.394145 408.711966,152.060811 405,171 C401.463827,192.317437 393.698152,212.191814 376,210 C356.788379,245.316091 333.430571,267 288,267 C243.054974,267 221.368836,224.217935 218,201 C209.231428,177.454022 217.596841,93.489863 221,85 C227.460453,64.8224172 268.656651,101.387063 314,115 C343.464056,124.868327 364.464056,133.868327 377,142 Z" id="path-17"></path>
        <linearGradient x1="100%" y1="0%" x2="0%" y2="100%" id="linearGradient-18">
            <stop stop-color="#000000" stop-opacity="0.15" offset="0%"></stop>
            <stop stop-color="#FFC42C" stop-opacity="0" offset="100%"></stop>
        </linearGradient>
        <path d="M565,323 C541.021468,323 537.209067,249.496803 547,249 C556.994844,249.496803 550.511101,278.660018 560,279 C569.589292,278.660018 564.290001,209.631196 590,214 C615.255267,218.806712 618.255267,269.777642 606,293 C593.919028,316.003325 588.09171,323 565,323 Z" id="path-19"></path>
        <path d="M341,617 C405.834463,627.444597 443.167797,626.111263 453,613 C466.949027,592.804509 407.961741,587.440311 394,576 C379.917292,565.335973 369.310984,562.830163 362,570 C354.627245,577.62666 362.729164,585.930887 359,599 C356.306498,608.504488 350.306498,614.504488 341,617 Z" id="path-20"></path>
    </defs>
    <g id="Handsome" stroke="none" stroke-width="1" fill="none" fill-rule="evenodd">
        <g id="Primary" transform="translate(-412.000000, -2614.000000)">
            <g id="Girl-in-VR" transform="translate(413.000000, 2615.000000)">
                <g id="Hair" transform="translate(151.000000, 0.000000)">
                    <mask id="mask-3" fill="white">
                        <use xlink:href="#path-2"></use>
                    </mask>
                    <g>
                        <use fill="#464D89" xlink:href="#path-2"></use>
                        <use fill="url(#linearGradient-1)" xlink:href="#path-2"></use>
                    </g>
                    <mask id="mask-6" fill="white">
                        <use xlink:href="#path-5"></use>
                    </mask>
                    <use id="Combined-Shape" fill="url(#linearGradient-4)" xlink:href="#path-5"></use>
                </g>
                <g id="Hand-L">
                    <use fill="#FFC62C" xlink:href="#path-8"></use>
                    <use fill="url(#linearGradient-7)" xlink:href="#path-8"></use>
                </g>
                <g id="Hand-L">
                    <use fill="#A7A7EE" xlink:href="#path-10"></use>
                    <use fill="url(#linearGradient-9)" xlink:href="#path-10"></use>
                </g>
                <g id="Leg-L">
                    <use fill="#A7A7EE" xlink:href="#path-11"></use>
                    <use fill="url(#linearGradient-9)" xlink:href="#path-11"></use>
                </g>
                <g id="Body">
                    <use fill="#A7A7EE" xlink:href="#path-12"></use>
                    <use fill="url(#linearGradient-9)" xlink:href="#path-12"></use>
                </g>
                <g id="Leg-R">
                    <use fill="#464D89" xlink:href="#path-13"></use>
                    <use fill="url(#linearGradient-1)" xlink:href="#path-13"></use>
                </g>
                <g id="Neck" transform="translate(272.000000, 228.000000)">
                    <g>
                        <use fill="#FFC62C" xlink:href="#path-14"></use>
                        <use fill="url(#linearGradient-7)" xlink:href="#path-14"></use>
                    </g>
                    <path d="M58,50.6298334 C46.383848,56.0771201 32.6795717,59 16,59 C10.2953325,59 4.96536734,58.310778 0,57.0598181 L0,29 C0,12.9837423 12.9837423,0 29,0 C45.0162577,0 58,12.9837423 58,29 L58,50.6298334 Z" id="Sh" fill="url(#linearGradient-15)"></path>
                </g>
                <g id="Hand-R">
                    <use fill="#464D89" xlink:href="#path-16"></use>
                    <use fill="url(#linearGradient-1)" xlink:href="#path-16"></use>
                </g>
                <g id="Face">
                    <use fill="#FFC62C" xlink:href="#path-17"></use>
                    <use fill="url(#linearGradient-7)" xlink:href="#path-17"></use>
                </g>
                <path d="M224.12498,119 C254.839923,119 275.798263,119 287,119 C299.123799,119 320.082139,119 349.87502,119 C366.233038,119 381,139.371044 381,164.5 C381,189.628956 366.233038,210 349.87502,210 C318.890354,210 297.932014,210 287,210 C274.606479,210 253.648139,210 224.12498,210 C207.766962,210 193,189.628956 193,164.5 C193,139.371044 207.766962,119 224.12498,119 Z" id="Sh" fill="url(#linearGradient-18)"></path>
                <g id="Glasses" transform="translate(188.000000, 109.000000)">
                    <path d="M36.12498,0 C66.8399234,0 87.7982634,0 99,0 C111.123799,0 132.082139,0 161.87502,0 C178.233038,0 193,20.3710439 193,45.5 C193,70.6289561 178.233038,91 161.87502,91 C130.890354,91 109.932014,91 99,91 C86.6064786,91 65.6481386,91 36.12498,91 C19.7669623,91 5,70.6289561 5,45.5 C5,20.3710439 19.7669623,0 36.12498,0 Z" id="Detail" fill="#D6DFEA"></path>
                    <path d="M20.8417722,12 C54.1376042,12 76.8570135,12 89,12 C102.142527,12 124.861936,12 157.158228,12 C174.890763,12 178,26.9984609 178,45.5 C178,64.0015391 174.890763,79 157.158228,79 C123.570009,79 100.8506,79 89,79 C75.5650865,79 52.8456772,79 20.8417722,79 C3.10923711,79 0,64.0015391 0,45.5 C0,26.9984609 3.10923711,12 20.8417722,12 Z" id="Detail" fill="#1F1845"></path>
                    <path d="M172,22 L189.149813,22.8574906 C190.746441,22.937322 192,24.2551251 192,25.8537477 L192,33 L172,49 L172,22 Z" id="Detail" fill="#1F1845"></path>
                    <rect id="Detail" fill="#7BC1EB" opacity="0.300000012" x="46" y="23" width="75" height="46" rx="23"></rect>
                    <rect id="Detail" fill="#7BC1EB" x="61" y="38" width="45" height="16" rx="8"></rect>
                </g>
                <path d="M238.60784,514.44783 C237.808226,514.231245 237.335586,513.407454 237.55217,512.60784 C237.768755,511.808226 238.592546,511.335586 239.39216,511.55217 C255.040174,515.790604 268.768864,523.018842 287.35528,535.690497 C291.496918,538.51414 305.995035,548.697311 306.323426,548.925613 C329.254245,564.867442 345.374749,573.910129 365.472236,580.576275 C366.258538,580.837084 366.684534,581.685934 366.423725,582.472236 C366.162916,583.258538 365.314066,583.684534 364.527764,583.423725 C344.100578,576.648222 327.75785,567.480879 304.61096,551.388835 C304.267372,551.149967 289.786497,540.978907 285.665351,538.169235 C267.33141,525.669709 253.868258,518.581278 238.60784,514.44783 Z" id="Line" fill="#FFFFFF" fill-rule="nonzero"></path>
                <g id="Hend-R">
                    <use fill="#FFC62C" xlink:href="#path-19"></use>
                    <use fill="url(#linearGradient-7)" xlink:href="#path-19"></use>
                </g>
                <g id="Leg-R">
                    <use fill="#A7A7EE" xlink:href="#path-20"></use>
                    <use fill="url(#linearGradient-9)" xlink:href="#path-20"></use>
                </g>
            </g>
        </g>
    </g>
</svg>