<?xml version="1.0" encoding="UTF-8"?>
<svg width="356px" height="871px" viewBox="0 0 356 871" version="1.1" xmlns="http://www.w3.org/2000/svg" xmlns:xlink="http://www.w3.org/1999/xlink">
    <!-- Generator: Sketch 51 (57462) - http://www.bohemiancoding.com/sketch -->
    <title>Girl Jumping</title>
    <desc>Created with Sketch.</desc>
    <defs>
        <linearGradient x1="50%" y1="0%" x2="50%" y2="100%" id="linearGradient-1">
            <stop stop-color="#A7A7EE" stop-opacity="0" offset="0%"></stop>
            <stop stop-color="#4C55A0" stop-opacity="0.2" offset="100%"></stop>
        </linearGradient>
        <path d="M65.8986946,738.560163 C57.6552675,752.093057 46,794.123396 46,805.017751 C46,815.912106 81.0042287,803.897941 87.6782497,775.771066 C94.3522706,747.644191 101,757.546309 101,742.936129 C101,728.325949 74.1421217,725.027268 65.8986946,738.560163 Z" id="path-2"></path>
        <path d="M210.180702,738.601184 C203.858816,754.315607 211.833334,790.675463 226.990012,807.350729 C242.146691,824.025994 257.388381,791.045817 251.830555,783.671647 C246.272729,776.297478 233.118703,761.843554 233.118703,742.063162 C233.118703,722.282769 216.502587,722.886761 210.180702,738.601184 Z" id="path-3"></path>
        <linearGradient x1="10.9467662%" y1="45.0846073%" x2="100%" y2="50%" id="linearGradient-4">
            <stop stop-color="#464D89" stop-opacity="0.6" offset="0%"></stop>
            <stop stop-color="#A7A7EE" stop-opacity="0" offset="100%"></stop>
        </linearGradient>
        <path d="M180,288 C196.545938,308.124828 181.910206,366.707501 193,381 C205.010507,395.024644 230.275152,411.295221 242,440 C253.417316,469.047013 174.326662,409.55956 167,399 C158.735028,387.568176 164.075119,268.341946 180,288 Z" id="path-5"></path>
        <linearGradient x1="50%" y1="0%" x2="50%" y2="100%" id="linearGradient-6">
            <stop stop-color="#403F9F" stop-opacity="0" offset="0%"></stop>
            <stop stop-color="#000000" stop-opacity="0.2" offset="100%"></stop>
        </linearGradient>
        <path d="M82,402 C56.1345598,449.090228 44,514.99353 44,567.353669 C44,602.260428 49.2593072,659.479851 59.7779216,739.011938 C62.0642195,745.670646 68.9442364,749 80.4179724,749 C91.8917083,749 98.6977925,745.670646 100.836225,739.011938 C106.482856,675.836669 109.306171,634.401601 109.306171,614.706734 C109.306171,585.164433 125.596759,481.991861 133.819397,481.991861 C142.042035,481.991861 161.057157,565.657215 171.865339,614.706734 C179.070793,647.406414 190.130522,688.841482 205.044524,739.011938 C206.549357,745.670646 212.861311,749 223.980388,749 C235.099465,749 241.772669,745.670646 244,739.011938 C239.048563,614.788004 232.375359,534.754361 223.980388,498.911009 C212.733807,450.892358 185,402 185,402 C185,402 107.86544,354.909772 82,402 Z" id="path-7"></path>
        <path d="M94.9608548,306.678324 C44.9372951,298.992242 -28.5059314,236.209879 12.3803351,154.971298 C53.2666017,73.7327166 118.84927,120.952965 156.638737,51.3551737 C194.428204,-18.2426176 283.61698,-9.45591441 326.525656,39.3470246 C369.434331,88.1499636 369.434331,164.026444 300.185235,235.002297 C230.936139,305.978151 144.984415,314.364406 94.9608548,306.678324 Z" id="path-8"></path>
        <linearGradient x1="0%" y1="0%" x2="100%" y2="100%" id="linearGradient-10">
            <stop stop-color="#000000" stop-opacity="0.3" offset="0%"></stop>
            <stop stop-color="#1F1845" stop-opacity="0" offset="100%"></stop>
        </linearGradient>
        <path d="M346.488194,165.804024 C337.680591,188.663632 322.541711,212.088352 300.185235,235.002297 C255.747918,280.547679 204.432758,300.319786 160.146999,306.610412 C113.548937,295.173663 79.1649499,268.787429 85.5440753,219.147568 C101.036544,98.5912312 271.119879,289.086614 346.488194,165.804024 Z" id="path-11"></path>
        <path d="M82,402 C92.538805,381.038707 94.0655052,384.715058 86,362 C79.6833638,338.703445 69.990662,336.988266 65,309 C61.6373226,281.560184 88.0149925,253.267542 122,270 C155.321576,286.843125 151.65859,275.928708 172,285 C192.435692,294.857597 188.912069,316.383541 180,338 C170.554207,359.65221 170.243148,380.620256 185,402 C198.311645,423.536692 72.0506674,423.118241 82,402 Z" id="path-13"></path>
        <linearGradient x1="50%" y1="0%" x2="50%" y2="100%" id="linearGradient-14">
            <stop stop-color="#FFC62C" stop-opacity="0" offset="0%"></stop>
            <stop stop-color="#FF6663" stop-opacity="0.1" offset="100%"></stop>
        </linearGradient>
        <rect id="path-15" x="120" y="240" width="29" height="53" rx="14.5"></rect>
        <path d="M77.8760906,230.038378 C74.2156529,229.790883 70.3752212,226.206836 70.3752212,216.7531 C70.3752212,204.479987 61.2413437,200.62167 61.2413437,192.423049 C61.2413437,184.224429 69.9110919,180.860357 74.3878872,186.299266 C78.371238,177.266085 85.3280165,180.46513 115.356439,172.427121 C145.384862,164.389112 157.129235,142.15297 181.989668,152.858094 C182.151417,157.582696 181.989456,172.81194 181.989668,178.03335 C181.989456,182.747819 188,188.982554 188,211.020402 C188,232.853997 164.908773,263 138.915624,263 C120.083978,263 89.5813632,252.155365 77.8760906,230.038378 Z" id="path-16"></path>
        <linearGradient x1="100%" y1="0%" x2="0%" y2="100%" id="linearGradient-17">
            <stop stop-color="#000000" stop-opacity="0.2" offset="0%"></stop>
            <stop stop-color="#FFC42C" stop-opacity="0" offset="100%"></stop>
        </linearGradient>
        <path d="M77.8745444,331.913082 C48.8009932,317.789877 73.8043686,226.711098 77.8745444,192.254069 C81.9447203,157.79704 87.828507,101.874028 87.828507,90.3629741 C87.828507,78.8519206 111,76.9425474 111,90.3629741 C111,103.783401 106.948096,166.180619 106.948096,192.254069 C106.948096,218.327519 106.948096,346.036287 77.8745444,331.913082 Z" id="path-18"></path>
        <path d="M88,89 C88,76.8511092 80.4281935,68.2536396 62.8864121,70.6376514 C45.3446308,73.0216632 35.623178,76.7101833 38.5000663,70.6376514 C39.9112825,67.6588581 47.9936076,62.0091469 64.9067871,59.33408 C68.9553354,58.6937429 77.6354691,59.1033787 90.9471884,60.5629876 C98.3757399,57.9043664 104.737407,57.4947306 110.032189,59.33408 C117.974363,62.0931042 129.157926,52.906268 134.361193,59.33408 C139.56446,65.761892 109.032189,67.7350607 110.032189,74.4759011 C111.032189,81.2167416 111.032189,87.095413 111.032189,92.1242896 C111.032189,97.1531661 88,101.148891 88,89 Z" id="path-19"></path>
        <path d="M224.871683,442.242389 C238.418687,453.217531 247.288428,453.115251 242.847206,468.274133 C238.405984,483.433015 228.872364,484.070848 233.080635,489.137221 C237.288907,494.203593 247.370681,475.409556 258.369986,472.91223 C269.369292,470.414904 302.08023,474.860612 306.753579,468.274133 C311.426929,461.687654 302.978547,459.516555 281.070546,456.983097 C259.162544,454.449639 237.701441,428.664835 231.138935,420.882908 C226.589561,415.488187 216.237734,435.247572 224.871683,442.242389 Z" id="path-20"></path>
        <linearGradient x1="100%" y1="109.57021%" x2="0%" y2="0%" id="linearGradient-21">
            <stop stop-color="#000000" stop-opacity="0.2" offset="0%"></stop>
            <stop stop-color="#FFC42C" stop-opacity="0" offset="100%"></stop>
        </linearGradient>
    </defs>
    <g id="Handsome" stroke="none" stroke-width="1" fill="none" fill-rule="evenodd">
        <g id="Primary" transform="translate(-4062.000000, -287.000000)">
            <g id="Girl-Jumping" transform="translate(4062.000000, 287.000000)">
                <path d="M6.45920361,856.494695 C18.8723312,837.220847 130.502217,826 207.281026,826 C284.209585,826 337.533999,845.991601 268.355704,859.196757 C199.578383,872.4072 -4.95509887,875.714558 6.45920361,856.494695 Z" id="Sh" fill="#F0F0F6"></path>
                <g id="Ler-L">
                    <use fill="#A7A7EE" xlink:href="#path-2"></use>
                    <use fill="url(#linearGradient-1)" xlink:href="#path-2"></use>
                </g>
                <g id="Leg-R">
                    <use fill="#A7A7EE" xlink:href="#path-3"></use>
                    <use fill="url(#linearGradient-1)" xlink:href="#path-3"></use>
                </g>
                <g id="Hand-R">
                    <use fill="#A7A7EE" xlink:href="#path-5"></use>
                    <use fill="url(#linearGradient-1)" xlink:href="#path-5"></use>
                    <use fill="url(#linearGradient-4)" xlink:href="#path-5"></use>
                </g>
                <g id="Legs">
                    <use fill="#464D89" xlink:href="#path-7"></use>
                    <use fill="url(#linearGradient-6)" xlink:href="#path-7"></use>
                </g>
                <g id="Hair">
                    <mask id="mask-9" fill="white">
                        <use xlink:href="#path-8"></use>
                    </mask>
                    <g>
                        <use fill="#464D89" xlink:href="#path-8"></use>
                        <use fill="url(#linearGradient-6)" xlink:href="#path-8"></use>
                    </g>
                    <mask id="mask-12" fill="white">
                        <use xlink:href="#path-11"></use>
                    </mask>
                    <use id="Sh" fill="url(#linearGradient-10)" xlink:href="#path-11"></use>
                </g>
                <g id="Body">
                    <use fill="#A7A7EE" xlink:href="#path-13"></use>
                    <use fill="url(#linearGradient-1)" xlink:href="#path-13"></use>
                </g>
                <g id="Nack">
                    <use fill="#FFC62C" xlink:href="#path-15"></use>
                    <use fill="url(#linearGradient-14)" xlink:href="#path-15"></use>
                </g>
                <g id="Face">
                    <use fill="#FFC62C" xlink:href="#path-16"></use>
                    <use fill="url(#linearGradient-14)" xlink:href="#path-16"></use>
                </g>
                <path d="M149.200414,181.058311 C131.317652,190.464354 89.2521558,196.365678 74.249177,175.337009 C79.1744596,171.825149 89.5269242,179.341167 115.356439,172.427121 C145.384862,164.389112 157.129235,142.15297 181.989668,152.858094 C182.119555,156.652033 182.040702,167.21976 182.004707,173.939586 C175.924762,173.973881 167.083177,171.652267 149.200414,181.058311 Z" id="Sh" fill="url(#linearGradient-17)"></path>
                <g id="Hand-L">
                    <use fill="#A7A7EE" xlink:href="#path-18"></use>
                    <use fill="url(#linearGradient-1)" xlink:href="#path-18"></use>
                </g>
                <g id="Hand-L">
                    <use fill="#FFC62C" xlink:href="#path-19"></use>
                    <use fill="url(#linearGradient-14)" xlink:href="#path-19"></use>
                </g>
                <g id="Hand-R">
                    <use fill="#FFC62C" xlink:href="#path-20"></use>
                    <use fill="url(#linearGradient-14)" xlink:href="#path-20"></use>
                </g>
                <path d="M120,260.161992 C126.799064,262.057649 133.364422,263 138.915624,263 C142.342963,263 145.719849,262.475886 149,261.51582 L149,271.51582 C145.719849,272.475886 142.342963,273 138.915624,273 C133.364422,273 126.799064,272.057649 120,270.161992 L120,260.161992 Z" id="Sh" fill="url(#linearGradient-21)"></path>
            </g>
        </g>
    </g>
</svg>