<?xml version="1.0" encoding="UTF-8"?>
<svg width="433px" height="820px" viewBox="0 0 433 820" version="1.1" xmlns="http://www.w3.org/2000/svg" xmlns:xlink="http://www.w3.org/1999/xlink">
    <!-- Generator: Sketch 51 (57462) - http://www.bohemiancoding.com/sketch -->
    <title>Girl and Thing</title>
    <desc>Created with Sketch.</desc>
    <defs>
        <linearGradient x1="50%" y1="0%" x2="50%" y2="100%" id="linearGradient-1">
            <stop stop-color="#A7A7EE" stop-opacity="0" offset="0%"></stop>
            <stop stop-color="#4C55A0" stop-opacity="0.2" offset="100%"></stop>
        </linearGradient>
        <path d="M195.444892,722.377895 C206.883328,727.878928 228.586664,758.300075 221.058927,775.662927 C212.746412,794.835881 179.097003,783.576784 170.977603,771.492732 C162.858202,759.40868 167.164516,726.972533 166.962158,721 C174.579649,725.602574 187.419232,730.693618 195.444892,722.377895 Z" id="path-2"></path>
        <path d="M295.482734,722.377895 C306.92117,727.878928 338.624507,748.300075 331.096769,765.662927 C322.784254,784.835881 284.134845,773.576784 276.015445,761.492732 C267.896044,749.40868 262.202358,726.972533 262,721 C269.617491,725.602574 287.457074,730.693618 295.482734,722.377895 Z" id="path-3"></path>
        <linearGradient x1="50%" y1="0%" x2="50%" y2="100%" id="linearGradient-4">
            <stop stop-color="#403F9F" stop-opacity="0" offset="0%"></stop>
            <stop stop-color="#000000" stop-opacity="0.2" offset="100%"></stop>
        </linearGradient>
        <path d="M158,3 C93.9929566,18.9732566 93.4700555,63.2290337 56,102 C18.4542992,140.520685 -27.8239239,182.61362 21,222 C59.6935718,251.987219 16.2359829,306.617053 87,356 C158.4886,405.972304 361,311.280346 361,222 C361,131.750149 258.234615,142.918773 269,90 C279.466696,37.1384577 222.984244,-12.9437691 158,3 Z" id="path-5"></path>
        <linearGradient x1="0%" y1="0%" x2="100%" y2="100%" id="linearGradient-7">
            <stop stop-color="#000000" stop-opacity="0.3" offset="0%"></stop>
            <stop stop-color="#1F1845" stop-opacity="0" offset="100%"></stop>
        </linearGradient>
        <path d="M277,382 C320.977773,430.030269 307.360704,684.640188 306,712 C305.747314,738.078742 263.687686,731.397817 258,723 C253.084079,713.278407 236.69019,476.956884 231,477 C225.584386,476.956884 214.165283,708.065429 209,723 C202.26875,736.610795 168.950478,733.316759 164,723 C157.036215,711.359465 123.39571,457.163644 172,384 C176.748484,376.131645 269.683261,374.131645 277,382 Z" id="path-8"></path>
        <linearGradient x1="10.9467662%" y1="45.0846073%" x2="100%" y2="50%" id="linearGradient-9">
            <stop stop-color="#464D89" stop-opacity="0.6" offset="0%"></stop>
            <stop stop-color="#A7A7EE" stop-opacity="0" offset="100%"></stop>
        </linearGradient>
        <path d="M236,209 C279.442973,209 317.021999,257.936038 323,309 C329.020873,359.66545 337.571165,374.473245 317,372 C290.350138,366.098242 192.432277,209 236,209 Z" id="path-10"></path>
        <path d="M7.27595761e-12,35 C0.478844772,68.1370854 2.83902311,164.202819 30,176 C57.7010745,187.108801 127.285423,182.002054 141,176 C154.084482,169.6446 165.658936,24.2584395 124,8 C83.4093455,-7.84151619 0.478844772,1.47919354 7.27595761e-12,35 Z" id="path-11"></path>
        <linearGradient x1="0%" y1="0%" x2="100%" y2="100%" id="linearGradient-13">
            <stop stop-color="#464D89" stop-opacity="0.3" offset="0%"></stop>
            <stop stop-color="#A7A7EE" stop-opacity="0" offset="100%"></stop>
        </linearGradient>
        <path d="M180.472597,329.947689 C193.715082,324.61527 207.776248,319.82983 215,317 C223.57769,314.938539 231.563079,330.834718 226,336 C208.324622,353.533755 193.528353,388 172,388 C164.802518,388 158.368701,384.068149 153.820727,378.346078 C145.67055,369.201469 139.555929,352.976411 136,330 C128.311728,281.571123 123.725834,233.478316 150,222 C176.523026,211.363181 177.60696,279.75394 178,311 C177.920738,317.252743 178.955421,323.649714 180.472597,329.947688 L180.472597,329.947689 Z" id="path-14"></path>
        <path d="M317,372 C335.216878,375.122415 346,357.37477 346,306 C346,274.564108 323.819657,282.075224 315,298 C301.940166,321.580842 298.28269,367.997991 317,372 Z" id="path-15"></path>
        <linearGradient x1="50%" y1="0%" x2="50%" y2="100%" id="linearGradient-16">
            <stop stop-color="#FFC62C" stop-opacity="0" offset="0%"></stop>
            <stop stop-color="#FF6663" stop-opacity="0.1" offset="100%"></stop>
        </linearGradient>
        <path d="M318,291 C335.824431,291.009112 345.157764,291.009112 346,291 C347.194409,291.013669 371.5697,288.874666 399,278 C416.336298,271.708519 418.535514,281.035809 414,291 C410.685717,296.59641 405.292911,302.530724 399,306 C382.130195,313.474134 346.380773,295.4438 346,306 C346.380773,320.965094 315.724334,309.015362 315,298 C314.979652,296.056242 316.345949,293.479936 318,291 Z" id="path-17"></path>
        <path d="M215,317 C221.805962,313.90502 229.563564,308.872235 231,306 C237.051997,294.88891 228.585398,277.835252 236,275 C242.500226,270.701998 246.849178,284.638552 245,295 C242.53521,304.124544 258.310209,302.243784 269,297 C280.540821,290.708363 314.689321,309.116515 297,320 C279.44295,330.039487 248.984572,324.946438 238,325 C236.370925,324.964292 232.370925,328.630958 226,336 C212.384215,326.324371 208.717548,319.991038 215,317 Z" id="path-18"></path>
        <path d="M0,0 L43,0 L43,35.5 C43,47.3741221 33.3741221,57 21.5,57 L21.5,57 C9.62587788,57 1.45416056e-15,47.3741221 0,35.5 L0,0 Z" id="path-19"></path>
        <linearGradient x1="100%" y1="0%" x2="0%" y2="100%" id="linearGradient-20">
            <stop stop-color="#000000" stop-opacity="0.2" offset="0%"></stop>
            <stop stop-color="#FFC42C" stop-opacity="0" offset="100%"></stop>
        </linearGradient>
        <path d="M16.3008516,79.7907641 C12.6340743,79.4936502 9.06369475,75.9028023 9,67 C9.08573104,54.650665 7.23776594e-12,50.8259866 0,43 C-7.09077241e-12,34.7424903 8.27809226,31.3742008 12.7288657,36.6608452 C12.8173151,36.4376868 12.907704,36.2173834 13,36 C17.0361229,27.2660851 24.0141669,30.4651303 54,22 C84.2545956,14.389112 96.0348688,-7.84702959 121,3 C121.133539,7.58269566 120.971082,22.8119399 121,28 C120.971082,32.7478192 127,38.9825543 127,61 C127,82.8539968 103.838187,113 78,113 C58.6953223,113 27.6631621,101.935736 16.3008516,79.7907641 Z" id="path-21"></path>
        <linearGradient x1="100%" y1="0%" x2="0%" y2="100%" id="linearGradient-23">
            <stop stop-color="#000000" stop-opacity="0.1" offset="0%"></stop>
            <stop stop-color="#FFC42C" stop-opacity="0" offset="100%"></stop>
        </linearGradient>
        <path d="M12.783592,36.5237503 C12.8545128,36.3473446 12.9266542,36.1727503 13,36 C17.0361229,27.2660851 24.0141669,30.4651303 54,22 C84.2545956,14.389112 96.0348688,-7.84702959 121,3 C121.073254,5.51388157 121.057438,11.231497 121.033002,16.7378969 C111.338853,15.4494083 100.994519,18.3184639 90,25.3450638 C56.6690597,46.6468764 27.1281006,39.1040385 12.783592,36.5237503 Z" id="path-24"></path>
    </defs>
    <g id="Handsome" stroke="none" stroke-width="1" fill="none" fill-rule="evenodd">
        <g id="Primary" transform="translate(-543.000000, -1470.000000)">
            <g id="Girl-and-Thing" transform="translate(544.000000, 1470.000000)">
                <path d="M58.5371983,778.858659 C73.0586661,720.16833 203.648623,686 293.468131,686 C383.462824,686 445.844263,746.87594 364.916198,787.086641 C284.457213,827.313441 45.1842035,837.384598 58.5371983,778.858659 Z" id="Sh" fill="#F0F0F6"></path>
                <g id="Ler-L">
                    <use fill="#A7A7EE" xlink:href="#path-2"></use>
                    <use fill="url(#linearGradient-1)" xlink:href="#path-2"></use>
                </g>
                <g id="Leg-R">
                    <use fill="#A7A7EE" xlink:href="#path-3"></use>
                    <use fill="url(#linearGradient-1)" xlink:href="#path-3"></use>
                </g>
                <g id="Hair">
                    <mask id="mask-6" fill="white">
                        <use xlink:href="#path-5"></use>
                    </mask>
                    <g>
                        <use fill="#464D89" xlink:href="#path-5"></use>
                        <use fill="url(#linearGradient-4)" xlink:href="#path-5"></use>
                    </g>
                    <path d="M260,85 C328.454792,120.493161 365.788125,144.159828 372,156 C387.620041,186.698546 392.831682,198.060778 400,266 C406.768302,333.227906 271.412474,357.979783 260,366.888072 C242.683161,379.807683 92.4893112,370.86394 103.316433,229.454749 C107.124244,175.821583 123.352099,139.003334 152,119 L260,85 Z" id="Sh" fill="url(#linearGradient-7)" mask="url(#mask-6)"></path>
                </g>
                <g id="Legs">
                    <use fill="#464D89" xlink:href="#path-8"></use>
                    <use fill="url(#linearGradient-4)" xlink:href="#path-8"></use>
                </g>
                <g id="Head-L">
                    <use fill="#A7A7EE" xlink:href="#path-10"></use>
                    <use fill="url(#linearGradient-1)" xlink:href="#path-10"></use>
                    <use fill="url(#linearGradient-9)" xlink:href="#path-10"></use>
                </g>
                <g id="Body" transform="translate(136.000000, 206.000000)">
                    <mask id="mask-12" fill="white">
                        <use xlink:href="#path-11"></use>
                    </mask>
                    <g>
                        <use fill="#A7A7EE" xlink:href="#path-11"></use>
                        <use fill="url(#linearGradient-1)" xlink:href="#path-11"></use>
                    </g>
                    <path d="M42,185 C33.5941083,185 41.0475446,73.2125021 42,72 C61.3221816,69.392186 48.234943,156.025609 100,116 C101.137667,115.72502 161.604461,103.401202 159,116 C156.221008,129.25426 118.363983,122.9057 107,129 C80.1247786,142.026434 73.8731126,185 42,185 Z" id="Sh" fill="url(#linearGradient-13)" mask="url(#mask-12)"></path>
                </g>
                <g id="Hand-L">
                    <use fill="#A7A7EE" xlink:href="#path-14"></use>
                    <use fill="url(#linearGradient-1)" xlink:href="#path-14"></use>
                </g>
                <g id="Head-R">
                    <use fill="#A7A7EE" xlink:href="#path-15"></use>
                    <use fill="url(#linearGradient-1)" xlink:href="#path-15"></use>
                </g>
                <g id="Detail" transform="translate(295.000000, 154.000000)">
                    <rect fill="#D4527D" x="0" y="0" width="137" height="137" rx="3"></rect>
                    <path d="M59,51.8685171 L59,84.1314829 C59,84.6837677 59.4477153,85.1314829 60,85.1314829 C60.197425,85.1314829 60.3904327,85.0730449 60.5547002,84.9635332 L84.7519246,68.8320503 C85.2114532,68.5256978 85.3356271,67.9048285 85.0292747,67.4452998 C84.9560398,67.3354475 84.8617768,67.2411846 84.7519246,67.1679497 L60.5547002,51.0364668 C60.0951715,50.7301143 59.4743022,50.8542882 59.1679497,51.3138169 C59.058438,51.4780844 59,51.6710921 59,51.8685171 Z" fill="#F2F5F9"></path>
                </g>
                <g id="Hand-R">
                    <use fill="#FFC62C" xlink:href="#path-17"></use>
                    <use fill="url(#linearGradient-16)" xlink:href="#path-17"></use>
                </g>
                <g id="Hand-L">
                    <use fill="#FFC62C" xlink:href="#path-18"></use>
                    <use fill="url(#linearGradient-16)" xlink:href="#path-18"></use>
                </g>
                <g id="Neck" transform="translate(194.000000, 174.000000)">
                    <g>
                        <use fill="#FFC62C" xlink:href="#path-19"></use>
                        <use fill="url(#linearGradient-16)" xlink:href="#path-19"></use>
                    </g>
                    <path d="M43.0000005,25.1285094 C36.8011083,28.7882048 29.9987362,31 23,31 C16.3068821,31 8.20403187,29.6699917 0,27.0092896 L0,0 L43.0000005,0 L43,25.1285143 L43.0000005,25.1285094 Z" id="Sh" fill="url(#linearGradient-20)"></path>
                </g>
                <g id="Face" transform="translate(139.000000, 82.000000)">
                    <mask id="mask-22" fill="white">
                        <use xlink:href="#path-21"></use>
                    </mask>
                    <g>
                        <use fill="#FFC62C" xlink:href="#path-21"></use>
                        <use fill="url(#linearGradient-16)" xlink:href="#path-21"></use>
                    </g>
                    <mask id="mask-25" fill="white">
                        <use xlink:href="#path-24"></use>
                    </mask>
                    <use id="Sh" fill="url(#linearGradient-23)" xlink:href="#path-24"></use>
                </g>
            </g>
        </g>
    </g>
</svg>