<?xml version="1.0" encoding="UTF-8"?>
<svg width="429px" height="686px" viewBox="0 0 429 686" version="1.1" xmlns="http://www.w3.org/2000/svg" xmlns:xlink="http://www.w3.org/1999/xlink">
    <!-- Generator: Sketch 51 (57462) - http://www.bohemiancoding.com/sketch -->
    <title>Girl's Portrait</title>
    <desc>Created with Sketch.</desc>
    <defs>
        <linearGradient x1="50%" y1="0%" x2="50%" y2="100%" id="linearGradient-1">
            <stop stop-color="#1F1845" stop-opacity="0" offset="0%"></stop>
            <stop stop-color="#000000" stop-opacity="0.2" offset="100%"></stop>
        </linearGradient>
        <path d="M18,147 C18.0818167,74.9252073 77.1228489,27.8900148 105,14 C175.335608,-22.8725326 227.282474,24.386971 234,29 C241.63885,32.5253118 335.593743,5.36946973 378,110 C420.537219,214.507366 363.267156,279.128905 363,329 C363.267156,377.942356 459.568067,478.045237 363,558 C266.966245,637.90322 50.0836465,618.346684 11,512 C-27.8609663,406.280289 48.4212306,354.223068 50,299 C51.5502592,248.581374 18.0818167,232.948036 18,147 Z" id="path-2"></path>
        <linearGradient x1="16.126432%" y1="-8.50739097%" x2="64.0182%" y2="108.976227%" id="linearGradient-4">
            <stop stop-color="#000000" stop-opacity="0.64600317" offset="0%"></stop>
            <stop stop-color="#1F1845" stop-opacity="0" offset="100%"></stop>
        </linearGradient>
        <path d="M380.36783,541.141004 C375.437785,546.841352 369.680389,552.468886 363,558 C273.541996,632.431981 79.2183801,620.558559 21.433565,532.620894 C85.5779832,418.265648 117.650192,337.680459 117.650192,290.865325 C117.650192,208.607977 288.574432,170.158653 297,210 C305.425568,249.841347 274.368638,324.459136 330.374509,369.036959 C376.077117,405.413908 406.784469,479.250114 380.367828,541.141008 L380.36783,541.141004 Z" id="path-5"></path>
        <linearGradient x1="50%" y1="0%" x2="50%" y2="100%" id="linearGradient-7">
            <stop stop-color="#403F9F" stop-opacity="0" offset="0%"></stop>
            <stop stop-color="#000000" stop-opacity="0.1" offset="100%"></stop>
        </linearGradient>
        <path d="M253,13 C301.493262,19.9281718 280.0059,259.205543 253,279 C225.9941,298.794457 132.149714,304.841156 50,279 C-32.149714,253.158844 2.44336454,4.11055918 50,1 C97.2129169,-2.38004753 203.665142,5.80379571 253,13 Z" id="path-8"></path>
        <linearGradient x1="0%" y1="0%" x2="100%" y2="100%" id="linearGradient-10">
            <stop stop-color="#000000" stop-opacity="0.155089447" offset="0%"></stop>
            <stop stop-color="#000000" stop-opacity="0" offset="100%"></stop>
        </linearGradient>
        <linearGradient x1="53.5251615%" y1="0%" x2="50%" y2="100%" id="linearGradient-11">
            <stop stop-color="#C74D75" stop-opacity="0" offset="0%"></stop>
            <stop stop-color="#AF3B6E" stop-opacity="0.2" offset="100%"></stop>
        </linearGradient>
        <path d="M0,0 L77,0 L77,47.5 C77,68.7629629 59.7629629,86 38.5,86 L38.5,86 C17.2370371,86 2.60396194e-15,68.7629629 0,47.5 L0,0 Z" id="path-12"></path>
        <linearGradient x1="0%" y1="0%" x2="100%" y2="100%" id="linearGradient-13">
            <stop stop-color="#000000" stop-opacity="0.2" offset="0%"></stop>
            <stop stop-color="#FF6663" stop-opacity="0" offset="100%"></stop>
        </linearGradient>
        <path d="M203,1 C254.832864,8.692778 251.933028,73.0713228 252,146 C251.933028,219.723498 237.697532,315 195,315 C152.433277,315 3.76907186,315 1,267 C-0.343580752,233.705919 3.76907186,218.235859 23,222 C42.4652284,226.451469 90.4652284,230.451469 167,234 C185.654479,172.706117 194.987812,132.372784 195,113 C195.329559,21.9045662 176.923686,-2.1061032 203,1 Z" id="path-14"></path>
        <linearGradient x1="13.0643888%" y1="0%" x2="100%" y2="100%" id="linearGradient-16">
            <stop stop-color="#000000" stop-opacity="0.155089447" offset="0%"></stop>
            <stop stop-color="#000000" stop-opacity="0" offset="100%"></stop>
        </linearGradient>
        <path d="M219,582 C231.373569,582 248.706902,586.333333 271,595 L268,605 C249.893734,620.21261 239.227067,628.21261 236,629 C225.209488,631.294948 200.439647,582 219,582 Z" id="path-17"></path>
        <path d="M103,360 C73.7265042,361.816379 41.3624816,396.973002 25,482 C8.51387633,567.764232 -14.9321928,667.26462 25,679 C42.7660449,684.354508 107.080541,684.354508 145,672 C196.740333,655.142524 235.130042,629 236,629 C237.563016,629 229.423808,581.904718 219,582 C212.05224,581.936479 167.385573,587.269812 85,598 C84.7324726,593.578136 78.0658059,564.244802 65,510 C45.5348324,428.884338 132.273496,358.183621 103,360 Z" id="path-18"></path>
        <path d="M124,593 C99.7991411,550.043589 82.7991411,526.376923 73,522 C57.4924533,515.945712 24.0756268,508.429699 15,514 C6.47305812,519.328931 -2.17475186,547.124 2,559 C6.47305812,570.459017 29.1275307,590.541867 45,593 C49.6547974,593.720878 62.9881307,595.387544 85,598 L124,593 Z" id="path-19"></path>
        <path d="M216,102 C228.873946,99.0456021 252.476541,109.04124 241,141 C232.419909,164.416235 214.576826,184.994039 194,179 C163.954995,215.987784 129.765489,242.180826 75,228 C19.4413664,214.715836 1.78907326,165.498415 1,138 C-4.35400577,109.467399 21.0474503,14.6263127 26,5 C38.1852373,-16.415923 81.2897556,33.4524863 133,58 C184.278127,83.1974677 230.897312,61.7629892 216,102 Z" id="path-20"></path>
    </defs>
    <g id="Handsome" stroke="none" stroke-width="1" fill="none" fill-rule="evenodd">
        <g id="Primary" transform="translate(-3155.000000, -1538.000000)">
            <g id="Girl's-Portrait" transform="translate(3155.000000, 1538.000000)">
                <g id="Hair" transform="translate(23.000000, 0.000000)">
                    <mask id="mask-3" fill="white">
                        <use xlink:href="#path-2"></use>
                    </mask>
                    <g>
                        <use fill="#1F1845" xlink:href="#path-2"></use>
                        <use fill="url(#linearGradient-1)" xlink:href="#path-2"></use>
                    </g>
                    <mask id="mask-6" fill="white">
                        <use xlink:href="#path-5"></use>
                    </mask>
                    <use id="Sh" fill="url(#linearGradient-4)" xlink:href="#path-5"></use>
                </g>
                <g id="Body" transform="translate(51.000000, 359.000000)">
                    <mask id="mask-9" fill="white">
                        <use xlink:href="#path-8"></use>
                    </mask>
                    <g>
                        <use fill="#403F9F" xlink:href="#path-8"></use>
                        <use fill="url(#linearGradient-7)" xlink:href="#path-8"></use>
                    </g>
                    <path d="M22,163 C46.3876564,171 67.054323,184.666667 84,204 C109.63242,233 174.945811,186.354831 225,219 C258.780156,240.763446 259.446823,265.430112 227,293 C81.6666667,299.666667 9,303 9,303 C9,303 13.3333333,256.333333 22,163 Z" id="Sh" fill="url(#linearGradient-10)" mask="url(#mask-9)"></path>
                </g>
                <g id="Nack" transform="translate(164.000000, 324.000000)">
                    <g id="Neck">
                        <use fill="#FF6663" xlink:href="#path-12"></use>
                        <use fill="url(#linearGradient-11)" xlink:href="#path-12"></use>
                    </g>
                    <path d="M15,42 C9.65414159,40.6974916 4.66051944,39.0594563 -7.49569153e-07,37.138314 L-7.49569153e-07,0 L77,0 L77,39.6305619 C59.4378963,46.5514958 39.2437039,48.1886638 15,42 Z" id="Sh" fill="url(#linearGradient-13)"></path>
                </g>
                <g id="Hand-R" transform="translate(101.000000, 371.000000)">
                    <mask id="mask-15" fill="white">
                        <use xlink:href="#path-14"></use>
                    </mask>
                    <g>
                        <use fill="#403F9F" xlink:href="#path-14"></use>
                        <use fill="url(#linearGradient-7)" xlink:href="#path-14"></use>
                    </g>
                    <polygon id="Sh" fill="url(#linearGradient-16)" mask="url(#mask-15)" points="44 301 135 258 65.1830935 318.970123"></polygon>
                </g>
                <path d="M268.435012,603.436739 C268.193808,604.229274 267.355797,604.676216 266.563261,604.435012 C265.770726,604.193808 265.323784,603.355797 265.564988,602.563261 C270.378052,586.748755 274.569638,572.332335 278.139684,559.314427 C288.37234,522.001798 293.49107,496.194784 293.5,481.999056 C293.500521,481.170629 294.172517,480.499479 295.000944,480.5 C295.829371,480.500521 296.500521,481.172517 296.5,482.000944 C296.490849,496.545971 291.33376,522.546384 281.03286,560.107855 C277.455064,573.154027 273.255802,587.596847 268.435012,603.436739 Z" id="Line" fill="#FFFFFF" fill-rule="nonzero"></path>
                <g id="Hand-R">
                    <use fill="#FF6663" xlink:href="#path-17"></use>
                    <use fill="url(#linearGradient-11)" xlink:href="#path-17"></use>
                </g>
                <g id="Hand-L">
                    <use fill="#403F9F" xlink:href="#path-18"></use>
                    <use fill="url(#linearGradient-7)" xlink:href="#path-18"></use>
                </g>
                <path d="M71.0027336,528.591334 C71.1951682,529.397101 70.697964,530.206304 69.892197,530.398738 C69.0864301,530.591173 68.2772278,530.093969 68.0847932,529.288202 C66.6678408,523.355103 65.1534778,517.042784 63.5414085,510.350015 C56.9472144,482.870549 61.6546717,455.023204 74.9911954,425.417321 C75.331447,424.661993 76.2195898,424.325507 76.9749177,424.665759 C77.7302457,425.006011 78.0667316,425.894153 77.72648,426.649481 C64.6398294,455.700669 60.0408964,482.906029 66.4582934,509.648745 C68.0705048,516.342101 69.5853174,522.656294 71.0027336,528.591334 Z" id="Line" fill="#FFFFFF" fill-rule="nonzero"></path>
                <g id="Hand">
                    <use fill="#FF6663" xlink:href="#path-19"></use>
                    <use fill="url(#linearGradient-11)" xlink:href="#path-19"></use>
                </g>
                <g id="Face" transform="translate(104.000000, 108.000000)">
                    <mask id="mask-21" fill="white">
                        <use xlink:href="#path-20"></use>
                    </mask>
                    <g>
                        <use fill="#FF6663" xlink:href="#path-20"></use>
                        <use fill="url(#linearGradient-11)" xlink:href="#path-20"></use>
                    </g>
                    <path d="M24,10 C34.524389,10.3956775 58.1910557,31.3956775 95,73 C131.808944,114.604323 172.142278,124.270989 216,102 L247,52 L32,-34 L24,10 Z" id="Sh" fill="url(#linearGradient-13)" mask="url(#mask-21)"></path>
                </g>
            </g>
        </g>
    </g>
</svg>