<?xml version="1.0" encoding="UTF-8"?>
<svg width="659px" height="775px" viewBox="0 0 659 775" version="1.1" xmlns="http://www.w3.org/2000/svg" xmlns:xlink="http://www.w3.org/1999/xlink">
    <!-- Generator: Sketch 51 (57462) - http://www.bohemiancoding.com/sketch -->
    <title>Hands and iPhone</title>
    <desc>Created with Sketch.</desc>
    <defs>
        <linearGradient x1="50%" y1="59.3995395%" x2="50%" y2="100%" id="linearGradient-1">
            <stop stop-color="#C74D75" stop-opacity="0" offset="0%"></stop>
            <stop stop-color="#AF3B6E" stop-opacity="0.28943048" offset="100%"></stop>
        </linearGradient>
        <path d="M197,74 C196.829293,35.6251678 198.710554,-6.91416248e-13 240,0 C242.096594,2.70735278e-14 242.329644,3.07984547 243,5 C246.40923,44.2017266 256.957304,121.279297 298,220 C311.252103,251.503022 290.196482,325.894645 298,367 C306.054798,408.43241 318.488312,418.925928 367,503 C415.28026,586.292431 201.954105,670.338999 175,571 C147.101041,471.310999 145.101443,442.127648 101,412 C72.2365734,392.007669 38.5699067,355.674335 0,303 L157,303 C183.612575,162.738762 196.945909,86.4054286 197,74 Z" id="path-2"></path>
        <linearGradient x1="100%" y1="100%" x2="-2.02450821%" y2="0%" id="linearGradient-4">
            <stop stop-color="#FF6663" stop-opacity="0" offset="0%"></stop>
            <stop stop-color="#000000" stop-opacity="0.3" offset="100%"></stop>
        </linearGradient>
        <linearGradient x1="50%" y1="0%" x2="50%" y2="100%" id="linearGradient-5">
            <stop stop-color="#393E41" stop-opacity="0" offset="0%"></stop>
            <stop stop-color="#000000" stop-opacity="0.3" offset="100%"></stop>
        </linearGradient>
        <path d="M35,0 L194,0 C213.329966,-3.55085719e-15 229,15.6700338 229,35 L229,426 C229,445.329966 213.329966,461 194,461 L35,461 C15.6700338,461 2.36723813e-15,445.329966 0,426 L0,35 C-2.36723813e-15,15.6700338 15.6700338,3.55085719e-15 35,0 Z" id="path-6"></path>
        <path d="M55,14 C57,14 58,15 58,17 C58,26.1202728 63.9712688,30 73,30 C87.769222,30 145.265552,30 156,30 C165.658078,30 171,26.1202728 171,17 C171,15 172,14 174,14 L195,14 C206.045695,14 215,22.954305 215,34 L215,427 C215,438.045695 206.045695,447 195,447 L34,447 C22.954305,447 14,438.045695 14,427 L14,34 C14,22.954305 22.954305,14 34,14 L55,14 Z" id="path-7"></path>
        <circle id="path-9" cx="25" cy="25" r="25"></circle>
        <linearGradient x1="50%" y1="0%" x2="50%" y2="100%" id="linearGradient-11">
            <stop stop-color="#1F1845" stop-opacity="0" offset="0%"></stop>
            <stop stop-color="#000000" stop-opacity="0.2" offset="100%"></stop>
        </linearGradient>
        <path d="M59.4285714,51.2380952 C54.9090755,68.8490744 26.1249573,71.4142603 12.7619048,59.6190476 C-0.780977165,47.9640425 -2.75945457,32.1631407 3.23809524,19.2380952 C9.07783729,6.35829248 21.0221055,0 34.2857143,0 C47.7002367,0 56.5259346,13.7152347 46.8571429,20.7619048 C37.0553535,27.7754354 64.0408438,33.747614 59.4285714,51.2380952 Z" id="path-12"></path>
        <linearGradient x1="16.126432%" y1="-8.50739097%" x2="64.0182%" y2="108.976227%" id="linearGradient-13">
            <stop stop-color="#000000" stop-opacity="0.64600317" offset="0%"></stop>
            <stop stop-color="#1F1845" stop-opacity="0" offset="100%"></stop>
        </linearGradient>
        <linearGradient x1="50%" y1="0%" x2="50%" y2="100%" id="linearGradient-14">
            <stop stop-color="#403F9F" stop-opacity="0" offset="0%"></stop>
            <stop stop-color="#000000" stop-opacity="0.1" offset="100%"></stop>
        </linearGradient>
        <path d="M8,32 C8.853577,34.7276055 9.17835549,34.8748906 9.14285714,35.2380952 C9.17835549,35.5776637 8.72220521,36.4418671 7.80952381,36.952381 C6.99632573,37.6362507 5.71200038,37.8705212 5.52380952,37.5238095 C5.17232593,37.1072971 7.70475789e-17,27.4335338 0,24.1904762 C0,21.6791986 0.314178293,14.8267062 1.71428571,9.9047619 C3.08408105,4.90335979 5.79814659,2.12779042 10.0952381,0.761904762 C10.2486615,0.6317929 12.81281,1.92813129e-16 13.9047619,0 C21.0372784,-1.31923624e-15 26.8571429,5.82182704 26.8571429,12.952381 C26.8571429,13.8487156 26.7747466,14.6920025 26.6666667,15.4285714 L24,28.952381 C22.0182962,30.6248628 19.1600923,31.4508446 15.4285714,31.4285714 C11.6068889,31.4508446 8.80060225,30.7314445 7.04761905,29.3333333 C7.28867881,30.13054 7.6205002,31.0609845 8,32 Z" id="path-15"></path>
        <linearGradient x1="13.0643888%" y1="0%" x2="100%" y2="100%" id="linearGradient-16">
            <stop stop-color="#000000" stop-opacity="0.155089447" offset="0%"></stop>
            <stop stop-color="#000000" stop-opacity="0" offset="100%"></stop>
        </linearGradient>
        <path d="M6.66666755,0.0791539898 L6.66666667,2.19047619 C6.66666667,4.03142536 5.1742825,5.52380952 3.33333333,5.52380952 C1.49238417,5.52380952 2.53765263e-16,4.03142536 0,2.19047619 L0,0.259798217 C0.954157813,0.463186551 1.97045889,0.571428571 3.04761905,0.571428571 C4.37806371,0.571428571 5.58217484,0.391109114 6.66666755,0.0791539898 Z" id="path-17"></path>
        <linearGradient x1="0%" y1="0%" x2="100%" y2="100%" id="linearGradient-19">
            <stop stop-color="#000000" stop-opacity="0.2" offset="0%"></stop>
            <stop stop-color="#FF6663" stop-opacity="0" offset="100%"></stop>
        </linearGradient>
        <path d="M6.62413367,2.72440492 C5.94622129,3.05351346 5.18514253,3.23809524 4.38095238,3.23809524 C2.5288854,3.23809524 0.905477172,2.2590907 0,0.790353916 L9.74458609e-14,0.259798217 C0.954157813,0.463186551 1.97045889,0.571428571 3.04761905,0.571428571 C4.37806371,0.571428571 5.58217484,0.391109114 6.66666755,0.0791539898 L6.66666667,2.19047619 C6.66666667,2.37221631 6.65212217,2.55055938 6.62413367,2.72440492 Z" id="path-20"></path>
        <linearGradient x1="50%" y1="-277.697167%" x2="50%" y2="77.0167791%" id="linearGradient-22">
            <stop stop-color="#000000" offset="0%"></stop>
            <stop stop-color="#000000" stop-opacity="0" offset="100%"></stop>
        </linearGradient>
        <rect id="path-23" x="0" y="0" width="201" height="150"></rect>
        <path d="M46,84 C20.1774817,88.3741155 1.26000643e-15,106.345707 0,124 C0,142.189604 27.2394201,162.938328 39,171 C50.6214902,178.739957 72.9061145,171.55674 71,150 C68.5330455,127.737027 45.9153825,113.161463 46,104 C45.9153825,94.8160247 45.9153825,97.3844198 46,84 Z" id="path-25"></path>
        <path d="M46,1 C33.164543,-0.535488338 13.5423922,-2.34874717 7,12 C-0.497277653,27.2776818 14.4948999,42.6780468 46,59 L46,1 Z" id="path-26"></path>
        <linearGradient x1="0%" y1="0%" x2="100%" y2="100%" id="linearGradient-27">
            <stop stop-color="#FF6663" stop-opacity="0" offset="0%"></stop>
            <stop stop-color="#000000" stop-opacity="0.1" offset="100%"></stop>
        </linearGradient>
        <path d="M201,449 C222.593222,414.387858 285.004295,406.59757 317,360 C348.288215,313.662973 406.521599,178.574953 402,165 C397.006712,151.360466 359.292021,149.828774 340,186 C321.443803,222.289867 303.371227,263.406397 296,260 C288.427168,256.567497 326.436284,180.27563 340,156 C354.29954,131.347007 442.708105,41.5943661 434,13 C426.207331,-15.7677258 395.532976,6.61413439 354,48 C313.066104,88.9801871 289.73465,114.711985 280,118 C270.71706,120.327388 244.443923,107.522405 217,124 C190.52838,139.655584 185.551625,151.06031 171,156 C157.294534,160.562327 122.642997,164.967709 109,202 C94.3645233,239.144704 78.0676784,368.932937 69,385 C59.4296501,400.605709 9.1810736,466.077863 1,500 C-12.8899162,556.823462 126.193799,611.180943 171,544 C195.9373,507.196041 179.843941,483.901208 201,449 Z" id="path-28"></path>
        <linearGradient x1="100%" y1="100%" x2="0%" y2="0%" id="linearGradient-30">
            <stop stop-color="#FF6663" stop-opacity="0" offset="0%"></stop>
            <stop stop-color="#000000" stop-opacity="0.1" offset="100%"></stop>
        </linearGradient>
    </defs>
    <g id="Handsome" stroke="none" stroke-width="1" fill="none" fill-rule="evenodd">
        <g id="Primary" transform="translate(-1301.000000, -6125.000000)">
            <g id="Hands-and-iPhone" transform="translate(1301.000000, 6125.000000)">
                <g id="Hand-R" transform="translate(284.000000, 158.000000)">
                    <mask id="mask-3" fill="white">
                        <use xlink:href="#path-2"></use>
                    </mask>
                    <g id="Hand">
                        <use fill="#FF6663" xlink:href="#path-2"></use>
                        <use fill="url(#linearGradient-1)" xlink:href="#path-2"></use>
                    </g>
                    <path d="M104,360 C63.2618909,360 39.9797701,333.408212 23.2036866,303.000003 L161,303 C170.450854,303 180.026819,302.254155 186.32422,296.166139 C180.383979,331.618933 156.792733,360 104,360 Z" id="Sh" fill="url(#linearGradient-4)" mask="url(#mask-3)"></path>
                </g>
                <g id="iPhone" transform="translate(256.000000, 0.000000)">
                    <g>
                        <use fill="#393E41" xlink:href="#path-6"></use>
                        <use fill="url(#linearGradient-5)" xlink:href="#path-6"></use>
                    </g>
                    <mask id="mask-8" fill="white">
                        <use xlink:href="#path-7"></use>
                    </mask>
                    <use id="Screen" fill="#FFFFFF" xlink:href="#path-7"></use>
                    <g id="Content" mask="url(#mask-8)">
                        <g transform="translate(14.000000, 14.000000)">
                            <path d="M15,410 L186,410 C188.761424,410 191,412.238576 191,415 C191,417.761424 188.761424,420 186,420 L15,420 C12.2385763,420 10,417.761424 10,415 C10,412.238576 12.2385763,410 15,410 Z" id="Text" fill="#ECDFF7"></path>
                            <path d="M15,385 L186,385 C188.761424,385 191,387.238576 191,390 C191,392.761424 188.761424,395 186,395 L15,395 C12.2385763,395 10,392.761424 10,390 C10,387.238576 12.2385763,385 15,385 Z" id="Text" fill="#ECDFF7"></path>
                            <path d="M15,360 L186,360 C188.761424,360 191,362.238576 191,365 C191,367.761424 188.761424,370 186,370 L15,370 C12.2385763,370 10,367.761424 10,365 C10,362.238576 12.2385763,360 15,360 Z" id="Text" fill="#ECDFF7"></path>
                            <path d="M15,335 L186,335 C188.761424,335 191,337.238576 191,340 C191,342.761424 188.761424,345 186,345 L15,345 C12.2385763,345 10,342.761424 10,340 C10,337.238576 12.2385763,335 15,335 Z" id="Text" fill="#ECDFF7"></path>
                            <path d="M15,310 L186,310 C188.761424,310 191,312.238576 191,315 C191,317.761424 188.761424,320 186,320 L15,320 C12.2385763,320 10,317.761424 10,315 C10,312.238576 12.2385763,310 15,310 Z" id="Text" fill="#ECDFF7"></path>
                            <path d="M15,285 L186,285 C188.761424,285 191,287.238576 191,290 C191,292.761424 188.761424,295 186,295 L15,295 C12.2385763,295 10,292.761424 10,290 C10,287.238576 12.2385763,285 15,285 Z" id="Text" fill="#ECDFF7"></path>
                            <path d="M22,246 L179,246 C185.627417,246 191,251.372583 191,258 C191,264.627417 185.627417,270 179,270 L22,270 C15.372583,270 10,264.627417 10,258 C10,251.372583 15.372583,246 22,246 Z" id="Button" fill="#7E5A9B"></path>
                            <path d="M75,206 L136,206 C138.761424,206 141,208.238576 141,211 C141,213.761424 138.761424,216 136,216 L75,216 C72.2385763,216 70,213.761424 70,211 C70,208.238576 72.2385763,206 75,206 Z" id="Text" fill="#ECDFF7"></path>
                            <path d="M75,186 L186,186 C188.761424,186 191,188.238576 191,191 C191,193.761424 188.761424,196 186,196 L75,196 C72.2385763,196 70,193.761424 70,191 C70,188.238576 72.2385763,186 75,186 Z" id="Text" fill="#ECDFF7"></path>
                            <g id="Photo" stroke-width="1" fill="none" transform="translate(10.000000, 176.000000)">
                                <mask id="mask-10" fill="white">
                                    <use xlink:href="#path-9"></use>
                                </mask>
                                <use id="Mask" fill="#ECDFF7" xlink:href="#path-9"></use>
                                <g id="Girl" mask="url(#mask-10)">
                                    <g transform="translate(-10.000000, -2.000000)">
                                        <g id="Hair" stroke-width="1" fill="none" fill-rule="evenodd">
                                            <g>
                                                <use fill="#1F1845" xlink:href="#path-12"></use>
                                                <use fill="url(#linearGradient-11)" xlink:href="#path-12"></use>
                                            </g>
                                            <path d="M47.3803647,28.5144274 C52.385621,33.565444 62.3810484,40.0418259 59.4285714,51.2380952 C56.8805223,61.1669989 46.6197257,66.3134499 35.7581084,66.8002754 C24.2498549,63.5785293 15.8095238,53.0130324 15.8095238,40.4761905 C15.8095238,35.5254424 17.1257328,30.8821113 19.4273117,26.8770364 C19.8608302,28.9840921 21.0456757,30.6666667 23.047619,30.6666667 C24.8320484,35.6746807 29.1166879,39.6190476 35.6190476,39.6190476 C42.1214073,39.6190476 45.6061301,35.3118882 46.8571429,32.3809524 C47.3972876,31.115474 47.4710001,29.9423261 47.3803647,28.5144274 Z" id="Sh" fill="url(#linearGradient-13)"></path>
                                        </g>
                                        <g id="Body" stroke-width="1" fill="none" fill-rule="evenodd" transform="translate(21.714286, 40.380952)">
                                            <g>
                                                <use fill="#403F9F" xlink:href="#path-15"></use>
                                                <use fill="url(#linearGradient-14)" xlink:href="#path-15"></use>
                                            </g>
                                            <path d="M7.02019813,29.3150766 L5.9047619,24.5258538 L7.02019813,19.047619 C11.4646426,27.2894162 13.6868648,31.4103147 13.6868648,31.4103147 C10.9287668,31.4103147 8.70654463,30.711902 7.02019813,29.3150766 Z" id="Sh" fill="url(#linearGradient-16)"></path>
                                        </g>
                                        <g id="Neck" stroke-width="1" fill="none" fill-rule="evenodd" transform="translate(32.571429, 38.857143)">
                                            <mask id="mask-18" fill="white">
                                                <use xlink:href="#path-17"></use>
                                            </mask>
                                            <use fill="#FF6663" xlink:href="#path-17"></use>
                                            <mask id="mask-21" fill="white">
                                                <use xlink:href="#path-20"></use>
                                            </mask>
                                            <use id="Sh" fill="url(#linearGradient-19)" xlink:href="#path-20"></use>
                                        </g>
                                        <g id="Face" stroke-width="1" fill="none" fill-rule="evenodd" transform="translate(19.238095, 20.761905)">
                                            <path d="M0,4.19047619 C-1.73216283e-13,1.24027467 2.73956169,0.580824674 3.80952381,0.952380952 C9.53857173,2.94185673 19.959633,3.55833031 27.6190476,0 C27.6190476,6.25245322 28.8700603,8.68811178 27.6190476,11.6190476 C26.3680349,14.5499835 22.8833121,18.8571429 16.3809524,18.8571429 C9.87859267,18.8571429 5.59395317,14.9127759 3.80952381,9.9047619 C1.22253248,9.9047619 1.73240721e-13,7.09505703 0,4.19047619 Z" fill="#FF6663"></path>
                                            <path d="M3.81071932,0.952796064 C9.54002138,2.94194247 19.9601657,3.55808281 27.6190476,0 C27.6190476,2.68277827 27.8493669,4.66286058 28.013532,6.28088172 C28.0090235,6.28249609 28.0045128,6.28410695 28,6.28571429 C20.4539621,8.97341607 10.408578,7.01118001 3.81071932,0.952796064 Z" id="Sh" fill="url(#linearGradient-19)"></path>
                                            <circle id="Sh" fill="url(#linearGradient-22)" cx="2.95238095" cy="5.23809524" r="1.80952381"></circle>
                                        </g>
                                        <path d="M27.2380952,78.2857143 C27.1328981,78.2857143 27.047619,78.2004352 27.047619,78.0952381 C27.047619,77.990041 27.1328981,77.9047619 27.2380952,77.9047619 C28.0595271,77.9047619 28.9287919,77.6477985 29.6113362,77.0899789 C30.5247513,76.3434766 31.047619,75.119885 31.047619,73.3333333 C31.047619,73.2281362 31.1328981,73.1428571 31.2380952,73.1428571 C31.3432923,73.1428571 31.4285714,73.2281362 31.4285714,73.3333333 C31.4285714,75.2292584 30.8588978,76.562383 29.8524076,77.3849522 C29.0952989,78.0037107 28.1413274,78.2857143 27.2380952,78.2857143 Z" id="Line" fill="#FFFFFF" fill-rule="nonzero"></path>
                                    </g>
                                </g>
                            </g>
                            <g id="Bg" stroke-width="1" fill="none">
                                <mask id="mask-24" fill="white">
                                    <use xlink:href="#path-23"></use>
                                </mask>
                                <use fill="#D8D8D8" xlink:href="#path-23"></use>
                                <circle id="Oval" fill="#E478A3" mask="url(#mask-24)" cx="63.5" cy="75.5" r="102.5"></circle>
                                <circle id="Oval" fill="#AF3B6E" mask="url(#mask-24)" cx="192.5" cy="30.5" r="77.5"></circle>
                                <circle id="Oval" fill="#7E5A9B" mask="url(#mask-24)" cx="163" cy="148" r="105"></circle>
                                <path d="M94.0783224,58.6962771 L119.379806,74.0823142 C121.267341,75.23014 121.866995,77.6907867 120.719169,79.5783224 C120.386384,80.1255688 119.927052,80.5849008 119.379806,80.9176858 L94.0783224,96.3037229 C92.1907867,97.4515486 89.73014,96.8518952 88.5823142,94.9643595 C88.2014386,94.3380306 88,93.6190816 88,92.8860371 L88,62.1139629 C88,59.9048239 89.790861,58.1139629 92,58.1139629 C92.7330445,58.1139629 93.4519935,58.3154015 94.0783224,58.6962771 Z" id="Play" fill="#FFFFFF" mask="url(#mask-24)"></path>
                            </g>
                            <g id="Timeline" stroke-width="1" fill="none" transform="translate(0.000000, 144.000000)">
                                <rect fill="#ECDFF7" x="0" y="6" width="201" height="5"></rect>
                                <rect id="Active" fill="#AF3B6E" x="0" y="6" width="87" height="5"></rect>
                                <circle id="Oval" fill="#AF3B6E" cx="78.5" cy="8.5" r="8.5"></circle>
                            </g>
                        </g>
                    </g>
                </g>
                <g id="Fingers" transform="translate(210.000000, 155.000000)">
                    <g id="Finger">
                        <use fill="#FF6663" xlink:href="#path-25"></use>
                        <use fill="url(#linearGradient-1)" xlink:href="#path-25"></use>
                    </g>
                    <g id="Finger">
                        <use fill="#FF6663" xlink:href="#path-26"></use>
                        <use fill="url(#linearGradient-1)" xlink:href="#path-26"></use>
                    </g>
                </g>
                <path d="M527,163 C530.967855,202.244098 541.546113,279.40422 582,378 C595.996283,409.767416 574.88041,484.238715 582,525 C582.83258,526.052437 440.6988,510.545733 462,389 C484.345241,267.864019 481.388653,251.268094 481,232 C481.388848,193.963522 483.255106,158.482087 524,158 C526.65401,158.138103 526.892262,161.122971 527,163 Z" id="Finger" fill="#FF6663"></path>
                <path d="M503.309927,162.18036 C508.774183,159.486894 515.564698,158 524,158 C526.096594,158 526.329644,161.079845 527,163 C530.40923,202.201727 540.957304,279.279297 582,378 C595.252103,409.503022 574.196482,483.894645 582,525 C590.054798,566.43241 602.488312,576.925928 651,661 C663.6392,682.804971 658.349719,704.661625 643.168799,723.266287 C603.579902,657.380836 573.785226,606.472402 553.784765,570.54099 C520.098326,510.02232 561.335433,456.881429 538.243786,391.499576 C516.998491,331.345496 505.080041,202.629593 503.309927,162.18036 Z" id="Sh" fill="url(#linearGradient-27)"></path>
                <g id="Hand-L" transform="translate(0.000000, 199.000000)">
                    <mask id="mask-29" fill="white">
                        <use xlink:href="#path-28"></use>
                    </mask>
                    <g id="Hand">
                        <use fill="#FF6663" xlink:href="#path-28"></use>
                        <use fill="url(#linearGradient-1)" xlink:href="#path-28"></use>
                    </g>
                    <path d="M119.589669,574.094181 C140.203627,495.255877 159.340404,443.89115 177,420 C212.001445,373.848355 265.491994,359.443989 288,337 C307.789416,316.526216 358.652245,206.064186 399.628359,161.35386 C400.702562,162.43611 401.509289,163.659587 402,165 C406.521599,178.574953 348.288215,313.662973 317,360 C285.004295,406.59757 222.593222,414.387858 201,449 C179.843941,483.901208 195.9373,507.196041 171,544 C159.024428,561.955778 140.314062,571.229354 119.589669,574.094181 Z" id="Sh" fill="url(#linearGradient-27)" mask="url(#mask-29)"></path>
                    <path d="M340,156 C327.575306,178.063589 297.163689,244.086833 296,260 C279.336603,260 293.532431,190.939285 328,143 C351.008633,110.735534 395.381101,50.0954013 434,17 C434.967667,49.0790361 353.308066,132.721077 340,156 Z" id="Sh" fill="url(#linearGradient-30)" mask="url(#mask-29)"></path>
                    <path d="M291.217495,104.758717 C292.027447,104.007683 293.292876,104.055445 294.04391,104.865396 C294.794944,105.675348 294.747182,106.940776 293.937231,107.691811 C293.354835,108.231842 292.754331,108.781654 292.130978,109.345907 C292.302457,109.190686 273.157188,125.793261 267.071153,131.658166 C256.523001,141.82306 247.258238,152.643232 238.143687,166.045013 C237.522514,166.958368 236.278533,167.195228 235.365177,166.574055 C234.451822,165.952882 234.214962,164.708901 234.836135,163.795546 C244.111846,150.156801 253.555507,139.127696 264.295536,128.777897 C270.471885,122.82596 289.686935,106.162872 289.446628,106.380394 C290.058415,105.826612 290.647152,105.287573 291.217495,104.758717 Z" id="Line" fill="#FFFFFF" fill-rule="nonzero" mask="url(#mask-29)"></path>
                    <path d="M194.578248,139.188439 C182.667806,149.204847 172.554911,159.384758 162.700838,171.920206 C162.018206,172.788588 160.76086,172.939168 159.892478,172.256536 C159.024096,171.573904 158.873516,170.316559 159.556149,169.448177 C169.591776,156.681772 179.895102,146.310168 192.003726,136.127093 C196.998229,131.926831 199.491055,135.056881 194.578248,139.188439 Z" id="Line" fill="#FFFFFF" fill-rule="nonzero" mask="url(#mask-29)"></path>
                </g>
            </g>
        </g>
    </g>
</svg>