<?xml version="1.0" encoding="UTF-8"?>
<svg width="686px" height="722px" viewBox="0 0 686 722" version="1.1" xmlns="http://www.w3.org/2000/svg" xmlns:xlink="http://www.w3.org/1999/xlink">
    <!-- Generator: Sketch 51 (57462) - http://www.bohemiancoding.com/sketch -->
    <title>Hand and iPad</title>
    <desc>Created with Sketch.</desc>
    <defs>
        <linearGradient x1="50%" y1="0%" x2="50%" y2="100%" id="linearGradient-1">
            <stop stop-color="#393E41" stop-opacity="0" offset="0%"></stop>
            <stop stop-color="#000000" stop-opacity="0.3" offset="100%"></stop>
        </linearGradient>
        <path d="M686,26 L686,467 C686,481.44379 674.431915,493 660,493 L26,493 C11.5680852,493 1.13686838e-13,481.44379 1.13686838e-13,467 L1.13686838e-13,26 C1.13686838e-13,11.5562104 11.5680852,3.66803737e-14 26,0 L660,0 C674.431915,0 686,11.5562104 686,26 Z" id="path-2"></path>
        <ellipse id="path-3" cx="11.8900376" cy="12" rx="10.3308271" ry="10.3185379"></ellipse>
        <path d="M639,25.0022523 L639,467.997748 C639,468.420833 638.421579,469 638,469 L47,469 C46.5784208,469 46,468.420833 46,467.997748 L46,25.0022523 C46,24.5791665 46.5784208,24 47,24 L638,24 C638.421579,24 639,24.5791665 639,25.0022523 Z" id="path-4"></path>
        <path d="M1.13686838e-13,0 L29,0 C34.5228475,-1.01453063e-15 39,4.4771525 39,10 L39,176 C39,181.522847 34.5228475,186 29,186 L1.13686838e-13,186 L1.13686838e-13,0 Z" id="path-6"></path>
        <polygon id="path-7" points="1.13686838e-13 0 593 0 593 39 1.13686838e-13 39"></polygon>
        <linearGradient x1="0%" y1="0%" x2="100%" y2="100%" id="linearGradient-8">
            <stop stop-color="#000000" stop-opacity="0.4" offset="0%"></stop>
            <stop stop-color="#000000" stop-opacity="0" offset="100%"></stop>
        </linearGradient>
        <linearGradient x1="78.6453724%" y1="-53.4244659%" x2="23.3497903%" y2="100%" id="linearGradient-9">
            <stop stop-color="#FFC62C" stop-opacity="0" offset="0%"></stop>
            <stop stop-color="#FF6663" stop-opacity="0.7" offset="100%"></stop>
        </linearGradient>
        <path d="M142.638202,87.2007283 C123.533783,98.3274963 91.9746848,123.066098 87.3900194,155.556524 C82.8053539,188.04695 103.655372,195.724618 115.014111,177.669987 C126.37285,159.615356 158.04393,123.27868 174.236823,119.27423 C190.429717,115.26978 161.742622,76.0739604 142.638202,87.2007283 Z" id="path-10"></path>
        <path d="M119.412396,52.338091 C100.307976,63.4648589 68.5970715,89.754363 59.4701843,121.888636 C50.3432971,154.022909 80.4295652,160.861981 91.7883044,142.807349 C103.147044,124.752718 134.818123,88.4160428 151.011017,84.4115928 C167.20391,80.4071428 138.516815,41.211323 119.412396,52.338091 Z" id="path-11"></path>
        <linearGradient x1="50%" y1="0%" x2="50%" y2="100%" id="linearGradient-12">
            <stop stop-color="#FFC62C" stop-opacity="0" offset="0%"></stop>
            <stop stop-color="#FF6663" stop-opacity="0.3" offset="100%"></stop>
        </linearGradient>
        <path d="M0.173217799,54.6314139 C0.173217799,70.3005531 -0.107142805,112.673436 3.17163944,118.66147 C6.45042168,124.649505 29.9850448,164.461419 39.2381239,182.717456 C48.4912031,200.973493 82.4780651,263.775644 94.3567569,279.66445 C106.235449,295.553256 140.670209,327.000265 145.80261,348.790344 C150.935011,370.580423 153.441366,366.577361 153.441366,425.409367 C153.441366,484.241374 323.081369,484.241374 302.282301,425.409367 C281.483234,366.577361 281.403415,364.637209 277.209501,348.790344 C273.015587,332.943479 269.245891,321.081198 277.209501,279.66445 C285.173111,238.247702 274.677974,130.666628 270.108866,118.66147 C265.539757,106.656312 260.84364,104.220262 259.166261,104.220262 C257.488882,104.220262 261.951243,91.281361 251.475166,82.234166 C240.99909,73.186971 188.275809,50.749582 180.445048,43.4787875 C172.614287,36.207993 142.261157,0.802941128 131.797627,0.802941128 C121.334096,0.802941128 21.454838,29.6674669 21.454838,36.5731272 C21.454838,43.4787875 23.4563404,56.0514581 53.9827651,59.2074459 C84.5091898,62.3634338 101.424595,46.1292316 113.841137,50.3803228 C126.257679,54.6314139 153.441366,104.58209 131.797627,140.204845 C110.153887,175.827601 45.3737535,111.957301 45.3737535,99.1088388 C45.3737535,86.2603767 36.9156366,61.0803995 25.709937,54.6314139 C14.5042373,48.1824284 0.173217799,50.3803228 0.173217799,54.6314139 Z" id="path-13"></path>
        <linearGradient x1="100%" y1="0%" x2="50%" y2="100%" id="linearGradient-15">
            <stop stop-color="#000000" stop-opacity="0.4" offset="0%"></stop>
            <stop stop-color="#FFC62C" stop-opacity="0" offset="100%"></stop>
        </linearGradient>
        <path d="M29.9996214,85.440868 C44.0588793,95.6625323 65.1477661,110.995029 93.2662818,131.438357 C100.184595,136.468259 101.718255,146.158052 96.6918056,153.081118 C91.6653566,160.004183 81.9822133,161.538895 75.0638998,156.508994 C44.6173497,134.373088 21.782437,117.771158 6.55916196,106.703205 C-8.92421359,95.4461477 9.68863987,70.673941 29.9996214,85.440868 Z" id="path-16"></path>
        <path d="M44.5487565,90.9491322 L-18.0356031,45.4477039 C-19.3636377,44.4821676 -20.4953638,43.2719182 -21.3700679,41.8818819 L-37.1048873,16.8768876 C-38.2440664,15.0665606 -37.7010008,12.6748792 -35.8919164,11.5349177 C-34.99545,10.9700258 -33.906797,10.7974816 -32.8797654,11.0575121 L-4.25259806,18.3055244 C-2.66120383,18.7084439 -1.16125568,19.4115311 0.166778912,20.3770674 L21.6504501,35.9965885 C21.5211207,36.2027613 21.454838,36.3952305 21.454838,36.5731272 C21.454838,43.4426904 23.4354706,55.9201737 53.506398,59.1571854 L177.706003,149.455456 C184.624317,154.485357 186.157976,164.175151 181.131527,171.098216 C176.105078,178.021281 166.421935,179.555994 159.503621,174.526092 L44.5487565,90.9491322 C42.1650816,77.6208765 34.8518736,59.8926845 25.709937,54.6314139 C14.5042373,48.1824284 0.173217799,50.3803228 0.173217799,54.6314139 C0.173217799,55.834376 0.17156534,57.1947312 0.169997806,58.6839318 L44.5487565,90.9491322 Z" id="path-18"></path>
    </defs>
    <g id="Handsome" stroke="none" stroke-width="1" fill="none" fill-rule="evenodd">
        <g id="Primary" transform="translate(-418.000000, -6152.000000)">
            <g id="Hand-and-iPad" transform="translate(418.000000, 6152.000000)">
                <g id="iPad">
                    <g>
                        <use fill="#393E41" xlink:href="#path-2"></use>
                        <use fill="url(#linearGradient-1)" xlink:href="#path-2"></use>
                    </g>
                    <g id="Button" transform="translate(11.000000, 234.000000)">
                        <ellipse fill="#ECDFF7" cx="11.8900376" cy="12" rx="11.6221805" ry="11.6083551"></ellipse>
                        <g>
                            <use fill="#393E41" xlink:href="#path-3"></use>
                            <use fill="url(#linearGradient-1)" xlink:href="#path-3"></use>
                        </g>
                    </g>
                    <mask id="mask-5" fill="white">
                        <use xlink:href="#path-4"></use>
                    </mask>
                    <use id="Bg" fill="#757DC0" xlink:href="#path-4"></use>
                    <path d="M395.884535,145.10237 C393.630392,168.839881 396.497358,194.546658 403.873773,224.218115 C405.510544,209.264464 411.202181,198.37535 420.948686,191.550774 C437.579006,179.906099 456.698052,178.517421 463.652272,188.449075 C470.606491,198.38073 462.762461,215.871801 446.132141,227.516476 C435.532133,234.938682 422.05486,236.20971 405.700321,231.329561 C410.055142,247.763482 415.367148,264.250953 424.495042,290.775192 C424.840241,291.778287 425.179828,292.765521 425.513931,293.737327 C427.032164,278.367638 432.751817,267.209389 442.672889,260.26258 C459.303209,248.617904 478.422255,247.229226 485.376475,257.160881 C492.330694,267.092535 484.486664,284.583606 467.856344,296.228282 C457.317434,303.607707 443.93433,304.906659 427.707034,300.125139 C439.01407,333.111154 443.410148,346.864331 447.16599,362.437082 C449.328279,349.532371 454.83566,339.980731 463.688134,333.782162 C480.318454,322.137487 499.437501,320.748809 506.39172,330.680463 C513.345939,340.612117 505.50191,358.103189 488.87159,369.747864 C478.558004,376.969514 465.520545,378.367918 449.759213,373.943074 C455.062348,399.609701 455.54523,420.889522 450.449563,439.622208 C450.232115,440.421588 449.407814,440.893337 448.608434,440.67589 C447.809054,440.458442 447.337305,439.634141 447.554752,438.834761 C452.61341,420.238131 452.013975,398.915107 446.486253,372.9532 C446.380288,372.918906 446.274205,372.88436 446.168004,372.849563 C446.180674,372.459089 446.195738,372.071014 446.213195,371.685338 C446.102474,371.176986 445.989889,370.666864 445.875447,370.154957 C441.329602,349.82115 437.196043,336.901617 421.658317,291.751406 C411.320852,261.712342 405.859108,244.4946 401.139077,225.649944 C393.48056,195.073419 390.53008,168.598922 392.968404,144.091987 C393.581154,125.867102 399.420004,112.88078 410.484952,105.13302 C427.115272,93.4883443 446.234318,92.0996664 453.188538,102.031321 C460.142757,111.962975 452.298727,129.454046 435.668407,141.098722 C425.208713,148.422679 411.947422,149.757228 395.884535,145.10237 Z" id="Flowers" fill="#A7A7EE" fill-rule="nonzero" mask="url(#mask-5)"></path>
                    <path d="M427.550247,308.15414 C408.256098,277.93597 347.439893,358.428211 326.638168,291.88744 C305.836443,225.346668 321.676573,193.519635 294.918169,177.82613 C268.159764,162.132626 273.179362,282.474528 245.473219,255.328014 C217.767076,228.1815 241.959079,138.916127 214.33787,127.463692 C186.716662,116.011256 199.562912,176.801067 178.71872,184.856653 C157.874528,192.91224 161.969049,113.872761 141.903418,95.8281058 C121.837786,77.7834504 91.6791771,106.517046 114.229125,177.82613 C136.779073,249.135215 63.0001996,177.761682 47.9023873,210.767063 C32.8045751,243.772443 152.353825,258.314837 141.903418,291.88744 C131.45301,325.460043 -10.9236286,266.235308 18.4893794,333.03603 C47.9023873,399.836751 178.71872,322.769946 178.71872,374.461433 C178.71872,426.15292 114.229125,385.915679 114.229125,441.073607 C114.229125,468.978203 245.012471,509.373749 326.638168,472.348266 C406.358805,436.18692 437.083415,323.084828 427.550247,308.15414 Z" id="Flowers" fill="#464D89" mask="url(#mask-5)"></path>
                    <path d="M380.596153,455.365184 C388.212555,431.763098 354.049483,393.116311 366.759806,373.209618 C379.470128,353.302925 419.533756,406.32845 433.237218,362.493674 C446.94068,318.658899 436.505746,297.692342 454.133264,287.354 C471.760782,277.015658 468.454044,356.292771 486.705899,338.40958 C504.957755,320.526389 489.020894,261.721426 507.216798,254.176955 C525.412702,246.632484 516.950033,286.678724 530.681471,291.985467 C544.412909,297.292211 541.715579,245.223717 554.934128,233.336517 C568.152677,221.449318 588.020133,240.378024 573.165002,287.354 C558.309871,334.329977 606.912859,287.311544 616.858779,309.054355 C626.804699,330.797166 548.049759,340.377196 554.934128,362.493674 C561.818498,384.610152 655.611338,345.594931 636.235059,389.600952 C616.858779,433.606974 530.681471,382.838009 530.681471,416.890585 C530.681471,450.943162 573.165002,424.436249 573.165002,460.772398 C573.165002,497.108548 372.979751,478.967271 380.596153,455.365184 Z" id="Flowers" fill="#464D89" mask="url(#mask-5)"></path>
                    <path d="M146.547234,351.054302 C153.223022,303.145032 205.475148,379.91712 228.390154,433.295788 C247.870741,331.943118 321.723798,131.290389 330.298288,236.782345 C342.230811,383.588185 295.402761,428.599238 237.707592,482.330346 C228.343697,491.050876 136.409279,423.810066 146.547234,351.054302 Z" id="Flowers" fill="#A7A7EE" mask="url(#mask-5)"></path>
                    <g id="Menu" mask="url(#mask-5)">
                        <g transform="translate(46.000000, 153.000000)">
                            <g id="Detail" fill="none">
                                <use fill="#393E41" xlink:href="#path-6"></use>
                                <use fill="url(#linearGradient-1)" xlink:href="#path-6"></use>
                            </g>
                            <path d="M12.5,25 L26.5,25 C30.6421356,25 34,28.3578644 34,32.5 C34,36.6421356 30.6421356,40 26.5,40 L12.5,40 C8.35786438,40 5,36.6421356 5,32.5 C5,28.3578644 8.35786438,25 12.5,25 Z" id="Button" fill="#4E565C"></path>
                            <path d="M12.5,105 L26.5,105 C30.6421356,105 34,108.357864 34,112.5 C34,116.642136 30.6421356,120 26.5,120 L12.5,120 C8.35786438,120 5,116.642136 5,112.5 C5,108.357864 8.35786438,105 12.5,105 Z" id="Button" fill="#4E565C"></path>
                        </g>
                    </g>
                    <g id="Menu" mask="url(#mask-5)">
                        <g transform="translate(46.000000, 24.000000)">
                            <g id="Detail" fill="none">
                                <use fill="#393E41" xlink:href="#path-7"></use>
                                <use fill="url(#linearGradient-1)" xlink:href="#path-7"></use>
                            </g>
                            <circle id="Button" fill="#4E565C" cx="562.5" cy="19.5" r="10.5"></circle>
                            <circle id="Button" fill="#4E565C" cx="521.5" cy="19.5" r="10.5"></circle>
                            <circle id="Button" fill="#4E565C" cx="480.5" cy="19.5" r="10.5"></circle>
                            <circle id="Button" fill="#4E565C" cx="439.5" cy="19.5" r="10.5"></circle>
                            <path d="M27.5,12 L171.5,12 C175.642136,12 179,15.3578644 179,19.5 C179,23.6421356 175.642136,27 171.5,27 L27.5,27 C23.3578644,27 20,23.6421356 20,19.5 C20,15.3578644 23.3578644,12 27.5,12 Z" id="Button" fill="#4E565C"></path>
                        </g>
                    </g>
                </g>
                <g id="Hand" transform="translate(249.000000, 252.000000)">
                    <path d="M308.458194,216.923077 C307.037046,173.423706 301.72711,126.649335 298.818543,118.986135 C294.249434,106.947906 289.553318,104.505145 287.875938,104.505145 C286.198559,104.505145 290.66092,91.5306014 280.184844,82.4584841 C269.708767,73.3863669 216.985487,50.8871697 209.154725,43.5963464 C201.323964,36.3055231 170.970835,0.802941128 160.507304,0.802941128 C150.043773,0.802941128 50.1645154,29.7469798 50.1645154,36.6716631 C50.1645154,43.5963464 52.1660178,56.2036509 82.6924425,59.3683325 C113.218867,62.5330141 130.134273,46.2540917 142.550815,50.5168933 C154.967357,54.7796949 182.151044,104.867969 160.507304,140.588855 C138.863565,176.30974 74.0834309,112.263497 74.0834309,99.3796414 C74.0834309,86.4957857 65.6253141,61.2464455 54.4196144,54.7796949 C43.2139147,48.3129443 27.7096774,49.9679676 27.7096774,54.2307692 C27.7096774,69.943072 28.6025346,112.981605 31.8813169,118.986135 C35.1600991,124.990664 58.6947222,164.912248 67.9478014,183.218575 C71.2932161,189.837156 76.8860116,202.960927 84.483871,216.923077 L308.458194,216.923077 Z" id="Sh" fill="url(#linearGradient-8)"></path>
                    <g id="Finger">
                        <use fill="#FFC62C" xlink:href="#path-10"></use>
                        <use fill="url(#linearGradient-9)" xlink:href="#path-10"></use>
                    </g>
                    <g id="Finger">
                        <use fill="#FFC62C" xlink:href="#path-11"></use>
                        <use fill="url(#linearGradient-9)" xlink:href="#path-11"></use>
                    </g>
                    <mask id="mask-14" fill="white">
                        <use xlink:href="#path-13"></use>
                    </mask>
                    <g>
                        <use fill="#FFC62C" xlink:href="#path-13"></use>
                        <use fill="url(#linearGradient-12)" xlink:href="#path-13"></use>
                    </g>
                    <g id="Group-14" mask="url(#mask-14)">
                        <g transform="translate(84.439721, 33.017099)">
                            <path d="M87.0081852,0.762311144 C86.6293215,0.360464477 86.6479529,-0.272426321 87.0497996,-0.651290018 C87.4516462,-1.03015371 88.084537,-1.01152234 88.4634007,-0.609675668 C89.182201,0.152729093 94.9431213,6.21425317 96.800894,8.19261166 C100.352347,11.974585 103.372445,15.2826336 106.260468,18.586011 C115.964516,29.6856904 123.151069,39.6118716 127.787187,49.0641648 C132.184479,58.0295333 134.068176,66.2287968 133.070399,73.6267526 C132.99658,74.1740817 132.49304,74.5579372 131.945711,74.4841179 C131.398381,74.4102986 131.014526,73.9067583 131.088345,73.3594292 C132.026051,66.4068604 130.228841,58.5840472 125.991543,49.9448836 C121.446949,40.6791916 114.353522,30.8816373 104.754766,19.9023922 C101.884269,16.6190625 98.8794204,13.3277173 95.3429458,9.56169427 C93.4902727,7.58876631 87.7312216,1.52920903 87.0081852,0.762311144 Z" id="Line" stroke="none" fill="#FFFFFF" fill-rule="nonzero"></path>
                            <path d="M173.591747,57.6972737 C173.481253,57.1561547 173.830345,56.6279187 174.371463,56.5174254 C174.912582,56.4069322 175.440818,56.7560233 175.551312,57.2971422 C176.939109,64.093605 176.813791,72.2532904 175.563864,82.2904806 C175.495616,82.8385322 174.996006,83.2274894 174.447954,83.1592408 C173.899903,83.0909922 173.510945,82.5913821 173.579194,82.0433305 C174.804557,72.2033892 174.926921,64.2360278 173.591747,57.6972737 Z" id="Line" stroke="none" fill="#FFFFFF" fill-rule="nonzero"></path>
                            <mask id="mask-17" fill="white">
                                <use xlink:href="#path-16"></use>
                            </mask>
                            <use id="Sh" stroke="none" fill="url(#linearGradient-15)" fill-rule="evenodd" xlink:href="#path-16"></use>
                        </g>
                    </g>
                    <mask id="mask-19" fill="white">
                        <use xlink:href="#path-18"></use>
                    </mask>
                    <use id="Detail" fill="#F2F5F9" xlink:href="#path-18"></use>
                    <path d="M115.926495,142.797335 C116.570059,138.981957 118.90786,134.297548 122.939901,128.744109 C126.971941,123.190671 130.7016,119.5182 134.128877,117.726698 L141.436128,123.039373 C138.00885,124.830875 134.279191,128.503345 130.247151,134.056784 C126.215111,139.610223 123.877309,144.294631 123.233746,148.110009 L115.926495,142.797335 Z" id="Detail" fill="#D6DFEA" mask="url(#mask-19)"></path>
                    <path d="M177.601011,177.341274 C172.77282,177.341274 168.859076,173.424842 168.859076,168.594022 C168.859076,163.763201 172.77282,159.846769 177.601011,159.846769 C182.429203,159.846769 186.342947,163.763201 186.342947,168.594022 C186.342947,173.424842 182.429203,177.341274 177.601011,177.341274 Z M177.601011,175.341274 C181.324326,175.341274 184.342947,172.32058 184.342947,168.594022 C184.342947,164.867463 181.324326,161.846769 177.601011,161.846769 C173.877697,161.846769 170.859076,164.867463 170.859076,168.594022 C170.859076,172.32058 173.877697,175.341274 177.601011,175.341274 Z" id="Detail" fill="#D6DFEA" fill-rule="nonzero" mask="url(#mask-19)"></path>
                </g>
            </g>
        </g>
    </g>
</svg>