<?xml version="1.0" encoding="UTF-8"?>
<svg width="381px" height="693px" viewBox="0 0 381 693" version="1.1" xmlns="http://www.w3.org/2000/svg" xmlns:xlink="http://www.w3.org/1999/xlink">
    <!-- Generator: Sketch 51 (57462) - http://www.bohemiancoding.com/sketch -->
    <title>Hand OK</title>
    <desc>Created with Sketch.</desc>
    <defs>
        <linearGradient x1="53.5251615%" y1="0%" x2="50%" y2="100%" id="linearGradient-1">
            <stop stop-color="#C74D75" stop-opacity="0" offset="0%"></stop>
            <stop stop-color="#AF3B6E" stop-opacity="0.2" offset="100%"></stop>
        </linearGradient>
        <path d="M217.60596,364.424534 C251.769096,383.818015 279.346984,314.610295 301.765637,295.807632 C324.18429,277.004969 364.752268,252.447974 380.09628,273.838921 C395.440291,295.229867 304.737722,365.388678 304.737722,402.454612 C304.737722,439.520546 289.693067,508.580198 217.60596,542.478103 C145.518853,576.376009 167.594579,619.801836 167.594579,661.474475 C167.594579,703.147115 0.985967013,708.607984 0.985967013,649.090543 C0.985967013,589.573102 57.9304163,556.67705 57.9304163,525.981485 C57.9304163,495.28592 41.6210205,376.004661 64.2171706,329.906229 C69.6276861,318.86823 33.6187036,297.163618 28.7965426,249.92716 C23.9743815,202.690701 33.9726235,100.68841 42.8643991,95.4108116 C50.0793703,91.128459 68.6024663,99.9377593 71.388975,146.845853 C71.7791504,145.764004 72.1675201,144.711676 72.5540842,143.688867 C81.6275038,119.68155 128.49936,8.46111074 146.792785,8.46111074 C157.091237,8.46111074 162.931741,20.0629626 162.051776,37.8107824 C170.962846,20.2867708 185.484545,0.991209544 194.605244,0.991209544 C204.662055,0.991209544 221.20295,29.8638176 186.094905,85.6008759 C150.986861,141.337934 159.072304,137.423095 155.029583,169.50021 C152.238711,191.644475 153.796997,210.260931 159.104838,223.513359 C177.709989,223.511325 226.121889,157.809224 255.122419,162.211767 C284.122949,166.614311 313.386804,189.344905 321.371901,202.425391 C329.356997,215.505876 334.8335,262.373586 321.371901,271.191321 C307.910301,280.009056 284.122949,262.403347 284.122949,230.406344 C284.122949,215.294424 246.505759,231.439666 241.011377,238.206811 C236.643154,243.586924 217.072196,266.001973 207.552542,291.47788 C207.160639,321.4159 193.350109,350.655149 217.60596,364.424534 Z" id="path-2"></path>
        <linearGradient x1="50%" y1="100%" x2="100%" y2="9.16570847%" id="linearGradient-4">
            <stop stop-color="#000000" stop-opacity="0.2" offset="0%"></stop>
            <stop stop-color="#FF6663" stop-opacity="0" offset="100%"></stop>
        </linearGradient>
    </defs>
    <g id="Handsome" stroke="none" stroke-width="1" fill="none" fill-rule="evenodd">
        <g id="Primary" transform="translate(-3180.000000, -6167.000000)">
            <g id="Hand-OK" transform="translate(3179.000000, 6166.000000)">
                <mask id="mask-3" fill="white">
                    <use xlink:href="#path-2"></use>
                </mask>
                <g id="Hand">
                    <use fill="#FF6663" xlink:href="#path-2"></use>
                    <use fill="url(#linearGradient-1)" xlink:href="#path-2"></use>
                </g>
                <path d="M162.823253,27.3366121 C162.823253,43.8079012 158.28091,69.7185823 144.309763,93.5539736 C130.338615,117.389365 100.709145,162.299857 118.913672,212.361582 C131.050024,245.736065 135.865542,271.715157 133.360227,290.298856" id="Line" stroke="#FFFFFF" stroke-width="2" stroke-linecap="round" stroke-linejoin="round" mask="url(#mask-3)"></path>
                <path d="M159.415072,221.477559 C167.275083,237.533369 171.205089,255.374183 171.205089,275" id="Line" stroke="#FFFFFF" stroke-width="2" stroke-linecap="round" stroke-linejoin="round" mask="url(#mask-3)"></path>
                <path d="M246.636933,347 C214.284403,307.581091 60.7541874,231.197907 84.5787094,253.410648 C108.403231,275.623388 135.586225,323.626694 128.834371,391.685242 C122.082517,459.743789 189.774606,474.897913 162.765999,542.440038 C162.579231,542.9071 162.814747,542.9071 163.472545,542.440038 C169.441275,536.675151 175.199253,527.846352 180.746478,515.95364 C192.793418,490.126173 170.748858,455.833292 207.405603,406.548643 C244.062348,357.263995 258.63962,361.62429 246.636933,347 Z" id="Sh" fill="url(#linearGradient-4)" mask="url(#mask-3)"></path>
                <path d="M71.8246369,136.309581 C74.567637,161.176483 60.7541874,231.197907 84.5787094,253.410648 C108.403231,275.623388 135.586225,323.626694 128.834371,391.685242 C122.082517,459.743789 189.774606,474.897913 162.765999,542.440038" id="Line" stroke="#FFFFFF" stroke-width="2" stroke-linecap="round" stroke-linejoin="round" mask="url(#mask-3)"></path>
            </g>
        </g>
    </g>
</svg>