<?xml version="1.0" encoding="UTF-8"?>
<svg width="766px" height="551px" viewBox="0 0 766 551" version="1.1" xmlns="http://www.w3.org/2000/svg" xmlns:xlink="http://www.w3.org/1999/xlink">
    <!-- Generator: Sketch 51 (57462) - http://www.bohemiancoding.com/sketch -->
    <title>Hands</title>
    <desc>Created with Sketch.</desc>
    <defs>
        <linearGradient x1="50%" y1="0%" x2="50%" y2="100%" id="linearGradient-1">
            <stop stop-color="#FFC62C" stop-opacity="0" offset="0%"></stop>
            <stop stop-color="#FF6663" stop-opacity="0.3" offset="100%"></stop>
        </linearGradient>
        <path d="M220.152091,207 C228.353978,231.941889 275.618573,278.626254 292.152091,306 C308.889817,334.205664 339.221526,390.081189 363.152091,482 C388.351124,573.999536 239.494893,573.999536 239.152091,482 C239.494893,390.081189 220.338176,362.625074 207.152091,367 C154.944813,386.409352 129.103872,355.876458 91.1520909,356 C53.3242239,355.876458 11.3007326,412.177814 11.1520909,371 C11.3007326,330.628423 60.3736716,314.586756 91.1520909,315 C122.054424,314.586756 137.252834,282.355219 116.152091,236 C108.164938,218.197253 94.9536123,184.317358 79.1520909,186 C62.0983117,187.254401 50.1038158,192.783249 48.1520909,199 C41.0478717,225.993272 19.3539899,236.725018 4.15209087,231 C-9.64239327,225.001414 16.2097568,188.532919 19.1520909,174 C22.4982231,158.359431 77.8460886,143 89.1520909,143 C92.8197689,143 99.0589638,146.520077 106.520725,151.943754 C99.5586457,128.453353 88.9950204,103.826975 68.1520909,91 C25.0483613,63.4310288 22.1626377,17.9815031 29.1520909,13 C35.6159946,8.6440508 97.5250408,63.6641148 110.529502,74.4850918 C96.0073835,32.486483 99.4572607,0 112.152091,0 C122.1781,2.48333832e-15 148.983446,60.7421673 172.304618,115.464152 C166.875319,65.7711351 180.109423,42.9133099 190.152091,59 C205.141291,82.0529619 215.57831,191.189291 220.152091,207 Z" id="path-2"></path>
        <path d="M146,207 C150.573781,191.189291 161.0108,82.0529619 176,59 C186.042668,42.9133099 199.276772,65.7711351 193.847473,115.464152 C217.168645,60.7421673 243.973991,2.48333832e-15 254,0 C266.69483,0 270.144707,32.486483 255.622589,74.4850918 C268.62705,63.6641148 330.536096,8.6440508 337,13 C343.989453,17.9815031 341.10373,63.4310288 298,91 C277.15707,103.826975 266.593445,128.453353 259.631366,151.943754 C267.093127,146.520077 273.332322,143 277,143 C288.306002,143 343.653868,158.359431 347,174 C349.942334,188.532919 375.794484,225.001414 362,231 C346.798101,236.725018 325.104219,225.993272 318,199 C316.048275,192.783249 304.053779,187.254401 287,186 C271.198479,184.317358 257.987153,218.197253 250,236 C228.899256,282.355219 244.097667,314.586756 275,315 C305.778419,314.586756 354.851358,330.628423 355,371 C354.851358,412.177814 312.827867,355.876458 275,356 C237.048219,355.876458 211.207278,386.409352 159,367 C145.813915,362.625074 126.657198,390.081189 127,482 C126.657198,573.999536 -22.199033,573.999536 3,482 C26.9305652,390.081189 57.262274,334.205664 74,306 C90.5335175,278.626254 137.798113,231.941889 146,207 Z" id="path-3"></path>
    </defs>
    <g id="Handsome" stroke="none" stroke-width="1" fill="none" fill-rule="evenodd">
        <g id="Primary" transform="translate(-2133.000000, -6237.000000)">
            <g id="Hands" transform="translate(2133.000000, 6237.000000)">
                <g id="Hand-R" transform="translate(400.000000, 0.000000)">
                    <g>
                        <use fill="#FFC62C" xlink:href="#path-2"></use>
                        <use fill="url(#linearGradient-1)" xlink:href="#path-2"></use>
                    </g>
                    <path d="M169.405314,101.038532 C182.178175,131.904515 217.479942,202.774191 228.754964,217.73718 C229.253513,218.3988 229.121317,219.339302 228.459698,219.837851 C227.798078,220.3364 226.857575,220.204204 226.359027,219.542585 C214.886078,204.31693 179.498952,133.275889 166.633287,102.185644 C166.316521,101.42017 166.68027,100.542841 167.445745,100.226074 C168.211219,99.9093084 169.088548,100.273058 169.405314,101.038532 Z" id="Line" fill="#FFFFFF" fill-rule="nonzero"></path>
                    <path d="M109.61794,69.5899772 C118.00154,77.9591624 119.57906,79.5907872 121.676384,82.1749851 C122.769079,83.5213386 123.762111,84.8763461 125.337191,87.1432945 C125.161146,86.8899205 129.28059,92.8640691 131.000992,95.3227206 C137.793579,105.030107 158.013202,136.584726 191.69537,190.039773 C192.137004,190.740666 191.926833,191.666867 191.225941,192.108501 C190.525048,192.550136 189.598847,192.339965 189.157212,191.639073 C155.51113,138.241294 135.294553,106.691428 128.542989,97.0426686 C126.815428,94.5737863 122.692004,88.5938654 122.873494,88.8550758 C121.337358,86.6441778 120.383263,85.342302 119.347011,84.0654939 C117.346006,81.5999743 115.784966,79.985394 107.498446,71.7131221 C106.912155,71.12784 106.911338,70.1780928 107.49662,69.5918026 C108.081903,69.0055123 109.03165,69.0046951 109.61794,69.5899772 Z" id="Line" fill="#FFFFFF" fill-rule="nonzero"></path>
                    <path d="M85.0318086,136.936869 C103.296519,143.0068 124.368067,160.663447 148.347232,189.887946 C148.872718,190.52838 148.779534,191.473545 148.1391,191.999031 C147.498666,192.524517 146.553501,192.431334 146.028015,191.7909 C122.376214,162.965373 101.69518,145.635953 84.0856938,139.783774 C83.2995427,139.522512 82.8740364,138.673415 83.1352988,137.887264 C83.3965612,137.101113 84.2456575,136.675607 85.0318086,136.936869 Z" id="Line" fill="#FFFFFF" fill-rule="nonzero"></path>
                </g>
                <g id="Hand-L">
                    <g>
                        <use fill="#FFC62C" xlink:href="#path-3"></use>
                        <use fill="url(#linearGradient-1)" xlink:href="#path-3"></use>
                    </g>
                    <path d="M197.170675,101.038532 C197.487441,100.273058 198.36477,99.9093084 199.130244,100.226074 C199.895718,100.542841 200.259468,101.42017 199.942702,102.185644 C187.077037,133.275889 151.68991,204.31693 140.216962,219.542585 C139.718413,220.204204 138.777911,220.3364 138.116291,219.837851 C137.454671,219.339302 137.322476,218.3988 137.821025,217.73718 C149.096047,202.774191 184.397813,131.904515 197.170675,101.038532 Z" id="Line" fill="#FFFFFF" fill-rule="nonzero"></path>
                    <path d="M257.366739,69.5899772 C257.95303,69.0046951 258.902777,69.0055123 259.488059,69.5918026 C260.073341,70.1780928 260.072524,71.12784 259.486234,71.7131221 C251.199713,79.985394 249.638673,81.5999743 247.637668,84.0654939 C246.601416,85.342302 245.647322,86.6441778 244.111186,88.8550758 C244.292675,88.5938654 240.169251,94.5737863 238.441691,97.0426686 C231.690127,106.691428 211.473549,138.241294 177.827467,191.639073 C177.385833,192.339965 176.459631,192.550136 175.758739,192.108501 C175.057846,191.666867 174.847676,190.740666 175.28931,190.039773 C208.971477,136.584726 229.1911,105.030107 235.983688,95.3227206 C237.704089,92.8640691 241.823533,86.8899205 241.647488,87.1432945 C243.222568,84.8763461 244.215601,83.5213386 245.308295,82.1749851 C247.405619,79.5907872 248.983139,77.9591624 257.366739,69.5899772 Z" id="Line" fill="#FFFFFF" fill-rule="nonzero"></path>
                    <path d="M281.714203,136.936869 C282.500354,136.675607 283.349451,137.101113 283.610713,137.887264 C283.871975,138.673415 283.446469,139.522512 282.660318,139.783774 C265.050832,145.635953 244.369798,162.965373 220.717997,191.7909 C220.19251,192.431334 219.247345,192.524517 218.606911,191.999031 C217.966477,191.473545 217.873294,190.52838 218.39878,189.887946 C242.377945,160.663447 263.449493,143.0068 281.714203,136.936869 Z" id="Line" fill="#FFFFFF" fill-rule="nonzero"></path>
                </g>
            </g>
        </g>
    </g>
</svg>