<?xml version="1.0" encoding="UTF-8"?>
<svg width="389px" height="784px" viewBox="0 0 389 784" version="1.1" xmlns="http://www.w3.org/2000/svg" xmlns:xlink="http://www.w3.org/1999/xlink">
    <!-- Generator: Sketch 51 (57462) - http://www.bohemiancoding.com/sketch -->
    <title>iPhone</title>
    <desc>Created with Sketch.</desc>
    <defs>
        <linearGradient x1="50%" y1="0%" x2="50%" y2="100%" id="linearGradient-1">
            <stop stop-color="#393E41" stop-opacity="0" offset="0%"></stop>
            <stop stop-color="#000000" stop-opacity="0.3" offset="100%"></stop>
        </linearGradient>
        <path d="M59.4541485,0 L329.545852,0 C362.381471,-6.03876798e-15 389,26.6492548 389,59.5227766 L389,724.477223 C389,757.350745 362.381471,784 329.545852,784 L59.4541485,784 C26.618529,784 4.02120363e-15,757.350745 0,724.477223 L0,59.5227766 C-4.02120363e-15,26.6492548 26.618529,6.03876798e-15 59.4541485,0 Z" id="path-2"></path>
        <path d="M93.5572139,24 C96.9502488,24 98.6467662,25.6997691 98.6467662,29.0993072 C98.6467662,44.6016647 108.777128,51.1963048 124.094527,51.1963048 C149.15077,51.1963048 246.694295,51.1963048 264.905473,51.1963048 C281.29057,51.1963048 290.353234,44.6016647 290.353234,29.0993072 C290.353234,25.6997691 292.049751,24 295.442786,24 L331.069652,24 C349.808866,24 365,39.2202505 365,57.9953811 L365,726.004619 C365,744.779749 349.808866,760 331.069652,760 L57.9303483,760 C39.1911344,760 24,744.779749 24,726.004619 L24,57.9953811 C24,39.2202505 39.1911344,24 57.9303483,24 L93.5572139,24 Z" id="path-3"></path>
        <circle id="path-5" cx="25" cy="25" r="25"></circle>
        <linearGradient x1="50%" y1="0%" x2="50%" y2="100%" id="linearGradient-7">
            <stop stop-color="#403F9F" stop-opacity="0" offset="0%"></stop>
            <stop stop-color="#000000" stop-opacity="0.2" offset="100%"></stop>
        </linearGradient>
        <path d="M12.9451348,11.4328143 C17.0695367,-0.144724485 34.1864874,-3.4914461 43.1915451,5.38353227 C52.2765399,14.4083239 56.521553,8.68084656 61.3393913,12.6930814 C66.1900067,16.8275715 61.3557799,24.3841375 56.5503763,28.5724468 C51.7901949,32.8231441 62.782463,40.6160484 59.8270708,50.7531477 C56.9083857,60.8690107 43.3020557,57.001829 38.906637,63.1037652 C34.4315449,69.2781761 26.3443972,57.6718812 12.441028,56.2983229 C-1.30373549,54.8127467 -3.53438415,38.4998779 6.64379936,30.8409276 C16.9978146,23.1373598 8.97926975,23.1373598 12.9451348,11.4328143 Z" id="path-8"></path>
        <linearGradient x1="0%" y1="0%" x2="100%" y2="100%" id="linearGradient-10">
            <stop stop-color="#000000" stop-opacity="0.3" offset="0%"></stop>
            <stop stop-color="#1F1845" stop-opacity="0" offset="100%"></stop>
        </linearGradient>
        <path d="M50.5208052,58.2823066 C46.988376,59.1984825 43.2527464,59.6808236 40.6993066,61.3969428 C39.9997392,61.8614982 39.3920031,62.4187143 38.906637,63.1037652 C37.8090757,64.6056333 36.3733106,65.0295415 34.646002,64.8064605 C30.4817256,64.0529063 24.6007215,58.9925891 16.4238909,56.9854601 C8.05388891,47.5868518 14.7487226,26.8783695 19.4985237,35.3778891 C23.1868972,41.9037502 32.3416274,39.3821093 46.9723464,27.8162866 C53.6746599,38.6667305 55.6167446,47.3459466 52.769575,53.7777887 C51.9620212,55.6278671 51.252164,57.0760226 50.5208052,58.2823066 Z" id="path-11"></path>
        <linearGradient x1="50%" y1="0%" x2="50%" y2="100%" id="linearGradient-13">
            <stop stop-color="#FFC62C" stop-opacity="0" offset="0%"></stop>
            <stop stop-color="#FF6663" stop-opacity="0.1" offset="100%"></stop>
        </linearGradient>
        <path d="M4.28490812,0 C6.65139753,0 8.56981625,2.18002126 8.56981625,4.86921378 L8.56981625,7.73345717 C8.56981625,10.4226497 6.65139753,12.602671 4.28490812,12.602671 C1.91841871,12.602671 0,10.4226497 0,7.73345717 L0,4.86921378 C0,2.18002126 1.91841871,0 4.28490812,0 Z" id="path-14"></path>
        <linearGradient x1="100%" y1="0%" x2="0%" y2="104.573707%" id="linearGradient-15">
            <stop stop-color="#000000" stop-opacity="0.35" offset="0%"></stop>
            <stop stop-color="#FFC62C" stop-opacity="0" offset="100%"></stop>
        </linearGradient>
        <path d="M1.09862414,12.9451348 C-1.22770845,9.01958523 2.29297741,6.63980334 3.36710491,8.40817329 C3.90322961,9.1698793 4.07717481,9.89436653 4.12326517,10.6766541 C6.18490755,14.1775901 13.9918933,6.71154492 16.4738827,3.87121175 C19.1826583,0.875844297 19.5713103,-2.27910555 21.5149511,3.87121175 C22.884751,7.94153017 27.8107838,6.33119209 31.5970878,3.11505149 C31.6377871,4.30637089 31.5970343,5.579262 31.5970878,6.89585278 C31.5970343,8.08461733 33.1094084,9.65672046 33.1094084,15.2136156 C33.1094084,20.7190078 27.2991905,28.3203934 20.7587908,28.3203934 C15.7756306,28.3203934 8.14509089,24.9696317 4.62737201,19.2464703 C1.69651837,19.2430746 3.52764892,16.8591766 1.09862414,12.9451348 Z" id="path-16"></path>
        <linearGradient x1="100%" y1="0%" x2="0%" y2="100%" id="linearGradient-17">
            <stop stop-color="#000000" stop-opacity="0.2" offset="0%"></stop>
            <stop stop-color="#FFC62C" stop-opacity="0" offset="100%"></stop>
        </linearGradient>
        <circle id="path-18" cx="25" cy="25" r="25"></circle>
        <path d="M13.7647059,31 L26,31 L25.2352941,46.6 C25.1612896,50.1835893 22.3264095,53 18.9264706,53 C15.6336183,53 13,50.2619083 13,46.8 C13,46.7916986 13.002023,46.6991082 13,46.6 L13.7647059,31 Z" id="path-20"></path>
        <linearGradient x1="0%" y1="84.0596594%" x2="100%" y2="0%" id="linearGradient-21">
            <stop stop-color="#000000" stop-opacity="0.1" offset="0%"></stop>
            <stop stop-color="#FF6663" stop-opacity="0" offset="100%"></stop>
        </linearGradient>
        <path d="M14.7009194,8.90540564 C21.4944467,8.90540564 27.0016887,14.2359662 27.0016887,20.8115458 L27.0016887,30.8785261 C27.0016887,37.4541057 18.9454465,42.7846662 14.7009194,42.7846662 C10.4563923,42.7846662 2.4001501,37.4541057 2.4001501,30.8785261 C2.80017512,27.841449 3.00018763,26.2079251 3.00018763,25.9779544 C3.00018763,25.7479837 2.80017512,24.0258475 2.4001501,20.8115458 C2.4001501,14.2359662 7.9073921,8.90540564 14.7009194,8.90540564 Z" id="path-22"></path>
        <linearGradient x1="50%" y1="0%" x2="50%" y2="100%" id="linearGradient-23">
            <stop stop-color="#1F1845" stop-opacity="0" offset="0%"></stop>
            <stop stop-color="#000000" stop-opacity="0.2" offset="100%"></stop>
        </linearGradient>
        <path d="M25.5697221,37.2377085 L25.5697221,31.1689197 L27.0016887,27.8523593 C24.9738008,26.7621632 23.601476,24.667959 23.601476,22.2635141 C23.601476,21.7271008 23.6697769,21.2061283 23.7984202,20.7082996 C23.6999908,20.7125831 23.6009914,20.7147479 23.5014698,20.7147479 C20.153909,20.7147479 17.3973589,18.2655102 17.0402168,15.1174158 C16.0345763,15.6021995 14.9006128,15.8748535 13.7008568,15.8748535 C11.9175595,15.8748535 10.2796198,15.2724693 8.99238279,14.2664579 C8.42634445,14.5519152 7.7828631,14.7132789 7.10044406,14.7132789 C6.18583574,14.7132789 5.34116945,14.4234286 4.65914372,13.9334526 C3.65160383,15.309056 2.93819084,16.9007024 2.60760436,18.6225377 C1.01211354,17.3086584 0,15.3509895 0,13.1645127 C0,9.44105032 2.935171,6.38114041 6.68814441,6.03422284 C7.76324619,3.2988524 10.4975424,1.35517042 13.7008568,1.35517042 C15.0387437,1.35517042 16.2948162,1.69422128 17.3823641,2.28839448 C18.9985185,0.866577824 21.1454398,0 23.5014698,0 C28.3345595,0 32.287695,3.6466633 32.5841891,8.25238356 C36.1218632,8.88151384 38.8024267,11.8815912 38.8024267,15.487662 C38.8024267,17.5096408 37.9596533,19.3410944 36.5955626,20.6708794 C36.7305311,21.1800008 36.8023016,21.7136449 36.8023016,22.2635141 C36.8023016,24.3843889 35.7345817,26.2638849 34.0910414,27.4258836 C34.1640483,27.8239889 34.202139,28.2337762 34.202139,28.6521747 C34.202139,32.5012945 30.7009631,37.2377085 25.5697221,37.2377085 Z" id="path-24"></path>
        <path d="M1.80011258,8.71180987 C-0.67708794,8.67052207 -0.52019293,-0.0404950508 1.80011258,-9.87877857e-14 C4.31612553,0.0413170539 6.24130876,2.02450557 6.20038777,4.25910705 C6.15465804,6.83546748 4.15923052,8.75233418 1.80011258,8.71180987 Z" id="path-25"></path>
        <linearGradient x1="100%" y1="0%" x2="0%" y2="100%" id="linearGradient-26">
            <stop stop-color="#000000" stop-opacity="0.2" offset="0%"></stop>
            <stop stop-color="#FF6663" stop-opacity="0" offset="100%"></stop>
        </linearGradient>
        <linearGradient x1="64.0162101%" y1="22.9658099%" x2="0%" y2="100%" id="linearGradient-27">
            <stop stop-color="#000000" stop-opacity="0.1" offset="0%"></stop>
            <stop stop-color="#FF6663" stop-opacity="0" offset="100%"></stop>
        </linearGradient>
        <circle id="path-28" cx="25" cy="25" r="25"></circle>
        <path d="M59.4285714,51.2380952 C54.9090755,68.8490744 26.1249573,71.4142603 12.7619048,59.6190476 C-0.780977165,47.9640425 -2.75945457,32.1631407 3.23809524,19.2380952 C9.07783729,6.35829248 21.0221055,0 34.2857143,0 C47.7002367,0 56.5259346,13.7152347 46.8571429,20.7619048 C37.0553535,27.7754354 64.0408438,33.747614 59.4285714,51.2380952 Z" id="path-30"></path>
        <linearGradient x1="16.126432%" y1="-8.50739097%" x2="64.0182%" y2="108.976227%" id="linearGradient-31">
            <stop stop-color="#000000" stop-opacity="0.64600317" offset="0%"></stop>
            <stop stop-color="#1F1845" stop-opacity="0" offset="100%"></stop>
        </linearGradient>
        <linearGradient x1="50%" y1="0%" x2="50%" y2="100%" id="linearGradient-32">
            <stop stop-color="#403F9F" stop-opacity="0" offset="0%"></stop>
            <stop stop-color="#000000" stop-opacity="0.1" offset="100%"></stop>
        </linearGradient>
        <path d="M8,32 C8.853577,34.7276055 9.17835549,34.8748906 9.14285714,35.2380952 C9.17835549,35.5776637 8.72220521,36.4418671 7.80952381,36.952381 C6.99632573,37.6362507 5.71200038,37.8705212 5.52380952,37.5238095 C5.17232593,37.1072971 7.70475789e-17,27.4335338 0,24.1904762 C0,21.6791986 0.314178293,14.8267062 1.71428571,9.9047619 C3.08408105,4.90335979 5.79814659,2.12779042 10.0952381,0.761904762 C10.2486615,0.6317929 12.81281,1.92813129e-16 13.9047619,0 C21.0372784,-1.31923624e-15 26.8571429,5.82182704 26.8571429,12.952381 C26.8571429,13.8487156 26.7747466,14.6920025 26.6666667,15.4285714 L24,28.952381 C22.0182962,30.6248628 19.1600923,31.4508446 15.4285714,31.4285714 C11.6068889,31.4508446 8.80060225,30.7314445 7.04761905,29.3333333 C7.28867881,30.13054 7.6205002,31.0609845 8,32 Z" id="path-33"></path>
        <linearGradient x1="13.0643888%" y1="0%" x2="100%" y2="100%" id="linearGradient-34">
            <stop stop-color="#000000" stop-opacity="0.155089447" offset="0%"></stop>
            <stop stop-color="#000000" stop-opacity="0" offset="100%"></stop>
        </linearGradient>
        <path d="M6.66666755,0.0791539898 L6.66666667,2.19047619 C6.66666667,4.03142536 5.1742825,5.52380952 3.33333333,5.52380952 C1.49238417,5.52380952 2.53765263e-16,4.03142536 0,2.19047619 L0,0.259798217 C0.954157813,0.463186551 1.97045889,0.571428571 3.04761905,0.571428571 C4.37806371,0.571428571 5.58217484,0.391109114 6.66666755,0.0791539898 Z" id="path-35"></path>
        <linearGradient x1="0%" y1="0%" x2="100%" y2="100%" id="linearGradient-37">
            <stop stop-color="#000000" stop-opacity="0.2" offset="0%"></stop>
            <stop stop-color="#FF6663" stop-opacity="0" offset="100%"></stop>
        </linearGradient>
        <path d="M6.62413367,2.72440492 C5.94622129,3.05351346 5.18514253,3.23809524 4.38095238,3.23809524 C2.5288854,3.23809524 0.905477172,2.2590907 0,0.790353916 L9.74458609e-14,0.259798217 C0.954157813,0.463186551 1.97045889,0.571428571 3.04761905,0.571428571 C4.37806371,0.571428571 5.58217484,0.391109114 6.66666755,0.0791539898 L6.66666667,2.19047619 C6.66666667,2.37221631 6.65212217,2.55055938 6.62413367,2.72440492 Z" id="path-38"></path>
        <linearGradient x1="50%" y1="-277.697167%" x2="50%" y2="77.0167791%" id="linearGradient-40">
            <stop stop-color="#000000" offset="0%"></stop>
            <stop stop-color="#000000" stop-opacity="0" offset="100%"></stop>
        </linearGradient>
        <rect id="path-41" x="0" y="0" width="301" height="235" rx="10"></rect>
        <linearGradient x1="50%" y1="0%" x2="50%" y2="100%" id="linearGradient-43">
            <stop stop-color="#52C883" stop-opacity="0" offset="0%"></stop>
            <stop stop-color="#000000" stop-opacity="0.05" offset="100%"></stop>
        </linearGradient>
        <path d="M301,184 L301,233 C301,234.245033 300.248537,235 299.006623,235 L1.99337748,235 C0.751462585,235 1.13521828e-16,234.245033 0,233 L0,162 C0.164417735,162.000831 0.329357793,162 0.996688742,162 C60.0146098,162 89.8063478,205.575944 152.493377,206 C207.957685,205.575944 251.864796,188.68999 301,184 Z" id="path-44"></path>
        <path d="M27.959517,104.079636 C32.8020738,99.0929003 39.5439958,96 47,96 C54.4560042,96 61.1979262,99.0929003 66.040483,104.079636 C67.5398893,103.701004 69.10881,103.5 70.7241379,103.5 C81.3699026,103.5 90,112.230447 90,123 C90,133.769553 81.3699026,142.5 70.7241379,142.5 C69.10881,142.5 67.5398893,142.298996 66.040483,141.920364 C61.1979262,146.9071 54.4560042,150 47,150 C39.5439958,150 32.8020738,146.9071 27.959517,141.920364 C26.4601107,142.298996 24.89119,142.5 23.2758621,142.5 C12.6300974,142.5 4,133.769553 4,123 C4,112.230447 12.6300974,103.5 23.2758621,103.5 C24.89119,103.5 26.4601107,103.701004 27.959517,104.079636 Z" id="path-45"></path>
        <linearGradient x1="50%" y1="0%" x2="50%" y2="100%" id="linearGradient-46">
            <stop stop-color="#00A07D" stop-opacity="0" offset="0%"></stop>
            <stop stop-color="#000000" stop-opacity="0.1" offset="100%"></stop>
        </linearGradient>
        <path d="M301,206 L301,233 C301,234.242497 300.245364,235 299,235 L246,235 C268.931761,227.240985 283.53982,213.709063 301,206 Z M168,235 L2,235 C0.752315646,235 8.5378779e-14,234.255825 8.52651283e-14,233 L8.52651283e-14,195 C3.48835387,194.231716 7.19230595,194 12,194 C74.0163519,194 120.673498,222.463935 168,235 Z" id="path-47"></path>
    </defs>
    <g id="Handsome" stroke="none" stroke-width="1" fill="none" fill-rule="evenodd">
        <g id="Primary" transform="translate(-3176.000000, -2647.000000)">
            <g id="iPhone" transform="translate(3176.000000, 2647.000000)">
                <g>
                    <use fill="#393E41" xlink:href="#path-2"></use>
                    <use fill="url(#linearGradient-1)" xlink:href="#path-2"></use>
                </g>
                <mask id="mask-4" fill="white">
                    <use xlink:href="#path-3"></use>
                </mask>
                <use id="Screen" fill="#FFFFFF" xlink:href="#path-3"></use>
                <g id="Pagination" mask="url(#mask-4)" fill="#757DC0">
                    <g transform="translate(153.000000, 454.000000)">
                        <circle cx="72.5" cy="10.5" r="10.5"></circle>
                        <circle cx="41.5" cy="10.5" r="10.5"></circle>
                        <circle cx="10.5" cy="10.5" r="10.5"></circle>
                    </g>
                </g>
                <path d="M119,750 L340,750 C342.761424,750 345,752.238576 345,755 C345,757.761424 342.761424,760 340,760 L119,760 C116.238576,760 114,757.761424 114,755 C114,752.238576 116.238576,750 119,750 Z" id="Text" fill="#757DC0" mask="url(#mask-4)"></path>
                <path d="M121.5,725 L257.5,725 C261.642136,725 265,728.357864 265,732.5 C265,736.642136 261.642136,740 257.5,740 L121.5,740 C117.357864,740 114,736.642136 114,732.5 C114,728.357864 117.357864,725 121.5,725 Z" id="Text" fill="#757DC0" mask="url(#mask-4)"></path>
                <g id="Photo" mask="url(#mask-4)">
                    <g transform="translate(44.000000, 725.000000)">
                        <mask id="mask-6" fill="white">
                            <use xlink:href="#path-5"></use>
                        </mask>
                        <use id="Mask" stroke="none" fill="#F7F7F8" fill-rule="evenodd" xlink:href="#path-5"></use>
                        <g id="Girl" stroke="none" stroke-width="1" fill="none" fill-rule="evenodd" mask="url(#mask-6)">
                            <g transform="translate(-11.000000, -8.416000)">
                                <g id="Hair">
                                    <mask id="mask-9" fill="white">
                                        <use xlink:href="#path-8"></use>
                                    </mask>
                                    <g>
                                        <use fill="#464D89" xlink:href="#path-8"></use>
                                        <use fill="url(#linearGradient-7)" xlink:href="#path-8"></use>
                                    </g>
                                    <mask id="mask-12" fill="white">
                                        <use xlink:href="#path-11"></use>
                                    </mask>
                                    <use id="Sh" fill="url(#linearGradient-10)" xlink:href="#path-11"></use>
                                </g>
                                <g id="Neck" transform="translate(30.084767, 47.728507)">
                                    <g>
                                        <use fill="#FFC62C" xlink:href="#path-14"></use>
                                        <use fill="url(#linearGradient-13)" xlink:href="#path-14"></use>
                                    </g>
                                    <path d="M8.56981625,7.63195598 C7.99029959,7.75065001 7.4008971,7.81365599 6.80544231,7.81365599 C4.81561081,7.81365599 2.40365622,7.27937903 0,6.27311734 L3.43073857e-11,4.53696154 C3.43073857e-11,2.17047213 1.91841871,0.252053419 4.28490812,0.252053419 C6.65139753,0.252053419 8.56981625,2.17047213 8.56981625,4.53696154 L8.56981625,7.63195598 Z" id="Sh" fill="url(#linearGradient-15)"></path>
                                </g>
                                <g id="Face" transform="translate(15.375259, 24.701235)">
                                    <g>
                                        <use fill="#FFC62C" xlink:href="#path-16"></use>
                                        <use fill="url(#linearGradient-13)" xlink:href="#path-16"></use>
                                    </g>
                                    <path d="M21.5149511,8.91228013 C19.5702853,2.76308768 19.1821722,5.9293295 16.4738827,8.91228013 C13.9986042,11.7859169 7.55374174,16.4429832 4.12326517,10.6766541 C6.20244302,14.2195729 13.9986042,6.72680584 16.4738827,3.87121175 C19.1821722,0.870218483 19.5702853,-2.29602334 21.5149511,3.87121175 C22.8791318,7.96119336 27.7983345,6.34509167 31.5970878,3.11505149 C31.6200317,4.31302338 31.5793354,5.59047033 31.5970878,6.89585278 C31.5793354,8.10479265 22.8791318,13.0203044 21.5149511,8.91228013 Z" id="Sh" fill="url(#linearGradient-17)"></path>
                                </g>
                            </g>
                        </g>
                    </g>
                </g>
                <path d="M119,675 L340,675 C342.761424,675 345,677.238576 345,680 C345,682.761424 342.761424,685 340,685 L119,685 C116.238576,685 114,682.761424 114,680 C114,677.238576 116.238576,675 119,675 Z" id="Text" fill="#757DC0" mask="url(#mask-4)"></path>
                <path d="M119,655 L340,655 C342.761424,655 345,657.238576 345,660 C345,662.761424 342.761424,665 340,665 L119,665 C116.238576,665 114,662.761424 114,660 C114,657.238576 116.238576,655 119,655 Z" id="Text" fill="#757DC0" mask="url(#mask-4)"></path>
                <path d="M121.5,630 L257.5,630 C261.642136,630 265,633.357864 265,637.5 C265,641.642136 261.642136,645 257.5,645 L121.5,645 C117.357864,645 114,641.642136 114,637.5 C114,633.357864 117.357864,630 121.5,630 Z" id="Text" fill="#757DC0" mask="url(#mask-4)"></path>
                <g id="Photo" mask="url(#mask-4)">
                    <g transform="translate(44.000000, 630.000000)">
                        <mask id="mask-19" fill="white">
                            <use xlink:href="#path-18"></use>
                        </mask>
                        <use id="Mask" stroke="none" fill="#F7F7F8" fill-rule="evenodd" xlink:href="#path-18"></use>
                        <g id="Man" stroke="none" stroke-width="1" fill="none" fill-rule="evenodd" mask="url(#mask-19)">
                            <g transform="translate(23.500000, 29.500000) scale(-1, 1) translate(-23.500000, -29.500000) translate(4.000000, 3.000000)">
                                <g id="Nack" fill="none">
                                    <use fill="#FFC62C" xlink:href="#path-20"></use>
                                    <use fill="url(#linearGradient-13)" xlink:href="#path-20"></use>
                                </g>
                                <path d="M25.6119403,38.2428571 C23.0556243,41.6701933 18.5897716,44 15.7164179,44 C14.9892144,44 14.0224751,43.7973086 13,43.4428571 L13.5820896,31 L26,31 L25.6119403,38.2428571 Z" id="Sh" fill="url(#linearGradient-21)"></path>
                                <g id="Face" stroke-width="1" fill="none">
                                    <g id="Group-15" transform="translate(13.600851, 31.168920)"></g>
                                    <g id="Group-16">
                                        <g id="Rectangle-30">
                                            <use fill="#FFC62C" xlink:href="#path-22"></use>
                                            <use fill="url(#linearGradient-13)" xlink:href="#path-22"></use>
                                        </g>
                                        <g id="Combined-Shape">
                                            <use fill="#1F1845" xlink:href="#path-24"></use>
                                            <use fill="url(#linearGradient-23)" xlink:href="#path-24"></use>
                                        </g>
                                        <g id="Group-17" transform="translate(23.801489, 23.812280)">
                                            <g id="Oval-20">
                                                <use fill="#FFC62C" xlink:href="#path-25"></use>
                                                <use fill="url(#linearGradient-13)" xlink:href="#path-25"></use>
                                            </g>
                                            <ellipse id="Oval-21" fill="url(#linearGradient-26)" cx="2.4001501" cy="4.45270282" rx="1.60010007" ry="1.5487662"></ellipse>
                                        </g>
                                        <path d="M24.0727234,24.582888 C23.887154,24.5853981 23.5775568,24.5866634 23.5014698,24.5866634 C20.153909,24.5866634 17.3973589,22.1374257 17.0402168,18.9893313 C16.0345763,19.474115 14.9006128,19.746769 13.7008568,19.746769 C11.9175595,19.746769 10.2796198,19.1443848 8.99238279,18.1383734 C8.42634445,18.4238307 7.7828631,18.5851944 7.10044406,18.5851944 C6.18583574,18.5851944 5.34116945,18.2953441 4.65914372,17.8053681 C3.65185878,19.1806234 2.93855191,20.7718124 2.60785539,22.4931461 C2.54594697,21.9872723 2.47671187,21.4267389 2.4001501,20.8115458 C2.4001501,18.2492166 3.23639969,15.875938 4.65914423,13.9334518 C5.34116945,14.4234286 6.18583574,14.7132789 7.10044406,14.7132789 C7.7828631,14.7132789 8.42634445,14.5519152 8.99238279,14.2664579 C10.2796198,15.2724693 11.9175595,15.8748535 13.7008568,15.8748535 C14.9006128,15.8748535 16.0345763,15.6021995 17.0402168,15.1174158 C17.3973589,18.2655102 20.153909,20.7147479 23.5014698,20.7147479 C23.6009914,20.7147479 23.6999908,20.7125831 23.7984202,20.7082996 C23.6697769,21.2061283 23.7548041,21.7501448 23.7984202,22.2861344 C23.9953644,24.7063418 24.1298784,24.5821149 24.0727234,24.582888 Z" id="Combined-Shape" fill="url(#linearGradient-27)"></path>
                                    </g>
                                </g>
                            </g>
                        </g>
                    </g>
                </g>
                <path d="M119,580 L250,580 C252.761424,580 255,582.238576 255,585 C255,587.761424 252.761424,590 250,590 L119,590 C116.238576,590 114,587.761424 114,585 C114,582.238576 116.238576,580 119,580 Z" id="Text" fill="#757DC0" mask="url(#mask-4)"></path>
                <path d="M119,560 L340,560 C342.761424,560 345,562.238576 345,565 C345,567.761424 342.761424,570 340,570 L119,570 C116.238576,570 114,567.761424 114,565 C114,562.238576 116.238576,560 119,560 Z" id="Text" fill="#757DC0" mask="url(#mask-4)"></path>
                <path d="M119,540 L340,540 C342.761424,540 345,542.238576 345,545 C345,547.761424 342.761424,550 340,550 L119,550 C116.238576,550 114,547.761424 114,545 C114,542.238576 116.238576,540 119,540 Z" id="Text" fill="#757DC0" mask="url(#mask-4)"></path>
                <path d="M121.5,515 L257.5,515 C261.642136,515 265,518.357864 265,522.5 C265,526.642136 261.642136,530 257.5,530 L121.5,530 C117.357864,530 114,526.642136 114,522.5 C114,518.357864 117.357864,515 121.5,515 Z" id="Text" fill="#757DC0" mask="url(#mask-4)"></path>
                <g id="Photo" mask="url(#mask-4)">
                    <g transform="translate(44.000000, 515.000000)">
                        <mask id="mask-29" fill="white">
                            <use xlink:href="#path-28"></use>
                        </mask>
                        <use id="Mask" stroke="none" fill="#F7F7F8" fill-rule="evenodd" xlink:href="#path-28"></use>
                        <g id="Girl" stroke="none" stroke-width="1" fill="none" fill-rule="evenodd" mask="url(#mask-29)">
                            <g transform="translate(-10.000000, -2.000000)">
                                <g id="Hair" stroke-width="1" fill="none" fill-rule="evenodd">
                                    <g>
                                        <use fill="#1F1845" xlink:href="#path-30"></use>
                                        <use fill="url(#linearGradient-23)" xlink:href="#path-30"></use>
                                    </g>
                                    <path d="M47.3803647,28.5144274 C52.385621,33.565444 62.3810484,40.0418259 59.4285714,51.2380952 C56.8805223,61.1669989 46.6197257,66.3134499 35.7581084,66.8002754 C24.2498549,63.5785293 15.8095238,53.0130324 15.8095238,40.4761905 C15.8095238,35.5254424 17.1257328,30.8821113 19.4273117,26.8770364 C19.8608302,28.9840921 21.0456757,30.6666667 23.047619,30.6666667 C24.8320484,35.6746807 29.1166879,39.6190476 35.6190476,39.6190476 C42.1214073,39.6190476 45.6061301,35.3118882 46.8571429,32.3809524 C47.3972876,31.115474 47.4710001,29.9423261 47.3803647,28.5144274 Z" id="Sh" fill="url(#linearGradient-31)"></path>
                                </g>
                                <g id="Body" stroke-width="1" fill="none" fill-rule="evenodd" transform="translate(21.714286, 40.380952)">
                                    <g>
                                        <use fill="#403F9F" xlink:href="#path-33"></use>
                                        <use fill="url(#linearGradient-32)" xlink:href="#path-33"></use>
                                    </g>
                                    <path d="M7.02019813,29.3150766 L5.9047619,24.5258538 L7.02019813,19.047619 C11.4646426,27.2894162 13.6868648,31.4103147 13.6868648,31.4103147 C10.9287668,31.4103147 8.70654463,30.711902 7.02019813,29.3150766 Z" id="Sh" fill="url(#linearGradient-34)"></path>
                                </g>
                                <g id="Neck" stroke-width="1" fill="none" fill-rule="evenodd" transform="translate(32.571429, 38.857143)">
                                    <mask id="mask-36" fill="white">
                                        <use xlink:href="#path-35"></use>
                                    </mask>
                                    <use fill="#FF6663" xlink:href="#path-35"></use>
                                    <mask id="mask-39" fill="white">
                                        <use xlink:href="#path-38"></use>
                                    </mask>
                                    <use id="Sh" fill="url(#linearGradient-37)" xlink:href="#path-38"></use>
                                </g>
                                <g id="Face" stroke-width="1" fill="none" fill-rule="evenodd" transform="translate(19.238095, 20.761905)">
                                    <path d="M0,4.19047619 C-1.73216283e-13,1.24027467 2.73956169,0.580824674 3.80952381,0.952380952 C9.53857173,2.94185673 19.959633,3.55833031 27.6190476,0 C27.6190476,6.25245322 28.8700603,8.68811178 27.6190476,11.6190476 C26.3680349,14.5499835 22.8833121,18.8571429 16.3809524,18.8571429 C9.87859267,18.8571429 5.59395317,14.9127759 3.80952381,9.9047619 C1.22253248,9.9047619 1.73240721e-13,7.09505703 0,4.19047619 Z" fill="#FF6663"></path>
                                    <path d="M3.81071932,0.952796064 C9.54002138,2.94194247 19.9601657,3.55808281 27.6190476,0 C27.6190476,2.68277827 27.8493669,4.66286058 28.013532,6.28088172 C28.0090235,6.28249609 28.0045128,6.28410695 28,6.28571429 C20.4539621,8.97341607 10.408578,7.01118001 3.81071932,0.952796064 Z" id="Sh" fill="url(#linearGradient-37)"></path>
                                    <circle id="Sh" fill="url(#linearGradient-40)" cx="2.95238095" cy="5.23809524" r="1.80952381"></circle>
                                </g>
                                <path d="M27.2380952,78.2857143 C27.1328981,78.2857143 27.047619,78.2004352 27.047619,78.0952381 C27.047619,77.990041 27.1328981,77.9047619 27.2380952,77.9047619 C28.0595271,77.9047619 28.9287919,77.6477985 29.6113362,77.0899789 C30.5247513,76.3434766 31.047619,75.119885 31.047619,73.3333333 C31.047619,73.2281362 31.1328981,73.1428571 31.2380952,73.1428571 C31.3432923,73.1428571 31.4285714,73.2281362 31.4285714,73.3333333 C31.4285714,75.2292584 30.8588978,76.562383 29.8524076,77.3849522 C29.0952989,78.0037107 28.1413274,78.2857143 27.2380952,78.2857143 Z" id="Line" fill="#FFFFFF" fill-rule="nonzero"></path>
                            </g>
                        </g>
                    </g>
                </g>
                <g id="Image" mask="url(#mask-4)">
                    <g transform="translate(44.000000, 199.000000)">
                        <mask id="mask-42" fill="white">
                            <use xlink:href="#path-41"></use>
                        </mask>
                        <use id="Image" stroke="none" fill="#757DC0" fill-rule="evenodd" xlink:href="#path-41"></use>
                        <circle id="Sun" stroke="none" fill="#FFFDFD" fill-rule="evenodd" mask="url(#mask-42)" cx="150.5" cy="200.5" r="120.5"></circle>
                        <g id="Grass" stroke="none" fill="none" mask="url(#mask-42)" fill-rule="evenodd">
                            <use fill="#464D89" xlink:href="#path-44"></use>
                            <use fill="url(#linearGradient-43)" xlink:href="#path-44"></use>
                        </g>
                        <g id="Tree" stroke="none" stroke-width="1" fill="none" fill-rule="evenodd" mask="url(#mask-42)">
                            <g transform="translate(166.000000, 13.000000)" id="Detail">
                                <path d="M65.9071889,188.037512 C48.7806698,184.133307 36,168.809196 36,150.5 L36,142.5 L56,142.5 L56,150.5 C56,158.513721 61.0953315,165.337363 68.2229832,167.907915 L75,109 L134,109 L147,222 L62,222 L65.9071889,188.037512 Z" fill="#383D40"></path>
                                <path d="M178.995474,44.134012 C196.413429,49.812798 209,66.1865234 209,85.5 C209,109.524387 189.524387,129 165.5,129 C156.159464,129 147.506523,126.056052 140.418435,121.045411 C132.5822,132.490486 119.41807,140 104.5,140 C89.5819296,140 76.4178001,132.490486 68.5815653,121.045411 C61.4934769,126.056052 52.8405364,129 43.5,129 C19.4756134,129 0,109.524387 0,85.5 C0,66.1865233 12.5865715,49.812798 30.0045263,44.134012 C30.0015122,43.9230346 30,43.7116939 30,43.5 C30,19.4756134 49.4756134,0 73.5,0 C85.6351855,0 96.6097712,4.96911868 104.5,12.983599 C112.390229,4.96911868 123.364814,0 135.5,0 C159.524387,0 179,19.4756134 179,43.5 C179,43.7116939 178.998488,43.9230346 178.995474,44.134012 Z" fill="#464D89"></path>
                                <g fill="none">
                                    <use fill="#5B64B0" xlink:href="#path-45"></use>
                                    <use fill="url(#linearGradient-43)" xlink:href="#path-45"></use>
                                </g>
                            </g>
                        </g>
                        <g id="Grass" stroke="none" fill="none" mask="url(#mask-42)" fill-rule="evenodd">
                            <use fill="#5A64AF" xlink:href="#path-47"></use>
                            <use fill="url(#linearGradient-46)" xlink:href="#path-47"></use>
                        </g>
                    </g>
                </g>
                <path d="M51.5,164 L287.5,164 C291.642136,164 295,167.357864 295,171.5 C295,175.642136 291.642136,179 287.5,179 L51.5,179 C47.3578644,179 44,175.642136 44,171.5 C44,167.357864 47.3578644,164 51.5,164 Z" id="Text" fill="#757DC0" mask="url(#mask-4)"></path>
                <path d="M51.5,134 L337.5,134 C341.642136,134 345,137.357864 345,141.5 C345,145.642136 341.642136,149 337.5,149 L51.5,149 C47.3578644,149 44,145.642136 44,141.5 C44,137.357864 47.3578644,134 51.5,134 Z" id="Text" fill="#757DC0" mask="url(#mask-4)"></path>
                <path d="M59,84 L216,84 C224.284271,84 231,90.7157288 231,99 C231,107.284271 224.284271,114 216,114 L59,114 C50.7157288,114 44,107.284271 44,99 C44,90.7157288 50.7157288,84 59,84 Z" id="Text" fill="#757DC0" mask="url(#mask-4)"></path>
            </g>
        </g>
    </g>
</svg>