<?xml version="1.0" encoding="UTF-8"?>
<svg width="397px" height="696px" viewBox="0 0 397 696" version="1.1" xmlns="http://www.w3.org/2000/svg" xmlns:xlink="http://www.w3.org/1999/xlink">
    <!-- Generator: Sketch 51 (57462) - http://www.bohemiancoding.com/sketch -->
    <title>Man &amp; Phone</title>
    <desc>Created with Sketch.</desc>
    <defs>
        <linearGradient x1="50%" y1="0%" x2="50%" y2="100%" id="linearGradient-1">
            <stop stop-color="#A7A7EE" stop-opacity="0" offset="0%"></stop>
            <stop stop-color="#4C55A0" stop-opacity="0.2" offset="100%"></stop>
        </linearGradient>
        <path d="M221,348 C176.667967,348 82.1783051,356.611374 26,396 C-30.8344126,436.335246 61.7270989,690 221,690 C380.953146,690 391.799847,410.177996 362,379 C331.580406,348 266.012278,348 221,348 Z" id="path-2"></path>
        <linearGradient x1="15.3889213%" y1="97.4989531%" x2="100%" y2="0%" id="linearGradient-3">
            <stop stop-color="#464D89" stop-opacity="0.3" offset="0%"></stop>
            <stop stop-color="#A7A7EE" stop-opacity="0" offset="100%"></stop>
        </linearGradient>
        <path d="M361,378 C391.084852,401.667295 396.883803,467.380363 397,553 C396.883803,639.963717 384.666806,680.86614 332,692 C296.888796,699.422573 223.888796,694.422573 113,677 C109.862031,634.42839 116.862031,613.095057 134,613 C164.499881,613.095057 218.166548,607.761723 295,597 C312.698857,551.377809 321.698857,517.044476 322,494 C322.008411,387.166252 330.915148,354.332705 361,378 Z" id="path-4"></path>
        <linearGradient x1="50%" y1="0%" x2="50%" y2="100%" id="linearGradient-5">
            <stop stop-color="#403F9F" stop-opacity="0" offset="0%"></stop>
            <stop stop-color="#000000" stop-opacity="0.2" offset="100%"></stop>
        </linearGradient>
        <path d="M364,157.297003 C364,195.303825 333.176122,226.114441 295.152941,226.114441 C286.825963,226.114441 278.844261,224.636768 271.011765,221.645777 C280.307901,286.886673 298.56807,328 223.623529,328 C133.456904,328 60,254.574699 60,163.553134 C60,73.425301 133.456904,0 223.623529,0 C229.398951,0 249.687392,0 255.811765,0 C315.362322,0 364,33.411513 364,75.0735695 C364,88.8332215 358.221255,102.112569 347.905882,113.504087 C358.064756,125.327177 364,140.619263 364,157.297003 Z" id="path-6"></path>
        <linearGradient x1="50%" y1="0%" x2="50%" y2="100%" id="linearGradient-7">
            <stop stop-color="#FFC62C" stop-opacity="0" offset="0%"></stop>
            <stop stop-color="#FF6663" stop-opacity="0.3" offset="100%"></stop>
        </linearGradient>
        <path d="M0,0 L88,0 L88,60 C88,84.300529 68.300529,104 44,104 L44,104 C19.699471,104 -4.12947085e-15,84.300529 -7.10542736e-15,60 L0,0 Z" id="path-8"></path>
        <linearGradient x1="100%" y1="0%" x2="0%" y2="100%" id="linearGradient-10">
            <stop stop-color="#000000" stop-opacity="0.25" offset="0%"></stop>
            <stop stop-color="#FFC42C" stop-opacity="0" offset="100%"></stop>
        </linearGradient>
        <path d="M126,188 C132.782424,191.562862 140.600394,193.497464 149,194 C177.517627,193.497464 200.740795,170.283707 201,142 C200.740795,140.593377 200.709291,139.546022 201,138 C216.801066,145.047591 235.633336,148.799725 256,149 C280.094905,148.799725 302.577232,143.295851 320,134 C327.358375,149.733819 330.582324,167.504846 330,186 C330.614352,237.442036 336.128943,257.614847 330,279 C325.305546,301.643744 307.496806,341 251,341 C193.429943,341 143.663855,306.241563 129,263 C107.36777,263.489108 97.3864667,239.716565 97,216 C97.9436901,194.016587 115.448954,187.293172 126,188 Z" id="path-11"></path>
        <path d="M32,392 C-2.31000768,413.005931 -11.1957002,453.323926 16,526 C26.1649876,553.465655 38.0768321,581.960147 51,607 C71.4084596,646.784186 94.1407686,677 115,677 C149.08892,677 132.463451,496.515864 103,445 C72.8832893,393.168674 65.5225848,370.705154 32,392 Z" id="path-12"></path>
        <path d="M141,663 C119.030769,687.849493 102.841874,676.756189 94,655 C84.3965462,632.508363 81.7499178,600.002542 86,580 C94.2537261,539.918994 154.513545,402.76662 157,372 C156.111512,370.3117 123.714647,313.673534 123,297 C123.714647,280.560356 121.782879,257.699155 131,250 C139.691707,242.614501 166.71701,208.321625 186,235 C206.203728,261.689497 210.598824,271.415364 190,283 C168.182042,295.382506 197.007188,321.177488 201,328 C217.339807,361.965588 186.160075,612.06223 141,663 Z" id="path-13"></path>
        <linearGradient x1="100%" y1="0%" x2="0%" y2="100%" id="linearGradient-14">
            <stop stop-color="#000000" stop-opacity="0.15" offset="0%"></stop>
            <stop stop-color="#FFC42C" stop-opacity="0" offset="100%"></stop>
        </linearGradient>
    </defs>
    <g id="Handsome" stroke="none" stroke-width="1" fill="none" fill-rule="evenodd">
        <g id="Primary" transform="translate(-4042.000000, -1533.000000)">
            <g id="Man-&amp;-Phone" transform="translate(4042.000000, 1533.000000)">
                <g id="Body">
                    <use fill="#A7A7EE" xlink:href="#path-2"></use>
                    <use fill="url(#linearGradient-1)" xlink:href="#path-2"></use>
                </g>
                <path d="M199,406.484095 C194.881491,446.796629 246.548158,534.30193 354,669 L137,620 C114.755947,554.117359 135.422614,482.945391 199,406.484095 Z" id="Sh" fill="url(#linearGradient-3)"></path>
                <g id="Hand-R">
                    <use fill="#A7A7EE" xlink:href="#path-4"></use>
                    <use fill="url(#linearGradient-1)" xlink:href="#path-4"></use>
                </g>
                <path d="M320.500128,493.9804 C320.510953,493.152043 321.191244,492.489303 322.0196,492.500128 C322.847957,492.510953 323.510697,493.191244 323.499872,494.0196 C323.195846,517.284703 314.156804,551.766973 296.398453,597.542521 C296.201841,598.049326 295.746418,598.410095 295.208067,598.485499 C218.311514,609.256061 164.588207,614.595335 133.995386,614.501241 C133.166963,614.498693 132.497459,613.825058 132.500007,612.996635 C132.502555,612.168212 133.17619,611.498708 134.004614,611.501255 C164.299267,611.594432 217.622905,606.306651 293.919534,595.6366 C311.348609,550.577006 320.203666,516.666692 320.500128,493.9804 Z" id="Line" fill="#FFFFFF" fill-rule="nonzero"></path>
                <g id="Face">
                    <use fill="#464D89" xlink:href="#path-6"></use>
                    <use fill="url(#linearGradient-5)" xlink:href="#path-6"></use>
                </g>
                <g id="Neck" transform="translate(174.000000, 298.000000)">
                    <mask id="mask-9" fill="white">
                        <use xlink:href="#path-8"></use>
                    </mask>
                    <g>
                        <use fill="#FFC62C" xlink:href="#path-8"></use>
                        <use fill="url(#linearGradient-7)" xlink:href="#path-8"></use>
                    </g>
                    <path d="M92.7778696,69.6299871 C90.0984487,69.8281749 87.3217894,69.9310345 84.4444444,69.9310345 C56.3272539,69.9310345 30.0393716,61.4335522 8.88888889,47.6522545 L8.88888889,-8.96551724 L96.8888889,-8.96551724 L96.8888889,51.0344828 C96.8888889,57.6800179 95.4156166,63.9814519 92.7778696,69.6299871 Z" id="Sh" fill="url(#linearGradient-10)" mask="url(#mask-9)"></path>
                </g>
                <g id="Face">
                    <use fill="#FFC62C" xlink:href="#path-11"></use>
                    <use fill="url(#linearGradient-7)" xlink:href="#path-11"></use>
                </g>
                <g id="Phone" transform="translate(105.000000, 198.000000)">
                    <path d="M14.0264727,0 C14.8489656,0 15.651867,0.249940139 16.3278731,0.716417165 L110.261255,65.5350045 C111.350286,66.2864889 112,67.5218804 112,68.8411233 L112,120.396404 C112,121.622329 111.449191,122.720166 110.580532,123.457973 L100.8896,133.106667 L100.8896,81.241473 L9.98632727,17.7604472 L0.896,11.424953 L10.9515005,1.41328069 C11.6925373,0.548407922 12.7951809,0 14.0264727,0 Z" id="Detail" fill="#F0F0F6"></path>
                    <path d="M6.34964749,10.5416696 L100.403034,75.2323033 C101.493456,75.9823042 102.144,77.215257 102.144,78.5318957 L102.144,129.985405 C102.144,132.202604 100.332854,134 98.0986931,134 C97.2751494,134 96.4712223,133.750553 95.7943525,133.284997 L1.74096637,68.5943634 C0.650543816,67.8443625 0,66.6114096 0,65.294771 L0,13.8412621 C0,11.6240622 1.8111456,9.82666667 4.04530693,9.82666667 C4.86885056,9.82666667 5.6727777,10.0761134 6.34964749,10.5416696 Z" id="Detail" fill="#D6DFEA"></path>
                </g>
                <g id="Hand">
                    <use fill="#A7A7EE" xlink:href="#path-12"></use>
                    <use fill="url(#linearGradient-1)" xlink:href="#path-12"></use>
                </g>
                <path d="M134.864307,632.087696 C134.808959,632.914272 134.094018,633.539476 133.267442,633.484128 C132.440866,633.42878 131.815662,632.713839 131.87101,631.887263 C135.111438,583.494262 125.371302,508.062479 110.255492,465.228783 C109.979806,464.447573 110.389615,463.59079 111.170825,463.315105 C111.952035,463.03942 112.808818,463.449228 113.084504,464.230438 C128.338667,507.456184 138.131452,583.295706 134.864307,632.087696 Z" id="Line" fill="#FFFFFF" fill-rule="nonzero"></path>
                <g id="Hand">
                    <use fill="#FFC62C" xlink:href="#path-13"></use>
                    <use fill="url(#linearGradient-7)" xlink:href="#path-13"></use>
                </g>
                <path d="M327,153.756399 C312.27282,160.869603 292.170203,165.25 270.008346,165.25 C248.37169,165.25 228.69783,161.07476 214.072738,154.257488 C214.12787,155.236073 214.155808,156.22192 214.155808,157.214286 C214.155808,185.814746 190.950209,209 162.324653,209 C145.453246,209 130.464581,200.946094 121,188.476433 C122.66378,188.30069 124.248171,188.303725 125.685388,188.464286 C132.859353,191.602588 140.67471,193.538525 148.920044,193.821429 C177.579604,193.538525 200.79501,170.308747 200.751199,142.035714 C200.79501,140.597927 200.763516,139.54985 200.751199,138.464286 C216.849912,145.055215 235.675888,148.809939 256.156916,149.178571 C280.122596,148.809939 302.597409,143.302267 320.49904,134 C323.24544,140.293077 325.40899,146.911836 327,153.756399 Z" id="Sh" fill="url(#linearGradient-14)"></path>
            </g>
        </g>
    </g>
</svg>