<?xml version="1.0" encoding="UTF-8"?>
<svg width="672px" height="722px" viewBox="0 0 672 722" version="1.1" xmlns="http://www.w3.org/2000/svg" xmlns:xlink="http://www.w3.org/1999/xlink">
    <!-- Generator: Sketch 51 (57462) - http://www.bohemiancoding.com/sketch -->
    <title>Man and Macbook</title>
    <desc>Created with Sketch.</desc>
    <defs>
        <linearGradient x1="50%" y1="0%" x2="50%" y2="100%" id="linearGradient-1">
            <stop stop-color="#A7A7EE" stop-opacity="0" offset="0%"></stop>
            <stop stop-color="#403F9F" stop-opacity="0.3" offset="100%"></stop>
        </linearGradient>
        <polygon id="path-2" points="127 383 261 383 261 622 127 622"></polygon>
        <linearGradient x1="50%" y1="0%" x2="50%" y2="100%" id="linearGradient-3">
            <stop stop-color="#403F9F" stop-opacity="0" offset="0%"></stop>
            <stop stop-color="#000000" stop-opacity="0.2" offset="100%"></stop>
        </linearGradient>
        <path d="M311,211 L538,211 C565.614237,211 588,233.385763 588,261 L588,383 L261,383 L261,261 C261,233.385763 283.385763,211 311,211 Z" id="path-4"></path>
        <rect id="path-5" x="170" y="457" width="143" height="165"></rect>
        <path d="M126.5,383 L126.5,383 C150.524387,383 170,402.475613 170,426.5 L170,622 L93,622 C87.4771525,622 83,617.522847 83,612 L83,426.5 C83,402.475613 102.475613,383 126.5,383 Z" id="path-6"></path>
        <linearGradient x1="50%" y1="0%" x2="50%" y2="100%" id="linearGradient-7">
            <stop stop-color="#403F9F" stop-opacity="0" offset="0%"></stop>
            <stop stop-color="#000000" stop-opacity="0.1" offset="100%"></stop>
        </linearGradient>
        <path d="M111,647 C92.7932126,639.437251 108.751952,613.801512 127,611 C145.378431,607.925054 157.319353,604.608046 157,592 C157.319353,579.571235 191.501955,589.2832 192,595 C191.501955,601.20941 199.372556,622.344142 192,626 C183.631355,629.469613 129.392831,653.900959 111,647 Z" id="path-8"></path>
        <path d="M226,592 C230.709399,594.031051 236.889459,595.052035 245,595 C250.933488,595.052035 256.015366,594.426524 260,593 C260.3249,601.895701 261.821834,608.320709 272,619 C284.858983,631.682444 282.911257,665.87096 260,671 C237.470357,674.524798 221.71466,631.682444 224,615 C226.605597,605.128862 226.635524,597.640203 226,592 Z" id="path-9"></path>
        <linearGradient x1="77.3308348%" y1="11.0448073%" x2="-8.6540859%" y2="44.0806324%" id="linearGradient-10">
            <stop stop-color="#000000" stop-opacity="0.5" offset="0%"></stop>
            <stop stop-color="#1F1845" offset="100%"></stop>
        </linearGradient>
        <path d="M297.249064,395.048342 C253.011965,395.048342 124.563854,392.61414 108.436912,422.292194 C92.3099693,451.970248 138.171738,586.061586 138.171738,592.168919 C138.171738,598.276252 190.855781,596.469641 199.893589,596.469641 C208.931396,596.469641 172.324045,473.633361 177.135996,466.656218 C181.947947,459.679076 332.750736,470.717818 344.073193,449.476545 C355.395651,428.235271 341.486163,395.048342 297.249064,395.048342 Z" id="path-11"></path>
        <linearGradient x1="50%" y1="0%" x2="50%" y2="100%" id="linearGradient-12">
            <stop stop-color="#C74D75" stop-opacity="0" offset="0%"></stop>
            <stop stop-color="#AF3B6E" stop-opacity="0.05" offset="100%"></stop>
        </linearGradient>
        <linearGradient x1="100%" y1="100%" x2="50%" y2="0%" id="linearGradient-13">
            <stop stop-color="#000000" stop-opacity="0.5" offset="0%"></stop>
            <stop stop-color="#FF6663" stop-opacity="0" offset="100%"></stop>
        </linearGradient>
        <path d="M292.748649,369.313334 C294.129635,366.122551 296.56063,349.45362 301.094497,327.701194 C307.999501,331.929545 315.728763,334.86673 324.282283,336.51275 C324.427875,336.540768 324.573273,336.568625 324.718477,336.596324 C323.924395,348.175807 323.419948,360.851636 323.205137,374.623811 C314.394701,376.355222 306.642603,378.231632 303.248795,380.007856 C300.567051,381.411406 291.067408,389.337915 287.385106,395.078936 L281.619023,371.437995 C288.000081,370.960668 292.28168,370.392271 292.748649,369.313334 Z" id="path-14"></path>
        <path d="M501,383 L501,254.5 C501,230.475613 520.475613,211 544.5,211 C568.524387,211 588,230.475613 588,254.5 L588,383 L501,383 Z" id="path-15"></path>
        <path d="M275,0 L275,229 C275,234.522847 270.522847,239 265,239 L44,239 L44,0 L275,0 Z" id="path-16"></path>
        <path d="M43.5,0 L43.5,0 C67.5243866,-4.41320823e-15 87,19.4756134 87,43.5 L87,239 L0,239 L0,43.5 C-2.94213882e-15,19.4756134 19.4756134,4.41320823e-15 43.5,0 Z" id="path-17"></path>
        <path d="M322.793825,399 L288.341463,399 L287.385106,395.078936 C291.067408,389.337915 300.567051,381.411406 303.248795,380.007856 C313.086874,374.85888 359.548653,368.868026 362.248795,368.007856 C389.415418,365.163006 401.889269,362.568442 457.248795,360.007856 C457.255371,345.378078 426.345588,238.046649 443.248795,238.007856 C459.665425,238.046649 502.303286,238.159706 507.248795,288.007856 C512.194303,337.856007 522.619233,401.15934 487.248795,400.007856 C465.708315,400.366348 406.439266,386.822609 375.113686,383 L357,383 C342.940749,383 330.772842,389.234519 322.793825,399 Z" id="path-18"></path>
        <linearGradient x1="50%" y1="0%" x2="50%" y2="100%" id="linearGradient-19">
            <stop stop-color="#C74D75" stop-opacity="0" offset="0%"></stop>
            <stop stop-color="#AF3B6E" stop-opacity="0.1" offset="100%"></stop>
        </linearGradient>
        <path d="M4,0 L68,0 L64,78 C63.6128995,95.9179463 48.7842958,110 31,110 C13.7758496,110 2.06672338e-15,96.3095413 0,79 C-5.58573887e-17,78.9584929 0.0105818002,78.4955409 0,78 L4,0 Z" id="path-20"></path>
        <linearGradient x1="0%" y1="84.0596594%" x2="100%" y2="0%" id="linearGradient-21">
            <stop stop-color="#000000" stop-opacity="0.1" offset="0%"></stop>
            <stop stop-color="#FF6663" stop-opacity="0" offset="100%"></stop>
        </linearGradient>
        <linearGradient x1="50%" y1="2.61181966%" x2="50%" y2="100%" id="linearGradient-22">
            <stop stop-color="#C74D75" stop-opacity="0" offset="0%"></stop>
            <stop stop-color="#AF3B6E" stop-opacity="0.05" offset="100%"></stop>
        </linearGradient>
        <path d="M73.5,46 C107.465512,46 135,73.5344879 135,107.5 L135,159.5 C135,193.465512 94.7213083,221 73.5,221 C52.2786917,221 12,193.465512 12,159.5 C14,143.812276 15,135.374468 15,134.186577 C15,132.998686 14,124.10316 12,107.5 C12,73.5344879 39.5344879,46 73.5,46 Z" id="path-23"></path>
        <linearGradient x1="50%" y1="0%" x2="50%" y2="100%" id="linearGradient-24">
            <stop stop-color="#1F1845" stop-opacity="0" offset="0%"></stop>
            <stop stop-color="#000000" stop-opacity="0.2" offset="100%"></stop>
        </linearGradient>
        <path d="M134.820983,183.990836 L136,161 L135,143.868632 C124.861195,138.237331 118,127.419924 118,115 C118,112.22921 118.341483,109.538177 118.984659,106.966692 C118.492543,106.988818 117.997577,107 117.5,107 C100.763243,107 86.9813543,94.3487028 85.1957558,78.0875296 C80.1678675,80.5916323 74.4984047,82 68.5,82 C59.5840709,82 51.3948848,78.8884432 44.9591021,73.69199 C42.1290874,75.1664918 38.9118818,76 35.5,76 C30.9272444,76 26.7041771,74.5028066 23.2942617,71.9718835 C18.2568773,79.0774283 14.6900354,87.298922 13.0372064,96.1928933 C5.06025119,89.4061787 0,79.2940318 0,68 C0,48.7668201 14.6749372,32.9611553 33.4386307,31.1691867 C38.8138034,17.0398988 52.4844297,7 68.5,7 C75.1890159,7 81.4689857,8.75133395 86.9063852,11.8204774 C94.9866516,4.47622282 105.720587,0 117.5,0 C141.663937,0 161.428379,18.8364819 162.910757,42.6268785 C180.598021,45.8765892 194,61.3731946 194,80 C194,90.4443336 189.786397,99.9045273 182.96637,106.773401 C183.64117,109.403218 184,112.159705 184,115 C184,125.955171 178.661735,135.663523 170.444547,141.665714 C170.809558,143.722088 171,145.838804 171,148 C171,167.608052 154.351142,183.554719 134.820983,183.990836 Z" id="path-25"></path>
        <linearGradient x1="100%" y1="0%" x2="0%" y2="100%" id="linearGradient-26">
            <stop stop-color="#000000" stop-opacity="0.2" offset="0%"></stop>
            <stop stop-color="#FF6663" stop-opacity="0" offset="100%"></stop>
        </linearGradient>
        <linearGradient x1="64.0162101%" y1="22.9658099%" x2="0%" y2="100%" id="linearGradient-27">
            <stop stop-color="#000000" stop-opacity="0.1" offset="0%"></stop>
            <stop stop-color="#FF6663" stop-opacity="0" offset="100%"></stop>
        </linearGradient>
    </defs>
    <g id="Handsome" stroke="none" stroke-width="1" fill="none" fill-rule="evenodd">
        <g id="Primary" transform="translate(-2164.000000, -362.000000)">
            <g id="Man-and-Macbook" transform="translate(2164.000000, 362.000000)">
                <path d="M99.7576755,552.875436 C-77.0706948,615.269765 2.65693312,721.977086 173.491013,721.977086 C344.325094,721.977086 645.763708,686.432865 670.863683,619.65415 C695.963658,552.875436 276.586046,490.481106 99.7576755,552.875436 Z" id="Sh" fill="#F0F0F6"></path>
                <g id="Detail">
                    <use fill="#A7A7EE" xlink:href="#path-2"></use>
                    <use fill="url(#linearGradient-1)" xlink:href="#path-2"></use>
                </g>
                <g id="Detail">
                    <use fill="#403F9F" xlink:href="#path-4"></use>
                    <use fill="url(#linearGradient-3)" xlink:href="#path-4"></use>
                </g>
                <path d="M347.931588,339.797407 C373.976607,291.830656 395.601662,235 375.953859,235 C342.257086,235 320.832594,252.71834 310.116122,290.489016 C306.429113,303.484041 303.472546,316.291874 301.094497,327.701194 C307.999501,331.929545 315.728763,334.86673 324.282283,336.51275 C332.835802,338.15877 340.718904,339.253656 347.931588,339.797407 Z" id="Blouse" fill="#F2F5F9"></path>
                <g id="Detail">
                    <use fill="#A7A7EE" xlink:href="#path-5"></use>
                    <use fill="url(#linearGradient-1)" xlink:href="#path-5"></use>
                </g>
                <g id="Detail">
                    <use fill="#403F9F" xlink:href="#path-6"></use>
                    <use fill="url(#linearGradient-3)" xlink:href="#path-6"></use>
                </g>
                <g id="Leg-L">
                    <use fill="#1F1845" xlink:href="#path-8"></use>
                    <use fill="url(#linearGradient-7)" xlink:href="#path-8"></use>
                </g>
                <g id="Leg-R">
                    <use fill="#1F1845" xlink:href="#path-9"></use>
                    <use fill="url(#linearGradient-7)" xlink:href="#path-9"></use>
                </g>
                <g id="Leg-L">
                    <use fill="#1F1845" xlink:href="#path-11"></use>
                    <use fill="url(#linearGradient-10)" xlink:href="#path-11"></use>
                </g>
                <path d="M386.068315,402.885963 C341.831215,402.885963 260.731939,388.095581 244.604997,417.773635 C228.478054,447.451689 216,584.213273 216,590.320606 C216,596.427939 264.895994,600.821784 273.933801,600.821784 C282.971608,600.821784 301.629585,468.573389 315.494276,463.518787 C329.358967,458.464186 431.58213,484.760061 442.904588,463.518787 C454.227045,442.277514 430.305414,402.885963 386.068315,402.885963 Z" id="Leg-R" fill="#1F1845"></path>
                <path d="M404.724733,238 L444,238 C480.585333,238 474.38237,275.984871 474.38237,312.570203 C474.38237,336.960425 468.588246,366.770357 457,402 L323.132236,400.7054 C322.810985,364.556339 324.151213,334.696405 327.152921,311.125596 C331.655482,275.769383 356.277492,238 404.724733,238 Z" id="Blouse" fill="#F2F5F9"></path>
                <g id="Hand-L">
                    <use fill="#FF6663" xlink:href="#path-14"></use>
                    <use fill="url(#linearGradient-12)" xlink:href="#path-14"></use>
                    <use fill="url(#linearGradient-13)" xlink:href="#path-14"></use>
                </g>
                <g id="Macbook" transform="translate(115.000000, 291.000000)">
                    <path d="M10.7321697,6.47718078e-15 L142,0 L172,123 L30.3562363,123 C28.9732024,123 27.7693937,122.054514 27.4416753,120.710869 L1.01696629,12.3695618 C-0.291706554,7.00400313 2.99704921,1.59346946 8.36260788,0.284796612 C9.13826082,0.095612969 9.93377884,9.02844621e-15 10.7321697,6.47718078e-15 Z" id="Detail" fill="#D6DFEA"></path>
                    <circle id="Logo" fill="#F2F5F9" cx="82" cy="62" r="9"></circle>
                    <path d="M173.341463,108 L261.5,108 C265.642136,108 269,111.357864 269,115.5 C269,119.642136 265.642136,123 261.5,123 L165,123 L165,114.8 L138.184781,4.85760169 C137.670857,2.75051437 138.962371,0.625765089 141.069459,0.111841351 C141.374062,0.0375477909 141.686467,5.75950609e-17 142,0 C144.934837,-5.39120802e-16 147.489353,2.00634791 148.184781,4.85760169 L173.341463,108 Z" id="Detail" fill="#B6C5D9"></path>
                </g>
                <g id="Detail">
                    <use fill="#A7A7EE" xlink:href="#path-15"></use>
                    <use fill="url(#linearGradient-1)" xlink:href="#path-15"></use>
                </g>
                <g id="Detail" transform="translate(313.000000, 383.000000)">
                    <g>
                        <use fill="#A7A7EE" xlink:href="#path-16"></use>
                        <use fill="url(#linearGradient-1)" xlink:href="#path-16"></use>
                    </g>
                    <g>
                        <use fill="#403F9F" xlink:href="#path-17"></use>
                        <use fill="url(#linearGradient-3)" xlink:href="#path-17"></use>
                    </g>
                </g>
                <g id="Hand-R">
                    <use fill="#FF6663" xlink:href="#path-18"></use>
                    <use fill="url(#linearGradient-12)" xlink:href="#path-18"></use>
                </g>
                <path d="M453.220514,339.943345 C445.464837,304.483403 428.727303,238.038377 442.385266,238.007856 C459.24514,238.046649 503.034212,238.159706 508.113248,288.007856 C509.658347,303.172214 511.724226,319.581773 512.828372,335.043132 C513.000537,337.453973 504.313569,341.79964 482.97958,343.002882 C468.756921,343.805044 458.837232,342.785198 453.220514,339.943345 Z" id="Blouse" fill="#F2F5F9"></path>
                <g id="Nack" transform="translate(372.000000, 161.000000)">
                    <g>
                        <use fill="#FF6663" xlink:href="#path-20"></use>
                        <use fill="url(#linearGradient-19)" xlink:href="#path-20"></use>
                    </g>
                    <path d="M66,39 C52.8251407,57.4548872 29.8088229,70 15,70 C11.2521051,70 6.26967914,68.9085849 1,67 L4,0 L68,0 L66,39 Z" id="Sh" fill="url(#linearGradient-21)"></path>
                </g>
                <g id="Face" transform="translate(304.000000, 0.000000)">
                    <g>
                        <use fill="#FF6663" xlink:href="#path-23"></use>
                        <use fill="url(#linearGradient-22)" xlink:href="#path-23"></use>
                    </g>
                    <g id="Hair">
                        <use fill="#1F1845" xlink:href="#path-25"></use>
                        <use fill="url(#linearGradient-24)" xlink:href="#path-25"></use>
                    </g>
                    <g id="Ear" transform="translate(119.000000, 123.000000)">
                        <path d="M9,45 C-3.38522798,44.786732 -2.60080199,-0.209173216 9,-1.0658141e-13 C21.579278,0.213419192 31.2045922,10.4573851 31,22 C30.7713657,35.3079373 20.794852,45.2093244 9,45 Z" fill="#FF6663"></path>
                        <circle id="Sh" fill="url(#linearGradient-26)" cx="12" cy="23" r="8"></circle>
                    </g>
                    <path d="M120.35609,126.980499 C119.428301,126.993464 117.880411,127 117.5,127 C100.763243,127 86.9813543,114.348703 85.1957558,98.0875296 C80.1678675,100.591632 74.4984047,102 68.5,102 C59.5840709,102 51.3948848,98.8884432 44.9591021,93.69199 C42.1290874,95.1664918 38.9118818,96 35.5,96 C30.9272444,96 26.7041771,94.5028066 23.2942617,91.9718835 C18.258152,99.0756303 14.6918407,107.294761 13.0384615,116.186142 C12.7289387,113.5731 12.3827849,110.67772 12,107.5 C12,94.2645399 16.1809864,82.0056014 23.2942643,71.9718797 C26.7041771,74.5028066 30.9272444,76 35.5,76 C38.9118818,76 42.1290874,75.1664918 44.9591021,73.69199 C51.3948848,78.8884432 59.5840709,82 68.5,82 C74.4984047,82 80.1678675,80.5916323 85.1957558,78.0875296 C86.9813543,94.3487028 100.763243,107 117.5,107 C117.997577,107 118.492543,106.988818 118.984659,106.966692 C118.341483,109.538177 118.766592,112.348241 118.984659,115.116843 C119.969319,127.618187 120.641847,126.976505 120.35609,126.980499 Z" id="Sh" fill="url(#linearGradient-27)"></path>
                </g>
                <path d="M323.204175,374.685613 C323.588036,349.969612 324.904284,328.78294 327.152921,311.125596" id="Line" stroke="#FFFFFF" stroke-width="2" stroke-linecap="round" stroke-linejoin="round"></path>
                <path d="M457.248796,360.007856 C457.251365,354.28923 452.530084,334.406297 447.787124,312.30387" id="Line" stroke="#FFFFFF" stroke-width="2" stroke-linecap="round" stroke-linejoin="round"></path>
            </g>
        </g>
    </g>
</svg>