<?xml version="1.0" encoding="UTF-8"?>
<svg width="345px" height="768px" viewBox="0 0 345 768" version="1.1" xmlns="http://www.w3.org/2000/svg" xmlns:xlink="http://www.w3.org/1999/xlink">
    <!-- Generator: Sketch 51 (57462) - http://www.bohemiancoding.com/sketch -->
    <title>Man</title>
    <desc>Created with Sketch.</desc>
    <defs>
        <linearGradient x1="50%" y1="0%" x2="50%" y2="100%" id="linearGradient-1">
            <stop stop-color="#FFC62C" stop-opacity="0" offset="0%"></stop>
            <stop stop-color="#FF6663" stop-opacity="0.1" offset="100%"></stop>
        </linearGradient>
        <path d="M306.996916,410.525742 C312.24579,422.908874 319.48067,438.034191 313.624738,452.20918 C307.768806,466.384168 294.704012,474.621826 294.704012,463.415503 C294.704012,452.20918 297.391817,443.381769 296.063905,438.752147 C294.735993,434.122524 294.735993,445.123654 290.602699,445.123654 C287.847169,445.123654 287.279641,434.585753 288.900113,413.50995 C297.465398,403.265057 303.497666,402.270321 306.996916,410.525742 Z" id="path-2"></path>
        <linearGradient x1="50%" y1="0%" x2="50%" y2="100%" id="linearGradient-3">
            <stop stop-color="#A7A7EE" stop-opacity="0" offset="0%"></stop>
            <stop stop-color="#4C55A0" stop-opacity="0.2" offset="100%"></stop>
        </linearGradient>
        <linearGradient x1="10.9467662%" y1="45.0846073%" x2="100%" y2="50%" id="linearGradient-4">
            <stop stop-color="#464D89" stop-opacity="0.6" offset="0%"></stop>
            <stop stop-color="#A7A7EE" stop-opacity="0" offset="100%"></stop>
        </linearGradient>
        <path d="M271.668025,331.095647 C273.384041,341.093075 279.708136,407.214884 284.668025,412.80112 C291.074236,420.016324 301.735969,420.016324 308.724377,412.80112 C321.966772,399.128969 316.538175,309.247507 311.423113,281.434805 C308.013073,262.893003 300.761376,245.081402 289.668025,228 C274.868416,280.420041 268.868416,314.785257 271.668025,331.095647 Z" id="path-5"></path>
        <path d="M162.815013,380.815946 C131.259753,375.126347 116,368.392526 116,355.438529 C116,346.03229 133.036607,340.927983 146.260349,343.797174 C173.686517,359.538211 188.619932,367.268115 191.060595,366.986887 C190.688542,378.523421 187.080415,385.191141 162.815013,380.815946 Z" id="path-6"></path>
        <path d="M46.8150132,379.815946 C15.2597526,374.126347 0,367.392526 0,354.438529 C0,346.379476 12.5060171,341.478333 24.405146,342.044263 C24.2703143,343.603049 69.5955182,365.530788 75.0943672,364.213161 C74.9987827,376.826035 72.2987376,384.410811 46.8150132,379.815946 Z" id="path-7"></path>
        <linearGradient x1="50%" y1="0%" x2="50%" y2="100%" id="linearGradient-8">
            <stop stop-color="#403F9F" stop-opacity="0" offset="0%"></stop>
            <stop stop-color="#000000" stop-opacity="0.2" offset="100%"></stop>
        </linearGradient>
        <path d="M200,40.0665342 C206.666667,76.6620933 210,182.219078 210,356.737487 C208.543837,363.992263 198.043837,367.619651 178.5,367.619651 C158.956163,367.619651 148.456163,363.992263 147,356.737487 L134,129.300274 L87,356.737487 C82.2485856,364.011254 71.2286198,366.680288 53.9401025,364.74459 C36.6515853,362.808892 26.6715511,356.806524 24,346.737487 C41.2140424,146.935393 54.8807091,38.1824442 65,20.4786401 C79.6392562,-5.05178269 190,-14.8268046 200,40.0665342 Z" id="path-9"></path>
        <polygon id="path-11" points="203 165 253 165 253 209 203 209"></polygon>
        <path d="M38,181 C35.7961267,171.083265 34.2213542,164.124534 33,162 C28.3667059,155.437078 14.7575147,141.492564 22,132 C30.2464939,122.998767 42.1941185,124.241656 42,119 C42.1941185,113.965995 29.983205,92.2148491 35,89 C40.1921739,86.3963608 54.0373763,123.775124 59,126 C63.6082846,128.246651 70.342314,124.980929 70,132 C70.342314,139.510402 59.5296782,154.158303 61,162 C61.4600139,164.277903 62.6805558,168.399452 64,174 C55.3329609,170.370939 43.0045372,173.354178 38,181 Z" id="path-12"></path>
        <path d="M126.035532,36.7026733 C134.531755,32.7804019 147.823192,28.8044746 162.99999,26.8450972 L162.99999,16.9133513 C162.99999,15.2564923 164.343141,13.9133431 166,13.9133438 C166.216593,13.9133438 166.432549,13.9368 166.644092,13.9833019 C172.760213,15.3277673 181.545515,16 193,16 C204.454482,16 213.239783,15.3277676 219.355904,13.9833028 C220.974123,13.6275759 222.57432,14.6510327 222.930042,16.2692529 C222.976544,16.4807953 223,16.6967517 223,16.9133449 L223,32.9657094 C235.283074,38.010002 246.446854,46.0010923 255,58 C274.117052,84.8186401 260.318818,182.763216 241,211 C220.767131,240.176683 123.75733,240.176683 100,211 C88.1718789,197.250342 91.3929454,157.000412 98.4019399,118.999479 C78.144898,124.652252 54.6462917,128.366218 40,125 C18.0522914,120.500533 0.239429449,34.2621514 0.239429449,17.4365962 C0.239429449,0.611041011 28.1725279,-5.12513106 37.1381829,8.52477726 C46.1038379,22.1746856 58.6748914,60.949595 58.6748914,66.0825097 C58.6748914,71.2154244 102.015723,46.7649854 125.427236,36.9414644 C125.632058,36.8555206 125.83482,36.775957 126.035528,36.7026749 L126.035532,36.7026733 Z" id="path-13"></path>
        <linearGradient x1="100%" y1="0%" x2="0%" y2="100%" id="linearGradient-15">
            <stop stop-color="#464D89" stop-opacity="0.3" offset="0%"></stop>
            <stop stop-color="#A7A7EE" stop-opacity="0" offset="100%"></stop>
        </linearGradient>
        <path d="M262.297062,17.6521211 C294.869861,27.610625 313.642884,67.4145974 303.732549,99.8298438 C294.579343,125.218282 284.049806,144.088057 272.14394,156.439167 C254.285141,174.965833 226.397255,185.504705 199.724947,177.41486 C173.05264,169.325014 155.202863,139.127832 163.532489,116.538965 C171.862115,93.9500975 175.454651,90.9590168 178.53828,76.0729165 C179.561372,71.1339784 176.018948,60.5130981 186.3772,40.7490198 C196.735452,20.9849415 229.724264,7.69361732 262.297062,17.6521211 Z" id="path-16"></path>
        <linearGradient x1="0%" y1="0%" x2="100%" y2="50%" id="linearGradient-17">
            <stop stop-color="#FFC62C" stop-opacity="0" offset="0%"></stop>
            <stop stop-color="#000000" stop-opacity="0.2" offset="100%"></stop>
        </linearGradient>
        <path d="M203,4 C166.93229,-15.6904076 175.952132,48.9378137 186,63 C196.019348,78.2670721 208.883009,89.3766015 228,89 C245.410106,89.3766015 243.687628,110.588397 234,119 C223.498483,127.869263 212.123489,147.842762 221,162 C229.876511,176.157238 248.555252,181.396449 278,162 C307.622821,143.43182 338.401178,83.3271697 303,43 C268.381074,3.54570204 238.432672,22.7818117 203,4 Z" id="path-18"></path>
    </defs>
    <g id="Handsome" stroke="none" stroke-width="1" fill="none" fill-rule="evenodd">
        <g id="Primary" transform="translate(-3198.000000, -339.000000)">
            <g id="Man" transform="translate(3198.000000, 339.000000)">
                <path d="M0.53719826,726.858659 C15.0586661,668.16833 145.648623,634 235.468131,634 C325.462824,634 387.844263,694.87594 306.916198,735.086641 C226.457213,775.313441 -12.8157965,785.384598 0.53719826,726.858659 Z" id="Sh" fill="#F0F0F6"></path>
                <g id="Hand">
                    <use fill="#FFC62C" xlink:href="#path-2"></use>
                    <use fill="url(#linearGradient-1)" xlink:href="#path-2"></use>
                </g>
                <g id="Hand-R">
                    <use fill="#A7A7EE" xlink:href="#path-5"></use>
                    <use fill="url(#linearGradient-3)" xlink:href="#path-5"></use>
                    <use fill="url(#linearGradient-4)" xlink:href="#path-5"></use>
                </g>
                <g id="Legs" transform="translate(75.000000, 345.000000)">
                    <g id="Leg-R">
                        <use fill="#A7A7EE" xlink:href="#path-6"></use>
                        <use fill="url(#linearGradient-3)" xlink:href="#path-6"></use>
                    </g>
                    <g id="Leg-L">
                        <use fill="#A7A7EE" xlink:href="#path-7"></use>
                        <use fill="url(#linearGradient-3)" xlink:href="#path-7"></use>
                    </g>
                    <mask id="mask-10" fill="white">
                        <use xlink:href="#path-9"></use>
                    </mask>
                    <g>
                        <use fill="#464D89" xlink:href="#path-9"></use>
                        <use fill="url(#linearGradient-8)" xlink:href="#path-9"></use>
                    </g>
                    <path d="M131.651127,152.185121 C131.561316,152.730054 131.046754,153.099004 130.501821,153.009194 C129.956887,152.919383 129.587937,152.404821 129.677748,151.859888 L139.240443,93.8373836 C139.330253,93.2924501 139.844815,92.9235001 140.389748,93.0133106 C140.934682,93.1031212 141.303632,93.6176829 141.213821,94.1626164 L131.651127,152.185121 Z" id="Line" fill="#FFFFFF" fill-rule="nonzero" mask="url(#mask-10)"></path>
                </g>
                <g id="Neck">
                    <use fill="#FFC62C" xlink:href="#path-11"></use>
                    <use fill="url(#linearGradient-1)" xlink:href="#path-11"></use>
                </g>
                <g id="Combined-Shape">
                    <use fill="#FFC62C" xlink:href="#path-12"></use>
                    <use fill="url(#linearGradient-1)" xlink:href="#path-12"></use>
                </g>
                <g id="Body" transform="translate(35.000000, 170.000000)">
                    <mask id="mask-14" fill="white">
                        <use xlink:href="#path-13"></use>
                    </mask>
                    <g>
                        <use fill="#A7A7EE" xlink:href="#path-13"></use>
                        <use fill="url(#linearGradient-3)" xlink:href="#path-13"></use>
                    </g>
                    <path d="M99.9555157,210.977189 C89.7380391,200.37924 89.0792283,170.391216 97.9790834,121.013116 C104.991238,118.639774 113.701779,114.864849 124.110704,109.688344 C127.114239,108.194644 128.688845,240.780472 99.9555157,210.977189 Z" id="Sh" fill="url(#linearGradient-15)" mask="url(#mask-14)"></path>
                    <path d="M85.9517754,124.216793 C85.4151359,124.347317 84.8742931,124.018095 84.7437691,123.481455 C84.6132452,122.944816 84.9424669,122.403973 85.4791064,122.273449 C100.756719,118.557557 117.906646,113.171589 123.174225,109.748181 C123.637306,109.447224 124.25668,109.578651 124.557637,110.041732 C124.858594,110.504812 124.727166,111.124187 124.264086,111.425143 C118.726523,115.024014 101.485267,120.438665 85.9517754,124.216793 Z" id="Line" fill="#FFFFFF" fill-rule="nonzero" mask="url(#mask-14)"></path>
                </g>
                <g id="Face">
                    <use fill="#FFC62C" xlink:href="#path-16"></use>
                    <use fill="url(#linearGradient-1)" xlink:href="#path-16"></use>
                </g>
                <path d="M228,109 C208.883009,109.376601 196.019348,98.2670721 186,83 C183.315208,79.2425818 180.703813,71.8749552 179.006339,63.4703148 C179.325991,60.3849818 179.988684,56.7807274 181.333042,52.5940809 C182.731408,57.0263544 184.351875,60.6934163 186,63 C196.019348,78.2670721 208.883009,89.3766015 228,89 C242.304326,89.3094197 243.693319,103.68351 238.360696,113.467305 C236.240164,110.839486 232.86797,109.1053 228,109 Z" id="Sh" fill="url(#linearGradient-17)"></path>
                <g id="Hair">
                    <use fill="#464D89" xlink:href="#path-18"></use>
                    <use fill="url(#linearGradient-8)" xlink:href="#path-18"></use>
                </g>
            </g>
        </g>
    </g>
</svg>