<?xml version="1.0" encoding="UTF-8"?>
<svg width="776px" height="442px" viewBox="0 0 776 442" version="1.1" xmlns="http://www.w3.org/2000/svg" xmlns:xlink="http://www.w3.org/1999/xlink">
    <!-- Generator: Sketch 51 (57462) - http://www.bohemiancoding.com/sketch -->
    <title>Safari</title>
    <desc>Created with Sketch.</desc>
    <defs>
        <linearGradient x1="0%" y1="0%" x2="100%" y2="100%" id="linearGradient-1">
            <stop stop-color="#464D89" offset="0%"></stop>
            <stop stop-color="#A7A7EE" offset="100%"></stop>
        </linearGradient>
    </defs>
    <g id="Handsome" stroke="none" stroke-width="1" fill="none" fill-rule="evenodd">
        <g id="Primary" transform="translate(-2982.000000, -9766.000000)">
            <g id="Safari" transform="translate(2982.000000, 9766.000000)">
                <path d="M10,0 L766,0 C771.522847,-1.01453063e-15 776,4.4771525 776,10 L776,25 L0,25 L0,10 C-6.76353751e-16,4.4771525 4.4771525,1.01453063e-15 10,0 Z" id="Detail" fill="#D6DFEA"></path>
                <circle id="Detail" fill="#FF6663" cx="12.5" cy="12.5" r="3.5"></circle>
                <circle id="Detail" fill="#FFC62C" cx="24.5" cy="12.5" r="3.5"></circle>
                <circle id="Detail" fill="#00A07D" cx="36.5" cy="12.5" r="3.5"></circle>
                <rect id="Detail" fill="#B6C5D9" x="47" y="5" width="16" height="15" rx="3"></rect>
                <rect id="Detail" fill="#B6C5D9" x="63" y="5" width="16" height="15" rx="3"></rect>
                <rect id="Detail" fill="#B6C5D9" x="84" y="5" width="22" height="15" rx="3"></rect>
                <rect id="Detail" fill="#B6C5D9" x="230" y="5" width="316" height="15" rx="3"></rect>
                <rect id="Detail" fill="#B6C5D9" x="716" y="5" width="23" height="15" rx="3"></rect>
                <rect id="Detail" fill="#B6C5D9" x="744" y="5" width="23" height="15" rx="3"></rect>
                <path d="M0,25 L776,25 L776,432 C776,437.522847 771.522847,442 766,442 L10,442 C4.4771525,442 6.76353751e-16,437.522847 0,432 L0,25 Z" id="Detail" fill="url(#linearGradient-1)"></path>
                <rect id="Detail" fill="#F2F5F9" x="0" y="25" width="776" height="39"></rect>
                <path d="M18.5,35 L108.5,35 C113.746705,35 118,39.2532949 118,44.5 C118,49.7467051 113.746705,54 108.5,54 L18.5,54 C13.2532949,54 9,49.7467051 9,44.5 C9,39.2532949 13.2532949,35 18.5,35 Z" id="Detail" fill="#D6DFEA"></path>
                <path d="M89,330 L199,330 C201.761424,330 204,332.238576 204,335 C204,337.761424 201.761424,340 199,340 L89,340 C86.2385763,340 84,337.761424 84,335 C84,332.238576 86.2385763,330 89,330 Z" id="Detail" fill="#FFFFFF"></path>
                <path d="M246,330 L356,330 C358.761424,330 361,332.238576 361,335 C361,337.761424 358.761424,340 356,340 L246,340 C243.238576,340 241,337.761424 241,335 C241,332.238576 243.238576,330 246,330 Z" id="Detail" fill="#FFFFFF"></path>
                <path d="M403,330 L513,330 C515.761424,330 518,332.238576 518,335 C518,337.761424 515.761424,340 513,340 L403,340 C400.238576,340 398,337.761424 398,335 C398,332.238576 400.238576,330 403,330 Z" id="Detail" fill="#FFFFFF"></path>
                <path d="M560,330 L670,330 C672.761424,330 675,332.238576 675,335 C675,337.761424 672.761424,340 670,340 L560,340 C557.238576,340 555,337.761424 555,335 C555,332.238576 557.238576,330 560,330 Z" id="Detail" fill="#FFFFFF"></path>
                <path d="M89,350 L149,350 C151.761424,350 154,352.238576 154,355 C154,357.761424 151.761424,360 149,360 L89,360 C86.2385763,360 84,357.761424 84,355 C84,352.238576 86.2385763,350 89,350 Z" id="Detail" fill="#FFFFFF"></path>
                <path d="M89,118 L589,118 C591.761424,118 594,120.238576 594,123 C594,125.761424 591.761424,128 589,128 L89,128 C86.2385763,128 84,125.761424 84,123 C84,120.238576 86.2385763,118 89,118 Z" id="Detail" fill="#F2F5F9"></path>
                <path d="M89,138 L539,138 C541.761424,138 544,140.238576 544,143 C544,145.761424 541.761424,148 539,148 L89,148 C86.2385763,148 84,145.761424 84,143 C84,140.238576 86.2385763,138 89,138 Z" id="Detail" fill="#F2F5F9"></path>
                <path d="M246,350 L306,350 C308.761424,350 311,352.238576 311,355 C311,357.761424 308.761424,360 306,360 L246,360 C243.238576,360 241,357.761424 241,355 C241,352.238576 243.238576,350 246,350 Z" id="Detail" fill="#FFFFFF"></path>
                <path d="M403,350 L463,350 C465.761424,350 468,352.238576 468,355 C468,357.761424 465.761424,360 463,360 L403,360 C400.238576,360 398,357.761424 398,355 C398,352.238576 400.238576,350 403,350 Z" id="Detail" fill="#FFFFFF"></path>
                <path d="M560,350 L620,350 C622.761424,350 625,352.238576 625,355 C625,357.761424 622.761424,360 620,360 L560,360 C557.238576,360 555,357.761424 555,355 C555,352.238576 557.238576,350 560,350 Z" id="Detail" fill="#FFFFFF"></path>
                <circle id="Detail" fill="#D6DFEA" cx="728.5" cy="44.5" r="9.5"></circle>
                <circle id="Detail" fill="#D6DFEA" cx="757.5" cy="44.5" r="9.5"></circle>
                <path d="M244,183 L375,183 C376.656854,183 378,184.343146 378,186 L378,317 C378,318.656854 376.656854,320 375,320 L244,320 C242.343146,320 241,318.656854 241,317 L241,186 C241,184.343146 242.343146,183 244,183 Z" id="Detail" fill="#464D89"></path>
                <path d="M300,234.868517 L300,267.131483 C300,267.683768 300.447715,268.131483 301,268.131483 C301.197425,268.131483 301.390433,268.073045 301.5547,267.963533 L325.751925,251.83205 C326.211453,251.525698 326.335627,250.904828 326.029275,250.4453 C325.95604,250.335448 325.861777,250.241185 325.751925,250.16795 L301.5547,234.036467 C301.095172,233.730114 300.474302,233.854288 300.16795,234.313817 C300.058438,234.478084 300,234.671092 300,234.868517 Z" id="Detail" fill="#F2F5F9"></path>
                <path d="M401,183 L532,183 C533.656854,183 535,184.343146 535,186 L535,317 C535,318.656854 533.656854,320 532,320 L401,320 C399.343146,320 398,318.656854 398,317 L398,186 C398,184.343146 399.343146,183 401,183 Z" id="Detail" fill="#464D89"></path>
                <path d="M457,234.868517 L457,267.131483 C457,267.683768 457.447715,268.131483 458,268.131483 C458.197425,268.131483 458.390433,268.073045 458.5547,267.963533 L482.751925,251.83205 C483.211453,251.525698 483.335627,250.904828 483.029275,250.4453 C482.95604,250.335448 482.861777,250.241185 482.751925,250.16795 L458.5547,234.036467 C458.095172,233.730114 457.474302,233.854288 457.16795,234.313817 C457.058438,234.478084 457,234.671092 457,234.868517 Z" id="Detail" fill="#F2F5F9"></path>
                <path d="M558,183 L689,183 C690.656854,183 692,184.343146 692,186 L692,317 C692,318.656854 690.656854,320 689,320 L558,320 C556.343146,320 555,318.656854 555,317 L555,186 C555,184.343146 556.343146,183 558,183 Z" id="Detail" fill="#464D89"></path>
                <path d="M614,234.868517 L614,267.131483 C614,267.683768 614.447715,268.131483 615,268.131483 C615.197425,268.131483 615.390433,268.073045 615.5547,267.963533 L639.751925,251.83205 C640.211453,251.525698 640.335627,250.904828 640.029275,250.4453 C639.95604,250.335448 639.861777,250.241185 639.751925,250.16795 L615.5547,234.036467 C615.095172,233.730114 614.474302,233.854288 614.16795,234.313817 C614.058438,234.478084 614,234.671092 614,234.868517 Z" id="Detail" fill="#F2F5F9"></path>
                <path d="M0,388 L776,388 L776,432 C776,437.522847 771.522847,442 766,442 L10,442 C4.4771525,442 6.76353751e-16,437.522847 0,432 L0,388 Z" id="Detail" fill="#F2F5F9"></path>
                <rect id="Detail" fill="#F2F5F9" x="0" y="388" width="776" height="6"></rect>
                <rect id="Detail" fill="#C74D75" x="0" y="388" width="500" height="6"></rect>
                <path d="M14,403 L166,403 C168.761424,403 171,405.238576 171,408 C171,410.761424 168.761424,413 166,413 L14,413 C11.2385763,413 9,410.761424 9,408 C9,405.238576 11.2385763,403 14,403 Z" id="Detail" fill="#D6DFEA"></path>
                <circle id="Detail" fill="#C74D75" cx="504" cy="391" r="7"></circle>
                <circle id="Detail" fill="#C74D75" cx="388" cy="418" r="18"></circle>
                <path d="M426,409.868517 L426,426.131483 C426,426.683768 426.447715,427.131483 427,427.131483 C427.197425,427.131483 427.390433,427.073045 427.5547,426.963533 L439.751925,418.83205 C440.211453,418.525698 440.335627,417.904828 440.029275,417.4453 C439.95604,417.335448 439.861777,417.241185 439.751925,417.16795 L427.5547,409.036467 C427.095172,408.730114 426.474302,408.854288 426.16795,409.313817 C426.058438,409.478084 426,409.671092 426,409.868517 Z" id="Detail" fill="#C74D75"></path>
                <path d="M335,409.868517 L335,426.131483 C335,426.683768 335.447715,427.131483 336,427.131483 C336.197425,427.131483 336.390433,427.073045 336.5547,426.963533 L348.751925,418.83205 C349.211453,418.525698 349.335627,417.904828 349.029275,417.4453 C348.95604,417.335448 348.861777,417.241185 348.751925,417.16795 L336.5547,409.036467 C336.095172,408.730114 335.474302,408.854288 335.16795,409.313817 C335.058438,409.478084 335,409.671092 335,409.868517 Z" id="Detail" fill="#C74D75" transform="translate(342.500000, 418.000000) scale(-1, 1) translate(-342.500000, -418.000000) "></path>
                <path d="M14,423 L98,423 C100.761424,423 103,425.238576 103,428 C103,430.761424 100.761424,433 98,433 L14,433 C11.2385763,433 9,430.761424 9,428 C9,425.238576 11.2385763,423 14,423 Z" id="Detail" fill="#D6DFEA"></path>
                <rect id="Detail" fill="#C74D75" x="444" y="409" width="3" height="18" rx="1.5"></rect>
                <circle id="Detail" fill="#D6DFEA" cx="757.5" cy="417.5" r="9.5"></circle>
                <rect id="Detail" fill="#C74D75" x="329" y="409" width="3" height="18" rx="1.5"></rect>
                <path d="M383,409.868517 L383,426.131483 C383,426.683768 383.447715,427.131483 384,427.131483 C384.197425,427.131483 384.390433,427.073045 384.5547,426.963533 L396.751925,418.83205 C397.211453,418.525698 397.335627,417.904828 397.029275,417.4453 C396.95604,417.335448 396.861777,417.241185 396.751925,417.16795 L384.5547,409.036467 C384.095172,408.730114 383.474302,408.854288 383.16795,409.313817 C383.058438,409.478084 383,409.671092 383,409.868517 Z" id="Detail" fill="#F2F5F9"></path>
                <path d="M87,183 L218,183 C219.656854,183 221,184.343146 221,186 L221,317 C221,318.656854 219.656854,320 218,320 L87,320 C85.3431458,320 84,318.656854 84,317 L84,186 C84,184.343146 85.3431458,183 87,183 Z" id="Detail" fill="#464D89"></path>
                <path d="M143,234.868517 L143,267.131483 C143,267.683768 143.447715,268.131483 144,268.131483 C144.197425,268.131483 144.390433,268.073045 144.5547,267.963533 L168.751925,251.83205 C169.211453,251.525698 169.335627,250.904828 169.029275,250.4453 C168.95604,250.335448 168.861777,250.241185 168.751925,250.16795 L144.5547,234.036467 C144.095172,233.730114 143.474302,233.854288 143.16795,234.313817 C143.058438,234.478084 143,234.671092 143,234.868517 Z" id="Detail" fill="#F2F5F9"></path>
            </g>
        </g>
    </g>
</svg>