<?xml version="1.0" encoding="UTF-8"?>
<svg width="760px" height="760px" viewBox="0 0 760 760" version="1.1" xmlns="http://www.w3.org/2000/svg" xmlns:xlink="http://www.w3.org/1999/xlink">
    <!-- Generator: Sketch 51 (57462) - http://www.bohemiancoding.com/sketch -->
    <title>Scan</title>
    <desc>Created with Sketch.</desc>
    <defs>
        <linearGradient x1="50%" y1="0%" x2="50%" y2="100%" id="linearGradient-1">
            <stop stop-color="#FFC62C" stop-opacity="0" offset="0%"></stop>
            <stop stop-color="#FF6663" stop-opacity="0.1" offset="100%"></stop>
        </linearGradient>
        <path d="M9.94117647,0 L169,0 L159.058824,192.872727 C158.096765,237.178922 121.243323,272 77.0441176,272 C34.2370381,272 5.13641547e-15,238.147229 0,195.345455 C-1.3882204e-16,195.242819 0.0262988858,194.098065 0,192.872727 L9.94117647,0 Z" id="path-2"></path>
        <linearGradient x1="0%" y1="84.0596594%" x2="100%" y2="0%" id="linearGradient-4">
            <stop stop-color="#000000" stop-opacity="0.1" offset="0%"></stop>
            <stop stop-color="#FF6663" stop-opacity="0" offset="100%"></stop>
        </linearGradient>
        <path d="M334.339721,307.754707 C356.561547,315.341005 371.896025,336.257103 371.488579,359.253757 C371.027455,386.105121 354.555682,407.359003 332.679687,414.044325 C319.467643,489.296138 230.59649,547.552277 182.029404,547.552277 C129.472913,547.552277 29.7190863,479.332497 29.7190863,395.179132 C34.6722674,356.311037 37.1488579,335.405423 37.1488579,332.462289 C37.1488579,329.519156 34.6722674,307.479493 29.7190863,266.343302 C29.7190863,182.189938 97.9107382,113.970157 182.029404,113.970157 C266.148069,113.970157 334.339721,182.189938 334.339721,266.343302 L334.339721,307.754707 Z" id="path-5"></path>
        <linearGradient x1="50%" y1="0%" x2="50%" y2="100%" id="linearGradient-6">
            <stop stop-color="#1F1845" stop-opacity="0" offset="0%"></stop>
            <stop stop-color="#000000" stop-opacity="0.2" offset="100%"></stop>
        </linearGradient>
        <path d="M333.896369,455.857924 L336.816312,398.89555 L334.339721,356.450666 C309.230052,342.498486 292.237682,315.697148 292.237682,284.925393 C292.237682,278.06045 293.083396,271.393115 294.67628,265.021972 C293.457509,265.076792 292.231682,265.104496 290.999387,265.104496 C249.549293,265.104496 215.417198,233.759489 210.995002,193.470609 C198.542981,199.674805 184.502043,203.164193 169.646451,203.164193 C147.565346,203.164193 127.284085,195.454963 111.345286,182.580167 C104.336499,186.233411 96.3687979,188.298521 87.9189637,188.298521 C76.5941206,188.298521 66.135312,184.589056 57.6903479,178.31841 C45.2148094,195.923194 36.3812026,216.292867 32.2878219,238.328678 C12.5321702,221.513831 0,196.459854 0,168.477624 C0,120.825264 36.3438104,81.6649578 82.8137961,77.2251545 C96.1258979,42.2182596 129.982441,17.3432848 169.646451,17.3432848 C186.212404,17.3432848 201.765318,21.682411 215.23153,29.286558 C235.243042,11.0903439 261.826604,0 290.999387,0 C350.843565,0 399.791994,46.6694957 403.463237,105.61287 C447.267347,113.664393 480.458562,152.05897 480.458562,198.208969 C480.458562,224.085977 470.023192,247.524667 453.132778,264.543073 C454.803982,271.058739 455.692657,277.888243 455.692657,284.925393 C455.692657,312.068057 442.47196,336.121588 422.12135,350.992689 C423.025335,356.087586 423.49698,361.331987 423.49698,366.686593 C423.49698,415.267739 382.264577,454.777396 333.896369,455.857924 Z" id="path-7"></path>
        <linearGradient x1="64.0162101%" y1="22.9658099%" x2="0%" y2="100%" id="linearGradient-8">
            <stop stop-color="#000000" stop-opacity="0.1" offset="0%"></stop>
            <stop stop-color="#FF6663" stop-opacity="0" offset="100%"></stop>
        </linearGradient>
        <linearGradient x1="54.6753109%" y1="100%" x2="54.6753109%" y2="-6.88367696%" id="linearGradient-9">
            <stop stop-color="#C74D75" stop-opacity="0" offset="0%"></stop>
            <stop stop-color="#AF3B6E" stop-opacity="0.2" offset="100%"></stop>
        </linearGradient>
        <linearGradient x1="53.5251615%" y1="0%" x2="50%" y2="100%" id="linearGradient-10">
            <stop stop-color="#C74D75" stop-opacity="0" offset="0%"></stop>
            <stop stop-color="#AF3B6E" stop-opacity="0.2" offset="100%"></stop>
        </linearGradient>
        <path d="M692.912306,367 L67.0876996,367 C61.6867972,379.361334 49.3522329,388 35,388 C15.6700338,388 0,372.329966 0,353 C0,333.670034 15.6700338,318 35,318 C49.3522329,318 61.6867972,326.638666 67.0876938,338.999999 L692.912306,339 C698.313202,326.638667 710.647767,318 725,318 C744.329966,318 760,333.670034 760,353 C760,372.329966 744.329966,388 725,388 C710.647767,388 698.313202,379.361333 692.912306,367 Z" id="path-11"></path>
    </defs>
    <g id="Handsome" stroke="none" stroke-width="1" fill="none" fill-rule="evenodd">
        <g id="Primary" transform="translate(-1250.000000, -2659.000000)">
            <g id="Scan" transform="translate(1250.000000, 2659.000000)">
                <path d="M562.5,30 C554.215729,30 547.5,23.2842712 547.5,15 C547.5,6.71572875 554.215729,0 562.5,0 L715,0 C739.852814,0 760,20.1471863 760,45 L760,197.5 C760,205.784271 753.284271,212.5 745,212.5 C736.715729,212.5 730,205.784271 730,197.5 L730,45 C730,36.7157288 723.284271,30 715,30 L562.5,30 Z M730,562.5 C730,554.215729 736.715729,547.5 745,547.5 C753.284271,547.5 760,554.215729 760,562.5 L760,715 C760,739.852814 739.852814,760 715,760 L562.5,760 C554.215729,760 547.5,753.284271 547.5,745 C547.5,736.715729 554.215729,730 562.5,730 L715,730 C723.284271,730 730,723.284271 730,715 L730,562.5 Z M197.5,730 C205.784271,730 212.5,736.715729 212.5,745 C212.5,753.284271 205.784271,760 197.5,760 L45,760 C20.1471863,760 1.42108547e-14,739.852814 1.42108547e-14,715 L1.42108547e-14,562.5 C1.42108547e-14,554.215729 6.71572875,547.5 15,547.5 C23.2842712,547.5 30,554.215729 30,562.5 L30,715 C30,723.284271 36.7157288,730 45,730 L197.5,730 Z M30,197.5 C30,205.784271 23.2842712,212.5 15,212.5 C6.71572875,212.5 0,205.784271 0,197.5 L0,45 C0,20.1471863 20.1471863,0 45,0 L197.5,0 C205.784271,0 212.5,6.71572875 212.5,15 C212.5,23.2842712 205.784271,30 197.5,30 L45,30 C36.7157288,30 30,36.7157288 30,45 L30,197.5 Z" id="Detail" fill="#393E41" fill-rule="nonzero"></path>
                <g id="Face" transform="translate(140.000000, 45.000000)">
                    <g id="Neck" transform="translate(170.000000, 398.000000)">
                        <mask id="mask-3" fill="white">
                            <use xlink:href="#path-2"></use>
                        </mask>
                        <g>
                            <use fill="#FFC62C" xlink:href="#path-2"></use>
                            <use fill="url(#linearGradient-1)" xlink:href="#path-2"></use>
                        </g>
                        <path d="M161.044776,96.3857143 C128.402587,141.99565 71.3770837,173 34.6865672,173 C25.4007379,173 13.05622,170.302645 0,165.585714 L7.43283582,0 L166,0 L161.044776,96.3857143 Z" id="Sh" fill="url(#linearGradient-4)" mask="url(#mask-3)"></path>
                    </g>
                    <g>
                        <use fill="#FFC62C" xlink:href="#path-5"></use>
                        <use fill="url(#linearGradient-1)" xlink:href="#path-5"></use>
                    </g>
                    <g id="Hair">
                        <use fill="#1F1845" xlink:href="#path-7"></use>
                        <use fill="url(#linearGradient-6)" xlink:href="#path-7"></use>
                    </g>
                    <path d="M298.072752,314.608422 C295.774998,314.640545 291.94151,314.656739 290.999387,314.656739 C249.549293,314.656739 215.417198,283.311731 210.995002,243.022852 C198.542981,249.227047 184.502043,252.716436 169.646451,252.716436 C147.565346,252.716436 127.284085,245.007205 111.345286,232.132409 C104.336499,235.785653 96.3687979,237.850763 87.9189637,237.850763 C76.5941206,237.850763 66.135312,234.141298 57.6903479,227.870653 C45.2179662,245.470982 36.3856734,265.8348 32.2909302,287.864192 C31.5243691,281.390089 30.6670878,274.216459 29.7190863,266.343302 C29.7190863,233.550966 40.0736777,203.178072 57.6903543,178.318401 C66.135312,184.589056 76.5941206,188.298521 87.9189637,188.298521 C96.3687979,188.298521 104.336499,186.233411 111.345286,182.580167 C127.284085,195.454963 147.565346,203.164193 169.646451,203.164193 C184.502043,203.164193 198.542981,199.674805 210.995002,193.470609 C215.417198,233.759489 249.549293,265.104496 290.999387,265.104496 C292.231682,265.104496 293.457509,265.076792 294.67628,265.021972 C293.083396,271.393115 294.136218,278.355363 294.67628,285.214884 C297.114878,316.188366 298.780455,314.598528 298.072752,314.608422 Z" id="Sh" fill="url(#linearGradient-8)"></path>
                </g>
                <rect id="Bg" fill="url(#linearGradient-9)" x="0" y="351" width="760" height="389"></rect>
                <g id="Detail">
                    <use fill="#FF6663" xlink:href="#path-11"></use>
                    <use fill="url(#linearGradient-10)" xlink:href="#path-11"></use>
                </g>
            </g>
        </g>
    </g>
</svg>