<?xml version="1.0" encoding="UTF-8"?>
<svg width="498px" height="819px" viewBox="0 0 498 819" version="1.1" xmlns="http://www.w3.org/2000/svg" xmlns:xlink="http://www.w3.org/1999/xlink">
    <!-- Generator: Sketch 51 (57462) - http://www.bohemiancoding.com/sketch -->
    <title>Selfie</title>
    <desc>Created with Sketch.</desc>
    <defs>
        <linearGradient x1="50%" y1="0%" x2="50%" y2="100%" id="linearGradient-1">
            <stop stop-color="#FFC62C" stop-opacity="0" offset="0%"></stop>
            <stop stop-color="#FF6663" stop-opacity="0.3" offset="100%"></stop>
        </linearGradient>
        <path d="M223.383201,84.4012433 C223.383201,61.5067906 199.645307,22.5378385 204.476242,19.1522584 C214.722675,11.971429 230.590271,44.2597156 234.270654,53.6860339 C237.951038,63.1123521 221.825514,0.155484405 229.288396,0.155484405 C241.802693,0.155484405 246.591074,38.0853364 246.591074,43.1995414 C246.591074,48.3137464 261.966639,30.3341233 278.414646,46.693722 C294.862654,63.0533206 223.383201,87.5641339 223.383201,84.4012433 Z" id="path-2"></path>
        <linearGradient x1="50%" y1="0%" x2="50%" y2="100%" id="linearGradient-3">
            <stop stop-color="#A7A7EE" stop-opacity="0" offset="0%"></stop>
            <stop stop-color="#4C55A0" stop-opacity="0.2" offset="100%"></stop>
        </linearGradient>
        <path d="M135.432432,339.25 C141.588079,343.688062 158.010086,341.322051 167.864865,345.5 C180.019871,349.914597 192.061667,374.665579 173.27027,378 C153.577408,379.366041 124.569277,374.665579 112.72973,369.25 C100.739761,364.294335 102.799946,349.332741 104.081081,338 C107.722115,340.376815 113.182731,341.554215 120.297297,341.75 C126.727475,341.554215 131.805155,340.719564 135.432432,339.25 Z" id="path-4"></path>
        <path d="M50.2047483,338 C49.1934725,342.45068 49.2210607,348.359973 51.3723006,355.758757 C53.7298041,369.313381 39.2053083,403.120245 18.6808366,400.155648 C-2.68469107,396.291509 -4.48021535,369.313381 7.00531372,359.088524 C16.7567354,350.878657 18.1366942,345.808689 18.6808366,339.109922 C22.1094671,339.914768 26.7942303,340.408358 32.691464,340.219845 C39.7408128,340.408358 45.4379431,339.602701 50.2047483,338 Z" id="path-5"></path>
        <linearGradient x1="50%" y1="0%" x2="50%" y2="100%" id="linearGradient-6">
            <stop stop-color="#403F9F" stop-opacity="0" offset="0%"></stop>
            <stop stop-color="#000000" stop-opacity="0.2" offset="100%"></stop>
        </linearGradient>
        <path d="M14,26 C28.6785775,-18.1581044 110.456162,2.13161681 124,26 C133.964464,42.8985128 139.655224,141.045485 156,329 C153.463356,338.939495 143.987288,344.599314 128,346 C111.156308,348.249774 100.692823,345.733059 96,339 L75,122 L62,336 C61.0277002,343.004167 51.057924,346.424544 33,346 C13.9440804,346.424544 3.97430418,343.004167 3,336 C2.59167367,171.604583 -5.16562988,81.2211636 14,26 Z" id="path-7"></path>
        <path d="M64,1 C8.20312458,7.97196588 1.19197213e-15,117.24551 0,139 C0,161.101595 111,156.431397 111,139 C111,128.032259 121.333333,88.3655924 142,20 C127.224294,3.3736714 101.224294,-2.95966194 64,1 Z" id="path-9"></path>
        <linearGradient x1="0%" y1="0%" x2="100%" y2="100%" id="linearGradient-11">
            <stop stop-color="#464D89" stop-opacity="0.3" offset="0%"></stop>
            <stop stop-color="#A7A7EE" stop-opacity="0" offset="100%"></stop>
        </linearGradient>
        <linearGradient x1="50%" y1="0%" x2="50%" y2="100%" id="linearGradient-12">
            <stop stop-color="#403F9F" stop-opacity="0" offset="0%"></stop>
            <stop stop-color="#000000" stop-opacity="0.1" offset="100%"></stop>
        </linearGradient>
        <path d="M298.552238,722.786083 C309.434067,727.966693 330.081295,756.615877 322.919866,772.967381 C315.011847,791.023554 282.999856,780.420274 275.275554,769.040091 C267.551252,757.659908 271.648016,727.113094 271.455505,721.488447 C278.702321,725.822932 290.917116,730.617434 298.552238,722.786083 Z" id="path-13"></path>
        <path d="M393.722129,722.786083 C404.603958,727.966693 434.764575,747.198354 427.603146,763.549859 C419.695127,781.606032 382.926441,771.002752 375.202139,759.622568 C367.477838,748.242385 362.061212,727.113094 361.868701,721.488447 C369.115517,725.822932 386.087007,730.617434 393.722129,722.786083 Z" id="path-14"></path>
        <linearGradient x1="50%" y1="0%" x2="50%" y2="100%" id="linearGradient-15">
            <stop stop-color="#1F1845" stop-opacity="0" offset="0%"></stop>
            <stop stop-color="#000000" stop-opacity="0.2" offset="100%"></stop>
        </linearGradient>
        <path d="M295.496867,49.4148819 C179.508993,49.4148819 199,173.988903 199,219 C199,263.687787 207.211942,362.214638 270.474683,367.94858 C333.435175,374.311609 367.984674,354.235656 377.325563,299.368019 C387.562443,244.91377 411.48474,49.4148819 295.496867,49.4148819 Z" id="path-16"></path>
        <linearGradient x1="50%" y1="0%" x2="50%" y2="100%" id="linearGradient-17">
            <stop stop-color="#FF6663" stop-opacity="0" offset="0%"></stop>
            <stop stop-color="#000000" stop-opacity="0.05" offset="100%"></stop>
        </linearGradient>
        <path d="M488.835339,123.22013 C488.026518,129.279803 487.414738,134.873093 487,140 C464.589719,144.032197 455.589719,141.698864 460,133 C466.521348,121.829739 467.15001,124.287093 464.837113,119.724908 C466.481015,119.293142 468.036774,118.436037 469.330176,117.1529 L476.651834,109.88935 C479.321545,97.8574065 488.114964,86.756297 483.65172,82.8238743 C478.423205,78.2171954 474.954467,89.0522159 464.721408,82.8238743 C454.48835,76.5955327 450.419217,52.313193 457.686063,46.9355617 C464.952908,41.5579304 483.058854,48.7154149 488.673202,52.313193 C494.287551,55.9109711 492.828912,78.1981595 496.984622,89.4102829 C501.140331,100.622406 490.94966,105.239411 489,122 C488.950843,122.422588 488.895847,122.829195 488.835339,123.22013 Z" id="path-18"></path>
        <path d="M377,399 C398.405763,454.590675 402.447862,686.488253 401.153371,712.254417 C400.912981,736.814131 360.900021,730.522355 355.489104,722.613692 C350.812397,713.45836 328.438602,483.256781 323.025303,483.297386 C317.873218,483.256781 313.787432,708.549026 308.873498,722.613692 C302.469797,735.431689 270.772829,732.329523 266.063247,722.613692 C259.438328,711.651192 226.162128,479.575451 262,399 C265.913831,390.200406 372.04039,386.119914 377,399 Z" id="path-19"></path>
        <path d="M141,115 C153.834907,102.932788 219.02659,96.5176866 235,77 C238.951145,61.4978117 259.965989,16.2454844 269,5 C276.768463,-5.23366991 296,1.90013643 296,12 C296,22.1113174 278.336248,100.262095 265,113 C252.877808,123.726582 215.590946,143.496327 195,156 C195.310348,161.78135 194.78043,168.853542 194,177 C185.655856,234.129041 178.280653,234.129041 186,271 C193.668385,309.102817 57.4197647,293.549833 71,271 C84.5802353,248.450167 86.4067355,232.670448 82,218 C80.5725847,210.329702 73.4308646,197.115955 69,183 C41.9522209,173.301746 4.27249757,167.15275 1,162 C-1.27966303,156.075796 15.8503709,129.89895 27,129 C38.2725553,127.596758 82.550984,122.37737 111,119 C114.346762,117.683527 140.430474,116.227698 141,115 Z" id="path-20"></path>
        <linearGradient x1="0%" y1="0%" x2="100%" y2="100%" id="linearGradient-22">
            <stop stop-color="#000000" stop-opacity="0.288581295" offset="0%"></stop>
            <stop stop-color="#3E3D9C" stop-opacity="0" offset="100%"></stop>
        </linearGradient>
        <path d="M1.01031572,158.894739 C2.93410286,149.891857 17.2524813,129.785904 27,129 C32.3031219,128.339851 44.911067,126.835117 59.7391807,125.074917 C54.0949293,136.428344 44.0098997,147.605502 27,154 C17.9708878,157.470472 9.25731784,158.992462 1.01031572,158.894739 Z" id="path-23"></path>
        <path d="M33,136 C32.5004906,143.592433 23.7170953,151.545096 20,152 C16.1082566,151.545096 19.7653668,136.337477 13,136 C5.30344961,136.337477 -4.07727215,155.690515 2,168 C7.88467142,180.282945 26.0570225,184.124756 40,178 C54.2737729,172.675712 57,143.314436 57,136 C57,129.360518 32.5004906,129.082521 33,136 Z" id="path-25"></path>
        <path d="M120,0 C90.0427398,-1.12504608e-13 4,23.6479101 4,44 C4,64.7098486 33.4448705,127.14713 33,136 C33.4448705,144.628875 57.0248016,140.392601 57,136 C57.0248016,131.383405 49.3117983,73.4296533 44,68 C38.4601836,62.7089648 74.7479342,72.8893369 91,63 C107.182205,53.2517583 151.238267,1.13332402e-13 120,0 Z" id="path-26"></path>
        <path d="M0.0316729077,0.349967994 L40.9392456,0.349967994 L40.9392456,35.5760597 C40.9392456,46.872374 31.7817735,56.0298461 20.4854593,56.0298461 L20.4854593,56.0298461 C9.18914498,56.0298461 0.0316729077,46.872374 0.0316729077,35.5760597 L0.0316729077,0.349967994 Z" id="path-27"></path>
        <linearGradient x1="100%" y1="0%" x2="0%" y2="100%" id="linearGradient-28">
            <stop stop-color="#000000" stop-opacity="0.3" offset="0%"></stop>
            <stop stop-color="#FF6663" stop-opacity="0" offset="100%"></stop>
        </linearGradient>
        <path d="M8.5620501,67.8061618 C8.64360937,56.1761478 6.88556829e-12,52.5742483 0,45.2041079 C-6.74572763e-12,37.4275795 7.87527118,34.2554853 12.1094651,39.2341946 C12.1936105,39.0240347 12.2796009,38.8165635 12.3674057,38.6118421 C16.2071264,30.3866582 16.4512517,34.8599252 44.9779411,26.8878697 C74.2044342,16.4282174 83.6057776,-6.93615989 107.356078,3.27905461 C107.483119,7.59481855 111.929643,21.2679455 114.295562,31.2875858 C115.328031,35.660083 123.768773,41.3363792 125.612511,61.1024132 C127.456249,80.8684472 112.883754,107.954737 82.4681711,114.071665 C64.5675477,117.671689 30.9848524,111.259995 15.5076342,79.8518927 C12.0192863,79.5720849 8.62264539,76.1903958 8.5620501,67.8061618 Z" id="path-29"></path>
        <linearGradient x1="87.6734232%" y1="11.5934517%" x2="0%" y2="100%" id="linearGradient-31">
            <stop stop-color="#000000" stop-opacity="0.2" offset="0%"></stop>
            <stop stop-color="#FF6663" stop-opacity="0" offset="100%"></stop>
        </linearGradient>
        <path d="M0,0.0551640944 L36.1508782,0.0551640944 L36.1508782,27.5431076 C36.1508782,37.5258969 28.0582285,45.6185467 18.0754391,45.6185467 L18.0754391,45.6185467 C8.09264974,45.6185467 8.32796646e-15,37.5258969 7.10542736e-15,27.5431076 L0,0.0551640944 Z" id="path-32"></path>
        <linearGradient x1="100%" y1="0%" x2="0%" y2="100%" id="linearGradient-34">
            <stop stop-color="#000000" stop-opacity="0.2" offset="0%"></stop>
            <stop stop-color="#FFC42C" stop-opacity="0" offset="100%"></stop>
        </linearGradient>
        <path d="M9.59964238,0 C-16.0402239,16.0991679 15.8327439,49.1532861 33.6530465,74.9955409 C34.8261215,76.6966849 55.3133428,71.8488162 54.3872324,67.5494098 C52.2393747,57.5781224 52.604922,46.4213956 45.2507131,31.4362367 C34.7255262,9.98979708 33.5954591,7.9902265 9.59964238,0 Z" id="path-35"></path>
        <path d="M54.3872324,67.5494098 C55.3133428,71.8488162 56.7067329,75.9278316 59.3877197,79.9983252 C68.2865158,93.5092062 78.3598213,118.003951 68.3825143,134.561733 C58.4052073,151.119515 39.5217194,147.866599 35.5129135,134.561733 C31.5041075,121.256867 53.6601119,106.41812 36.9691726,79.9983252 C35.9383016,78.3665776 34.8261215,76.6966849 33.6530465,74.9955409 C34.8261215,76.6966849 55.3133428,71.8488162 54.3872324,67.5494098 Z" id="path-36"></path>
        <path d="M1,110 C-3.92371201,96.1033684 7.63384536,88.2258871 13,88 C2.07382849,64.8949443 -1.99510907,34.2673602 37,10 C75.7622125,-14.2384198 108.900362,9.19132827 122,42 C133.400256,70.3689378 143.56125,79.371461 143,95 C142.39052,110.780251 133.877872,136.768071 104,148 C73.4284566,159.750621 46.4743608,149.16342 29,129 C17.2190145,133.832727 6.52299228,123.057824 1,110 Z" id="path-37"></path>
        <linearGradient x1="100%" y1="0%" x2="0%" y2="100%" id="linearGradient-39">
            <stop stop-color="#000000" stop-opacity="0.3" offset="0%"></stop>
            <stop stop-color="#FFC42C" stop-opacity="0" offset="100%"></stop>
        </linearGradient>
        <linearGradient x1="50%" y1="0%" x2="50%" y2="100%" id="linearGradient-40">
            <stop stop-color="#403F9F" stop-opacity="0" offset="0%"></stop>
            <stop stop-color="#000000" stop-opacity="0.3" offset="100%"></stop>
        </linearGradient>
        <path d="M226.517094,139.705499 C231.632279,143.350945 235,149.327828 235,156 C235,162.105475 232.505396,167.413126 228.127129,171.113489 C227.424514,169.480836 226.714692,167.778475 226,166 C223.842465,160.596351 221.141352,155.447121 217.961061,150.723379 C212.991796,154.671806 206.730653,157.031404 200,157.031404 C196.78661,157.031404 193.704491,156.555717 190.821072,155.674111 C184.95292,162.205336 176.712033,166.690514 167.413277,167.780085 C162.613286,181.045036 151.564603,191.464451 137.927239,195.376463 C137.975408,195.928441 138,196.48718 138,197.051665 C138,207.55039 129.49341,216.061288 119,216.061288 C116.162974,216.061288 113.471177,215.439176 111.053454,214.323863 C107.650071,216.602451 104.403905,220.556087 103.87991,226 C90.1718873,218.398523 81,203.939164 81,187.0466 C81,181.026006 82.239472,175.273842 84.4874401,170.029812 C82.2388154,164.784473 81,159.036116 81,153.029378 C81,127.940005 100.923329,108.006585 126,108.006585 C128.771219,108.006585 131.487415,108.270662 134.124541,108.776283 C140.905578,100.340808 151.320859,95 163,95 C171.463274,95 179.262876,97.8045421 185.496815,102.558915 C189.774767,100.291441 194.70947,99.0020261 200,99.0020261 C215.7924,99.0020261 229,111.992345 229,128.016715 C229,132.175325 228.110475,136.129592 226.517094,139.705499 Z" id="path-41"></path>
    </defs>
    <g id="Handsome" stroke="none" stroke-width="1" fill="none" fill-rule="evenodd">
        <g id="Primary" transform="translate(-1381.000000, -1471.000000)">
            <g id="Selfie" transform="translate(1381.000000, 1471.000000)">
                <g id="Hand-R">
                    <use fill="#FFC62C" xlink:href="#path-2"></use>
                    <use fill="url(#linearGradient-1)" xlink:href="#path-2"></use>
                </g>
                <path d="M0.762307873,780.614038 C21.3689071,727.134634 206.681779,696 334.139597,696 C461.84601,696 550.368006,751.470962 435.527535,788.111485 C321.352709,824.766677 -18.1861768,833.943649 0.762307873,780.614038 Z" id="Sh" fill="#F0F0F6"></path>
                <g id="Legs" transform="translate(72.000000, 394.000000)">
                    <g id="Leg-L">
                        <use fill="#A7A7EE" xlink:href="#path-4"></use>
                        <use fill="url(#linearGradient-3)" xlink:href="#path-4"></use>
                    </g>
                    <g id="Leg-R">
                        <use fill="#A7A7EE" xlink:href="#path-5"></use>
                        <use fill="url(#linearGradient-3)" xlink:href="#path-5"></use>
                    </g>
                    <mask id="mask-8" fill="white">
                        <use xlink:href="#path-7"></use>
                    </mask>
                    <g>
                        <use fill="#464D89" xlink:href="#path-7"></use>
                        <use fill="url(#linearGradient-6)" xlink:href="#path-7"></use>
                    </g>
                    <path d="M76.4579342,149.84755 C76.4579342,150.399835 76.0102189,150.84755 75.4579342,150.84755 C74.9056494,150.84755 74.4579342,150.399835 74.4579342,149.84755 C74.4579342,147.8066 74.4405409,146.956057 74.2911669,140.73929 C74.1051153,132.996043 74.0627719,128.259046 74.2066824,123.082858 C74.6818174,105.993159 77.2551308,94.8998892 83.3020425,90.5493108 C83.7503529,90.2267644 84.3752559,90.3287163 84.6978023,90.7770267 C85.0203487,91.2253372 84.9183968,91.8502401 84.4700864,92.1727865 C79.1434177,96.0051709 76.6629939,106.698004 76.2059099,123.138441 C76.0632192,128.270753 76.1053191,132.9805 76.2905899,140.691249 C76.4405321,146.931664 76.4579342,147.782641 76.4579342,149.84755 Z" id="Line" fill="#FFFFFF" fill-rule="nonzero" mask="url(#mask-8)"></path>
                </g>
                <g id="Group-7" transform="translate(86.000000, 281.000000)">
                    <mask id="mask-10" fill="white">
                        <use xlink:href="#path-9"></use>
                    </mask>
                    <g id="Body">
                        <use fill="#A7A7EE" xlink:href="#path-9"></use>
                        <use fill="url(#linearGradient-3)" xlink:href="#path-9"></use>
                    </g>
                    <path d="M9.92274663,68.5156171 C17.5232942,62.8710417 21.3529473,149.22508 15.2540788,158.3395 C11.1881664,164.41578 4.09399242,161.590307 -6.02844326,149.86308 C-0.461348379,99.3944884 4.85571492,72.2786674 9.92274663,68.5156171 Z" id="Sh" fill="url(#linearGradient-11)" mask="url(#mask-10)"></path>
                    <path d="M72.5996424,-15 C45.2719549,2.15894393 83.2782333,38.5785305 99.9691726,64.9983252 C116.660112,91.4181199 94.5041075,106.256867 98.5129135,119.561733 C102.521719,132.866599 121.405207,136.119515 131.382514,119.561733 C141.359821,103.003951 131.286516,78.5092062 122.38772,64.9983252 C113.488924,51.4874442 118.7759,37.8826764 108.250713,16.4362367 C97.7255262,-5.01020292 96.5954591,-7.0097735 72.5996424,-15 Z" id="Sh" fill="url(#linearGradient-11)" mask="url(#mask-10)"></path>
                </g>
                <g id="Leg-L">
                    <use fill="#403F9F" xlink:href="#path-13"></use>
                    <use fill="url(#linearGradient-12)" xlink:href="#path-13"></use>
                </g>
                <g id="Leg-R">
                    <use fill="#403F9F" xlink:href="#path-14"></use>
                    <use fill="url(#linearGradient-12)" xlink:href="#path-14"></use>
                </g>
                <g id="Hair">
                    <use fill="#1F1845" xlink:href="#path-16"></use>
                    <use fill="url(#linearGradient-15)" xlink:href="#path-16"></use>
                </g>
                <g id="Phone" transform="translate(427.000000, 4.000000)">
                    <path d="M12.9573263,22.7370761 L31.944275,3.90081744 C35.8650456,0.0111641322 42.1966451,0.0363896284 46.0862984,3.95716017 C47.465853,5.34775122 48.4066287,7.11288307 48.7918401,9.0334368 L64.0790092,85.2508943 C64.7396967,88.5448933 63.702169,91.9505258 61.3171248,94.3166411 L42.3301761,113.1529 C38.4094055,117.042553 32.077806,117.017328 28.1881527,113.096557 C26.8085981,111.705966 25.8678224,109.940834 25.482611,108.02028 L10.1954419,31.8028229 C9.5347544,28.5088239 10.5722821,25.1031914 12.9573263,22.7370761 Z" id="Detail" fill="#1F1744"></path>
                    <path d="M39.9870246,1.04983606 C37.1191406,0.763266736 34.1501533,1.71244617 31.944275,3.90081744 L12.9573263,22.7370761 C10.5722821,25.1031914 9.5347544,28.5088239 10.1954419,31.8028229 L25.482611,108.02028 C25.8678224,109.940834 26.8085981,111.705966 28.1881527,113.096557 C30.1265075,115.050419 32.6712925,116.036865 35.2219466,116.053503 C26.3859828,116.622264 20.7080515,115.636615 18.1881527,113.096557 C16.8085981,111.705966 15.8678224,109.940834 15.482611,108.02028 L0.195441876,31.8028229 C-0.465245598,28.5088239 0.572282097,25.1031914 2.95732628,22.7370761 L21.944275,3.90081744 C24.558122,1.30771524 30.576697,0.340776088 40,1 C39.9956639,1.01663531 39.9913387,1.03324733 39.9870246,1.04983606 Z" id="Detail" fill="#50467F"></path>
                </g>
                <g id="Hand-R">
                    <use fill="#FF6663" xlink:href="#path-18"></use>
                    <use fill="url(#linearGradient-17)" xlink:href="#path-18"></use>
                </g>
                <g id="Legs">
                    <use fill="#1F1845" xlink:href="#path-19"></use>
                    <use fill="url(#linearGradient-15)" xlink:href="#path-19"></use>
                </g>
                <g id="Body" transform="translate(191.000000, 128.000000)">
                    <mask id="mask-21" fill="white">
                        <use xlink:href="#path-20"></use>
                    </mask>
                    <g>
                        <use fill="#403F9F" xlink:href="#path-20"></use>
                        <use fill="url(#linearGradient-12)" xlink:href="#path-20"></use>
                    </g>
                    <path d="M152,146 C142.259331,149.408205 131.415093,142.754908 127,131 C123.490708,119.902297 127.910963,108.029892 137,105 C146.740669,101.591795 157.584907,108.245092 162,120 C165.509292,131.097703 161.089037,142.970108 152,146 Z" id="Detail" fill="#FFFFFF" mask="url(#mask-21)"></path>
                    <path d="M120,151 C110.832907,154.323117 100.080806,147.495118 96,136 C92.5407303,124.549704 97.1803918,112.776769 107,110 C116.167093,106.676883 126.919194,113.504882 131,125 C134.45927,136.450296 129.819608,148.223231 120,151 Z" id="Detail" fill="#FFFFFF" mask="url(#mask-21)"></path>
                    <mask id="mask-24" fill="white">
                        <use xlink:href="#path-23"></use>
                    </mask>
                    <use id="Sh" fill="url(#linearGradient-22)" xlink:href="#path-23"></use>
                </g>
                <g id="Leg-L" transform="translate(33.000000, 282.000000)">
                    <g>
                        <use fill="#FFC62C" xlink:href="#path-25"></use>
                        <use fill="url(#linearGradient-1)" xlink:href="#path-25"></use>
                    </g>
                    <g>
                        <use fill="#A7A7EE" xlink:href="#path-26"></use>
                        <use fill="url(#linearGradient-3)" xlink:href="#path-26"></use>
                    </g>
                </g>
                <g id="Neck" transform="translate(298.000000, 206.000000)">
                    <g>
                        <use fill="#FF6663" xlink:href="#path-27"></use>
                        <use fill="url(#linearGradient-17)" xlink:href="#path-27"></use>
                    </g>
                    <path d="M40.9392456,27.0404053 C36.0970069,29.7495835 30.6050794,31.8374615 24.4681711,33.0716652 C17.8838946,34.3958398 9.1779216,34.3654852 0.0316729077,32.2348955 L0.0316729077,0.349967994 L40.9392456,0.349967994 L40.9392456,27.0404053 Z" id="Sh" fill="url(#linearGradient-28)"></path>
                </g>
                <g id="Face" transform="translate(240.000000, 115.000000)">
                    <mask id="mask-30" fill="white">
                        <use xlink:href="#path-29"></use>
                    </mask>
                    <g>
                        <use fill="#FF6663" xlink:href="#path-29"></use>
                        <use fill="url(#linearGradient-17)" xlink:href="#path-29"></use>
                    </g>
                    <path d="M12,38 C35.3678291,40.6144573 54.0217158,38.645242 67.9616602,32.0923539 C88.8715769,22.2630219 98.3944064,16.0337757 122.873702,22.1939429 C139.193233,26.300721 134.568666,12.5694067 109,-19 L17,-5 L12,38 Z" id="Sh" fill="url(#linearGradient-31)" mask="url(#mask-30)"></path>
                </g>
                <g id="Neck" transform="translate(163.000000, 265.000000)">
                    <mask id="mask-33" fill="white">
                        <use xlink:href="#path-32"></use>
                    </mask>
                    <g>
                        <use fill="#FFC62C" xlink:href="#path-32"></use>
                        <use fill="url(#linearGradient-1)" xlink:href="#path-32"></use>
                    </g>
                    <path d="M1.26121336e-13,2.4898876 L1.24344979e-13,-9.94483591 L36.1508782,-9.94483591 L36.1508782,14.8157554 C31.6180628,15.9575492 27.1821332,16.6116496 22.8637021,16.8229279 C25.4051534,20.5571154 27.8324585,25.4710976 31.2507131,32.4362367 C41.7759,53.8826764 36.4889236,67.4874442 45.3877197,80.9983252 C54.2865158,94.5092062 64.3598213,119.003951 54.3825143,135.561733 C44.4052073,152.119515 25.5217194,148.866599 21.5129135,135.561733 C17.5041075,122.256867 39.6601119,107.41812 22.9691726,80.9983252 C6.27823331,54.5785305 -31.7280451,18.1589439 -4.40035762,1 C-2.83982166,1.51963373 -1.37599359,2.01393072 1.26121336e-13,2.4898876 Z" id="Sh" fill="url(#linearGradient-34)" mask="url(#mask-33)"></path>
                </g>
                <g id="Hand-L" transform="translate(139.000000, 266.000000)">
                    <g>
                        <use fill="#403F9F" xlink:href="#path-35"></use>
                        <use fill="url(#linearGradient-12)" xlink:href="#path-35"></use>
                    </g>
                    <g>
                        <use fill="#FF6663" xlink:href="#path-36"></use>
                        <use fill="url(#linearGradient-17)" xlink:href="#path-36"></use>
                    </g>
                </g>
                <g id="Face" transform="translate(104.000000, 124.000000)">
                    <mask id="mask-38" fill="white">
                        <use xlink:href="#path-37"></use>
                    </mask>
                    <g>
                        <use fill="#FFC62C" xlink:href="#path-37"></use>
                        <use fill="url(#linearGradient-1)" xlink:href="#path-37"></use>
                    </g>
                    <path d="M6.97254132,90.4776821 C0.99410773,53.0041341 11.0032606,26.1782401 37,10 C74.5550403,-13.4835623 106.830864,7.77821509 120.718243,38.9631633 C116.381014,41.547147 111.338175,43.031404 106,43.031404 C102.78661,43.031404 99.7044911,42.5557173 96.8210719,41.6741106 C90.9529195,48.2053362 82.7120334,52.6905138 73.4132766,53.7800849 C68.6132858,67.0450365 57.564603,77.4644506 43.9272385,81.3764633 C43.9754084,81.9284412 44,82.4871797 44,83.0516647 C44,93.55039 35.4930724,102.061288 25,102.061288 C15.4492588,102.061288 9.44010588,98.2000864 6.97254132,90.4776821 Z" id="Sh" fill="url(#linearGradient-39)" mask="url(#mask-38)"></path>
                </g>
                <g id="Hair">
                    <use fill="#464D89" xlink:href="#path-41"></use>
                    <use fill="url(#linearGradient-40)" xlink:href="#path-41"></use>
                </g>
            </g>
        </g>
    </g>
</svg>