<?xml version="1.0" encoding="UTF-8"?>
<svg width="591px" height="769px" viewBox="0 0 591 769" version="1.1" xmlns="http://www.w3.org/2000/svg" xmlns:xlink="http://www.w3.org/1999/xlink">
    <!-- Generator: Sketch 51 (57462) - http://www.bohemiancoding.com/sketch -->
    <title>Tamagotchi</title>
    <desc>Created with Sketch.</desc>
    <defs>
        <linearGradient x1="50%" y1="0%" x2="50%" y2="100%" id="linearGradient-1">
            <stop stop-color="#52C883" stop-opacity="0" offset="0%"></stop>
            <stop stop-color="#00A07D" stop-opacity="0.2" offset="100%"></stop>
        </linearGradient>
        <path d="M251.001369,31.203256 C251.160653,13.9429408 265.202052,0 282.5,0 C299.797948,0 313.839347,13.9429408 313.998631,31.203256 C455.194235,59.9017024 565,275.126949 565,420.5 C565,576.520442 438.520442,703 282.5,703 C126.479558,703 0,576.520442 0,420.5 C0,275.126949 109.805765,59.9017024 251.001369,31.203256 Z M282.5,47 C291.060414,47 298,40.0604136 298,31.5 C298,22.9395864 291.060414,16 282.5,16 C273.939586,16 267,22.9395864 267,31.5 C267,40.0604136 273.939586,47 282.5,47 Z" id="path-2"></path>
        <linearGradient x1="0%" y1="0%" x2="100%" y2="100%" id="linearGradient-4">
            <stop stop-color="#000000" stop-opacity="0.3" offset="0%"></stop>
            <stop stop-color="#52C883" stop-opacity="0" offset="100%"></stop>
        </linearGradient>
        <linearGradient x1="50%" y1="0%" x2="50%" y2="100%" id="linearGradient-5">
            <stop stop-color="#FEEC80" stop-opacity="0" offset="0%"></stop>
            <stop stop-color="#000000" stop-opacity="0.053272192" offset="100%"></stop>
        </linearGradient>
        <linearGradient x1="0%" y1="-2.82499819%" x2="100%" y2="100%" id="linearGradient-6">
            <stop stop-color="#000000" stop-opacity="0.1" offset="0%"></stop>
            <stop stop-color="#FEEC80" stop-opacity="0" offset="100%"></stop>
        </linearGradient>
        <path d="M134.386818,184.097975 L188.835192,201.592258 C192.529229,202.779154 196.576406,201.722076 199.218208,198.88033 L242.107078,152.745418 C244.838039,149.807764 249.060017,148.786112 252.831926,150.150173 L336.709768,180.483487 C338.530691,181.142 340.503634,181.257687 342.38904,180.816501 L405.653618,166.012572 C409.133651,165.198244 412.783726,166.303106 415.227962,168.910687 L464.870835,221.87112 C467.582699,224.764215 468.328912,228.986386 466.772988,232.633755 L441.448532,291.998872 C440.381066,294.501205 440.379186,297.330442 441.443323,299.834191 L481.196646,393.36757 C482.372884,396.135074 482.24128,399.284971 480.838291,401.944713 L450.694198,459.090915 C449.770727,460.841602 449.38756,462.826962 449.593221,464.795567 L456.473606,530.65512 C457.047458,536.148074 453.059738,541.066192 447.566785,541.640044 C446.96065,541.703367 446.349995,541.711148 445.742443,541.66329 L356.217769,534.611219 C353.011426,534.358648 349.8793,535.663687 347.800903,538.118213 L322.037946,568.543495 C319.233753,571.855163 314.613748,572.980345 310.600825,571.328956 L198.051944,525.013096 C196.001552,524.169324 193.728882,524.030909 191.591246,524.619615 L133.899227,540.508015 C129.431901,541.738319 124.704526,539.73853 122.476259,535.675837 L84.0074932,465.537578 C82.6901809,463.135785 82.4158172,460.29875 83.2484775,457.689038 L115.664712,356.090545 C116.383421,353.837978 116.280713,351.403611 115.374822,349.219587 L83.7105277,272.879762 C82.5898075,270.177804 82.7083287,267.120611 84.0348695,264.513528 L122.415233,189.083689 C124.641262,184.70882 129.713484,182.596431 134.386818,184.097975 Z" id="path-7"></path>
        <path d="M142.231735,192.617516 L193.213179,209.044985 C196.914032,210.237491 200.970601,209.176672 203.613909,206.325127 L243.901462,162.863772 C246.634026,159.91594 250.866009,158.890718 254.644699,160.261162 L333.845587,188.985495 C335.670888,189.647489 337.649431,189.763784 339.539716,189.320185 L399.185981,175.3228 C402.672698,174.50456 406.330778,175.613433 408.776328,178.229919 L455.524588,228.245736 C458.22619,231.136171 458.969649,235.347644 457.421007,238.988383 L433.556098,295.092959 C432.494035,297.589787 432.492163,300.411007 433.550912,302.909243 L471.153554,391.636864 C472.323903,394.398431 472.192907,397.539492 470.796682,400.194022 L442.327466,454.320275 C441.408417,456.06759 441.027145,458.047851 441.2317,460.011501 L447.69417,522.048651 C448.266394,527.541775 444.277217,532.45871 438.784093,533.030934 C438.178176,533.094053 437.567759,533.101672 436.960455,533.053696 L352.788857,526.40423 C349.576799,526.15048 346.439257,527.45997 344.360602,529.921859 L320.296035,558.423133 C317.490759,561.745608 312.859942,562.874415 308.840417,561.215552 L202.451186,517.308578 C200.396114,516.460447 198.117011,516.321326 195.974038,516.913198 L141.74362,531.891228 C137.270192,533.126755 132.534582,531.12216 130.307743,527.050394 L94.050056,460.753357 C92.7390521,458.356191 92.4659878,455.526992 93.2943308,452.923344 L123.977661,356.479507 C124.692574,354.232391 124.590382,351.804922 123.689135,349.625845 L93.7540762,277.247483 C92.6390042,274.55141 92.7569716,271.502813 94.0770497,268.90097 L130.246925,197.611006 C132.4713,193.226815 137.552464,191.10974 142.231735,192.617516 Z" id="path-8"></path>
        <linearGradient x1="0%" y1="-4.16859722%" x2="141.526942%" y2="140.49476%" id="linearGradient-9">
            <stop stop-color="#000000" stop-opacity="0.1" offset="0%"></stop>
            <stop stop-color="#FEEC80" stop-opacity="0" offset="100%"></stop>
        </linearGradient>
        <linearGradient x1="50%" y1="0%" x2="50%" y2="100%" id="linearGradient-10">
            <stop stop-color="#D6DFEA" stop-opacity="0" offset="0%"></stop>
            <stop stop-color="#F2F5F9" stop-opacity="0.05" offset="100%"></stop>
        </linearGradient>
        <path d="M185.214575,237 L379.785425,237 C397.024759,237 411,250.975241 411,268.214575 L411,462.785425 C411,480.024759 397.024759,494 379.785425,494 L185.214575,494 C167.975241,494 154,480.024759 154,462.785425 L154,268.214575 C154,250.975241 167.975241,237 185.214575,237 Z" id="path-11"></path>
        <linearGradient x1="0%" y1="0%" x2="100%" y2="100%" id="linearGradient-12">
            <stop stop-color="#000000" stop-opacity="0.2" offset="0%"></stop>
            <stop stop-color="#52C883" stop-opacity="0" offset="100%"></stop>
        </linearGradient>
    </defs>
    <g id="Handsome" stroke="none" stroke-width="1" fill="none" fill-rule="evenodd">
        <g id="Primary" transform="translate(-465.000000, -3812.000000)">
            <g id="Tamagotchi" transform="translate(465.000000, 3812.000000)">
                <g id="Detail" transform="translate(26.000000, 66.000000)">
                    <mask id="mask-3" fill="white">
                        <use xlink:href="#path-2"></use>
                    </mask>
                    <g>
                        <use fill="#52C883" xlink:href="#path-2"></use>
                        <use fill="url(#linearGradient-1)" xlink:href="#path-2"></use>
                    </g>
                    <g id="Button" mask="url(#mask-3)">
                        <g transform="translate(356.000000, 579.000000)">
                            <circle id="Sh" fill="url(#linearGradient-4)" cx="35" cy="35" r="25"></circle>
                            <circle id="Button" fill="#FEEC80" cx="25" cy="25" r="25"></circle>
                        </g>
                    </g>
                    <g id="Button" mask="url(#mask-3)">
                        <g transform="translate(259.000000, 599.000000)">
                            <circle id="Sh" fill="url(#linearGradient-4)" cx="35" cy="35" r="25"></circle>
                            <circle id="Button" fill="#FEEC80" cx="25" cy="25" r="25"></circle>
                        </g>
                    </g>
                    <g id="Button" mask="url(#mask-3)">
                        <g transform="translate(159.000000, 579.000000)">
                            <circle id="Sh" fill="url(#linearGradient-4)" cx="35" cy="35" r="25"></circle>
                            <circle id="Button" fill="#FEEC80" cx="25" cy="25" r="25"></circle>
                        </g>
                    </g>
                    <path d="M555.935596,341 C557.476084,348.056505 558.833056,355.063598 560,362 L5,362 C6.16694397,355.063598 7.52391625,348.056505 9.06440426,341 L555.935596,341 Z" fill="#00A07D" mask="url(#mask-3)"></path>
                    <g id="Sh" mask="url(#mask-3)">
                        <use fill="#FEEC80" xlink:href="#path-7"></use>
                        <use fill="url(#linearGradient-5)" xlink:href="#path-7"></use>
                        <use fill="url(#linearGradient-6)" xlink:href="#path-7"></use>
                    </g>
                    <g mask="url(#mask-3)">
                        <use fill="#FEEC80" xlink:href="#path-8"></use>
                        <use fill="url(#linearGradient-5)" xlink:href="#path-8"></use>
                    </g>
                    <path d="M171.247191,222 L393.752809,222 C411.562441,222 426,236.437559 426,254.247191 L426,476.752809 C426,494.562441 411.562441,509 393.752809,509 L171.247191,509 C153.437559,509 139,494.562441 139,476.752809 L139,254.247191 C139,236.437559 153.437559,222 171.247191,222 Z" id="Sh" fill="url(#linearGradient-9)" mask="url(#mask-3)"></path>
                    <g id="Screen" mask="url(#mask-3)">
                        <use fill="#F2F5F9" xlink:href="#path-11"></use>
                        <use fill="url(#linearGradient-10)" xlink:href="#path-11"></use>
                    </g>
                    <g id="Smile" mask="url(#mask-3)" fill="#393E41">
                        <g transform="translate(184.000000, 359.000000)" id="Detail">
                            <rect x="30" y="90" width="77" height="15"></rect>
                            <rect x="107" y="15" width="15" height="15"></rect>
                            <rect x="31" y="35" width="30" height="15"></rect>
                            <rect x="76" y="35" width="30" height="15"></rect>
                            <rect x="61" y="63" width="15" height="15"></rect>
                            <rect x="15" y="15" width="15" height="15"></rect>
                            <rect x="107" y="75" width="15" height="15"></rect>
                            <rect x="15" y="75" width="15" height="15"></rect>
                            <rect x="30" y="0" width="77" height="15"></rect>
                            <rect x="0" y="30" width="15" height="45"></rect>
                            <rect x="122" y="30" width="15" height="45"></rect>
                        </g>
                    </g>
                    <path d="M288.579754,46.5167371 C284.763538,44.905404 282.975934,40.5050482 284.587029,36.6882673 C286.198123,32.8714864 290.597827,31.0836176 294.414042,32.6949507 C294.70913,32.8195466 295.003843,32.9430241 295.298168,33.0653768 C299.123269,34.6554959 300.93527,39.0458585 299.345387,42.871526 C297.755503,46.6971935 293.365791,48.5094635 289.54069,46.9193444 C289.220695,46.7863202 288.900378,46.6521154 288.579754,46.5167371 Z M309.413391,53.7418954 C305.409231,52.680685 303.023372,48.5739106 304.084425,44.569158 C305.145479,40.5644054 309.251645,38.178193 313.255804,39.2394033 C313.558729,39.3196867 313.860725,39.3983814 314.161777,39.4754824 C318.17466,40.5032032 320.594735,44.5899018 319.567167,48.6033792 C318.539598,52.6168566 314.453505,55.0372905 310.440622,54.0095697 C310.099013,53.9220817 309.756598,53.8328546 309.413391,53.7418954 Z M331.871734,57.1877594 C327.730436,57.0940715 324.449188,53.6604396 324.542862,49.5185278 C324.636536,45.376616 328.06966,42.0948821 332.210958,42.1885699 C332.506626,42.1952588 332.800362,42.1996107 333.092144,42.2016257 C337.234403,42.2302311 340.569181,45.611882 340.54058,49.7547545 C340.511979,53.897627 337.130829,57.2328995 332.98857,57.2042941 C332.617966,57.2017348 332.245682,57.1962191 331.871734,57.1877594 Z M355.853397,52.448841 C352.148634,54.3021828 347.643123,52.8008645 345.790056,49.0955528 C343.936988,45.390241 345.438084,40.884062 349.142847,39.0307202 C349.369942,38.9171138 349.593995,38.8004844 349.815016,38.6808303 C353.457934,36.7086666 358.00962,38.0635178 359.981491,41.7069751 C361.953363,45.3504325 360.598712,49.9027927 356.955795,51.8749564 C356.592243,52.0717719 356.22476,52.2630634 355.853397,52.448841 Z M41.2161784,296.716222 C37.4688159,294.950627 35.8620634,290.481043 37.6273963,286.733125 C39.3927292,282.985207 43.8616518,281.378217 47.6090143,283.143811 C47.8809267,283.271924 48.153778,283.39833 48.4275646,283.523024 C52.1974495,285.239989 53.8618762,289.688412 52.1451659,293.458855 C50.4284555,297.229299 45.9806914,298.893972 42.2108065,297.177007 C41.8781486,297.025501 41.5466036,296.871904 41.2161784,296.716222 Z M63.0942186,303.649426 C59.0167935,302.918749 56.3036305,299.020523 57.0341993,294.942493 C57.7647681,290.864464 61.6624172,288.150899 65.7398423,288.881576 C66.0385052,288.935097 66.3379691,288.986949 66.6382312,289.03713 C70.7239414,289.719944 73.4826155,293.586088 72.7999021,297.672403 C72.1171888,301.758719 68.2516176,304.517802 64.1659074,303.834987 C63.807847,303.775147 63.4506155,303.713293 63.0942186,303.649426 Z M85.8276038,304.982709 C81.6946336,305.261469 78.1182533,302.136518 77.8395348,298.002936 C77.5608162,293.869353 80.6853044,290.292443 84.8182746,290.013683 C85.1177265,289.993486 85.4155115,289.971154 85.711639,289.946695 C89.8399425,289.60571 93.4629756,292.676435 93.8039099,296.80535 C94.1448442,300.934265 91.0745748,304.557835 86.9462713,304.89882 C86.5749554,304.929489 86.202068,304.957453 85.8276038,304.982709 Z M108.874868,299.118677 C105.144816,300.920565 100.660509,299.357031 98.8588881,295.626426 C97.0572672,291.895821 98.6205696,287.41085 102.350622,285.608962 C102.60514,285.486011 102.858091,285.360569 103.109495,285.232633 C106.801429,283.353859 111.317155,284.82416 113.195651,288.516641 C115.074146,292.209122 113.604063,296.725517 109.912129,298.604291 C109.56842,298.7792 109.222668,298.950664 108.874868,299.118677 Z M127.774256,284.437285 C125.062518,287.569139 120.325727,287.909384 117.194337,285.197244 C114.062947,282.485104 113.722753,277.747611 116.434491,274.615757 C116.626283,274.394252 116.817048,274.170253 117.006795,273.943753 C119.667144,270.768118 124.397762,270.350716 127.572927,273.011459 C130.748091,275.672202 131.165432,280.403521 128.505083,283.579156 C128.263127,283.867977 128.019523,284.15402 127.774256,284.437285 Z M140.119441,265.168604 C138.320325,268.900418 133.837069,270.466963 130.105808,268.667581 C126.374547,266.8682 124.808233,262.384279 126.607349,258.652465 C126.741961,258.373247 126.875955,258.092027 127.009341,257.808797 C128.77445,254.060774 133.243277,252.453516 136.990744,254.218887 C140.738212,255.984257 142.345232,260.453746 140.580123,264.201769 C140.42742,264.526017 140.273864,264.848291 140.119441,265.168604 Z M148.11964,244.562228 C146.87221,248.512882 142.658804,250.704128 138.708735,249.456513 C134.758666,248.208899 132.567745,243.994869 133.815175,240.044215 C133.911279,239.739851 134.007094,239.433839 134.102632,239.12616 C135.331184,235.169594 139.534079,232.958248 143.49006,234.186983 C147.446041,235.415717 149.657058,239.619235 148.428506,243.575802 C148.32591,243.906213 148.222958,244.235014 148.11964,244.562228 Z M153.765111,223.717649 C152.815081,227.75019 148.776393,230.248945 144.744449,229.298774 C140.712506,228.348603 138.214121,224.309317 139.164151,220.276777 C139.238376,219.961721 139.312595,219.644988 139.386823,219.32653 C140.327278,215.291745 144.360023,212.783407 148.394211,213.724001 C152.428398,214.664596 154.936364,218.697938 153.995909,222.732723 C153.918997,223.062696 153.842069,223.390988 153.765111,223.717649 Z M158.226514,202.966045 C157.413865,207.028509 153.462293,209.662908 149.40043,208.850139 C145.338568,208.03737 142.704559,204.085212 143.517208,200.022748 C143.58169,199.700402 143.646596,199.375186 143.711981,199.046836 C144.521097,194.983667 148.470378,192.345832 152.532945,193.155068 C156.595513,193.964304 159.232957,197.914169 158.423841,201.977339 C158.357613,202.309918 158.291856,202.639397 158.226514,202.966045 Z M162.248745,182.302171 C161.461914,186.369716 157.527153,189.029166 153.46021,188.242218 C149.393268,187.45527 146.734212,183.519926 147.521043,179.452381 C147.616629,178.95836 147.616629,178.95836 147.712393,178.463923 C148.500376,174.396601 152.435891,171.738267 156.50261,172.526367 C160.56933,173.314467 163.22727,177.250565 162.439287,181.317887 C162.343952,181.810111 162.343952,181.810111 162.248745,182.302171 Z M166.340508,161.845281 C165.487478,165.899456 161.50989,168.494395 157.456315,167.641239 C153.402741,166.788083 150.808186,162.809905 151.661216,158.75573 C151.730723,158.425383 151.80012,158.096628 151.869424,157.769383 C152.727786,153.716334 156.708785,151.126631 160.761234,151.98512 C164.813682,152.84361 167.403001,156.825198 166.544639,160.878247 C166.476704,161.199025 166.408667,161.521343 166.340508,161.845281 Z M170.958952,141.635248 C169.950777,145.653642 165.87642,148.093786 161.858621,147.085462 C157.840822,146.077138 155.401039,142.002178 156.409214,137.983783 C156.492447,137.65203 156.575839,137.321337 156.659397,136.99168 C157.677312,132.975742 161.757574,130.545488 165.772916,131.563554 C169.788258,132.58162 172.218153,136.662486 171.200238,140.678424 C171.119668,140.996291 171.039242,141.315225 170.958952,141.635248 Z M176.540439,121.862181 C175.280424,125.808838 171.060056,127.98664 167.113983,126.726437 C163.167911,125.466235 160.990432,121.245242 162.250448,117.298585 C162.354662,116.972161 162.459235,116.646686 162.564171,116.32215 C163.838777,112.380182 168.067172,110.218011 172.008556,111.492806 C175.949939,112.7676 178.11179,116.996622 176.837184,120.938589 C176.737953,121.245483 176.639039,121.553344 176.540439,121.862181 Z M183.560873,102.798909 C181.938025,106.610706 177.532833,108.385005 173.721601,106.761916 C169.910368,105.138828 168.136333,100.732983 169.75918,96.9211863 C169.894893,96.6024212 170.031171,96.2846596 170.168021,95.9678965 C171.811077,92.1647689 176.225624,90.4138817 180.028188,92.0571805 C183.830752,93.7004793 185.58138,98.1156803 183.938325,101.918808 C183.812022,102.211158 183.686206,102.504523 183.560873,102.798909 Z M192.53363,84.8869681 C190.427003,88.4541824 185.827874,89.6379694 182.261188,87.5310302 C178.694502,85.4240911 177.51089,80.8242808 179.617517,77.2570665 C179.796618,76.9537892 179.976521,76.6516607 180.15723,76.3506791 C182.28973,72.7988755 186.897341,71.6485584 190.448619,73.781374 C193.999896,75.9141895 195.150043,80.5224838 193.017543,84.0742874 C192.855576,84.3440532 192.694273,84.614946 192.53363,84.8869681 Z M203.903751,68.8265312 C201.216161,71.9791385 196.482125,72.3557871 193.329984,69.6677994 C190.177844,66.9798117 189.801251,62.245074 192.488841,59.0924667 C192.719872,58.8214615 192.951921,58.551775 193.184992,58.2834077 C195.901413,55.1556156 200.638708,54.8224595 203.766036,57.5392826 C206.893365,60.2561057 207.226472,64.9941024 204.510051,68.1218944 C204.307122,68.3555547 204.105024,68.5904333 203.903751,68.8265312 Z" fill="url(#linearGradient-12)" fill-rule="nonzero" mask="url(#mask-3)"></path>
                    <g id="Z" mask="url(#mask-3)" fill="#393E41">
                        <g transform="translate(316.000000, 267.000000)" id="Rectangle">
                            <rect x="20" y="0" width="45" height="15"></rect>
                            <rect x="20" y="60" width="45" height="15"></rect>
                            <rect x="20" y="45" width="15" height="15"></rect>
                            <rect x="35" y="30" width="15" height="15"></rect>
                            <rect x="0" y="80" width="15" height="15"></rect>
                            <rect x="50" y="15" width="15" height="15"></rect>
                        </g>
                    </g>
                </g>
                <path d="M304.579754,102.516737 C300.763538,100.905404 298.975934,96.5050482 300.587029,92.6882673 C302.198123,88.8714864 306.597827,87.0836176 310.414042,88.6949507 C310.70913,88.8195466 311.003843,88.9430241 311.298168,89.0653768 C315.123269,90.6554959 316.93527,95.0458585 315.345387,98.871526 C313.755503,102.697193 309.365791,104.509464 305.54069,102.919344 C305.220695,102.78632 304.900378,102.652115 304.579754,102.516737 Z M325.413391,109.741895 C321.409231,108.680685 319.023372,104.573911 320.084425,100.569158 C321.145479,96.5644054 325.251645,94.178193 329.255804,95.2394033 C329.558729,95.3196867 329.860725,95.3983814 330.161777,95.4754824 C334.17466,96.5032032 336.594735,100.589902 335.567167,104.603379 C334.539598,108.616857 330.453505,111.03729 326.440622,110.00957 C326.099013,109.922082 325.756598,109.832855 325.413391,109.741895 Z M347.871734,113.187759 C343.730436,113.094072 340.449188,109.66044 340.542862,105.518528 C340.636536,101.376616 344.06966,98.0948821 348.210958,98.1885699 C348.506626,98.1952588 348.800362,98.1996107 349.092144,98.2016257 C353.234403,98.2302311 356.569181,101.611882 356.54058,105.754755 C356.511979,109.897627 353.130829,113.2329 348.98857,113.204294 C348.617966,113.201735 348.245682,113.196219 347.871734,113.187759 Z M371.853397,108.448841 C368.148634,110.302183 363.643123,108.800864 361.790056,105.095553 C359.936988,101.390241 361.438084,96.884062 365.142847,95.0307202 C365.369942,94.9171138 365.593995,94.8004844 365.815016,94.6808303 C369.457934,92.7086666 374.00962,94.0635178 375.981491,97.7069751 C377.953363,101.350432 376.598712,105.902793 372.955795,107.874956 C372.592243,108.071772 372.22476,108.263063 371.853397,108.448841 Z M389.442295,89.6247112 C387.784042,93.421235 383.362527,95.1544467 379.566566,93.4959479 C375.770605,91.8374492 374.03765,87.4152797 375.695903,83.6187559 C375.801725,83.3764792 375.905151,83.1307684 376.006163,82.8816038 C377.562662,79.0422281 381.936421,77.1917773 385.775228,78.7485062 C389.614035,80.3052352 391.464211,84.6796423 389.907713,88.519018 C389.756746,88.8914048 389.601606,89.2599739 389.442295,89.6247112 Z M393.986753,66.2473491 C393.911831,70.3896426 390.4936,73.6868897 386.35192,73.6119566 C382.21024,73.5370235 378.913481,70.1182858 378.988403,65.9759923 C378.993848,65.6749567 378.997492,65.3717668 378.999329,65.0664224 C379.024253,60.9235262 382.402441,57.5852527 386.544723,57.61018 C390.687006,57.6351073 394.024785,61.0137959 393.999861,65.1566921 C393.997662,65.5222432 393.993293,65.8857949 393.986753,66.2473491 Z M385.528426,42.1023804 C388.043573,45.3942445 387.414315,50.1020596 384.122939,52.6175797 C380.831563,55.1330998 376.124445,54.5037487 373.609297,51.2118845 C373.440589,50.991077 373.268048,50.7701433 373.091688,50.5491216 C370.507837,47.3109209 371.037902,42.5909047 374.275623,40.0066703 C377.513344,37.4224359 382.232661,37.9525803 384.816513,41.1907809 C385.058287,41.4937828 385.295603,41.797658 385.528426,42.1023804 Z M368.365963,26.3295381 C371.78296,28.6715207 372.654713,33.3405065 370.313077,36.7580097 C367.971441,40.1755129 363.303147,41.0473946 359.88615,38.705412 C359.633232,38.5320636 359.378171,38.3592606 359.120986,38.1870189 C355.679037,35.8818752 354.757198,31.2225227 357.062,27.7800638 C359.366802,24.3376049 364.025465,23.4156287 367.467414,25.7207724 C367.769136,25.9228423 368.06866,26.1257685 368.365963,26.3295381 Z M348.836565,15.5769897 C352.623776,17.2553796 354.333515,21.6865795 352.655373,25.4743517 C350.977232,29.2621239 346.546689,30.9721161 342.759478,29.2937262 C342.472573,29.1665779 342.184411,29.040114 341.895004,28.9143419 C338.095809,27.2632672 336.354214,22.844494 338.005045,19.0447357 C339.655875,15.2449774 344.073993,13.5031252 347.873189,15.1541999 C348.195582,15.2943075 348.516712,15.4352397 348.836565,15.5769897 Z M328.111896,8.07659135 C332.090196,9.23099686 334.379553,13.3923544 333.225319,17.3712435 C332.071084,21.3501326 327.910343,23.639829 323.932043,22.4854235 C323.626183,22.3966703 323.319528,22.3086343 323.012086,22.2213194 C319.027272,21.0896121 316.714236,16.9413734 317.845776,12.9559688 C318.977315,8.97056425 323.124939,6.65718552 327.109754,7.78889278 C327.444599,7.88399053 327.778649,7.97989128 328.111896,8.07659135 Z M306.801999,3.19010904 C310.883944,3.89509202 313.621597,7.77615386 312.916719,11.8587033 C312.21184,15.9412527 308.331353,18.6793113 304.249408,17.9743283 C303.932669,17.919625 303.615413,17.8656398 303.297648,17.812375 C299.21227,17.1275718 296.455478,13.2600856 297.14018,9.17410276 C297.824882,5.08811998 301.691795,2.33091917 305.777172,3.01572239 C306.119298,3.07307051 306.460909,3.13120012 306.801999,3.19010904 Z M285.180643,0.565451444 C289.312247,0.863787873 292.41976,4.45545998 292.121468,8.58767563 C291.823175,12.7198913 288.232035,15.8278645 284.100432,15.529528 C283.779578,15.5063597 283.458396,15.483892 283.13689,15.4621261 C279.00399,15.1823301 275.880398,11.6046367 276.160153,7.47112432 C276.439907,3.33761189 280.017071,0.213557458 284.149971,0.493353448 C284.493856,0.516634374 284.837415,0.540667483 285.180643,0.565451444 Z M263.586603,0.00136954533 C267.72822,-0.0769948437 271.149181,3.21741919 271.227533,7.35964925 C271.305886,11.5018793 268.01196,14.9233471 263.870344,15.0017115 C263.547838,15.0078137 263.22513,15.0145999 262.902224,15.0220711 C258.760974,15.117888 255.326165,11.8379195 255.230362,7.6960564 C255.134559,3.5541933 258.414042,0.118874905 262.555291,0.0230580038 C262.899261,0.0150995038 263.243033,0.0078703084 263.586603,0.00136954533 Z M242.028191,1.34849205 C246.147636,0.913343421 249.839812,3.90055058 250.274896,8.02060597 C250.70998,12.1406614 247.723215,15.8333838 243.60377,16.2685325 C243.28323,16.302392 242.96258,16.3369139 242.641822,16.3720988 C238.524156,16.8237775 234.820025,13.8514131 234.368413,9.73313709 C233.916801,5.61486109 236.888725,1.91018085 241.006391,1.45850216 C241.347096,1.42112924 241.687697,1.3844594 242.028191,1.34849205 Z M220.620724,4.51855092 C224.689906,3.7432656 228.617029,6.41398463 229.392199,10.4837688 C230.16737,14.553553 227.497046,18.4812579 223.427865,19.2565432 C223.110607,19.3169892 222.793307,19.3780789 222.475966,19.4398128 C218.409812,20.2308231 214.472396,17.5753057 213.681503,13.5085485 C212.89061,9.44179142 215.545734,5.50379283 219.611889,4.7127825 C219.948202,4.64735768 220.284481,4.58261396 220.620724,4.51855092 Z M199.571983,9.41380553 C203.566202,8.31576024 207.694165,10.6640521 208.792048,14.6588621 C209.88993,18.6536722 207.541986,22.7822471 203.547768,23.8802924 C203.235783,23.9660597 202.923808,24.0524512 202.611843,24.1394673 C198.621751,25.2524186 194.485051,22.9195562 193.372264,18.9288733 C192.259478,14.9381904 194.591995,10.8008774 198.582086,9.68792607 C198.912034,9.59589427 199.242,9.50452087 199.571983,9.41380553 Z M178.991143,15.9409589 C182.888795,14.5380966 187.185542,16.5609909 188.588196,20.4592198 C189.990851,24.3574486 187.968256,28.6548321 184.070604,30.0576944 C183.765331,30.1675697 183.460107,30.2780498 183.154931,30.389135 C179.262363,31.8060446 174.95835,29.7986593 173.541651,25.9055143 C172.124951,22.0123694 174.132039,17.7077196 178.024607,16.2908099 C178.346727,16.1735572 178.668906,16.0569403 178.991143,15.9409589 Z M158.969661,24.00578 C162.752291,22.3170878 167.187471,24.0150141 168.875913,27.7982045 C170.564355,31.5813949 168.86668,36.0172322 165.08405,37.7059243 C164.788019,37.8380828 164.492064,37.9708213 164.196188,38.1041399 C160.419422,39.8059102 155.978395,38.1233401 154.276877,34.3460145 C152.575359,30.5686889 154.257679,26.1270041 158.034445,24.4252339 C158.346094,24.2848084 158.657833,24.1449905 158.969661,24.00578 Z M139.616863,33.4931968 C143.269544,31.5391801 147.814435,32.9166581 149.768163,36.56988 C151.72189,40.2231018 150.344616,44.7686667 146.691935,46.7226833 C146.405088,46.8761335 146.11834,47.0301428 145.831694,47.1847115 C142.185517,49.1508413 137.63608,47.7884562 135.670241,44.1417392 C133.704403,40.4950223 135.066586,35.944911 138.712763,33.9787812 C139.014016,33.8163363 139.315383,33.6544749 139.616863,33.4931968 Z M120.989178,44.2964646 C124.500394,42.098302 129.128496,43.1631639 131.326333,46.6749002 C133.52417,50.1866365 132.459465,54.8154242 128.948249,57.0135868 C128.672347,57.1863129 128.39656,57.3595734 128.12089,57.5333686 C124.616635,59.7426141 119.985192,58.6923804 117.776274,55.1876058 C115.567356,51.6828312 116.617434,47.0507027 120.121689,44.8414571 C120.410722,44.6592377 120.699885,44.4775736 120.989178,44.2964646 Z M103.145602,56.2952461 C106.507318,53.8745591 111.194591,54.6378178 113.61492,58.0000321 C116.035248,61.3622464 115.272102,66.0502142 111.910386,68.4709012 C111.646087,68.6612164 111.381915,68.8520409 111.117871,69.0433746 C107.763414,71.4741132 103.073878,70.7248881 100.643499,67.3699334 C98.2131205,64.0149788 98.9622346,59.3247477 102.316692,56.8940091 C102.592853,56.6938947 102.869157,56.494307 103.145602,56.2952461 Z M86.1307785,69.6604256 C89.2834027,66.9730056 94.0173712,67.3505068 96.7043931,70.503598 C99.391415,73.6566893 99.0139698,78.3913592 95.8613456,81.0787792 C95.6111122,81.2920879 95.3613983,81.5057794 95.1122043,81.7198526 C91.9698765,84.4193083 87.2344995,84.0599121 84.5354437,80.9171188 C81.8363879,77.7743255 82.1957308,73.0382469 85.3380586,70.3387912 C85.6017552,70.1122594 85.8659954,69.8861371 86.1307785,69.6604256 Z M70.2681599,84.3176205 C73.1945625,81.3854129 77.9435522,81.3810584 80.8753255,84.3078945 C83.8070987,87.2347306 83.8114525,91.9844239 80.88505,94.9166315 C80.6582713,95.1438601 80.432023,95.3714359 80.2063056,95.5993577 C77.2912669,98.5428662 72.5423295,98.5655953 69.5992571,95.6501247 C66.6561847,92.7346541 66.6334589,87.9850131 69.5484977,85.0415047 C69.7878277,84.7998372 70.0277153,84.558542 70.2681599,84.3176205 Z M55.6215192,100.262845 C58.2939072,97.0973379 63.0260764,96.6979066 66.1911148,99.3706905 C69.3561533,102.043474 69.7555254,106.776345 67.0831375,109.941852 C66.8769066,110.186137 66.6712385,110.430741 66.4661336,110.675662 C63.8063514,113.851772 59.0758076,114.270018 55.9001684,111.609842 C52.7245291,108.949666 52.3063443,104.218421 54.9661264,101.042311 C55.1839971,100.782147 55.4024616,100.522324 55.6215192,100.262845 Z M42.3965375,117.353555 C44.788823,113.971325 49.4695872,113.169103 52.851317,115.561743 C56.2330467,117.954382 57.0351498,122.63584 54.6428643,126.018071 C54.4564019,126.281693 54.2705528,126.545603 54.0853177,126.8098 C51.7070343,130.201894 47.0296264,131.023465 43.6380347,128.644829 C40.246443,126.266193 39.4249944,121.588092 41.8032777,118.195998 C42.000382,117.914872 42.1981355,117.634058 42.3965375,117.353555 Z M30.6558661,135.602289 C32.7408298,132.022366 37.3326979,130.810712 40.9120907,132.895985 C44.4914835,134.981257 45.7029576,139.573806 43.617994,143.153729 C43.4560651,143.431764 43.294787,143.710037 43.1341601,143.988546 C41.0643997,147.577283 36.4777122,148.808408 32.8895068,146.738341 C29.3013014,144.668274 28.0703586,140.080907 30.140119,136.49217 C30.3113445,136.195284 30.4832604,135.898656 30.6558661,135.602289 Z M20.6015435,154.809185 C22.3536172,151.055048 26.8168314,149.432266 30.5704116,151.1846 C34.3239917,152.936933 35.9465333,157.400808 34.1944597,161.154945 C34.0580613,161.447203 33.9223617,161.739639 33.7873613,162.032249 C32.0517969,165.794048 27.5957548,167.436428 23.8345127,165.700606 C20.0732706,163.964785 18.4311344,159.508082 20.1666988,155.746283 C20.3109042,155.433721 20.4558527,155.121354 20.6015435,154.809185 Z M12.3588758,174.859661 C13.7515094,170.95784 18.0430444,168.923908 21.9442875,170.316748 C25.8455306,171.709588 27.8791603,176.001759 26.4865267,179.90358 C26.377864,180.208027 26.2699521,180.512573 26.1627917,180.817215 C24.7880603,184.725381 20.5058948,186.778971 16.5983073,185.404036 C12.6907199,184.029101 10.6374344,179.746301 12.0121658,175.838134 C12.1269354,175.511861 12.2425056,175.185702 12.3588758,174.859661 Z M6.05365176,195.678512 C7.05665157,191.658823 11.1278631,189.213433 15.1469572,190.216582 C19.1660513,191.21973 21.6110788,195.291545 20.608079,199.311234 C20.530137,199.6236 20.4529933,199.935965 20.3766483,200.248325 C19.3930139,204.272799 15.3336235,206.737768 11.3097461,205.753988 C7.2858687,204.770207 4.82126478,200.710216 5.80489919,196.685742 C5.88696256,196.349985 5.96988027,196.014241 6.05365176,195.678512 Z M1.87367006,217.073431 C2.45264747,212.971127 6.2470831,210.114976 10.3487792,210.694039 C14.4504754,211.273102 17.3062031,215.0681 16.7272257,219.170404 C16.6823542,219.488338 16.6383356,219.806147 16.5951701,220.123825 C16.0373596,224.229062 12.2577062,227.104752 8.1530779,226.546859 C4.0484496,225.988965 1.17318567,222.208752 1.73099617,218.103516 C1.77763593,217.760268 1.825194,217.416904 1.87367006,217.073431 Z M0.0272473264,238.866305 C0.139826734,234.724864 3.58789426,231.45884 7.72872171,231.571436 C11.8695492,231.684032 15.1350894,235.13261 15.02251,239.274051 C15.0137914,239.59478 15.0059897,239.915225 14.9991044,240.235379 C14.9100265,244.377392 11.4805467,247.662935 7.33914708,247.573844 C3.19774742,247.484753 -0.0873083774,244.054765 0.0017695947,239.912752 C0.00926527547,239.564212 0.0177578081,239.215394 0.0272473264,238.866305 Z M0.779893384,260.777241 C0.373471174,256.654259 3.38584329,252.982402 7.50821482,252.57592 C11.6305864,252.169437 15.3018991,255.182256 15.7083213,259.305238 C15.7393567,259.62008 15.7713525,259.934448 15.8043074,260.248335 C16.2368979,264.368653 13.2478989,268.059567 9.12819117,268.492222 C5.00848347,268.924876 1.31811662,265.935434 0.8855261,261.815116 C0.849253667,261.46963 0.814042508,261.12367 0.779893384,260.777241 Z M4.46798659,282.48657 C3.47616299,278.464107 5.93249828,274.399106 9.95436501,273.407135 C13.9762317,272.415165 18.0406308,274.871864 19.0324544,278.894327 C19.1081406,279.201281 19.1848568,279.50751 19.2626012,279.813006 C20.2843526,283.827968 17.8583576,287.911155 13.8439896,288.933057 C9.82962165,289.95496 5.74704026,287.528606 4.72528884,283.513643 C4.63835199,283.172025 4.55258401,282.829665 4.46798659,282.48657 Z M11.5621483,303.588832 C9.90440478,299.792086 11.6379533,295.370149 15.4341372,293.71216 C19.2303212,292.054171 23.6516029,293.787976 25.3093464,297.584723 C25.4337246,297.869587 25.5591614,298.153444 25.6856537,298.436285 C27.3769943,302.21818 25.6827193,306.655317 21.9013844,308.346908 C18.1200496,310.038499 13.6835696,308.343973 11.992229,304.562078 C11.8476181,304.238723 11.704257,303.914305 11.5621483,303.588832 Z M22.5854444,323.243351 C20.189849,319.863464 20.9873687,315.181224 24.3667546,312.785273 C27.7461404,310.389323 32.4276877,311.186961 34.8232831,314.566847 C35.0004433,314.816798 35.1786695,315.065428 35.3579574,315.31273 C37.7895686,318.666791 37.042178,323.357297 33.6886138,325.789269 C30.3350496,328.22124 25.6452383,327.473739 23.2136271,324.119678 C23.0029124,323.829027 22.7935167,323.536915 22.5854444,323.243351 Z M37.9107834,340.17172 C34.7699838,337.470486 34.4133211,332.734205 37.1141551,329.59294 C39.814989,326.451675 44.5505687,326.094959 47.6913682,328.796193 C47.920407,328.993177 48.1504721,329.188577 48.3815588,329.382388 C51.55562,332.044448 51.970999,336.775939 49.3093338,339.950471 C46.6476685,343.125002 41.9168776,343.540443 38.7428164,340.878383 C38.4641738,340.644688 38.1868274,340.409131 37.9107834,340.17172 Z M57.2161784,352.716222 C53.4688159,350.950627 51.8620634,346.481043 53.6273963,342.733125 C55.3927292,338.985207 59.8616518,337.378217 63.6090143,339.143811 C63.8809267,339.271924 64.153778,339.39833 64.4275646,339.523024 C68.1974495,341.239989 69.8618762,345.688412 68.1451659,349.458855 C66.4284555,353.229299 61.9806914,354.893972 58.2108065,353.177007 C57.8781486,353.025501 57.5466036,352.871904 57.2161784,352.716222 Z M79.0942186,359.649426 C75.0167935,358.918749 72.3036305,355.020523 73.0341993,350.942493 C73.7647681,346.864464 77.6624172,344.150899 81.7398423,344.881576 C82.0385052,344.935097 82.3379691,344.986949 82.6382312,345.03713 C86.7239414,345.719944 89.4826155,349.586088 88.7999021,353.672403 C88.1171888,357.758719 84.2516176,360.517802 80.1659074,359.834987 C79.807847,359.775147 79.4506155,359.713293 79.0942186,359.649426 Z M101.827604,360.982709 C97.6946336,361.261469 94.1182533,358.136518 93.8395348,354.002936 C93.5608162,349.869353 96.6853044,346.292443 100.818275,346.013683 C101.117726,345.993486 101.415511,345.971154 101.711639,345.946695 C105.839942,345.60571 109.462976,348.676435 109.80391,352.80535 C110.144844,356.934265 107.074575,360.557835 102.946271,360.89882 C102.574955,360.929489 102.202068,360.957453 101.827604,360.982709 Z M124.874868,355.118677 C121.144816,356.920565 116.660509,355.357031 114.858888,351.626426 C113.057267,347.895821 114.62057,343.41085 118.350622,341.608962 C118.60514,341.486011 118.858091,341.360569 119.109495,341.232633 C122.801429,339.353859 127.317155,340.82416 129.195651,344.516641 C131.074146,348.209122 129.604063,352.725517 125.912129,354.604291 C125.56842,354.7792 125.222668,354.950664 124.874868,355.118677 Z M143.774256,340.437285 C141.062518,343.569139 136.325727,343.909384 133.194337,341.197244 C130.062947,338.485104 129.722753,333.747611 132.434491,330.615757 C132.626283,330.394252 132.817048,330.170253 133.006795,329.943753 C135.667144,326.768118 140.397762,326.350716 143.572927,329.011459 C146.748091,331.672202 147.165432,336.403521 144.505083,339.579156 C144.263127,339.867977 144.019523,340.15402 143.774256,340.437285 Z M156.119441,321.168604 C154.320325,324.900418 149.837069,326.466963 146.105808,324.667581 C142.374547,322.8682 140.808233,318.384279 142.607349,314.652465 C142.741961,314.373247 142.875955,314.092027 143.009341,313.808797 C144.77445,310.060774 149.243277,308.453516 152.990744,310.218887 C156.738212,311.984257 158.345232,316.453746 156.580123,320.201769 C156.42742,320.526017 156.273864,320.848291 156.119441,321.168604 Z M164.11964,300.562228 C162.87221,304.512882 158.658804,306.704128 154.708735,305.456513 C150.758666,304.208899 148.567745,299.994869 149.815175,296.044215 C149.911279,295.739851 150.007094,295.433839 150.102632,295.12616 C151.331184,291.169594 155.534079,288.958248 159.49006,290.186983 C163.446041,291.415717 165.657058,295.619235 164.428506,299.575802 C164.32591,299.906213 164.222958,300.235014 164.11964,300.562228 Z M169.765111,279.717649 C168.815081,283.75019 164.776393,286.248945 160.744449,285.298774 C156.712506,284.348603 154.214121,280.309317 155.164151,276.276777 C155.238376,275.961721 155.312595,275.644988 155.386823,275.32653 C156.327278,271.291745 160.360023,268.783407 164.394211,269.724001 C168.428398,270.664596 170.936364,274.697938 169.995909,278.732723 C169.918997,279.062696 169.842069,279.390988 169.765111,279.717649 Z M174.226514,258.966045 C173.413865,263.028509 169.462293,265.662908 165.40043,264.850139 C161.338568,264.03737 158.704559,260.085212 159.517208,256.022748 C159.58169,255.700402 159.646596,255.375186 159.711981,255.046836 C160.521097,250.983667 164.470378,248.345832 168.532945,249.155068 C172.595513,249.964304 175.232957,253.914169 174.423841,257.977339 C174.357613,258.309918 174.291856,258.639397 174.226514,258.966045 Z M178.248745,238.302171 C177.461914,242.369716 173.527153,245.029166 169.46021,244.242218 C165.393268,243.45527 162.734212,239.519926 163.521043,235.452381 C163.616629,234.95836 163.616629,234.95836 163.712393,234.463923 C164.500376,230.396601 168.435891,227.738267 172.50261,228.526367 C176.56933,229.314467 179.22727,233.250565 178.439287,237.317887 C178.343952,237.810111 178.343952,237.810111 178.248745,238.302171 Z M182.340508,217.845281 C181.487478,221.899456 177.50989,224.494395 173.456315,223.641239 C169.402741,222.788083 166.808186,218.809905 167.661216,214.75573 C167.730723,214.425383 167.80012,214.096628 167.869424,213.769383 C168.727786,209.716334 172.708785,207.126631 176.761234,207.98512 C180.813682,208.84361 183.403001,212.825198 182.544639,216.878247 C182.476704,217.199025 182.408667,217.521343 182.340508,217.845281 Z M186.958952,197.635248 C185.950777,201.653642 181.87642,204.093786 177.858621,203.085462 C173.840822,202.077138 171.401039,198.002178 172.409214,193.983783 C172.492447,193.65203 172.575839,193.321337 172.659397,192.99168 C173.677312,188.975742 177.757574,186.545488 181.772916,187.563554 C185.788258,188.58162 188.218153,192.662486 187.200238,196.678424 C187.119668,196.996291 187.039242,197.315225 186.958952,197.635248 Z M192.540439,177.862181 C191.280424,181.808838 187.060056,183.98664 183.113983,182.726437 C179.167911,181.466235 176.990432,177.245242 178.250448,173.298585 C178.354662,172.972161 178.459235,172.646686 178.564171,172.32215 C179.838777,168.380182 184.067172,166.218011 188.008556,167.492806 C191.949939,168.7676 194.11179,172.996622 192.837184,176.938589 C192.737953,177.245483 192.639039,177.553344 192.540439,177.862181 Z M199.560873,158.798909 C197.938025,162.610706 193.532833,164.385005 189.721601,162.761916 C185.910368,161.138828 184.136333,156.732983 185.75918,152.921186 C185.894893,152.602421 186.031171,152.28466 186.168021,151.967897 C187.811077,148.164769 192.225624,146.413882 196.028188,148.05718 C199.830752,149.700479 201.58138,154.11568 199.938325,157.918808 C199.812022,158.211158 199.686206,158.504523 199.560873,158.798909 Z M208.53363,140.886968 C206.427003,144.454182 201.827874,145.637969 198.261188,143.53103 C194.694502,141.424091 193.51089,136.824281 195.617517,133.257066 C195.796618,132.953789 195.976521,132.651661 196.15723,132.350679 C198.28973,128.798876 202.897341,127.648558 206.448619,129.781374 C209.999896,131.91419 211.150043,136.522484 209.017543,140.074287 C208.855576,140.344053 208.694273,140.614946 208.53363,140.886968 Z M219.903751,124.826531 C217.216161,127.979139 212.482125,128.355787 209.329984,125.667799 C206.177844,122.979812 205.801251,118.245074 208.488841,115.092467 C208.719872,114.821462 208.951921,114.551775 209.184992,114.283408 C211.901413,111.155616 216.638708,110.822459 219.766036,113.539283 C222.893365,116.256106 223.226472,120.994102 220.510051,124.121894 C220.307122,124.355555 220.105024,124.590433 219.903751,124.826531 Z M233.934178,111.388352 C230.658119,113.923794 225.947271,113.323013 223.412204,110.046469 C220.877137,106.769925 221.477829,102.058379 224.753888,99.5229359 C225.037655,99.3033195 225.322565,99.0851436 225.608619,98.8684102 C228.910496,96.3666936 233.614938,97.0157486 236.116285,100.318115 C238.617631,103.620482 237.968672,108.325621 234.666794,110.827337 C234.421622,111.013096 234.177418,111.200101 233.934178,111.388352 Z M250.425643,101.249771 C246.687588,103.034992 242.210303,101.451459 240.425346,97.7128498 C238.640389,93.9742409 240.223688,89.4962919 243.961743,87.7110707 C244.284262,87.5570421 244.607892,87.4044198 244.932636,87.2532053 C248.687942,85.5045751 253.149554,87.1317585 254.897925,90.887621 C256.646296,94.6434835 255.019354,99.1057565 251.264048,100.854387 C250.983558,100.984995 250.704091,101.11679 250.425643,101.249771 Z M268.808118,94.5923796 C264.800104,95.6389332 260.702693,93.2377139 259.656294,89.2291061 C258.609896,85.2204984 261.010759,81.1224804 265.018773,80.0759267 C265.360424,79.9867164 265.703059,79.8987432 266.046681,79.8120079 C270.063101,78.7982025 274.140782,81.2327849 275.154438,85.2497999 C276.168093,89.2668148 273.733871,93.3451006 269.717451,94.358906 C269.413369,94.435661 269.110259,94.513486 268.808118,94.5923796 Z" id="Detail" fill="#6F7981" fill-rule="nonzero"></path>
            </g>
        </g>
    </g>
</svg>