<?xml version="1.0" encoding="UTF-8"?>
<svg width="757px" height="563px" viewBox="0 0 757 563" version="1.1" xmlns="http://www.w3.org/2000/svg" xmlns:xlink="http://www.w3.org/1999/xlink">
    <!-- Generator: Sketch 51 (57462) - http://www.bohemiancoding.com/sketch -->
    <title>Wacom</title>
    <desc>Created with Sketch.</desc>
    <defs>
        <linearGradient x1="50%" y1="0%" x2="50%" y2="100%" id="linearGradient-1">
            <stop stop-color="#393E41" stop-opacity="0" offset="0%"></stop>
            <stop stop-color="#000000" stop-opacity="0.3" offset="100%"></stop>
        </linearGradient>
        <path d="M0,455 L757,455 L757,464 C757,481.120827 743.120827,495 726,495 L31,495 C13.8791728,495 2.09669663e-15,481.120827 0,464 L0,455 Z" id="path-2"></path>
        <linearGradient x1="100%" y1="50%" x2="0%" y2="50%" id="linearGradient-3">
            <stop stop-color="#393E41" stop-opacity="0" offset="0%"></stop>
            <stop stop-color="#000000" stop-opacity="0.3" offset="100%"></stop>
        </linearGradient>
        <rect id="path-4" x="0" y="39" width="64" height="416"></rect>
        <linearGradient x1="0%" y1="39.6198555%" x2="100%" y2="39.6198541%" id="linearGradient-5">
            <stop stop-color="#393E41" stop-opacity="0" offset="0%"></stop>
            <stop stop-color="#000000" stop-opacity="0.3" offset="100%"></stop>
        </linearGradient>
        <rect id="path-6" x="728" y="39" width="29" height="416"></rect>
        <linearGradient x1="54.9763805%" y1="100%" x2="54.9763799%" y2="0%" id="linearGradient-7">
            <stop stop-color="#393E41" stop-opacity="0" offset="0%"></stop>
            <stop stop-color="#000000" stop-opacity="0.3" offset="100%"></stop>
        </linearGradient>
        <path d="M30,0 L727,0 C743.568542,-6.19068794e-14 757,13.4314575 757,30 L757,39 L0,39 L0,30 C-2.02906125e-15,13.4314575 13.4314575,3.04359188e-15 30,0 Z" id="path-8"></path>
        <linearGradient x1="0%" y1="0%" x2="100%" y2="100%" id="linearGradient-9">
            <stop stop-color="#000000" stop-opacity="0.441491168" offset="0%"></stop>
            <stop stop-color="#000000" stop-opacity="0" offset="100%"></stop>
        </linearGradient>
        <path d="M21,156 L43,156 C44.6568542,156 46,157.343146 46,159 L46,175 C46,176.656854 44.6568542,178 43,178 L21,178 C19.3431458,178 18,176.656854 18,175 L18,159 C18,157.343146 19.3431458,156 21,156 Z" id="path-10"></path>
        <path d="M21,287 L43,287 C44.6568542,287 46,288.343146 46,290 L46,306 C46,307.656854 44.6568542,309 43,309 L21,309 C19.3431458,309 18,307.656854 18,306 L18,290 C18,288.343146 19.3431458,287 21,287 Z" id="path-11"></path>
        <circle id="path-12" cx="32" cy="247" r="27"></circle>
        <circle id="path-13" cx="32" cy="247" r="11"></circle>
        <path d="M21,185 L43,185 C44.6568542,185 46,186.343146 46,188 L46,204 C46,205.656854 44.6568542,207 43,207 L21,207 C19.3431458,207 18,205.656854 18,204 L18,188 C18,186.343146 19.3431458,185 21,185 Z" id="path-14"></path>
        <path d="M21,316 L43,316 C44.6568542,316 46,317.343146 46,319 L46,335 C46,336.656854 44.6568542,338 43,338 L21,338 C19.3431458,338 18,336.656854 18,335 L18,319 C18,317.343146 19.3431458,316 21,316 Z" id="path-15"></path>
        <linearGradient x1="50%" y1="0%" x2="50%" y2="100%" id="linearGradient-16">
            <stop stop-color="#464D89" offset="0%"></stop>
            <stop stop-color="#FDC8C8" offset="100%"></stop>
        </linearGradient>
        <rect id="path-17" x="0" y="0" width="460" height="312"></rect>
        <path d="M329.439743,15.9204667 C323.727691,19.9938165 306.856287,28 304,28 C300.551295,28 293.715909,25.9259259 284,25.9259259 L11.9259259,25.9259259 C5.33941891,25.9259259 0,20.586507 0,14 C0,7.41590896 5.33746037,2.07844859 11.9215514,2.07844859 C183.810038,2.14032878 274.501423,2.13887918 284,2.07407407 C293.715909,2.0077862 300.551295,0 304,0 C306.856287,0 323.727691,8.00618355 329.439743,12.0795333 C329.617514,12.0277598 329.805515,12 330,12 L334,12 C335.104569,12 336,12.8954305 336,14 C336,15.1045695 335.104569,16 334,16 L330,16 C329.805515,16 329.617514,15.9722402 329.439743,15.9204667 Z" id="path-19"></path>
        <rect id="path-21" x="197" y="9" width="59" height="10" rx="5"></rect>
    </defs>
    <g id="Handsome" stroke="none" stroke-width="1" fill="none" fill-rule="evenodd">
        <g id="Primary" transform="translate(-2122.000000, -3915.000000)">
            <g id="Wacom" transform="translate(2122.000000, 3915.000000)">
                <g id="Group-4">
                    <g id="Detail">
                        <use fill="#393E41" xlink:href="#path-2"></use>
                        <use fill="url(#linearGradient-1)" xlink:href="#path-2"></use>
                    </g>
                    <g id="Detail">
                        <use fill="#393E41" xlink:href="#path-4"></use>
                        <use fill="url(#linearGradient-3)" xlink:href="#path-4"></use>
                    </g>
                    <g id="Detail">
                        <use fill="#393E41" xlink:href="#path-6"></use>
                        <use fill="url(#linearGradient-5)" xlink:href="#path-6"></use>
                    </g>
                    <rect id="Screen" fill="#000000" x="64" y="39" width="664" height="416"></rect>
                    <g id="Detail">
                        <use fill="#393E41" xlink:href="#path-8"></use>
                        <use fill="url(#linearGradient-7)" xlink:href="#path-8"></use>
                    </g>
                    <path d="M101,78 L134,78 L134,416 L101,416 C99.3431458,416 98,414.656854 98,413 L98,81 C98,79.3431458 99.3431458,78 101,78 Z" id="Menu" fill="#393E41"></path>
                    <path d="M594,78 L691,78 C692.656854,78 694,79.3431458 694,81 L694,413 C694,414.656854 692.656854,416 691,416 L594,416 L594,78 Z" id="Manu" fill="#393E41"></path>
                    <rect id="Button" fill="#4E565C" x="604" y="88" width="80" height="10" rx="5"></rect>
                    <rect id="Button" fill="#4E565C" x="604" y="148" width="80" height="10" rx="5"></rect>
                    <rect id="Button" fill="#4E565C" x="604" y="108" width="80" height="10" rx="5"></rect>
                    <rect id="Button" fill="#4E565C" x="604" y="168" width="80" height="10" rx="5"></rect>
                    <rect id="Button" fill="#4E565C" x="604" y="128" width="80" height="10" rx="5"></rect>
                    <rect id="Button" fill="#4E565C" x="604" y="188" width="80" height="10" rx="5"></rect>
                    <rect id="Detail" fill="#4E565C" x="604" y="208" width="80" height="80" rx="40"></rect>
                    <rect id="Menu" fill="#393E41" x="134" y="78" width="460" height="26"></rect>
                    <g id="Button">
                        <use fill="#393E41" xlink:href="#path-10"></use>
                        <use fill="url(#linearGradient-9)" xlink:href="#path-10"></use>
                    </g>
                    <g id="Button">
                        <use fill="#393E41" xlink:href="#path-11"></use>
                        <use fill="url(#linearGradient-9)" xlink:href="#path-11"></use>
                    </g>
                    <g id="Button">
                        <use fill="#393E41" xlink:href="#path-12"></use>
                        <use fill="url(#linearGradient-9)" xlink:href="#path-12"></use>
                    </g>
                    <g id="Button">
                        <use fill="#393E41" xlink:href="#path-13"></use>
                        <use fill="url(#linearGradient-9)" xlink:href="#path-13"></use>
                    </g>
                    <g id="Button">
                        <use fill="#393E41" xlink:href="#path-14"></use>
                        <use fill="url(#linearGradient-9)" xlink:href="#path-14"></use>
                    </g>
                    <g id="Button">
                        <use fill="#393E41" xlink:href="#path-15"></use>
                        <use fill="url(#linearGradient-9)" xlink:href="#path-15"></use>
                    </g>
                    <path d="M21,157 C19.8954305,157 19,157.895431 19,159 L19,175 C19,176.104569 19.8954305,177 21,177 L43,177 C44.1045695,177 45,176.104569 45,175 L45,159 C45,157.895431 44.1045695,157 43,157 L21,157 Z M21,156 L43,156 C44.6568542,156 46,157.343146 46,159 L46,175 C46,176.656854 44.6568542,178 43,178 L21,178 C19.3431458,178 18,176.656854 18,175 L18,159 C18,157.343146 19.3431458,156 21,156 Z" id="Button" fill-opacity="0.1" fill="#000000" fill-rule="nonzero"></path>
                    <path d="M21,288 C19.8954305,288 19,288.895431 19,290 L19,306 C19,307.104569 19.8954305,308 21,308 L43,308 C44.1045695,308 45,307.104569 45,306 L45,290 C45,288.895431 44.1045695,288 43,288 L21,288 Z M21,287 L43,287 C44.6568542,287 46,288.343146 46,290 L46,306 C46,307.656854 44.6568542,309 43,309 L21,309 C19.3431458,309 18,307.656854 18,306 L18,290 C18,288.343146 19.3431458,287 21,287 Z" id="Button" fill-opacity="0.1" fill="#000000" fill-rule="nonzero"></path>
                    <path d="M32,273 C46.3594035,273 58,261.359403 58,247 C58,232.640597 46.3594035,221 32,221 C17.6405965,221 6,232.640597 6,247 C6,261.359403 17.6405965,273 32,273 Z M32,274 C17.0883118,274 5,261.911688 5,247 C5,232.088312 17.0883118,220 32,220 C46.9116882,220 59,232.088312 59,247 C59,261.911688 46.9116882,274 32,274 Z" id="Button" fill-opacity="0.1" fill="#000000" fill-rule="nonzero"></path>
                    <path d="M32,257 C37.5228475,257 42,252.522847 42,247 C42,241.477153 37.5228475,237 32,237 C26.4771525,237 22,241.477153 22,247 C22,252.522847 26.4771525,257 32,257 Z M32,258 C25.9248678,258 21,253.075132 21,247 C21,240.924868 25.9248678,236 32,236 C38.0751322,236 43,240.924868 43,247 C43,253.075132 38.0751322,258 32,258 Z" id="Button" fill-opacity="0.1" fill="#000000" fill-rule="nonzero"></path>
                    <path d="M21,186 C19.8954305,186 19,186.895431 19,188 L19,204 C19,205.104569 19.8954305,206 21,206 L43,206 C44.1045695,206 45,205.104569 45,204 L45,188 C45,186.895431 44.1045695,186 43,186 L21,186 Z M21,185 L43,185 C44.6568542,185 46,186.343146 46,188 L46,204 C46,205.656854 44.6568542,207 43,207 L21,207 C19.3431458,207 18,205.656854 18,204 L18,188 C18,186.343146 19.3431458,185 21,185 Z" id="Button" fill-opacity="0.1" fill="#000000" fill-rule="nonzero"></path>
                    <path d="M21,317 C19.8954305,317 19,317.895431 19,319 L19,335 C19,336.104569 19.8954305,337 21,337 L43,337 C44.1045695,337 45,336.104569 45,335 L45,319 C45,317.895431 44.1045695,317 43,317 L21,317 Z M21,316 L43,316 C44.6568542,316 46,317.343146 46,319 L46,335 C46,336.656854 44.6568542,338 43,338 L21,338 C19.3431458,338 18,336.656854 18,335 L18,319 C18,317.343146 19.3431458,316 21,316 Z" id="Button" fill-opacity="0.1" fill="#000000" fill-rule="nonzero"></path>
                    <circle id="Button" fill="#4E565C" cx="116" cy="96" r="8"></circle>
                    <circle id="Button" fill="#4E565C" cx="116" cy="122" r="8"></circle>
                    <circle id="Button" fill="#4E565C" cx="116" cy="148" r="8"></circle>
                    <rect id="Button" fill="#4E565C" x="144" y="86" width="80" height="10" rx="5"></rect>
                    <circle id="Button" fill="#4E565C" cx="116" cy="174" r="8"></circle>
                    <circle id="Button" fill="#4E565C" cx="116" cy="200" r="8"></circle>
                    <circle id="Button" fill="#4E565C" cx="116" cy="226" r="8"></circle>
                    <circle id="Button" fill="#4E565C" cx="116" cy="252" r="8"></circle>
                    <g id="Image" transform="translate(134.000000, 104.000000)">
                        <mask id="mask-18" fill="white">
                            <use xlink:href="#path-17"></use>
                        </mask>
                        <use id="Bg" fill="url(#linearGradient-16)" xlink:href="#path-17"></use>
                        <g id="Stars" mask="url(#mask-18)" fill="#F7F7F8" opacity="0.400000006">
                            <g transform="translate(-51.000000, -8.000000)" id="Star">
                                <circle cx="162.5" cy="27.5" r="1.5"></circle>
                                <circle cx="101.5" cy="1.5" r="1.5"></circle>
                                <circle cx="212.5" cy="47.5" r="1.5"></circle>
                                <circle cx="151.5" cy="21.5" r="1.5"></circle>
                                <circle cx="232.5" cy="17.5" r="1.5"></circle>
                                <circle cx="272.5" cy="27.5" r="1.5"></circle>
                                <circle cx="211.5" cy="1.5" r="1.5"></circle>
                                <circle cx="81.5" cy="51.5" r="1.5"></circle>
                                <circle cx="161.5" cy="61.5" r="1.5"></circle>
                                <circle cx="371.5" cy="11.5" r="1.5"></circle>
                                <circle cx="371.5" cy="71.5" r="1.5"></circle>
                                <circle cx="341.5" cy="51.5" r="1.5"></circle>
                                <circle cx="461.5" cy="41.5" r="1.5"></circle>
                                <circle cx="332.5" cy="67.5" r="1.5"></circle>
                                <circle cx="271.5" cy="41.5" r="1.5"></circle>
                                <circle cx="373.5" cy="27.5" r="1.5"></circle>
                                <circle cx="382.5" cy="67.5" r="1.5"></circle>
                                <circle cx="321.5" cy="41.5" r="1.5"></circle>
                                <circle cx="392.5" cy="17.5" r="1.5"></circle>
                                <circle cx="31.5" cy="151.5" r="1.5"></circle>
                                <circle cx="192.5" cy="127.5" r="1.5"></circle>
                                <circle cx="131.5" cy="101.5" r="1.5"></circle>
                                <circle cx="331.5" cy="131.5" r="1.5"></circle>
                                <circle cx="202.5" cy="157.5" r="1.5"></circle>
                                <circle cx="141.5" cy="131.5" r="1.5"></circle>
                                <circle cx="243.5" cy="117.5" r="1.5"></circle>
                                <circle cx="252.5" cy="157.5" r="1.5"></circle>
                                <circle cx="191.5" cy="131.5" r="1.5"></circle>
                                <circle cx="262.5" cy="107.5" r="1.5"></circle>
                                <circle cx="252.5" cy="187.5" r="1.5"></circle>
                                <circle cx="191.5" cy="161.5" r="1.5"></circle>
                                <circle cx="302.5" cy="207.5" r="1.5"></circle>
                                <circle cx="241.5" cy="181.5" r="1.5"></circle>
                                <circle cx="321.5" cy="201.5" r="1.5"></circle>
                                <circle cx="422.5" cy="227.5" r="1.5"></circle>
                                <circle cx="361.5" cy="201.5" r="1.5"></circle>
                                <circle cx="463.5" cy="187.5" r="1.5"></circle>
                                <circle cx="472.5" cy="227.5" r="1.5"></circle>
                                <circle cx="411.5" cy="201.5" r="1.5"></circle>
                                <circle cx="482.5" cy="177.5" r="1.5"></circle>
                                <circle cx="452.5" cy="117.5" r="1.5"></circle>
                                <circle cx="391.5" cy="91.5" r="1.5"></circle>
                                <circle cx="502.5" cy="137.5" r="1.5"></circle>
                                <circle cx="441.5" cy="111.5" r="1.5"></circle>
                                <circle cx="522.5" cy="107.5" r="1.5"></circle>
                                <circle cx="562.5" cy="117.5" r="1.5"></circle>
                                <circle cx="501.5" cy="91.5" r="1.5"></circle>
                                <circle cx="371.5" cy="141.5" r="1.5"></circle>
                                <circle cx="451.5" cy="151.5" r="1.5"></circle>
                                <circle cx="121.5" cy="201.5" r="1.5"></circle>
                                <circle cx="112.5" cy="217.5" r="1.5"></circle>
                                <circle cx="51.5" cy="191.5" r="1.5"></circle>
                                <circle cx="51.5" cy="251.5" r="1.5"></circle>
                                <circle cx="21.5" cy="231.5" r="1.5"></circle>
                                <circle cx="141.5" cy="221.5" r="1.5"></circle>
                                <circle cx="62.5" cy="247.5" r="1.5"></circle>
                                <circle cx="1.5" cy="221.5" r="1.5"></circle>
                                <circle cx="72.5" cy="197.5" r="1.5"></circle>
                            </g>
                        </g>
                        <circle id="Sun" fill="#FCFCFC" opacity="0.200000003" mask="url(#mask-18)" cx="230" cy="268" r="150"></circle>
                        <path d="M0,277.207902 C121.186745,293.980776 212.520079,300.145991 274,295.703545 C335.479921,291.261099 397.479921,283.823562 460,273.390934 L460,312 L0,312 L0,277.207902 Z" id="Detail" fill="#252A4D" mask="url(#mask-18)"></path>
                        <path d="M246.172718,255.174375 L255,312 L210,312 L219.25468,252.422997 C217.563527,252.800733 215.805034,253 214,253 C200.745166,253 190,242.254834 190,229 C190,228.662403 190.00697,228.326435 190.020775,227.99223 C182.234475,227.739392 176,221.347766 176,213.5 C176,205.821899 181.967816,199.537656 189.51799,199.032729 C189.17794,197.240599 189,195.39108 189,193.5 C189,177.2076 202.2076,164 218.5,164 C233.678518,164 246.179621,175.463375 247.818029,190.204845 C251.89665,187.545483 256.767842,186 262,186 C276.359403,186 288,197.640597 288,212 C288,223.955287 279.930949,234.025947 268.941846,237.062979 C268.980364,237.536897 269,238.016156 269,238.5 C269,248.164983 261.164983,256 251.5,256 C249.642431,256 247.852459,255.710581 246.172718,255.174375 Z" id="Tree" fill="#252A4D" mask="url(#mask-18)"></path>
                        <path d="M341.054426,281.13919 C341.522187,281.047856 342.005505,281 342.5,281 C346.642136,281 350,284.357864 350,288.5 C350,292.642136 346.642136,296 342.5,296 C340.587502,296 338.842198,295.284159 337.517407,294.105798 C335.813372,295.299519 333.738489,296 331.5,296 C329.335587,296 327.324131,295.345112 325.652973,294.222678 C324.178388,300.95815 318.177988,306 311,306 C304.394496,306 298.786232,301.730309 296.784512,295.800232 C296.210697,295.930962 295.613411,296 295,296 C293.558312,296 292.205693,295.618646 291.037518,294.95131 C288.303227,298.62233 283.929281,301 279,301 C274.890612,301 271.167184,299.34751 268.457974,296.670789 C267.152662,300.358411 263.634819,303 259.5,303 C254.253295,303 250,298.746705 250,293.5 C250,288.253295 254.253295,284 259.5,284 C260.010877,284 260.512334,284.040326 261.001364,284.117968 C261.000456,284.078755 261,284.039431 261,284 C261,281.330443 263.092109,279.149523 265.7262,279.007369 C268.239919,274.245545 273.240941,271 279,271 C285.260975,271 290.626025,274.83591 292.873207,280.285789 C293.550425,280.0995 294.263593,280 295,280 C296.664923,280 298.211057,280.508597 299.491511,281.378902 C302.243081,278.091066 306.377343,276 311,276 C315.383071,276 319.327061,277.879929 322.06964,280.877459 C323.779287,277.396223 327.359809,275 331.5,275 C335.743158,275 339.398464,277.516894 341.054426,281.13919 Z" id="Flowers" fill="#252A4D" mask="url(#mask-18)"></path>
                        <path d="M144.800285,301.385142 C143.286288,302.404835 141.462648,303 139.5,303 C136.517391,303 133.855814,301.6255 132.114136,299.475367 C130.291687,300.448407 128.210259,301 126,301 C118.820298,301 113,295.179702 113,288 C113,280.820298 118.820298,275 126,275 C131.807594,275 136.725725,278.808245 138.393416,284.063761 C138.756432,284.021648 139.125688,284 139.5,284 C141.462648,284 143.286288,284.595165 144.800285,285.614858 C147.092289,282.798833 150.586075,281 154.5,281 C158.308264,281 161.718765,282.70302 164.011476,285.38903 C166.284402,279.320125 172.137691,275 179,275 C181.373077,275 183.625488,275.51663 185.650897,276.443552 C187.08469,272.676565 190.729772,270 195,270 C200.522847,270 205,274.477153 205,280 C205,280.01094 204.999982,280.021876 204.999947,280.032808 C205.330485,280.011051 205.663952,280 206,280 C214.284271,280 221,286.715729 221,295 C221,303.284271 214.284271,310 206,310 C199.601484,310 194.138689,305.993704 191.983232,300.35273 C189.077543,304.379268 184.344824,307 179,307 C173.296066,307 168.289252,304.015272 165.456194,299.522449 C163.329126,303.383837 159.220082,306 154.5,306 C150.586075,306 147.092289,304.201167 144.800285,301.385142 Z" id="Flowers" fill="#252A4D" mask="url(#mask-18)"></path>
                    </g>
                </g>
                <g id="Pen" transform="translate(210.000000, 535.000000)">
                    <g id="Detail">
                        <mask id="mask-20" fill="white">
                            <use xlink:href="#path-19"></use>
                        </mask>
                        <g>
                            <use fill="#393E41" xlink:href="#path-19"></use>
                            <use fill="url(#linearGradient-1)" xlink:href="#path-19"></use>
                        </g>
                        <path d="M301.489025,35.1041872 L300.510975,34.8958128 C302.126129,27.3147495 302.5,22.0805544 302.5,14 C302.5,5.91944558 302.126129,0.685250544 300.510975,-6.8958128 L301.489025,-7.1041872 C303.121692,0.559079499 303.5,5.85539749 303.5,14 C303.5,22.1446025 303.121692,27.4409205 301.489025,35.1041872 Z" fill="#272B2C" fill-rule="nonzero" mask="url(#mask-20)"></path>
                    </g>
                    <rect id="Detail" fill="#4E5458" x="24" y="10" width="46" height="8" rx="4"></rect>
                    <g id="Button">
                        <use fill="#393E41" xlink:href="#path-21"></use>
                        <rect stroke-opacity="0.1" stroke="#000000" stroke-width="1" stroke-linejoin="square" fill="url(#linearGradient-9)" x="197.5" y="9.5" width="58" height="9" rx="4.5"></rect>
                    </g>
                    <rect id="Detail" fill="#272B2C" x="226" y="9" width="1" height="10"></rect>
                </g>
            </g>
        </g>
    </g>
</svg>