<?xml version="1.0" encoding="UTF-8"?>
<svg width="1231px" height="822px" viewBox="0 0 1231 822" version="1.1" xmlns="http://www.w3.org/2000/svg" xmlns:xlink="http://www.w3.org/1999/xlink">
    <!-- Generator: Sketch 51 (57462) - http://www.bohemiancoding.com/sketch -->
    <title>Aquarium</title>
    <desc>Created with Sketch.</desc>
    <defs>
        <path d="M1007,616 C1241.80717,490.031152 1309.14328,92.75881 1050,15 C790.851402,-62.1863062 727.070144,180.041379 610,180 C492.082781,180.041379 448.642349,55.3924772 293,55 C136.913423,55.3924772 -49.8355351,176.688051 12,439 C74.2670326,701.037832 771.795702,742.822605 1007,616 Z" id="path-1"></path>
    </defs>
    <g id="Handsome" stroke="none" stroke-width="1" fill="none" fill-rule="evenodd">
        <g id="Backgrounds" transform="translate(-472.000000, -269.000000)">
            <g id="Aquarium" transform="translate(473.000000, 269.000000)">
                <g id="Bg" transform="translate(0.000000, 136.000000)">
                    <mask id="mask-2" fill="white">
                        <use xlink:href="#path-1"></use>
                    </mask>
                    <use fill="#F2F5F9" xlink:href="#path-1"></use>
                    <path d="M83,583 C54.29025,583 -38.9480734,489.694973 -30,429 C-16.255768,331.881052 59.106249,481.559412 86,461 C112.574329,440.543949 -23.7195352,353.702195 16,306 C56.1161584,258.564453 130.296556,444.364491 103,344 C76.1264349,244.85934 85.9315507,169.217079 138,178 C190.348876,186.535126 189.42803,291.670216 146,352 C102.848465,411.792774 221.940932,315.368316 241,367 C261.406271,419.784543 136.773527,436.012155 149,472 C162.032007,507.175406 211.393546,431.751505 247,464 C282.885962,495.735334 111.883833,583 83,583 Z" id="Flowers" fill="#E2EAF5" mask="url(#mask-2)" transform="translate(110.500000, 380.000000) scale(-1, 1) translate(-110.500000, -380.000000) "></path>
                </g>
                <path d="M99.8143654,694.554569 C187.425423,615.615746 271.153968,593.097556 351,627 C522.168716,699.993196 631.179033,825.403132 866,710 C963.297178,661.897145 1048.38193,643.669482 1121.25427,655.317011 C1089.88827,694.593577 1051.4441,728.156727 1007,752 C813.776643,856.186401 308.538248,846.582485 99.8143612,694.554573 L99.8143654,694.554569 Z" id="Detail" fill="#D3E0F1"></path>
                <path d="M652.966023,711.948692 C652.092152,638.556272 667.212414,533.537934 690,550 C729.923783,578.102964 736.91391,656.711426 685,760 C677.295269,775.427654 671.122369,780.800909 666.330356,778.895209 C663.706257,780.243014 659.096006,778.026528 652,771 C599.404216,718.604032 586.887357,668.199685 604,641 C612.792596,628.160882 636.705463,670.738335 652.966023,711.948692 Z" id="Flowers" fill="#B6C5D9"></path>
                <path d="M925,784 C627.862658,594.347948 879.514262,532.150165 898,493 C917.177277,453.263365 799.578793,362.702612 838,310 C876.125209,260.164174 977.446358,334.026205 978,275 C977.446358,215.834646 885.81779,199.586846 855,98 C827.073153,-3.5950824 1018.9764,-54.2367459 1067,87 C1113.73529,227.275784 1037.32706,287.288759 1096,295 C1155.08104,305.266555 1221.81913,275.524103 1229,340 C1234.827,405.584542 1066.35585,444.507173 1067,505 C1066.35585,563.448262 1281.41475,704.791524 925,784 Z" id="Flower" fill="#E2EAF5"></path>
                <path d="M511,162 C530.639613,233.65553 601.324051,264.465252 630,242 C658.253026,218.609915 643.074338,155.332964 615,121 C586.145364,87.2542204 490.789331,89.4737155 511,162 Z" id="Bg" fill="#F2F5F9"></path>
                <path d="M879.686279,640.605321 C885.925039,630.236207 896.939617,617.756439 910.933312,605.980679 C937.368827,583.73507 964.425344,572.425819 971.365735,580.720761 C978.306125,589.015703 962.502203,613.773712 936.066688,636.019321 C914.630728,654.057782 892.786445,664.905345 881.59025,663.940585 C881.464896,694.888678 869.906357,723.119351 843.816718,750.717421 L840.183282,747.282579 C865.547493,720.45188 876.591281,693.28777 876.591281,663.430986 C876.591281,663.020831 876.589228,662.610193 876.585126,662.199037 C876.400561,662.054286 876.224972,661.900568 876.058569,661.737793 C870.526138,670.818812 841.997267,664.926876 812.01754,648.455667 C781.821534,631.865631 761.588276,610.825439 766.825294,601.461083 C772.062311,592.096727 800.786453,597.954298 830.98246,614.544333 C852.590582,626.416086 869.097013,640.566661 874.819178,651.086852 C875.06571,650.244686 875.366574,649.371052 875.719973,648.468765 C874.807141,640.426304 873.182959,632.060594 870.875304,623.131955 C867.968085,611.88352 864.763714,602.094805 858.188659,583.500695 C850.681437,562.270434 848.264929,555.068177 845.382853,544.452801 C845.174358,543.684862 844.971297,542.922193 844.773689,542.164604 C838.607526,550.626433 810.5148,544.661803 781.01754,528.455667 C750.821534,511.865631 730.588276,490.825439 735.825294,481.461083 C741.062311,472.096727 769.786453,477.954298 799.98246,494.544333 C819.191498,505.098001 834.368807,517.452561 841.522199,527.45661 C840.181426,519.864328 839.5,512.72129 839.5,505.782098 C839.5,488.071655 841.980318,470.59557 846.765307,451.867125 C848.867565,443.638885 851.094404,436.113604 854.155555,426.917254 C843.997391,428.455276 825.267818,408.396065 810.734082,379.815004 C795.205349,349.277248 790.347038,320.574894 799.882741,315.706501 C809.418444,310.838109 829.737185,331.64724 845.265918,362.184996 C854.019259,379.398724 859.382151,396.029267 860.687671,408.13652 C861.314067,406.387182 861.967025,404.572632 862.64872,402.68559 C867.934504,388.053686 868.786094,385.67364 870.910459,379.464078 C875.966333,364.68565 879.655118,351.923708 882.058672,340.029805 C872.930414,334.820304 866,309.254198 866,278.5 C866,243.982203 874.730447,216 885.5,216 C896.269553,216 905,243.982203 905,278.5 C905,311.397068 897.070154,338.357871 887.002823,340.817149 C884.552554,353.001424 880.790597,366.030949 875.641269,381.082544 C873.503616,387.330949 872.649154,389.719022 867.35128,404.384393 C867.063872,405.179985 866.78162,405.962561 866.50436,406.732673 C874.39321,398.227959 886.250825,388.830405 900.432253,380.376491 C930.008225,362.745491 958.491772,355.895341 964.052035,365.076252 C969.612298,374.257162 950.143719,395.99251 920.567747,413.623509 C892.837957,430.153952 866.068467,437.207456 858.251858,430.456896 C855.555451,438.670596 853.527398,445.598937 851.609693,453.104832 C846.922381,471.45097 844.5,488.51884 844.5,505.782098 C844.5,511.972667 845.070443,518.36124 846.197972,525.138331 C851.673946,514.012355 863.831458,499.530465 879.933312,485.980679 C906.368827,463.73507 933.425344,452.425819 940.365735,460.720761 C947.306125,469.015703 931.502203,493.773712 905.066688,516.019321 C883.522486,534.148868 861.565827,545.014712 850.421458,543.925066 C853.168665,553.95927 855.628293,561.262152 862.902621,581.833793 C869.524309,600.559781 872.761788,610.449631 875.716232,621.880791 C877.393569,628.370641 878.720836,634.582961 879.686279,640.605321 Z" id="Flowers" fill="#B6C5D9" fill-rule="nonzero"></path>
                <path d="M965.709156,770.798434 C874.083933,806.219571 739.597163,823.458655 600.185581,820.730613 C700.76805,718.062647 786.102406,684.234085 856.188679,719.244898 C892.324194,737.308589 929.382372,755.12475 965.709156,770.798434 Z" id="Detail" fill="#D3E0F1"></path>
            </g>
        </g>
    </g>
</svg>