<?xml version="1.0" encoding="UTF-8"?>
<svg width="1278px" height="639px" viewBox="0 0 1278 639" version="1.1" xmlns="http://www.w3.org/2000/svg" xmlns:xlink="http://www.w3.org/1999/xlink">
    <!-- Generator: Sketch 51 (57462) - http://www.bohemiancoding.com/sketch -->
    <title>Bench</title>
    <desc>Created with Sketch.</desc>
    <defs></defs>
    <g id="Handsome" stroke="none" stroke-width="1" fill="none" fill-rule="evenodd">
        <g id="Backgrounds" transform="translate(-4799.000000, -2674.000000)">
            <g id="Bench" transform="translate(4799.000000, 2674.000000)">
                <path d="M196,26 C484.516406,-91.8242007 690.963228,244.063671 987,244 C1283.6298,244.063671 1283.6298,482.531541 1211,554 C1161.97018,602.247098 1105.63684,630.580432 1042,639 L107,639 C-25.4428852,309.014548 4.22378145,104.681214 196,26 Z" id="Detail" fill="#F2F5F9"></path>
                <path d="M755.009338,124.58556 C791.465758,124.58556 1219.3795,124.58556 1219.3795,124.58556 C1219.3795,124.58556 1231.96347,74.3928822 1143.79102,91.1237749 C1055.61856,107.854668 1069.41992,60.6501139 1016.64925,49.7522484 C963.878584,38.8543829 938.586943,83.2641075 858.141946,60.6501139 C777.69695,38.0361203 718.552918,124.58556 755.009338,124.58556 Z" id="Detail" fill="#F2F5F9"></path>
                <path d="M0,639.000006 C0,589.62948 46.938569,553 97,553 C129.346883,553 158.033457,568.671645 175.881207,592.83642 C186.464608,584.781812 199.673878,580 214,580 C229.503283,580 243.698633,585.59993 254.673646,594.887387 C266.073873,562.340955 297.061151,539 333.5,539 C345.689305,539 357.268581,541.611844 367.708709,546.306412 C376.207356,527.268514 395.304164,514 417.5,514 C442.81651,514 464.101302,531.261835 470.226612,554.657738 C473.422544,554.224017 476.685111,554 480,554 C496.64945,554 511.978984,559.651231 524.175075,569.140166 C539.055669,544.485394 566.10265,528 597,528 C626.745299,528 652.922008,543.278951 668.11008,566.416806 C677.882035,559.239515 689.945922,555 703,555 C724.968415,555 744.13253,567.006632 754.288206,584.815757 C766.541913,566.249816 787.590408,554 811.5,554 C837.420001,554 859.977533,568.396445 871.612741,589.62948 C886.623958,559.611701 917.654919,539 953.5,539 C979.267978,539 1002.54814,549.651613 1019.17766,566.792012 C1031.13952,549.972125 1050.78842,539 1073,539 C1089.79309,539 1105.12133,545.271816 1116.77011,555.600856 C1132.06431,530.647398 1159.58805,514 1191,514 C1239.04877,514 1278,552.951227 1278,601 C1278,614.625121 1274.5835,627.518698 1269,639.000006 L0,639.000006 Z" id="Detail" fill="#D3E0F1"></path>
                <g id="Detail" transform="translate(322.000000, 314.000000)" fill="#B6C5D9">
                    <path d="M33,0 L601,0 C602.656854,-3.04359188e-16 604,1.34314575 604,3 L604,33 C604,34.6568542 602.656854,36 601,36 L33,36 C31.3431458,36 30,34.6568542 30,33 L30,3 C30,1.34314575 31.3431458,3.04359188e-16 33,0 Z"></path>
                    <path d="M33,47 L601,47 C602.656854,47 604,48.3431458 604,50 L604,80 C604,81.6568542 602.656854,83 601,83 L33,83 C31.3431458,83 30,81.6568542 30,80 L30,50 C30,48.3431458 31.3431458,47 33,47 Z"></path>
                    <path d="M33,93 L601,93 C602.656854,93 604,94.3431458 604,96 L604,126 C604,127.656854 602.656854,129 601,129 L33,129 C31.3431458,129 30,127.656854 30,126 L30,96 C30,94.3431458 31.3431458,93 33,93 Z"></path>
                    <path d="M3,149 L631,149 C632.656854,149 634,150.343146 634,152 L634,182 C634,183.656854 632.656854,185 631,185 L3,185 C1.34314575,185 2.02906125e-16,183.656854 0,182 L0,152 C-2.02906125e-16,150.343146 1.34314575,149 3,149 Z"></path>
                    <polygon points="87 0 97 0 97 149 87 149"></polygon>
                    <polygon points="537 0 547 0 547 149 537 149"></polygon>
                    <path d="M64,185 L97,185 L97,322 C97,323.656854 95.6568542,325 94,325 L67,325 C65.3431458,325 64,323.656854 64,322 L64,185 Z"></path>
                    <path d="M537,185 L570,185 L570,322 C570,323.656854 568.656854,325 567,325 L540,325 C538.343146,325 537,323.656854 537,322 L537,185 Z"></path>
                </g>
            </g>
        </g>
    </g>
</svg>