<?xml version="1.0" encoding="UTF-8"?>
<svg width="1317px" height="692px" viewBox="0 0 1317 692" version="1.1" xmlns="http://www.w3.org/2000/svg" xmlns:xlink="http://www.w3.org/1999/xlink">
    <!-- Generator: Sketch 51 (57462) - http://www.bohemiancoding.com/sketch -->
    <title>Detail</title>
    <desc>Created with Sketch.</desc>
    <defs>
        <path d="M37,609 C-45.6139405,280.126892 10.2337224,82.9731942 204.542989,17.5389053 C496.006888,-80.6125279 632.208497,271.210655 757,242 C881.791503,212.789345 1034.20243,45.2525607 1210,178 C1327.44683,266.009109 1348.11349,409.675776 1272,609 L37,609 Z" id="path-1"></path>
    </defs>
    <g id="Handsome" stroke="none" stroke-width="1" fill="none" fill-rule="evenodd">
        <g id="Backgrounds" transform="translate(-3329.000000, -1491.000000)">
            <g id="Detail" transform="translate(3329.000000, 1491.000000)">
                <g id="Diagram" transform="translate(0.000000, 83.000000)">
                    <mask id="mask-2" fill="white">
                        <use xlink:href="#path-1"></use>
                    </mask>
                    <use id="Detail" fill="#F2F5F9" xlink:href="#path-1"></use>
                    <path d="M1315.97763,242.549501 C1318.73903,242.537145 1320.98759,244.765683 1320.99995,247.52708 C1321.01231,250.288476 1318.78377,252.537045 1316.02237,252.549401 C1299.29511,252.624242 1287.18412,264.948306 1277.75114,290.005191 C1270.26646,309.886813 1266.08794,330.160226 1258.2056,378.434951 C1250.02658,428.52425 1245.65574,449.588064 1237.66338,470.549285 C1226.6981,499.307426 1211.26497,514.718249 1189.01331,514.659323 C1176.86505,514.691663 1166.67123,507.650763 1158.30449,494.544765 C1151.03481,483.157235 1144.97656,467.010603 1139.73655,445.984932 C1131.48579,412.878596 1126.52155,377.072439 1118.43349,302.367908 C1118.28626,301.008069 1118.13436,299.603757 1117.94066,297.812054 C1117.88196,297.269156 1117.54536,294.155136 1117.44846,293.258962 C1109.49732,219.718664 1105.16158,187.490748 1097.86711,156.717064 C1088.74159,118.218632 1077.15792,99 1063,99 C1047.51043,99 1035.56614,112.619191 1025.77835,140.289648 C1018.01748,162.229923 1013.40895,184.478714 1004.35292,237.631003 C995.160805,291.582024 990.514901,314.028037 982.511292,336.686609 C971.496109,367.871077 956.874275,384.574599 935.998136,384.582417 C916.142764,384.575014 901.069408,376.816891 889.221891,362.076219 C880.425378,351.131603 874.866527,339.542806 865.421902,315.386205 C865.248058,314.941563 865.071628,314.489978 864.831956,313.876282 C864.537483,313.122212 864.537483,313.122212 864.243378,312.369209 C855.355836,289.617739 850.631638,279.548458 843.441798,270.213563 C834.425125,258.506807 823.632577,252.625091 809.025889,252.549384 C796.575998,252.613846 787.04169,263.86819 779.354249,287.181772 C773.046606,306.310862 769.079283,327.870381 762.53994,373.178732 C762.290994,374.903578 761.294215,381.825737 761.043921,383.559955 C760.458493,387.616228 759.986175,390.866636 759.525511,394.001486 C752.350997,442.824516 746.424667,471.38497 736.985386,495.296702 C724.495765,526.935603 706.883308,544 682,544 C668.541706,544 657.471131,536.513987 648.694503,522.537961 C641.034885,510.340677 634.971319,493.056558 630.055058,470.535101 C622.359955,435.283727 618.603097,398.710664 612.670012,316.861492 C612.597092,315.855532 612.53048,314.936186 612.391021,313.011237 C606.475759,231.366509 603.019321,196.961894 595.852328,163.129169 C586.783528,120.318714 573.782789,99 556,99 C536.853354,99 522.254338,112.909511 510.593014,140.564934 C501.036878,163.227797 494.368602,191.60855 486.486098,237.635219 C485.748419,241.942596 485.003182,246.367534 484.038962,252.147381 C483.974777,252.532122 482.162287,263.419077 481.638273,266.549167 C474.772205,307.562245 470.371877,328.763498 464.065738,346.987625 C455.594153,371.469682 444.644936,384.575197 429.002308,384.582417 C412.401038,384.590079 399.151,374.72283 387.652485,356.244247 C379.27632,342.783407 373.549861,329.151569 362.018395,297.83423 C361.721578,297.028087 361.721578,297.028087 361.42485,296.222189 C349.984355,265.152176 344.269624,251.585245 336.163872,238.651828 C325.993827,222.424652 315.113793,214.406593 302,214.406593 C292.11731,214.406593 284.049504,225.523889 277.482929,248.789404 C271.970702,268.319344 268.336821,291.378045 262.745566,337.132729 C262.402222,339.942398 260.879971,352.471415 260.465533,355.85977 C259.568479,363.193897 258.829151,369.126695 258.095473,374.840131 C251.30154,427.747134 244.65875,461.945017 234.312063,489.271528 C220.863969,524.789124 201.805966,544 175,544 C148.189659,544 131.610529,522.39161 121.862617,482.009756 C117.88231,465.520877 114.975825,445.848709 112.689248,421.588535 C110.962668,403.269834 109.938669,387.808218 107.928918,352.809499 C107.877462,351.913414 107.877462,351.913414 107.825999,351.017379 C105.859382,316.780395 104.770182,300.532883 103.003408,282.140645 C100.698506,258.146457 97.7675563,238.715722 93.7968578,222.590247 C84.7261942,185.753212 70.5337693,167.533556 49.0166295,167.461511 C26.426437,167.536644 12.2296159,177.228205 3.07705463,196.491986 C-4.20507194,211.818984 -7.44909954,228.592622 -11.7004868,264.759603 C-11.7864161,265.490612 -11.8148269,265.732731 -12.0211522,267.491701 C-14.207946,286.134613 -15.3305468,294.545832 -17.1493589,304.41397 C-19.5733522,317.565576 -22.584127,328.266333 -26.6584606,337.290066 C-36.6182416,359.348741 -53.0530855,370.987805 -78.0195727,370.890072 C-80.7809753,370.879262 -83.0107714,368.63194 -82.9999617,365.870537 C-82.989152,363.109135 -80.7418299,360.879338 -77.9804273,360.890148 C-57.1459892,360.971706 -44.1757566,351.786261 -35.7725078,333.174954 C-29.0890402,318.372576 -26.2532259,302.986596 -21.9530589,266.326699 C-21.746611,264.566684 -21.7181747,264.324348 -21.6321059,263.592152 C-19.5288665,245.699682 -18.2169454,236.168585 -16.2387544,225.940109 C-13.6427722,212.517269 -10.3750581,201.502983 -5.95530868,192.200551 C4.79569577,169.57246 22.4070298,157.549957 49.0167155,157.461566 C76.4280685,157.553206 93.4672467,179.427407 103.506818,220.19929 C107.611862,236.87036 110.610163,256.747597 112.957586,281.184438 C114.740694,299.746717 115.835573,316.078927 117.809542,350.443911 C117.861015,351.340109 117.861015,351.340109 117.912471,352.236208 C119.915067,387.110319 120.934002,402.495472 122.645125,420.650171 C124.890781,444.476186 127.732652,463.711022 131.583407,479.663222 C140.373949,516.079055 154.123871,534 175,534 C196.742637,534 212.819771,517.793904 224.959985,485.730533 C234.94731,459.353131 241.478449,425.730041 248.176917,373.566462 C248.907672,367.875782 249.644681,361.961591 250.539506,354.645694 C250.953315,351.262479 252.475478,338.734192 252.819405,335.919745 C258.476271,289.628147 262.155957,266.278797 267.85892,246.073075 C275.53105,218.890554 286.04204,204.406593 302,204.406593 C319.144403,204.406593 332.818828,214.483984 344.637263,233.341306 C353.249179,247.082352 359.113146,261.003571 370.808903,292.766825 C371.105758,293.573068 371.105758,293.573068 371.402458,294.378892 C382.681686,325.011199 388.263186,338.297964 396.1429,350.960986 C405.997226,366.79729 416.459101,374.588205 428.997692,374.582418 C439.0467,374.57778 447.394265,364.586276 454.615523,343.717544 C460.673025,326.211954 465.005334,305.338424 471.775528,264.898028 C472.298655,261.773239 474.110435,250.890549 474.175275,250.501875 C475.141658,244.709065 475.889077,240.271173 476.629598,235.9472 C484.637356,189.189164 491.433034,160.266177 501.37868,136.679572 C514.431589,105.723932 531.984539,89 556,89 C568.939616,89 579.540429,96.3721972 587.911289,110.098799 C595.194913,122.042544 600.955861,138.967201 605.635235,161.056796 C609.705579,180.271387 612.943978,203.244825 615.792673,231.600091 C617.95143,253.087871 619.407424,271.468696 622.364878,312.288619 C622.504337,314.213571 622.570936,315.132737 622.643842,316.138508 C628.538854,397.462449 632.27149,433.79971 639.824991,468.402399 C649.373837,512.145795 663.097783,534 682,534 C701.94517,534 716.537085,519.862153 727.683892,491.624889 C736.749018,468.660973 742.567557,440.619992 749.631764,392.547606 C750.090997,389.422495 750.562166,386.179996 751.146473,382.13149 C751.396459,380.399399 752.393241,373.47722 752.642496,371.750236 C759.271395,325.821392 763.296928,303.945546 769.857231,284.050217 C778.742262,257.104721 790.994081,242.642614 809.025823,242.549517 C826.923961,242.641957 840.545971,250.06567 851.364284,264.111577 C859.34219,274.469656 864.313655,285.065967 873.557917,308.730615 C873.852454,309.484725 873.852454,309.484725 874.146799,310.238469 C874.386053,310.851092 874.562072,311.301625 874.735371,311.744872 C883.807453,334.948619 889.075928,345.932057 897.016378,355.811558 C907.027577,368.267486 919.28483,374.576185 935.998127,374.582418 C951.423045,374.57664 963.324378,360.980933 973.082233,333.356015 C980.81972,311.45085 985.410055,289.273304 994.463444,236.136499 C1003.65836,182.16906 1008.32285,159.650106 1016.35077,136.954858 C1027.39721,105.726171 1042.06638,89 1063,89 C1074.11917,89 1083.36249,95.7782798 1090.9069,108.295319 C1097.41866,119.099077 1102.85674,134.410492 1107.59749,154.410613 C1115.0266,185.752301 1119.38934,218.18096 1127.39052,292.184031 C1127.48743,293.080359 1127.82404,296.194441 1127.88272,296.737213 C1128.07637,298.528446 1128.22822,299.932283 1128.37539,301.291524 C1136.41069,375.508803 1141.34103,411.070444 1149.43975,443.5667 C1159.58641,484.280378 1172.62396,504.702918 1189.01323,504.659358 C1206.23957,504.704922 1218.67096,492.291507 1228.31956,466.986553 C1235.97596,446.90645 1240.27744,426.176888 1248.17709,377.798496 C1256.33715,327.822935 1260.58155,307.229866 1268.39236,286.481961 C1279.12356,257.976581 1294.18812,242.646992 1315.97763,242.549501 Z" id="Detail" fill="#FFFFFF" fill-rule="nonzero" mask="url(#mask-2)"></path>
                </g>
                <path d="M32,662 L1280,662 C1288.28427,662 1295,668.715729 1295,677 C1295,685.284271 1288.28427,692 1280,692 L32,692 C23.7157288,692 17,685.284271 17,677 C17,668.715729 23.7157288,662 32,662 Z" fill="#D3E0F1"></path>
                <path d="M946.740887,154.757376 L876,154.757376 C874.343146,154.757376 873,153.41423 873,151.757376 C873,150.960058 873.317394,150.195537 873.882087,149.632653 L1023.11776,0.875277409 C1024.29121,-0.294413425 1026.19071,-0.29136448 1027.3604,0.882087418 L1027.36041,0.882098401 L1027.3604,0.88210935 L1175.63944,149.639474 C1176.80913,150.812932 1176.80607,152.712425 1175.63261,153.882109 C1175.07028,154.44263 1174.30868,154.757376 1173.51471,154.757376 L1102.74089,154.757376 L1102.74089,661.757376 L946.740887,661.757376 L946.740887,154.757376 Z" fill="#D3E0F1"></path>
                <path d="M186.740887,304.757376 L116,304.757376 C114.343146,304.757376 113,303.41423 113,301.757376 C113,300.960058 113.317394,300.195537 113.882087,299.632653 L263.117761,150.875277 C264.291213,149.705587 266.190705,149.708636 267.360396,150.882087 L267.360407,150.882098 L267.360396,150.882109 L415.639441,299.639474 C416.809126,300.812932 416.806067,302.712425 415.632609,303.882109 C415.07028,304.44263 414.308683,304.757376 413.514708,304.757376 L342.740887,304.757376 L342.740887,661.757376 L186.740887,661.757376 L186.740887,304.757376 Z" fill="#D3E0F1"></path>
            </g>
        </g>
    </g>
</svg>