<?xml version="1.0" encoding="UTF-8"?>
<svg width="1302px" height="703px" viewBox="0 0 1302 703" version="1.1" xmlns="http://www.w3.org/2000/svg" xmlns:xlink="http://www.w3.org/1999/xlink">
    <!-- Generator: Sketch 51 (57462) - http://www.bohemiancoding.com/sketch -->
    <title>Home</title>
    <desc>Created with Sketch.</desc>
    <defs>
        <path d="M1069,4 C1279.022,28.1166416 1344.022,261.116642 1264,703 L6,703 C-10.5175735,562.854763 8.1490932,467.854763 62,418 C254.141467,241.655957 431.796966,349.015633 570,286 C740.352452,207.634102 754.499019,-32.7060052 1069,4 Z" id="path-1"></path>
        <rect id="path-3" x="20" y="20" width="733" height="733"></rect>
        <path d="M42.5057566,0 L135.494243,0 C136.945003,-2.66500222e-16 138.187897,1.03812979 138.44628,2.4656948 L177.360307,217.465695 C177.655395,219.096059 176.57294,220.656948 174.942576,220.952036 C174.766264,220.983948 174.587447,221 174.408271,221 L3.59172949,221 C1.93487524,221 0.591729487,219.656854 0.591729487,218 C0.591729487,217.820823 0.607781568,217.642007 0.639693249,217.465695 L39.5537204,2.4656948 C39.8121032,1.03812979 41.054997,2.66500222e-16 42.5057566,0 Z" id="path-5"></path>
    </defs>
    <g id="Handsome" stroke="none" stroke-width="1" fill="none" fill-rule="evenodd">
        <g id="Backgrounds" transform="translate(-6237.000000, -329.000000)">
            <g id="Home" transform="translate(6237.000000, 329.000000)">
                <g transform="translate(4.000000, 0.000000)">
                    <mask id="mask-2" fill="white">
                        <use xlink:href="#path-1"></use>
                    </mask>
                    <use id="Bg" fill="#F2F5F9" xlink:href="#path-1"></use>
                    <g id="Window" mask="url(#mask-2)">
                        <g transform="translate(570.000000, -180.000000)">
                            <path d="M21,0 L752,0 C763.59798,-3.55271368e-15 773,9.40202025 773,21 L773,752 C773,763.59798 763.59798,773 752,773 L21,773 C9.40202025,773 1.32160949e-12,763.59798 0,752 L0,21 C0,9.40202025 9.40202025,3.55271368e-15 21,0 Z" id="Detail" stroke="none" fill="#FFFFFF" fill-rule="nonzero"></path>
                            <mask id="mask-4" fill="white">
                                <use xlink:href="#path-3"></use>
                            </mask>
                            <use id="Detail" stroke="none" fill="#E2EAF5" fill-rule="evenodd" xlink:href="#path-3"></use>
                            <rect id="Detail" stroke="none" fill="#B6C5D9" fill-rule="evenodd" mask="url(#mask-4)" x="429" y="553" width="350" height="482"></rect>
                            <rect id="Detail" stroke="none" fill="#B6C5D9" fill-rule="evenodd" mask="url(#mask-4)" x="155" y="441" width="274" height="482"></rect>
                            <rect id="Detail" stroke="none" fill="#B6C5D9" fill-rule="evenodd" mask="url(#mask-4)" x="-119" y="638" width="274" height="482"></rect>
                            <path d="M377.009338,362.58556 C413.465758,362.58556 841.379497,362.58556 841.379497,362.58556 C841.379497,362.58556 853.963472,312.392882 765.791016,329.123775 C677.618561,345.854668 691.41992,298.650114 638.649252,287.752248 C585.878584,276.854383 560.586943,321.264108 480.141946,298.650114 C399.69695,276.03612 340.552918,362.58556 377.009338,362.58556 Z" id="Detail" stroke="none" fill="#F2F5F9" fill-rule="evenodd" mask="url(#mask-4)"></path>
                            <path d="M407.959414,322.754242 C409.64585,324.940881 409.240355,328.08063 407.053716,329.767066 C404.867076,331.453503 401.727327,331.048008 400.040891,328.861368 C387.773575,312.955521 374.570768,312.955521 357.46671,329.410995 C355.499282,331.303818 352.377263,331.268554 350.453092,329.331774 C334.178306,312.950345 320.963989,312.950345 307.871858,328.971647 C306.124516,331.109931 302.974594,331.426852 300.83631,329.67951 C298.698026,327.932168 298.381105,324.782246 300.128447,322.643963 C316.15312,303.034006 334.954963,301.914111 354.070896,318.982393 C373.936529,301.90638 392.731349,303.009477 407.959414,322.754242 Z" id="Detail" stroke="none" fill="#B6C5D9" fill-rule="nonzero" mask="url(#mask-4)"></path>
                            <path d="M517.959414,392.754242 C519.64585,394.940881 519.240355,398.08063 517.053716,399.767066 C514.867076,401.453503 511.727327,401.048008 510.040891,398.861368 C497.773575,382.955521 484.570768,382.955521 467.46671,399.410995 C465.499282,401.303818 462.377263,401.268554 460.453092,399.331774 C444.178306,382.950345 430.963989,382.950345 417.871858,398.971647 C416.124516,401.109931 412.974594,401.426852 410.83631,399.67951 C408.698026,397.932168 408.381105,394.782246 410.128447,392.643963 C426.15312,373.034006 444.954963,371.914111 464.070896,388.982393 C483.936529,371.90638 502.731349,373.009477 517.959414,392.754242 Z" id="Detail" stroke="none" fill="#B6C5D9" fill-rule="nonzero" mask="url(#mask-4)"></path>
                            <rect id="Detail" stroke="none" fill="#FFFFFF" fill-rule="evenodd" mask="url(#mask-4)" x="210" y="50" width="20" height="703"></rect>
                            <rect id="Detail" stroke="none" fill="#FFFFFF" fill-rule="evenodd" mask="url(#mask-4)" x="543" y="50" width="20" height="703"></rect>
                            <rect id="Detail" stroke="none" fill="#FFFFFF" fill-rule="evenodd" mask="url(#mask-4)" x="20" y="493" width="733" height="20"></rect>
                            <rect id="Detail" stroke="none" fill="#FFFFFF" fill-rule="evenodd" mask="url(#mask-4)" x="20" y="233" width="733" height="20"></rect>
                        </g>
                    </g>
                </g>
                <path d="M15,673 L1263,673 C1271.28427,673 1278,679.715729 1278,688 C1278,696.284271 1271.28427,703 1263,703 L15,703 C6.71572875,703 1.01453063e-15,696.284271 0,688 C-1.01453063e-15,679.715729 6.71572875,673 15,673 Z" id="Detail" fill="#D3E0F1"></path>
                <g id="Lamp" transform="translate(215.000000, 0.000000)">
                    <rect id="Detail" fill="#D3E0F1" x="79" y="221" width="20" height="452"></rect>
                    <mask id="mask-6" fill="white">
                        <use xlink:href="#path-5"></use>
                    </mask>
                    <use id="Detail" fill="#D3E0F1" xlink:href="#path-5"></use>
                    <rect id="Detail" fill="#F2F5F9" mask="url(#mask-6)" x="-1" y="156" width="176" height="25"></rect>
                </g>
                <path d="M189.073634,606 C171.779649,556.493514 103.237905,571.56319 95.1401425,536.06962 C87.3723293,500.192532 124.157862,497.702419 124.042755,469.756329 C124.157862,441.808338 48.8235875,447.676118 41.2256532,419.117089 C33.7671136,390.585047 61.2345098,384.038345 90.6935867,373.903481 C120.556067,364.197545 25.724415,313.056947 34.5558195,261.773734 C43.4502749,210.645852 116.398032,210.968552 129.045131,274.433544 C142.16454,337.810806 153.937203,357.421851 171.84323,331.704114 C189.622095,306.232951 239.201133,315.461195 217.976247,388.371835 C196.885782,461.648349 258.18053,438.714279 267.444181,486.033228 C276.161553,533.887245 209.499517,548.339386 189.073634,606 Z" id="Flower" fill="#B6C5D9"></path>
                <path d="M141.752651,336.541324 C139.605732,359.430915 142.242826,384.189986 149.117692,412.625398 C151.127145,399.081858 156.700723,389.110943 165.838426,382.712654 C182.468746,371.067979 201.587793,369.679301 208.542012,379.610955 C215.496231,389.54261 207.652202,407.033681 191.021882,418.678356 C180.665128,425.930234 167.56165,427.310014 151.711449,422.817698 C156.030205,439.031976 161.317963,455.423054 170.330357,481.611668 C170.443292,481.939838 170.555627,482.266313 170.667366,482.591107 C172.513431,468.407506 178.145186,458.018624 187.562629,451.42446 C204.192949,439.779784 223.311996,438.391106 230.266215,448.322761 C237.220435,458.254415 229.376405,475.745486 212.746085,487.390162 C202.462048,494.591122 189.469724,496.002155 173.769112,491.62326 C184.402668,522.656375 188.868047,536.545898 192.501774,551.211786 C194.921596,539.509984 200.280296,530.754069 208.577875,524.944042 C225.208195,513.299367 244.327242,511.910689 251.281461,521.842343 C258.23568,531.773997 250.391651,549.265069 233.761331,560.909744 C223.684633,567.965523 211.007752,569.462487 195.730688,565.400635 C200.966816,590.986824 201.413836,612.262681 196.30424,631.04657 C195.941828,632.37887 194.567992,633.165119 193.235693,632.802706 C191.903393,632.440294 191.117144,631.066459 191.479556,629.734159 C196.669615,610.654472 195.845375,588.624255 189.789278,561.535013 C185.254954,541.252741 181.126061,528.347792 165.602483,483.23869 C155.256151,453.17386 149.787761,435.935171 145.058783,417.054789 C136.459782,382.723396 133.773192,353.519341 137.969572,326.437734 C138.068364,325.800178 138.399919,325.256449 138.864346,324.879638 C141.034825,312.010473 146.538274,302.482227 155.374692,296.2949 C172.005012,284.650224 191.124059,283.261546 198.078278,293.193201 C205.032497,303.124855 197.188468,320.615926 180.558148,332.260602 C170.311574,339.43533 157.376408,340.862237 141.752651,336.541324 Z" id="Flowers" fill="#E2EAF5" fill-rule="nonzero" transform="translate(194.919494, 459.728228) scale(-1, 1) translate(-194.919494, -459.728228) "></path>
                <path d="M133,581 L239,581 C240.656854,581 242,582.343146 242,584 L242,673 L130,673 L130,584 C130,582.343146 131.343146,581 133,581 Z" id="Detail" fill="#D3E0F1"></path>
            </g>
        </g>
    </g>
</svg>