<?xml version="1.0" encoding="UTF-8"?>
<svg width="1339px" height="783px" viewBox="0 0 1339 783" version="1.1" xmlns="http://www.w3.org/2000/svg" xmlns:xlink="http://www.w3.org/1999/xlink">
    <!-- Generator: Sketch 51 (57462) - http://www.bohemiancoding.com/sketch -->
    <title>Houses</title>
    <desc>Created with Sketch.</desc>
    <defs>
        <path d="M476,10 L476,583.611466 C363.656113,688.034412 161.368159,764.285099 48,773.988357 C33.412044,775.303096 17.7926314,776.661455 1.2852562,777.907996 C0.466942522,776.45811 0,774.783585 0,773 L0,10 C0,4.4771525 4.4771525,0 10,0 L466,0 C471.522847,0 476,4.4771525 476,10 Z" id="path-1"></path>
    </defs>
    <g id="Handsome" stroke="none" stroke-width="1" fill="none" fill-rule="evenodd">
        <g id="Backgrounds" transform="translate(-3318.000000, -289.000000)">
            <g id="Houses" transform="translate(3319.000000, 289.000000)">
                <path d="M1329,386.48771 C1401.71965,580.585728 1006.44198,758.800977 829,773.988357 C652.060729,789.934997 323.377814,812.298955 99,563.716688 C-124.738695,314.217869 33.8376559,-134.966738 539,54.0582147 C1044.56773,243.606704 1256.72719,193.022075 1329,386.48771 Z" id="Bg" fill="#F2F5F9"></path>
                <g id="House" transform="translate(781.000000, 0.000000)">
                    <mask id="mask-2" fill="white">
                        <use xlink:href="#path-1"></use>
                    </mask>
                    <use id="Detail" fill="#E2EAF5" xlink:href="#path-1"></use>
                    <path d="M48,45 L92,45 C93.6568542,45 95,46.3431458 95,48 L95,112 C95,113.656854 93.6568542,115 92,115 L48,115 C46.3431458,115 45,113.656854 45,112 L45,48 C45,46.3431458 46.3431458,45 48,45 Z" id="Detail" fill="#FFFFFF" mask="url(#mask-2)"></path>
                    <path d="M48,253 L92,253 C93.6568542,253 95,254.343146 95,256 L95,320 C95,321.656854 93.6568542,323 92,323 L48,323 C46.3431458,323 45,321.656854 45,320 L45,256 C45,254.343146 46.3431458,253 48,253 Z" id="Detail" fill="#FFFFFF" mask="url(#mask-2)"></path>
                    <path d="M48,149 L92,149 C93.6568542,149 95,150.343146 95,152 L95,216 C95,217.656854 93.6568542,219 92,219 L48,219 C46.3431458,219 45,217.656854 45,216 L45,152 C45,150.343146 46.3431458,149 48,149 Z" id="Detail" fill="#FFFFFF" mask="url(#mask-2)"></path>
                    <path d="M48,357 L92,357 C93.6568542,357 95,358.343146 95,360 L95,424 C95,425.656854 93.6568542,427 92,427 L48,427 C46.3431458,427 45,425.656854 45,424 L45,360 C45,358.343146 46.3431458,357 48,357 Z" id="Detail" fill="#FFFFFF" mask="url(#mask-2)"></path>
                    <path d="M132,45 L176,45 C177.656854,45 179,46.3431458 179,48 L179,112 C179,113.656854 177.656854,115 176,115 L132,115 C130.343146,115 129,113.656854 129,112 L129,48 C129,46.3431458 130.343146,45 132,45 Z" id="Detail" fill="#FFFFFF" mask="url(#mask-2)"></path>
                    <path d="M132,253 L176,253 C177.656854,253 179,254.343146 179,256 L179,320 C179,321.656854 177.656854,323 176,323 L132,323 C130.343146,323 129,321.656854 129,320 L129,256 C129,254.343146 130.343146,253 132,253 Z" id="Detail" fill="#FFFFFF" mask="url(#mask-2)"></path>
                    <path d="M132,149 L176,149 C177.656854,149 179,150.343146 179,152 L179,216 C179,217.656854 177.656854,219 176,219 L132,219 C130.343146,219 129,217.656854 129,216 L129,152 C129,150.343146 130.343146,149 132,149 Z" id="Detail" fill="#FFFFFF" mask="url(#mask-2)"></path>
                    <path d="M132,357 L176,357 C177.656854,357 179,358.343146 179,360 L179,424 C179,425.656854 177.656854,427 176,427 L132,427 C130.343146,427 129,425.656854 129,424 L129,360 C129,358.343146 130.343146,357 132,357 Z" id="Detail" fill="#FFFFFF" mask="url(#mask-2)"></path>
                    <path d="M216,45 L260,45 C261.656854,45 263,46.3431458 263,48 L263,112 C263,113.656854 261.656854,115 260,115 L216,115 C214.343146,115 213,113.656854 213,112 L213,48 C213,46.3431458 214.343146,45 216,45 Z" id="Detail" fill="#FFFFFF" mask="url(#mask-2)"></path>
                    <path d="M216,253 L260,253 C261.656854,253 263,254.343146 263,256 L263,320 C263,321.656854 261.656854,323 260,323 L216,323 C214.343146,323 213,321.656854 213,320 L213,256 C213,254.343146 214.343146,253 216,253 Z" id="Detail" fill="#FFFFFF" mask="url(#mask-2)"></path>
                    <path d="M216,149 L260,149 C261.656854,149 263,150.343146 263,152 L263,216 C263,217.656854 261.656854,219 260,219 L216,219 C214.343146,219 213,217.656854 213,216 L213,152 C213,150.343146 214.343146,149 216,149 Z" id="Detail" fill="#FFFFFF" mask="url(#mask-2)"></path>
                    <path d="M216,357 L260,357 C261.656854,357 263,358.343146 263,360 L263,424 C263,425.656854 261.656854,427 260,427 L216,427 C214.343146,427 213,425.656854 213,424 L213,360 C213,358.343146 214.343146,357 216,357 Z" id="Detail" fill="#FFFFFF" mask="url(#mask-2)"></path>
                    <path d="M300,45 L344,45 C345.656854,45 347,46.3431458 347,48 L347,112 C347,113.656854 345.656854,115 344,115 L300,115 C298.343146,115 297,113.656854 297,112 L297,48 C297,46.3431458 298.343146,45 300,45 Z" id="Detail" fill="#FFFFFF" mask="url(#mask-2)"></path>
                    <path d="M300,253 L344,253 C345.656854,253 347,254.343146 347,256 L347,320 C347,321.656854 345.656854,323 344,323 L300,323 C298.343146,323 297,321.656854 297,320 L297,256 C297,254.343146 298.343146,253 300,253 Z" id="Detail" fill="#FFFFFF" mask="url(#mask-2)"></path>
                    <path d="M300,149 L344,149 C345.656854,149 347,150.343146 347,152 L347,216 C347,217.656854 345.656854,219 344,219 L300,219 C298.343146,219 297,217.656854 297,216 L297,152 C297,150.343146 298.343146,149 300,149 Z" id="Detail" fill="#FFFFFF" mask="url(#mask-2)"></path>
                    <path d="M300,357 L344,357 C345.656854,357 347,358.343146 347,360 L347,424 C347,425.656854 345.656854,427 344,427 L300,427 C298.343146,427 297,425.656854 297,424 L297,360 C297,358.343146 298.343146,357 300,357 Z" id="Detail" fill="#FFFFFF" mask="url(#mask-2)"></path>
                    <path d="M384,45 L428,45 C429.656854,45 431,46.3431458 431,48 L431,112 C431,113.656854 429.656854,115 428,115 L384,115 C382.343146,115 381,113.656854 381,112 L381,48 C381,46.3431458 382.343146,45 384,45 Z" id="Detail" fill="#FFFFFF" mask="url(#mask-2)"></path>
                    <path d="M384,253 L428,253 C429.656854,253 431,254.343146 431,256 L431,320 C431,321.656854 429.656854,323 428,323 L384,323 C382.343146,323 381,321.656854 381,320 L381,256 C381,254.343146 382.343146,253 384,253 Z" id="Detail" fill="#FFFFFF" mask="url(#mask-2)"></path>
                    <path d="M384,149 L428,149 C429.656854,149 431,150.343146 431,152 L431,216 C431,217.656854 429.656854,219 428,219 L384,219 C382.343146,219 381,217.656854 381,216 L381,152 C381,150.343146 382.343146,149 384,149 Z" id="Detail" fill="#FFFFFF" mask="url(#mask-2)"></path>
                    <path d="M384,357 L428,357 C429.656854,357 431,358.343146 431,360 L431,424 C431,425.656854 429.656854,427 428,427 L384,427 C382.343146,427 381,425.656854 381,424 L381,360 C381,358.343146 382.343146,357 384,357 Z" id="Detail" fill="#FFFFFF" mask="url(#mask-2)"></path>
                    <path d="M48,461 L92,461 C93.6568542,461 95,462.343146 95,464 L95,528 C95,529.656854 93.6568542,531 92,531 L48,531 C46.3431458,531 45,529.656854 45,528 L45,464 C45,462.343146 46.3431458,461 48,461 Z" id="Detail" fill="#FFFFFF" mask="url(#mask-2)"></path>
                    <path d="M48,565 L92,565 C93.6568542,565 95,566.343146 95,568 L95,632 C95,633.656854 93.6568542,635 92,635 L48,635 C46.3431458,635 45,633.656854 45,632 L45,568 C45,566.343146 46.3431458,565 48,565 Z" id="Detail" fill="#FFFFFF" mask="url(#mask-2)"></path>
                    <path d="M132,461 L176,461 C177.656854,461 179,462.343146 179,464 L179,528 C179,529.656854 177.656854,531 176,531 L132,531 C130.343146,531 129,529.656854 129,528 L129,464 C129,462.343146 130.343146,461 132,461 Z" id="Detail" fill="#FFFFFF" mask="url(#mask-2)"></path>
                    <path d="M132,565 L176,565 C177.656854,565 179,566.343146 179,568 L179,632 C179,633.656854 177.656854,635 176,635 L132,635 C130.343146,635 129,633.656854 129,632 L129,568 C129,566.343146 130.343146,565 132,565 Z" id="Detail" fill="#FFFFFF" mask="url(#mask-2)"></path>
                    <path d="M216,461 L260,461 C261.656854,461 263,462.343146 263,464 L263,528 C263,529.656854 261.656854,531 260,531 L216,531 C214.343146,531 213,529.656854 213,528 L213,464 C213,462.343146 214.343146,461 216,461 Z" id="Detail" fill="#FFFFFF" mask="url(#mask-2)"></path>
                    <path d="M216,565 L260,565 C261.656854,565 263,566.343146 263,568 L263,632 C263,633.656854 261.656854,635 260,635 L216,635 C214.343146,635 213,633.656854 213,632 L213,568 C213,566.343146 214.343146,565 216,565 Z" id="Detail" fill="#FFFFFF" mask="url(#mask-2)"></path>
                    <path d="M300,461 L344,461 C345.656854,461 347,462.343146 347,464 L347,528 C347,529.656854 345.656854,531 344,531 L300,531 C298.343146,531 297,529.656854 297,528 L297,464 C297,462.343146 298.343146,461 300,461 Z" id="Detail" fill="#FFFFFF" mask="url(#mask-2)"></path>
                    <path d="M300,565 L344,565 C345.656854,565 347,566.343146 347,568 L347,632 C347,633.656854 345.656854,635 344,635 L300,635 C298.343146,635 297,633.656854 297,632 L297,568 C297,566.343146 298.343146,565 300,565 Z" id="Detail" fill="#FFFFFF" mask="url(#mask-2)"></path>
                    <path d="M384,461 L428,461 C429.656854,461 431,462.343146 431,464 L431,528 C431,529.656854 429.656854,531 428,531 L384,531 C382.343146,531 381,529.656854 381,528 L381,464 C381,462.343146 382.343146,461 384,461 Z" id="Detail" fill="#FFFFFF" mask="url(#mask-2)"></path>
                    <path d="M384,565 L428,565 C429.656854,565 431,566.343146 431,568 L431,632 C431,633.656854 429.656854,635 428,635 L384,635 C382.343146,635 381,633.656854 381,632 L381,568 C381,566.343146 382.343146,565 384,565 Z" id="Detail" fill="#FFFFFF" mask="url(#mask-2)"></path>
                    <path d="M48,669 L92,669 C93.6568542,669 95,670.343146 95,672 L95,736 C95,737.656854 93.6568542,739 92,739 L48,739 C46.3431458,739 45,737.656854 45,736 L45,672 C45,670.343146 46.3431458,669 48,669 Z" id="Detail" fill="#FFFFFF" mask="url(#mask-2)"></path>
                    <path d="M132,669 L176,669 C177.656854,669 179,670.343146 179,672 L179,736 C179,737.656854 177.656854,739 176,739 L132,739 C130.343146,739 129,737.656854 129,736 L129,672 C129,670.343146 130.343146,669 132,669 Z" id="Detail" fill="#FFFFFF" mask="url(#mask-2)"></path>
                    <path d="M216,669 L260,669 C261.656854,669 263,670.343146 263,672 L263,736 C263,737.656854 261.656854,739 260,739 L216,739 C214.343146,739 213,737.656854 213,736 L213,672 C213,670.343146 214.343146,669 216,669 Z" id="Detail" fill="#FFFFFF" mask="url(#mask-2)"></path>
                    <path d="M300,669 L344,669 C345.656854,669 347,670.343146 347,672 L347,736 C347,737.656854 345.656854,739 344,739 L300,739 C298.343146,739 297,737.656854 297,736 L297,672 C297,670.343146 298.343146,669 300,669 Z" id="Detail" fill="#FFFFFF" mask="url(#mask-2)"></path>
                    <path d="M384,669 L428,669 C429.656854,669 431,670.343146 431,672 L431,736 C431,737.656854 429.656854,739 428,739 L384,739 C382.343146,739 381,737.656854 381,736 L381,672 C381,670.343146 382.343146,669 384,669 Z" id="Detail" fill="#FFFFFF" mask="url(#mask-2)"></path>
                </g>
                <path d="M760.959414,253.754242 C762.64585,255.940881 762.240355,259.08063 760.053716,260.767066 C757.867076,262.453503 754.727327,262.048008 753.040891,259.861368 C740.773575,243.955521 727.570768,243.955521 710.46671,260.410995 C708.499282,262.303818 705.377263,262.268554 703.453092,260.331774 C687.178306,243.950345 673.963989,243.950345 660.871858,259.971647 C659.124516,262.109931 655.974594,262.426852 653.83631,260.67951 C651.698026,258.932168 651.381105,255.782246 653.128447,253.643963 C669.15312,234.034006 687.954963,232.914111 707.070896,249.982393 C726.936529,232.90638 745.731349,234.009477 760.959414,253.754242 Z" id="Detail" fill="#D3E0F1" fill-rule="nonzero"></path>
                <path d="M667.959414,184.754242 C669.64585,186.940881 669.240355,190.08063 667.053716,191.767066 C664.867076,193.453503 661.727327,193.048008 660.040891,190.861368 C647.773575,174.955521 634.570768,174.955521 617.46671,191.410995 C615.499282,193.303818 612.377263,193.268554 610.453092,191.331774 C594.178306,174.950345 580.963989,174.950345 567.871858,190.971647 C566.124516,193.109931 562.974594,193.426852 560.83631,191.67951 C558.698026,189.932168 558.381105,186.782246 560.128447,184.643963 C576.15312,165.034006 594.954963,163.914111 614.070896,180.982393 C633.936529,163.90638 652.731349,165.009477 667.959414,184.754242 Z" id="Detail" fill="#D3E0F1" fill-rule="nonzero"></path>
                <g id="House" transform="translate(67.000000, 151.000000)">
                    <path d="M424,618.634361 C288.890626,596.152843 146.794516,539.894507 32,412.716688 C20.2873033,399.655452 9.62234522,386.046974 0,372.011464 L0,150 L424,150 L424,618.634361 Z" id="Detail" fill="#E2EAF5"></path>
                    <path d="M80,190 C102.09139,190 120,207.90861 120,230 L120,297 L40,297 L40,230 C40,207.90861 57.90861,190 80,190 Z" id="Detail" fill="#FFFFFF"></path>
                    <path d="M80,349 C102.09139,349 120,366.90861 120,389 L120,456 L40,456 L40,389 C40,366.90861 57.90861,349 80,349 Z" id="Detail" fill="#FFFFFF"></path>
                    <path d="M212,190 C234.09139,190 252,207.90861 252,230 L252,297 L172,297 L172,230 C172,207.90861 189.90861,190 212,190 Z" id="Detail" fill="#FFFFFF"></path>
                    <path d="M212,349 C234.09139,349 252,366.90861 252,389 L252,456 L172,456 L172,389 C172,366.90861 189.90861,349 212,349 Z" id="Detail" fill="#FFFFFF"></path>
                    <path d="M344,190 C366.09139,190 384,207.90861 384,230 L384,297 L304,297 L304,230 C304,207.90861 321.90861,190 344,190 Z" id="Detail" fill="#FFFFFF"></path>
                    <path d="M344,349 C366.09139,349 384,366.90861 384,389 L384,456 L304,456 L304,389 C304,366.90861 321.90861,349 344,349 Z" id="Detail" fill="#FFFFFF"></path>
                    <path d="M212,508 C234.09139,508 252,525.90861 252,548 L252,615 L172,615 L172,548 C172,525.90861 189.90861,508 212,508 Z" id="Detail" fill="#FFFFFF"></path>
                    <path d="M344,508 C366.09139,508 384,525.90861 384,548 L384,615 L304,615 L304,548 C304,525.90861 321.90861,508 344,508 Z" id="Detail" fill="#FFFFFF"></path>
                    <rect id="Detail" fill="#E2EAF5" x="50" y="0" width="324" height="100"></rect>
                    <rect id="Detail" fill="#FFFFFF" x="65" y="15" width="294" height="70"></rect>
                    <rect id="Detail" fill="#E2EAF5" x="102" y="100" width="10" height="50"></rect>
                    <rect id="Detail" fill="#E2EAF5" x="312" y="100" width="10" height="50"></rect>
                </g>
                <path d="M1290.95941,387.754242 C1292.64585,389.940881 1292.24036,393.08063 1290.05372,394.767066 C1287.86708,396.453503 1284.72733,396.048008 1283.04089,393.861368 C1270.77358,377.955521 1257.57077,377.955521 1240.46671,394.410995 C1238.49928,396.303818 1235.37726,396.268554 1233.45309,394.331774 C1217.17831,377.950345 1203.96399,377.950345 1190.87186,393.971647 C1189.12452,396.109931 1185.97459,396.426852 1183.83631,394.67951 C1181.69803,392.932168 1181.38111,389.782246 1183.12845,387.643963 C1199.15312,368.034006 1217.95496,366.914111 1237.0709,383.982393 C1256.93653,366.90638 1275.73135,368.009477 1290.95941,387.754242 Z" id="Detail" fill="#D3E0F1" fill-rule="nonzero"></path>
                <path d="M848.959261,184.446437 C850.645698,186.633076 850.240203,189.772825 848.053563,191.459261 C845.866924,193.145698 842.727175,192.740203 841.040739,190.553563 C828.773423,174.647716 815.570616,174.647716 798.466558,191.10319 C796.499129,192.996014 793.377111,192.960749 791.452939,191.023969 C775.178154,174.64254 761.963837,174.64254 748.871705,190.663842 C747.124363,192.802126 743.974441,193.119047 741.836158,191.371705 C739.697874,189.624363 739.380953,186.474441 741.128295,184.336158 C757.152967,164.726201 775.954811,163.606306 795.070744,180.674588 C814.936377,163.598575 833.731197,164.701672 848.959261,184.446437 Z" id="Detail" fill="#D3E0F1" fill-rule="nonzero"></path>
                <path d="M880.999994,766.177308 C862.2666,770.000229 844.772705,772.63836 829,773.988357 C742.585089,781.776495 619.975941,791.095306 491,769.634361 L491,456 L686,306 L881,456 L881,766.177307 L880.999994,766.177308 Z" id="Detail" fill="#D3E0F1"></path>
                <path d="M534,487 L604,487 C605.656854,487 607,488.343146 607,490 L607,560 C607,561.656854 605.656854,563 604,563 L534,563 C532.343146,563 531,561.656854 531,560 L531,490 C531,488.343146 532.343146,487 534,487 Z" id="Detail" fill="#FFFFFF"></path>
                <path d="M651,487 L721,487 C722.656854,487 724,488.343146 724,490 L724,560 C724,561.656854 722.656854,563 721,563 L651,563 C649.343146,563 648,561.656854 648,560 L648,490 C648,488.343146 649.343146,487 651,487 Z" id="Detail" fill="#FFFFFF"></path>
                <path d="M768,487 L838,487 C839.656854,487 841,488.343146 841,490 L841,560 C841,561.656854 839.656854,563 838,563 L768,563 C766.343146,563 765,561.656854 765,560 L765,490 C765,488.343146 766.343146,487 768,487 Z" id="Detail" fill="#FFFFFF"></path>
                <path d="M534,583 L604,583 C605.656854,583 607,584.343146 607,586 L607,656 C607,657.656854 605.656854,659 604,659 L534,659 C532.343146,659 531,657.656854 531,656 L531,586 C531,584.343146 532.343146,583 534,583 Z" id="Detail" fill="#FFFFFF"></path>
                <path d="M651,583 L721,583 C722.656854,583 724,584.343146 724,586 L724,656 C724,657.656854 722.656854,659 721,659 L651,659 C649.343146,659 648,657.656854 648,656 L648,586 C648,584.343146 649.343146,583 651,583 Z" id="Detail" fill="#FFFFFF"></path>
                <path d="M768,583 L838,583 C839.656854,583 841,584.343146 841,586 L841,656 C841,657.656854 839.656854,659 838,659 L768,659 C766.343146,659 765,657.656854 765,656 L765,586 C765,584.343146 766.343146,583 768,583 Z" id="Detail" fill="#FFFFFF"></path>
                <path d="M534,679 L604,679 C605.656854,679 607,680.343146 607,682 L607,752 C607,753.656854 605.656854,755 604,755 L534,755 C532.343146,755 531,753.656854 531,752 L531,682 C531,680.343146 532.343146,679 534,679 Z" id="Detail" fill="#FFFFFF"></path>
                <path d="M651,679 L721,679 C722.656854,679 724,680.343146 724,682 L724,752 C724,753.656854 722.656854,755 721,755 L651,755 C649.343146,755 648,753.656854 648,752 L648,682 C648,680.343146 649.343146,679 651,679 Z" id="Detail" fill="#FFFFFF"></path>
                <path d="M768,679 L838,679 C839.656854,679 841,680.343146 841,682 L841,752 C841,753.656854 839.656854,755 838,755 L768,755 C766.343146,755 765,753.656854 765,752 L765,682 C765,680.343146 766.343146,679 768,679 Z" id="Detail" fill="#FFFFFF"></path>
            </g>
        </g>
    </g>
</svg>