<?xml version="1.0" encoding="UTF-8"?>
<svg width="1382px" height="827px" viewBox="0 0 1382 827" version="1.1" xmlns="http://www.w3.org/2000/svg" xmlns:xlink="http://www.w3.org/1999/xlink">
    <!-- Generator: Sketch 51 (57462) - http://www.bohemiancoding.com/sketch -->
    <title>Icons</title>
    <desc>Created with Sketch.</desc>
    <defs>
        <path d="M27,504 C-94.4234869,141.165484 220.869386,-37.0504897 458,6 C694.980054,49.9143017 655.500467,164.757927 1041,165 C1425.75819,164.757927 1468.72438,590.880337 1251,739 C1034.38628,888.499192 148.122637,866.329037 27,504 Z" id="path-1"></path>
    </defs>
    <g id="Handsome" stroke="none" stroke-width="1" fill="none" fill-rule="evenodd">
        <g id="Backgrounds" transform="translate(-397.000000, -3737.000000)">
            <g id="Icons" transform="translate(397.000000, 3738.000000)">
                <mask id="mask-2" fill="white">
                    <use xlink:href="#path-1"></use>
                </mask>
                <use id="Detail" fill="#F2F5F9" xlink:href="#path-1"></use>
                <path d="M584.33881,309 C592.280077,309 599.712177,306.997745 606.635333,302.993174 C613.558489,298.988603 619.056207,293.632571 623.128652,286.924915 C627.201096,280.217259 629.237288,272.959083 629.237288,265.150171 C629.237288,257.341258 627.201096,250.033026 623.128652,243.225256 C619.056207,236.417486 613.558489,231.011397 606.635333,227.006826 C599.712177,223.002255 592.280077,221 584.33881,221 C576.397542,221 569.016347,223.002255 562.195002,227.006826 C555.373657,231.011397 549.926844,236.417486 545.854399,243.225256 C541.781955,250.033026 539.745763,257.341258 539.745763,265.150171 C539.745763,272.959083 541.781955,280.217259 545.854399,286.924915 C549.926844,293.632571 555.373657,298.988603 562.195002,302.993174 C569.016347,306.997745 576.397542,309 584.33881,309 Z M700.128331,280.03726 L732.334649,304.147837 C733.815406,305.329733 734.679169,306.866176 734.925962,308.757212 C735.172754,310.648247 734.802571,312.421065 733.815399,314.075721 L702.719644,365.133413 C701.732472,366.788069 700.436829,367.85176 698.832675,368.324519 C697.22852,368.797278 695.439298,368.67909 693.464955,367.969952 L655.335636,353.432692 C645.463919,360.287695 636.702901,365.133399 629.05232,367.969952 L623.499506,406.617788 C623.00592,408.508824 622.080461,410.045267 620.723099,411.227163 C619.365738,412.40906 617.823306,413 616.095755,413 L553.904245,413 C552.176694,413 550.634262,412.40906 549.276901,411.227163 C547.919539,410.045267 547.117474,408.508824 546.870681,406.617788 L540.94768,367.969952 C530.582377,363.951502 521.944754,359.105798 515.034551,353.432692 L476.535045,367.969952 C472.586358,369.624608 469.501493,368.679104 467.280356,365.133413 L436.184601,314.075721 C435.197429,312.421065 434.827246,310.648247 435.074038,308.757212 C435.320831,306.866176 436.184594,305.329733 437.665351,304.147837 L470.241857,280.03726 C469.748271,276.727948 469.501481,271.882243 469.501481,265.5 C469.501481,259.117757 469.748271,254.272052 470.241857,250.96274 L437.665351,226.852163 C436.184594,225.670267 435.320831,224.133824 435.074038,222.242788 C434.827246,220.351753 435.197429,218.578935 436.184601,216.924279 L467.280356,165.866587 C469.501493,162.320896 472.586358,161.375392 476.535045,163.030048 L515.034551,177.567308 C523.919097,171.185064 532.55672,166.339359 540.94768,163.030048 L546.870681,124.382212 C547.117474,122.491176 547.919539,120.954733 549.276901,119.772837 C550.634262,118.59094 552.176694,118 553.904245,118 L616.095755,118 C617.823306,118 619.365738,118.59094 620.723099,119.772837 C622.080461,120.954733 623.00592,122.491176 623.499506,124.382212 L629.05232,163.030048 C638.677244,166.575739 647.438262,171.421444 655.335636,177.567308 L693.464955,163.030048 C695.439298,162.32091 697.22852,162.202722 698.832675,162.675481 C700.436829,163.14824 701.732472,164.211931 702.719644,165.866587 L733.815399,216.924279 C734.802571,218.578935 735.172754,220.351753 734.925962,222.242788 C734.679169,224.133824 733.815406,225.670267 732.334649,226.852163 L700.128331,250.96274 C700.621917,254.272052 700.868706,259.117757 700.868706,265.5 C700.868706,271.882243 700.621917,276.727948 700.128331,280.03726 Z" id="Detail" fill="#E2EAF5" mask="url(#mask-2)"></path>
                <path d="M295.365563,233.443709 C305.490117,222.616956 313.324476,210.226525 318.868874,196.272044 C324.413273,182.317563 327.18543,167.641519 327.18543,152.24347 C327.18543,135.883044 323.991423,120.244636 317.603311,105.327777 C311.2152,90.4109183 302.296084,77.3588624 290.845695,66.1712181 C279.395307,54.9835738 266.317954,46.5027448 251.613245,40.7284768 L251.613245,47.2244959 C251.613245,55.4047089 248.60003,62.3818448 242.57351,68.1561128 C236.54699,73.9303808 229.435803,76.8174715 221.239735,76.8174715 L191.589404,76.8174715 L191.589404,107.132227 C191.589404,111.222334 190.082797,114.710902 187.069536,117.598036 C184.056276,120.48517 180.380154,121.928715 176.04106,121.928715 L146.390728,121.928715 L146.390728,137.230449 L248.721722,137.230449 C250.378576,137.230449 251.721722,138.573594 251.721722,140.230449 L251.721722,212.151202 L266.438411,212.151202 C272.947052,212.151202 278.852954,214.136077 284.156291,218.105886 C289.459629,222.075695 293.196016,227.188252 295.365563,233.443709 Z M188.112583,269.205298 L188.112583,240.48587 C180.043469,240.48587 173.042432,237.494293 167.10926,231.511048 C161.176089,225.527804 158.209547,218.467682 158.209547,210.33047 L158.209547,195.611763 L87.3678322,124.172185 C84.9945635,133.266717 83.807947,142.121785 83.807947,150.737657 C83.807947,170.602027 88.5544131,189.389132 98.0474877,207.099534 C107.065909,223.852618 119.525382,237.793368 135.426282,248.922202 C151.327182,260.051036 168.889107,266.812 188.112583,269.205298 Z M205,0 C232.403983,0 257.764306,6.85089303 281.081731,20.5528846 C303.677998,33.5337188 321.466281,51.3220024 334.447115,73.9182692 C348.149107,97.2356935 355,122.596017 355,150 C355,177.403983 348.149107,202.764306 334.447115,226.081731 C321.466281,248.677998 303.677998,266.466281 281.081731,279.447115 C257.764306,293.149107 232.403983,300 205,300 C177.596017,300 152.235694,293.149107 128.918269,279.447115 C106.322002,266.225895 88.5337187,248.317421 75.5528846,225.721154 C61.850893,202.40373 55,177.163597 55,150 C55,122.836403 61.850893,97.5962704 75.5528846,74.2788462 C88.7741046,51.6825793 106.682579,33.7741046 129.278846,20.5528846 C152.59627,6.85089303 177.836403,0 205,0 Z" id="Detail" fill="#E2EAF5" mask="url(#mask-2)"></path>
                <path d="M1052.66667,634.2 L1052.66667,812.8 C1052.66667,812.910457 1052.75621,813 1052.86667,813 L1281.35556,813 C1281.46601,813 1281.55556,812.910457 1281.55556,812.8 L1281.55556,634.2 C1281.55556,634.089543 1281.46601,634 1281.35556,634 L1052.86667,634 C1052.75621,634 1052.66667,634.089543 1052.66667,634.2 Z M1269.33333,601 L1301,601 C1309.28427,601 1316,607.044156 1316,614.5 L1316,830.5 C1316,837.955844 1309.28427,844 1301,844 L1031,844 C1022.71573,844 1016,837.955844 1016,830.5 L1016,614.5 C1016,607.044156 1022.71573,601 1031,601 L1059.33333,601 L1059.33333,574.5 C1059.33333,574.223858 1059.55719,574 1059.83333,574 L1102.16667,574 C1102.44281,574 1102.66667,574.223858 1102.66667,574.5 L1102.66667,601 L1226,601 L1226,574.5 C1226,574.223858 1226.22386,574 1226.5,574 L1268.83333,574 C1269.10948,574 1269.33333,574.223858 1269.33333,574.5 L1269.33333,601 Z M1092.66667,667 L1092.66667,694 L1122.66667,694 L1122.66667,667 L1092.66667,667 Z M1149.33333,667 L1149.33333,694 L1179.33333,694 L1179.33333,667 L1149.33333,667 Z M1212.66667,667 L1212.66667,694 L1242.66667,694 L1242.66667,667 L1212.66667,667 Z M1092.66667,721 L1092.66667,748 L1122.66667,748 L1122.66667,721 L1092.66667,721 Z M1149.33333,721 L1149.33333,748 L1179.33333,748 L1179.33333,721 L1149.33333,721 Z M1212.66667,721 L1212.66667,748 L1242.66667,748 L1242.66667,721 L1212.66667,721 Z" id="Detail" fill="#E2EAF5" fill-rule="nonzero" mask="url(#mask-2)"></path>
                <path d="M1102,113 C1129.40398,113 1154.76431,119.850893 1178.08173,133.552885 C1200.678,146.533719 1218.46628,164.322002 1231.44712,186.918269 C1245.14911,210.235694 1252,235.596017 1252,263 C1252,290.403983 1245.14911,315.764306 1231.44712,339.081731 C1218.46628,361.677998 1200.678,379.466281 1178.08173,392.447115 C1154.76431,406.149107 1129.40398,413 1102,413 C1074.59602,413 1049.23569,406.149107 1025.91827,392.447115 C1003.322,379.225895 985.533719,361.317421 972.552885,338.721154 C958.850893,315.40373 952,290.163597 952,263 C952,235.836403 958.850893,210.59627 972.552885,187.278846 C985.774105,164.682579 1003.68258,146.774105 1026.27885,133.552885 C1049.59627,119.850893 1074.8364,113 1102,113 Z M1113.69073,263.846066 L1170.01971,297.029928 C1177.09183,301.196178 1179.44893,310.246988 1175.29668,317.292494 C1171.1963,324.249969 1162.1893,326.591162 1155.17898,322.521696 C1155.10916,322.480911 1131.16164,308.047848 1083.33641,279.222507 L1083.33641,198.569667 C1083.33641,190.250737 1090.13145,183.506912 1098.51357,183.506912 C1106.89569,183.506912 1113.69073,190.250737 1113.69073,198.569667 L1113.69073,263.846066 Z" id="Detail" fill="#E2EAF5" mask="url(#mask-2)"></path>
                <path d="M862.707797,606.491525 C869.617662,606.491525 875.464383,604.099685 880.248136,599.315932 C885.031888,594.532179 887.423729,588.552578 887.423729,581.376949 C887.423729,574.20132 885.031888,568.288159 880.248136,563.637288 C875.464383,558.986417 869.617662,556.661017 862.707797,556.661017 C855.797932,556.661017 849.88477,559.052857 844.968136,563.83661 C840.051501,568.620363 837.59322,574.467084 837.59322,581.376949 C837.59322,588.286814 839.985061,594.199975 844.768814,599.11661 C849.552566,604.033245 855.532168,606.491525 862.707797,606.491525 Z M812.877288,541.40678 C819.787153,541.40678 825.633874,539.014939 830.417627,534.231186 C835.20138,529.447434 837.59322,523.467832 837.59322,516.292203 C837.59322,509.116574 835.20138,503.203413 830.417627,498.552542 C825.633874,493.901672 819.787153,491.576271 812.877288,491.576271 C805.967423,491.576271 800.054262,493.968112 795.137627,498.751864 C790.220992,503.535617 787.762712,509.382338 787.762712,516.292203 C787.762712,523.202068 790.154552,529.11523 794.938305,534.031864 C799.722058,538.948499 805.701659,541.40678 812.877288,541.40678 Z M731.521356,541.40678 C738.431221,541.40678 744.277942,539.014939 749.061695,534.231186 C753.845448,529.447434 756.237288,523.467832 756.237288,516.292203 C756.237288,509.116574 753.845448,503.203413 749.061695,498.552542 C744.277942,493.901672 738.431221,491.576271 731.521356,491.576271 C724.611491,491.576271 718.69833,493.968112 713.781695,498.751864 C708.86506,503.535617 706.40678,509.382338 706.40678,516.292203 C706.40678,523.202068 708.79862,529.11523 713.582373,534.031864 C718.366126,538.948499 724.345727,541.40678 731.521356,541.40678 Z M681.690847,606.491525 C688.600713,606.491525 694.447434,604.099685 699.231186,599.315932 C704.014939,594.532179 706.40678,588.552578 706.40678,581.376949 C706.40678,574.20132 704.014939,568.288159 699.231186,563.637288 C694.447434,558.986417 688.600713,556.661017 681.690847,556.661017 C674.780982,556.661017 668.867821,559.052857 663.951186,563.83661 C659.034552,568.620363 656.576271,574.467084 656.576271,581.376949 C656.576271,588.286814 658.968112,594.199975 663.751864,599.11661 C668.535617,604.033245 674.515218,606.491525 681.690847,606.491525 Z M772,457 C799.200136,457 824.399884,463.133272 847.6,475.4 C870.26678,487.133392 888.2666,503.133232 901.6,523.4 C915.200068,543.933436 922,566.333212 922,590.6 C922,605.533408 918.266704,619.399936 910.8,632.2 C903.333296,645.000064 893.200064,655.06663 880.4,662.4 C867.599936,669.73337 853.600076,673.4 838.4,673.4 L809.6,673.4 C802.666632,673.4 796.733358,675.799976 791.8,680.6 C786.866642,685.400024 784.4,691.266632 784.4,698.2 C784.4,704.333364 786.533312,709.799976 790.8,714.6 C792.666676,716.733344 794.199994,719.399984 795.4,722.6 C796.600006,725.800016 797.2,728.866652 797.2,731.8 C797.2,739.000036 794.733358,744.999976 789.8,749.8 C784.866642,754.600024 778.933368,757 772,757 C744.799864,757 719.600116,750.200068 696.4,736.6 C673.73322,723.2666 655.7334,705.26678 642.4,682.6 C628.799932,659.399884 622,634.200136 622,607 C622,579.799864 628.799932,554.600116 642.4,531.4 C655.7334,508.73322 673.73322,490.7334 696.4,477.4 C719.600116,463.799932 744.799864,457 772,457 Z" id="Detail" fill="#E2EAF5" mask="url(#mask-2)"></path>
                <path d="M216,424 C298.8,424 366,491.2 366,574 C366,656.8 298.8,724 216,724 C133.2,724 66,656.8 66,574 C66,491.2 133.2,424 216,424 Z M195.600576,596.514075 C178.117967,579.125637 169.342762,570.399611 169.274962,570.335995 C163.001591,564.449854 153.007382,564.621851 146.95227,570.720161 L146.367256,571.309349 C140.424552,577.294449 140.466289,586.791586 146.46138,592.72711 L195.600576,641.5 L288.351121,549.305208 C294.38296,543.333302 294.38296,533.765366 288.351121,527.793459 C287.743603,527.192898 287.415466,526.869402 287.366709,526.822971 C281.136001,520.88952 271.136924,520.989544 265.033144,527.04638 L195.600576,596.514075 Z" id="Detail" fill="#E2EAF5" fill-rule="nonzero" mask="url(#mask-2)"></path>
            </g>
        </g>
    </g>
</svg>