<?xml version="1.0" encoding="UTF-8"?>
<svg width="1376px" height="710px" viewBox="0 0 1376 710" version="1.1" xmlns="http://www.w3.org/2000/svg" xmlns:xlink="http://www.w3.org/1999/xlink">
    <!-- Generator: Sketch 51 (57462) - http://www.bohemiancoding.com/sketch -->
    <title>Interface</title>
    <desc>Created with Sketch.</desc>
    <defs>
        <path d="M1215,709 C1026.706,709 564.29351,709 246,709 C-72.22931,709 -105.741283,109.574539 288,15 C681.605085,-78.229436 753.614007,290.31977 1024,237 C1431.43371,158.248155 1471.36724,709 1215,709 Z" id="path-1"></path>
    </defs>
    <g id="Handsome" stroke="none" stroke-width="1" fill="none" fill-rule="evenodd">
        <g id="Backgrounds" transform="translate(-1850.000000, -3796.000000)">
            <g id="Interface" transform="translate(1850.000000, 3797.000000)">
                <mask id="mask-2" fill="white">
                    <use xlink:href="#path-1"></use>
                </mask>
                <use id="Detail" fill="#F2F5F9" xlink:href="#path-1"></use>
                <path d="M-27,293 L429,293 C434.522847,293 439,297.477153 439,303 L439,759 C439,764.522847 434.522847,769 429,769 L-27,769 C-32.5228475,769 -37,764.522847 -37,759 L-37,303 C-37,297.477153 -32.5228475,293 -27,293 Z" id="Detail" fill="#E2EAF5" mask="url(#mask-2)"></path>
                <path d="M734,509 L970,509 C983.807119,509 995,520.192881 995,534 C995,547.807119 983.807119,559 970,559 L734,559 C720.192881,559 709,547.807119 709,534 C709,520.192881 720.192881,509 734,509 Z" id="Detail" fill="#E2EAF5" mask="url(#mask-2)"></path>
                <path d="M744,279 L980,279 C993.807119,279 1005,290.192881 1005,304 C1005,317.807119 993.807119,329 980,329 L744,329 C730.192881,329 719,317.807119 719,304 C719,290.192881 730.192881,279 744,279 Z" id="Detail" fill="#E2EAF5" mask="url(#mask-2)"></path>
                <path d="M734,589 L970,589 C983.807119,589 995,600.192881 995,614 C995,627.807119 983.807119,639 970,639 L734,639 C720.192881,639 709,627.807119 709,614 C709,600.192881 720.192881,589 734,589 Z" id="Detail" fill="#E2EAF5" mask="url(#mask-2)"></path>
                <path d="M744,359 L980,359 C993.807119,359 1005,370.192881 1005,384 C1005,397.807119 993.807119,409 980,409 L744,409 C730.192881,409 719,397.807119 719,384 C719,370.192881 730.192881,359 744,359 Z" id="Detail" fill="#E2EAF5" mask="url(#mask-2)"></path>
                <path d="M744,49 L980,49 C993.807119,49 1005,60.1928813 1005,74 C1005,87.8071187 993.807119,99 980,99 L744,99 C730.192881,99 719,87.8071187 719,74 C719,60.1928813 730.192881,49 744,49 Z" id="Detail" fill="#E2EAF5" mask="url(#mask-2)"></path>
                <path d="M744,129 L980,129 C993.807119,129 1005,140.192881 1005,154 C1005,167.807119 993.807119,179 980,179 L744,179 C730.192881,179 719,167.807119 719,154 C719,140.192881 730.192881,129 744,129 Z" id="Detail" fill="#E2EAF5" mask="url(#mask-2)"></path>
                <circle id="Detail" fill="#E2EAF5" mask="url(#mask-2)" cx="584" cy="114" r="95"></circle>
                <circle id="Detail" fill="#E2EAF5" mask="url(#mask-2)" cx="584" cy="344" r="95"></circle>
                <circle id="Detail" fill="#E2EAF5" mask="url(#mask-2)" cx="584" cy="574" r="95"></circle>
                <path d="M-27,-31 L429,-31 C434.522847,-31 439,-26.5228475 439,-21 L439,253 C439,258.522847 434.522847,263 429,263 L-27,263 C-32.5228475,263 -37,258.522847 -37,253 L-37,-21 C-37,-26.5228475 -32.5228475,-31 -27,-31 Z" id="Detail" fill="#E2EAF5" mask="url(#mask-2)"></path>
                <path d="M1055,423 L1511,423 C1516.52285,423 1521,427.477153 1521,433 L1521,735 C1521,740.522847 1516.52285,745 1511,745 L1055,745 C1049.47715,745 1045,740.522847 1045,735 L1045,433 C1045,427.477153 1049.47715,423 1055,423 Z" id="Detail" fill="#E2EAF5" mask="url(#mask-2)"></path>
                <path d="M1055,33 L1511,33 C1516.52285,33 1521,37.4771525 1521,43 L1521,383 C1521,388.522847 1516.52285,393 1511,393 L1055,393 C1049.47715,393 1045,388.522847 1045,383 L1045,43 C1045,37.4771525 1049.47715,33 1055,33 Z" id="Detail" fill="#B6C5D9" mask="url(#mask-2)"></path>
                <path d="M-10,343 L364,343 C377.807119,343 389,354.192881 389,368 C389,381.807119 377.807119,393 364,393 L-10,393 C-23.8071187,393 -35,381.807119 -35,368 C-35,354.192881 -23.8071187,343 -10,343 Z" id="Detail" fill="#B6C5D9" mask="url(#mask-2)"></path>
                <path d="M-10,423 L364,423 C377.807119,423 389,434.192881 389,448 C389,461.807119 377.807119,473 364,473 L-10,473 C-23.8071187,473 -35,461.807119 -35,448 C-35,434.192881 -23.8071187,423 -10,423 Z" id="Detail" fill="#B6C5D9" mask="url(#mask-2)"></path>
                <path d="M-10,503 L364,503 C377.807119,503 389,514.192881 389,528 C389,541.807119 377.807119,553 364,553 L-10,553 C-23.8071187,553 -35,541.807119 -35,528 C-35,514.192881 -23.8071187,503 -10,503 Z" id="Detail" fill="#B6C5D9" mask="url(#mask-2)"></path>
                <path d="M-10,583 L364,583 C377.807119,583 389,594.192881 389,608 C389,621.807119 377.807119,633 364,633 L-10,633 C-23.8071187,633 -35,621.807119 -35,608 C-35,594.192881 -23.8071187,583 -10,583 Z" id="Detail" fill="#B6C5D9" mask="url(#mask-2)"></path>
                <path d="M-10,663 L364,663 C377.807119,663 389,674.192881 389,688 C389,701.807119 377.807119,713 364,713 L-10,713 C-23.8071187,713 -35,701.807119 -35,688 C-35,674.192881 -23.8071187,663 -10,663 Z" id="Detail" fill="#B6C5D9" mask="url(#mask-2)"></path>
                <path d="M30,3 L364,3 C377.807119,3 389,14.1928813 389,28 C389,41.8071187 377.807119,53 364,53 L30,53 C16.1928813,53 5,41.8071187 5,28 C5,14.1928813 16.1928813,3 30,3 Z" id="Detail" fill="#B6C5D9" mask="url(#mask-2)"></path>
                <path d="M30,83 L364,83 C377.807119,83 389,94.1928813 389,108 C389,121.807119 377.807119,133 364,133 L30,133 C16.1928813,133 5,121.807119 5,108 C5,94.1928813 16.1928813,83 30,83 Z" id="Detail" fill="#B6C5D9" mask="url(#mask-2)"></path>
                <path d="M30,163 L364,163 C377.807119,163 389,174.192881 389,188 C389,201.807119 377.807119,213 364,213 L30,213 C16.1928813,213 5,201.807119 5,188 C5,174.192881 16.1928813,163 30,163 Z" id="Detail" fill="#B6C5D9" mask="url(#mask-2)"></path>
            </g>
        </g>
    </g>
</svg>