<?xml version="1.0" encoding="UTF-8"?>
<svg width="1366px" height="647px" viewBox="0 0 1366 647" version="1.1" xmlns="http://www.w3.org/2000/svg" xmlns:xlink="http://www.w3.org/1999/xlink">
    <!-- Generator: Sketch 51 (57462) - http://www.bohemiancoding.com/sketch -->
    <title>Office</title>
    <desc>Created with Sketch.</desc>
    <defs>
        <path d="M1304,617 L69,617 C-31.2897478,392.4213 -22.290632,242.715822 96,168 C273.593995,55.2470502 437.8109,228.826279 566,229 C694.023426,228.826279 848.064996,-89.6727767 1163,25 C1373.1398,100.843095 1420.13519,298.2276 1304,617 Z" id="path-1"></path>
        <path d="M1,0 L515,0 C515.552285,-1.01453063e-16 516,0.44771525 516,1 L516,732 C516,732.552285 515.552285,733 515,733 L1,733 C0.44771525,733 6.76353751e-17,732.552285 0,732 L0,1 C-6.76353751e-17,0.44771525 0.44771525,1.01453063e-16 1,0 Z" id="path-3"></path>
        <path d="M21,0 L495,0 C495.552285,-1.01453063e-16 496,0.44771525 496,1 L496,732 C496,732.552285 495.552285,733 495,733 L21,733 C20.4477153,733 20,732.552285 20,732 L20,1 C20,0.44771525 20.4477153,1.01453063e-16 21,0 Z" id="path-5"></path>
    </defs>
    <g id="Handsome" stroke="none" stroke-width="1" fill="none" fill-rule="evenodd">
        <g id="Backgrounds" transform="translate(-1855.000000, -1514.000000)">
            <g id="Office" transform="translate(1855.000000, 1514.000000)">
                <path d="M57,617 L1305,617 C1313.28427,617 1320,623.715729 1320,632 C1320,640.284271 1313.28427,647 1305,647 L57,647 C48.7157288,647 42,640.284271 42,632 C42,623.715729 48.7157288,617 57,617 Z" id="Detail" fill="#D3E0F1"></path>
                <mask id="mask-2" fill="white">
                    <use xlink:href="#path-1"></use>
                </mask>
                <use id="Detail" fill="#F2F5F9" xlink:href="#path-1"></use>
                <g id="Detail" mask="url(#mask-2)">
                    <g transform="translate(710.000000, -206.000000)">
                        <mask id="mask-4" fill="white">
                            <use xlink:href="#path-3"></use>
                        </mask>
                        <use id="Detail" stroke="none" fill="#FFFFFF" fill-rule="evenodd" xlink:href="#path-3"></use>
                        <mask id="mask-6" fill="white">
                            <use xlink:href="#path-5"></use>
                        </mask>
                        <use id="Detail" stroke="none" fill="#E2EAF5" fill-rule="evenodd" xlink:href="#path-5"></use>
                        <polygon id="Detail" stroke="none" fill="#D3E0F1" fill-rule="evenodd" mask="url(#mask-6)" points="221 326 496 326 496 733 221 733"></polygon>
                        <path d="M-159.990662,422.58556 C-123.534242,422.58556 304.379497,422.58556 304.379497,422.58556 C304.379497,422.58556 316.963472,372.392882 228.791016,389.123775 C140.618561,405.854668 154.41992,358.650114 101.649252,347.752248 C48.878584,336.854383 23.5869427,381.264108 -56.8580539,358.650114 C-137.30305,336.03612 -196.447082,422.58556 -159.990662,422.58556 Z" id="Detail" stroke="none" fill="#F2F5F9" fill-rule="evenodd" mask="url(#mask-6)"></path>
                        <polygon id="Detail" stroke="none" fill="#FFFFFF" fill-rule="evenodd" mask="url(#mask-6)" points="-113 473 620 473 620 493 -113 493"></polygon>
                    </g>
                </g>
                <g id="Detail" mask="url(#mask-2)" fill="#B6C5D9">
                    <g transform="translate(1037.000000, 231.000000)">
                        <path d="M10,204 L116,204 C117.656854,204 119,205.343146 119,207 L119,296 L7,296 L7,207 C7,205.343146 8.34314575,204 10,204 Z"></path>
                        <path d="M56.9660229,163.948692 C56.0921521,90.5562716 71.2124141,-14.4620663 94,2 C133.923783,30.102964 140.91391,108.711426 89,212 C81.295269,227.427654 75.1223692,232.800909 70.3303559,230.895209 C67.7062575,232.243014 63.0960062,230.026528 56,223 C3.40421584,170.604032 -9.112643,120.199685 8,93 C16.7925963,80.160882 40.7054635,122.738335 56.9660229,163.948692 Z"></path>
                    </g>
                </g>
                <g id="Detail" mask="url(#mask-2)">
                    <g transform="translate(158.000000, 109.000000)">
                        <path d="M3,0 L319,0 C320.656854,3.05988668e-14 322,1.34314575 322,3 L322,333 C322,334.656854 320.656854,336 319,336 L3,336 C1.34314575,336 2.02906125e-16,334.656854 0,333 L0,3 C-2.02906125e-16,1.34314575 1.34314575,3.04359188e-16 3,0 Z" fill="#D3E0F1"></path>
                        <g stroke-width="1" fill="none" transform="translate(30.000000, 128.000000)">
                            <path d="M3,16 L116,16 C117.656854,16 119,17.3431458 119,19 L119,132 C119,133.656854 117.656854,135 116,135 L3,135 C1.34314575,135 2.02906125e-16,133.656854 0,132 L0,19 C-2.02906125e-16,17.3431458 1.34314575,16 3,16 Z" fill="#F2F5F9"></path>
                            <path d="M20,56 L99,56 C101.761424,56 104,58.2385763 104,61 C104,63.7614237 101.761424,66 99,66 L20,66 C17.2385763,66 15,63.7614237 15,61 C15,58.2385763 17.2385763,56 20,56 Z" fill="#B6C5D9"></path>
                            <path d="M20,76 L69,76 C71.7614237,76 74,78.2385763 74,81 C74,83.7614237 71.7614237,86 69,86 L20,86 C17.2385763,86 15,83.7614237 15,81 C15,78.2385763 17.2385763,76 20,76 Z" fill="#B6C5D9"></path>
                            <path d="M56,0 L63,0 C64.6568542,-3.04359188e-16 66,1.34314575 66,3 L66,30 C66,31.6568542 64.6568542,33 63,33 L56,33 C54.3431458,33 53,31.6568542 53,30 L53,3 C53,1.34314575 54.3431458,2.08071603e-15 56,0 Z" fill="#FFFFFF"></path>
                        </g>
                        <g stroke-width="1" fill="none" transform="translate(173.000000, 178.000000)">
                            <path d="M3,16 L116,16 C117.656854,16 119,17.3431458 119,19 L119,125 C119,126.656854 117.656854,128 116,128 L3,128 C1.34314575,128 2.02906125e-16,126.656854 0,125 L0,19 C-2.02906125e-16,17.3431458 1.34314575,16 3,16 Z" fill="#F2F5F9"></path>
                            <g transform="translate(15.000000, 43.000000)" fill="#B6C5D9">
                                <path d="M25,0 L84,0 C86.7614237,-5.07265313e-16 89,2.23857625 89,5 C89,7.76142375 86.7614237,10 84,10 L25,10 C22.2385763,10 20,7.76142375 20,5 C20,2.23857625 22.2385763,5.07265313e-16 25,0 Z"></path>
                                <path d="M5,0 C7.76142375,-5.07265313e-16 10,2.23857625 10,5 C10,7.76142375 7.76142375,10 5,10 C2.23857625,10 3.38176876e-16,7.76142375 0,5 C-3.38176876e-16,2.23857625 2.23857625,5.07265313e-16 5,0 Z"></path>
                                <path d="M25,20 L84,20 C86.7614237,20 89,22.2385763 89,25 C89,27.7614237 86.7614237,30 84,30 L25,30 C22.2385763,30 20,27.7614237 20,25 C20,22.2385763 22.2385763,20 25,20 Z"></path>
                                <path d="M5,20 C7.76142375,20 10,22.2385763 10,25 C10,27.7614237 7.76142375,30 5,30 C2.23857625,30 3.38176876e-16,27.7614237 0,25 C-3.38176876e-16,22.2385763 2.23857625,20 5,20 Z"></path>
                                <path d="M25,40 L84,40 C86.7614237,40 89,42.2385763 89,45 C89,47.7614237 86.7614237,50 84,50 L25,50 C22.2385763,50 20,47.7614237 20,45 C20,42.2385763 22.2385763,40 25,40 Z"></path>
                                <path d="M5,40 C7.76142375,40 10,42.2385763 10,45 C10,47.7614237 7.76142375,50 5,50 C2.23857625,50 3.38176876e-16,47.7614237 0,45 C-3.38176876e-16,42.2385763 2.23857625,40 5,40 Z"></path>
                            </g>
                            <path d="M56,0 L63,0 C64.6568542,-3.04359188e-16 66,1.34314575 66,3 L66,30 C66,31.6568542 64.6568542,33 63,33 L56,33 C54.3431458,33 53,31.6568542 53,30 L53,3 C53,1.34314575 54.3431458,2.08071603e-15 56,0 Z" fill="#FFFFFF"></path>
                        </g>
                    </g>
                </g>
                <path d="M683,527 L1253,527 C1254.65685,527 1256,528.343146 1256,530 L1256,568 C1256,569.656854 1254.65685,571 1253,571 L683,571 C681.343146,571 680,569.656854 680,568 L680,530 C680,528.343146 681.343146,527 683,527 Z" id="Detail" fill="#FFFFFF" mask="url(#mask-2)"></path>
            </g>
        </g>
    </g>
</svg>