<?xml version="1.0" encoding="UTF-8"?>
<svg width="1371px" height="639px" viewBox="0 0 1371 639" version="1.1" xmlns="http://www.w3.org/2000/svg" xmlns:xlink="http://www.w3.org/1999/xlink">
    <!-- Generator: Sketch 51 (57462) - http://www.bohemiancoding.com/sketch -->
    <title>Park</title>
    <desc>Created with Sketch.</desc>
    <defs></defs>
    <g id="Handsome" stroke="none" stroke-width="1" fill="none" fill-rule="evenodd">
        <g id="Backgrounds" transform="translate(-4753.000000, -360.000000)">
            <g id="Park" transform="translate(4753.000000, 361.000000)">
                <path d="M300,25 C588.516406,-92.8242007 794.963228,243.063671 1091,243 C1387.6298,243.063671 1387.6298,481.531541 1315,553 C1265.97018,601.247098 1209.63684,629.580432 1146,638 L211,638 C78.5571148,308.014548 108.223781,103.681214 300,25 Z" id="Bg" fill="#F2F5F9"></path>
                <path d="M836.959414,120.754242 C838.64585,122.940881 838.240355,126.08063 836.053716,127.767066 C833.867076,129.453503 830.727327,129.048008 829.040891,126.861368 C816.773575,110.955521 803.570768,110.955521 786.46671,127.410995 C784.499282,129.303818 781.377263,129.268554 779.453092,127.331774 C763.178306,110.950345 749.963989,110.950345 736.871858,126.971647 C735.124516,129.109931 731.974594,129.426852 729.83631,127.67951 C727.698026,125.932168 727.381105,122.782246 729.128447,120.643963 C745.15312,101.034006 763.954963,99.914111 783.070896,116.982393 C802.936529,99.9063798 821.731349,101.009477 836.959414,120.754242 Z" id="Detail" fill="#B6C5D9" fill-rule="nonzero"></path>
                <path d="M746.959414,170.754242 C748.64585,172.940881 748.240355,176.08063 746.053716,177.767066 C743.867076,179.453503 740.727327,179.048008 739.040891,176.861368 C726.773575,160.955521 713.570768,160.955521 696.46671,177.410995 C694.499282,179.303818 691.377263,179.268554 689.453092,177.331774 C673.178306,160.950345 659.963989,160.950345 646.871858,176.971647 C645.124516,179.109931 641.974594,179.426852 639.83631,177.67951 C637.698026,175.932168 637.381105,172.782246 639.128447,170.643963 C655.15312,151.034006 673.954963,149.914111 693.070896,166.982393 C712.936529,149.90638 731.731349,151.009477 746.959414,170.754242 Z" id="Detail" fill="#B6C5D9" fill-rule="nonzero"></path>
                <path d="M81.6733419,637.996195 C-86.7929189,501.320928 55.8845529,456.49727 66.3653062,428.283184 C77.2381374,399.646451 10.5639971,334.382643 32.3474491,296.401807 C53.9630812,260.486958 111.408554,313.71661 111.722449,271.178593 C111.408554,228.540295 59.4584281,216.831103 41.9858419,143.621195 C26.1523173,70.4053508 134.954607,33.9097642 162.182271,135.693899 C188.679509,236.785503 145.358771,280.034649 178.624235,285.591858 C212.121076,292.990587 249.959185,271.556295 254.030485,318.021705 C257.334184,365.286075 161.817058,393.336185 162.182271,436.931144 C161.817058,479.052659 283.747779,580.913556 81.6733419,637.996195 Z" id="Flower" fill="#E2EAF5" transform="translate(127.057126, 355.498097) scale(-1, 1) translate(-127.057126, -355.498097) "></path>
                <g id="Tree" transform="translate(841.000000, 52.000000)">
                    <path d="M357.61648,323 L371.985274,556.856686 C372.245115,561.085676 369.035198,564.725068 364.815725,564.985495 C364.711297,564.99194 311.117429,564.996775 204.034123,565 C199.806656,565 196.379618,561.565232 196.379618,557.328231 C196.379618,557.223369 198.778794,518.097345 203.577147,439.950161 L188.508417,439.950161 C133.608951,439.950161 89.0932471,395.391719 89,340.390305 C95.9786235,342.764957 103.459463,344.053045 111.241057,344.053045 C119.562372,344.053045 127.539766,342.580081 134.926883,339.880583 L134.926883,340.21716 C134.926883,369.876168 158.916153,393.919545 188.508417,393.919545 L206.405394,393.919545 L210.644265,324.930567 C230.097709,341.632775 255.388326,351.724814 283.035331,351.724814 C311.731888,351.724814 337.889752,340.851991 357.61648,323 Z" id="Detail" fill="#D3E0F1"></path>
                    <path d="M475.891629,119.623123 C508.310974,139.112444 530,174.622233 530,215.196507 C530,276.743698 480.093741,326.637555 418.53125,326.637555 C399.95027,326.637555 382.43114,322.092366 367.025553,314.05342 C346.595951,337.315975 316.628846,352 283.23125,352 C250.09481,352 220.335421,337.544724 199.917948,314.597555 C184.769833,322.297163 167.626294,326.637555 149.46875,326.637555 C87.9062593,326.637555 38,276.743698 38,215.196507 C38,174.622233 59.6890257,139.112444 92.1083707,119.623123 C91.9122631,116.921338 91.8125,114.192841 91.8125,111.441048 C91.8125,49.8938567 141.718759,0 203.28125,0 C235.040063,0 263.696786,13.2783228 284.000009,34.5848629 C304.303223,13.2783189 332.959942,0 364.71875,0 C426.281241,0 476.1875,49.8938567 476.1875,111.441048 C476.1875,114.192841 476.087737,116.921338 475.891629,119.623123 Z" id="Detail" fill="#E2EAF5"></path>
                    <path d="M62.1275847,229.647958 C74.6844473,216.904078 92.1664077,209 111.5,209 C130.833592,209 148.315553,216.904078 160.872415,229.647958 C164.760411,228.680343 168.828658,228.166667 173.017241,228.166667 C200.621957,228.166667 223,250.47781 223,278 C223,305.52219 200.621957,327.833333 173.017241,327.833333 C168.828658,327.833333 164.760411,327.319657 160.872415,326.352042 C148.315553,339.095922 130.833592,347 111.5,347 C92.1664077,347 74.6844473,339.095922 62.1275847,326.352042 C58.2395893,327.319657 54.1713416,327.833333 49.9827586,327.833333 C22.3780433,327.833333 0,305.52219 0,278 C0,250.47781 22.3780433,228.166667 49.9827586,228.166667 C54.1713416,228.166667 58.2395893,228.680343 62.1275847,229.647958 Z" id="Detail" fill="#D3E0F1"></path>
                </g>
                <path d="M85,608 L1324,608 C1332.28427,608 1339,614.715729 1339,623 C1339,631.284271 1332.28427,638 1324,638 L85,638 C76.7157288,638 70,631.284271 70,623 C70,614.715729 76.7157288,608 85,608 Z" id="Detail" fill="#D3E0F1"></path>
                <path d="M1339.59293,638 L1203.25788,638 C1198.02326,629.580728 1195,619.643424 1195,609 C1195,578.624339 1219.62434,554 1250,554 C1274.47808,554 1295.22134,569.990718 1302.35341,592.095805 C1303.22732,592.032304 1304.10989,592 1305,592 C1324.88225,592 1341,608.117749 1341,628 C1341,631.46988 1340.50909,634.825101 1339.59293,638 Z" id="Detail" fill="#D3E0F1"></path>
                <path d="M362.258461,638 L74.7972089,638 C69.1927502,627.933068 66,616.339387 66,604 C66,565.340068 97.3400675,534 136,534 C139.934155,534 143.792507,534.324549 147.549743,534.948334 C151.203069,510.085646 172.622689,491 198.5,491 C224.247429,491 245.581801,509.894538 249.393906,534.574402 C252.375842,534.195367 255.415106,534 258.5,534 C272.449218,534 285.465455,537.994565 296.467211,544.902193 C305.876875,538.045582 317.46599,534 330,534 C361.480231,534 387,559.519769 387,591 C387,610.506289 377.201711,627.724066 362.258461,638 Z" id="Detail" fill="#D3E0F1"></path>
            </g>
        </g>
    </g>
</svg>