<?xml version="1.0" encoding="UTF-8"?>
<svg width="1317px" height="668px" viewBox="0 0 1317 668" version="1.1" xmlns="http://www.w3.org/2000/svg" xmlns:xlink="http://www.w3.org/1999/xlink">
    <!-- Generator: Sketch 51 (57462) - http://www.bohemiancoding.com/sketch -->
    <title>Phone</title>
    <desc>Created with Sketch.</desc>
    <defs>
        <path d="M365,638 L24,638 L24,57.9953811 C24,39.2202505 39.1911344,24 57.9303483,24 L93.5572139,24 C96.9502488,24 98.6467662,25.6997691 98.6467662,29.0993072 C98.6467662,44.6016647 108.777128,51.1963048 124.094527,51.1963048 L264.905473,51.1963048 C281.29057,51.1963048 290.353234,44.6016647 290.353234,29.0993072 C290.353234,25.6997691 292.049751,24 295.442786,24 L331.069652,24 C349.808866,24 365,39.2202505 365,57.9953811 L365,638 Z" id="path-1"></path>
    </defs>
    <g id="Handsome" stroke="none" stroke-width="1" fill="none" fill-rule="evenodd">
        <g id="Backgrounds" transform="translate(-1879.000000, -2660.000000)">
            <g id="Phone" transform="translate(1879.000000, 2660.000000)">
                <path d="M37,668 C-45.6139405,339.126892 10.2337224,141.973194 204.542989,76.5389053 C496.006888,-21.6125279 632.208497,330.210655 757,301 C881.791503,271.789345 1034.20243,104.252561 1210,237 C1327.44683,325.009109 1348.11349,468.675776 1272,668 L37,668 Z" id="Detail" fill="#F2F5F9"></path>
                <path d="M32,638 L1280,638 C1288.28427,638 1295,644.715729 1295,653 C1295,661.284271 1288.28427,668 1280,668 L32,668 C23.7157288,668 17,661.284271 17,653 C17,644.715729 23.7157288,638 32,638 Z" id="Detail" fill="#D3E0F1"></path>
                <g id="Detail" transform="translate(786.000000, 0.000000)">
                    <g id="iPhone">
                        <path d="M389,638 L0,638 L0,59.5227766 C-4.02120363e-15,26.6492548 26.618529,6.03876798e-15 59.4541485,0 L329.545852,0 C362.381471,-6.03876798e-15 389,26.6492548 389,59.5227766 L389,638 Z" id="Detail" fill="#B6C5D9"></path>
                        <mask id="mask-2" fill="white">
                            <use xlink:href="#path-1"></use>
                        </mask>
                        <use id="Detail" fill="#F2F5F9" xlink:href="#path-1"></use>
                        <path d="M54,74 L335,74 C340.522847,74 345,78.4771525 345,84 L345,247 C345,252.522847 340.522847,257 335,257 L54,257 C48.4771525,257 44,252.522847 44,247 L44,84 C44,78.4771525 48.4771525,74 54,74 Z" id="Detail" fill="#E2EAF5" mask="url(#mask-2)"></path>
                        <path d="M59,287 L330,287 C338.284271,287 345,293.715729 345,302 C345,310.284271 338.284271,317 330,317 L59,317 C50.7157288,317 44,310.284271 44,302 C44,293.715729 50.7157288,287 59,287 Z" id="Detail" fill="#E2EAF5" mask="url(#mask-2)"></path>
                        <path d="M59,337 L330,337 C338.284271,337 345,343.715729 345,352 C345,360.284271 338.284271,367 330,367 L59,367 C50.7157288,367 44,360.284271 44,352 C44,343.715729 50.7157288,337 59,337 Z" id="Detail" fill="#E2EAF5" mask="url(#mask-2)"></path>
                        <path d="M59,387 L330,387 C338.284271,387 345,393.715729 345,402 C345,410.284271 338.284271,417 330,417 L59,417 C50.7157288,417 44,410.284271 44,402 C44,393.715729 50.7157288,387 59,387 Z" id="Detail" fill="#E2EAF5" mask="url(#mask-2)"></path>
                        <path d="M59,437 L330,437 C338.284271,437 345,443.715729 345,452 C345,460.284271 338.284271,467 330,467 L59,467 C50.7157288,467 44,460.284271 44,452 C44,443.715729 50.7157288,437 59,437 Z" id="Detail" fill="#E2EAF5" mask="url(#mask-2)"></path>
                        <path d="M59,487 L330,487 C338.284271,487 345,493.715729 345,502 C345,510.284271 338.284271,517 330,517 L59,517 C50.7157288,517 44,510.284271 44,502 C44,493.715729 50.7157288,487 59,487 Z" id="Detail" fill="#E2EAF5" mask="url(#mask-2)"></path>
                        <path d="M59,537 L330,537 C338.284271,537 345,543.715729 345,552 C345,560.284271 338.284271,567 330,567 L59,567 C50.7157288,567 44,560.284271 44,552 C44,543.715729 50.7157288,537 59,537 Z" id="Detail" fill="#E2EAF5" mask="url(#mask-2)"></path>
                        <path d="M59,587 L330,587 C338.284271,587 345,593.715729 345,602 C345,610.284271 338.284271,617 330,617 L59,617 C50.7157288,617 44,610.284271 44,602 C44,593.715729 50.7157288,587 59,587 Z" id="Detail" fill="#E2EAF5" mask="url(#mask-2)"></path>
                    </g>
                </g>
                <g id="Detail" transform="translate(211.000000, 510.000000)">
                    <polygon fill="#B6C5D9" points="0 0 182 0 182 38 0 38"></polygon>
                    <polygon fill="#E2EAF5" points="15 38 167 38 167 128 15 128"></polygon>
                    <path d="M55,65 L127,65 C132.522847,65 137,69.4771525 137,75 C137,80.5228475 132.522847,85 127,85 L55,85 C49.4771525,85 45,80.5228475 45,75 C45,69.4771525 49.4771525,65 55,65 Z" fill="#D3E0F1"></path>
                </g>
                <g id="Detail" transform="translate(236.000000, 422.000000)">
                    <polygon fill="#B6C5D9" points="0 0 132 0 132 26 0 26"></polygon>
                    <polygon fill="#E2EAF5" points="11 26 121 26 121 88 11 88"></polygon>
                    <path d="M40,45 L93,45 C96.8659932,45 100,48.1340068 100,52 C100,55.8659932 96.8659932,59 93,59 L40,59 C36.1340068,59 33,55.8659932 33,52 C33,48.1340068 36.1340068,45 40,45 Z" fill="#D3E0F1"></path>
                </g>
                <path d="M163.895929,576 L178,576 C179.656854,576 181,577.343146 181,579 L181,638 L106,638 L106,579 C106,577.343146 107.343146,576 109,576 L127.147681,576 C101.879262,545.522124 96.6323082,517.405887 106.666667,501.342857 C112.654447,492.536932 129.160591,522.556716 140.002779,550.763196 C139.154838,501.456838 149.293596,429.164158 164.666667,440.341991 C190.606177,458.719777 195.691591,509.286087 163.895951,575.999953 L163.895929,576 Z" id="Flowers" fill="#B6C5D9"></path>
            </g>
        </g>
    </g>
</svg>