<?xml version="1.0" encoding="UTF-8"?>
<svg width="1359px" height="663px" viewBox="0 0 1359 663" version="1.1" xmlns="http://www.w3.org/2000/svg" xmlns:xlink="http://www.w3.org/1999/xlink">
    <!-- Generator: Sketch 51 (57462) - http://www.bohemiancoding.com/sketch -->
    <title>Railway station</title>
    <desc>Created with Sketch.</desc>
    <defs>
        <path d="M227.07583,636.853339 C439.925983,578.354636 380.595504,491.407428 712.899792,604.889617 C1045.20408,718.371807 1262.47628,643.642666 1317.44003,557.699358 C1372.40377,471.75605 1416.7497,244.999034 1143.5486,94.6423057 C870.34751,-55.7144229 381.115178,-28.9625939 135.276052,189.548024 C-110.563075,408.058641 14.2256767,695.352043 227.07583,636.853339 Z" id="path-1"></path>
        <polygon id="path-3" points="0 0 1380 0 1380 355 0 355"></polygon>
        <polygon id="path-5" points="0 -10 1380 -10 1380 345 0 345"></polygon>
    </defs>
    <g id="Handsome" stroke="none" stroke-width="1" fill="none" fill-rule="evenodd">
        <g id="Backgrounds" transform="translate(-4759.000000, -1506.000000)">
            <g id="Railway-station" transform="translate(4759.000000, 1506.000000)">
                <g id="Group">
                    <mask id="mask-2" fill="white">
                        <use xlink:href="#path-1"></use>
                    </mask>
                    <use id="Path-135" fill="#F2F5F9" xlink:href="#path-1"></use>
                    <g id="Detail" mask="url(#mask-2)">
                        <g transform="translate(0.000000, -28.000000)">
                            <mask id="mask-4" fill="white">
                                <use xlink:href="#path-3"></use>
                            </mask>
                            <use id="Detail" stroke="none" fill="#FFFFFF" fill-rule="evenodd" xlink:href="#path-3"></use>
                            <mask id="mask-6" fill="white">
                                <use xlink:href="#path-5"></use>
                            </mask>
                            <use id="Detail-Copy" stroke="none" fill="#E2EAF5" fill-rule="evenodd" xlink:href="#path-5"></use>
                            <path d="M103.251269,222.936533 C304.496351,235.959862 459.201257,106.7706 540.149301,106.7706 C621.097346,106.7706 661.130356,259.638019 754.480714,259.638019 C847.831071,259.638019 876.478794,90.2281819 968.812126,90.2281819 C1014.75319,90.2281819 1121.23097,299.069456 1174.45832,299.069456 C1200.50213,299.069456 1260.14116,154.017547 1333.23133,177.647389 C1350.89518,183.358062 1377.12484,244.208577 1411.92032,360.198934 L-31.7190992,360.198934 C-75.9022418,260.008447 -30.9121192,214.254314 103.251269,222.936533 Z" id="Detail" stroke="none" fill="#D3E0F1" fill-rule="evenodd" mask="url(#mask-6)"></path>
                            <path d="M796.009338,203.58556 C832.465758,203.58556 1260.3795,203.58556 1260.3795,203.58556 C1260.3795,203.58556 1272.96347,153.392882 1184.79102,170.123775 C1096.61856,186.854668 1110.41992,139.650114 1057.64925,128.752248 C1004.87858,117.854383 979.586943,162.264108 899.141946,139.650114 C818.69695,117.03612 759.552918,203.58556 796.009338,203.58556 Z" id="Detail" stroke="none" fill="#F2F5F9" fill-rule="evenodd" mask="url(#mask-6)"></path>
                        </g>
                    </g>
                    <g id="Detail" mask="url(#mask-2)">
                        <g transform="translate(12.000000, 126.000000)">
                            <path d="M0,0 L450,0 C535.985371,0 643.412354,61.7467664 643.412354,105.191203 C643.412354,148.635639 550.684998,191 530,191 L0,191 L0,0 Z" fill="#B6C5D9"></path>
                            <path d="M152,73 L191,73 C192.656854,73 194,74.3431458 194,76 L194,115 C194,116.656854 192.656854,118 191,118 L152,118 C150.343146,118 149,116.656854 149,115 L149,76 C149,74.3431458 150.343146,73 152,73 Z" fill="#F2F5F9"></path>
                            <path d="M217,73 L256,73 C257.656854,73 259,74.3431458 259,76 L259,115 C259,116.656854 257.656854,118 256,118 L217,118 C215.343146,118 214,116.656854 214,115 L214,76 C214,74.3431458 215.343146,73 217,73 Z" fill="#F2F5F9"></path>
                            <path d="M282,73 L321,73 C322.656854,73 324,74.3431458 324,76 L324,115 C324,116.656854 322.656854,118 321,118 L282,118 C280.343146,118 279,116.656854 279,115 L279,76 C279,74.3431458 280.343146,73 282,73 Z" fill="#F2F5F9"></path>
                            <path d="M347,73 L386,73 C387.656854,73 389,74.3431458 389,76 L389,115 C389,116.656854 387.656854,118 386,118 L347,118 C345.343146,118 344,116.656854 344,115 L344,76 C344,74.3431458 345.343146,73 347,73 Z" fill="#F2F5F9"></path>
                            <path d="M602.186239,95.7375728 C600.292722,100.14414 595.957192,103 591.161022,103 L452,103 C450.343146,103 449,101.656854 449,100 L449,35.0693701 C449,17.4372349 495.89874,29.4412841 533.172164,44.0291682 C573.098188,59.6552135 607.460557,83.4632486 602.186239,95.7375728 Z" fill="#F2F5F9"></path>
                        </g>
                    </g>
                    <polygon id="Detail" fill="#FFFFFF" mask="url(#mask-2)" points="284 26 294 26 294 327 284 327"></polygon>
                    <polygon id="Detail" fill="#FFFFFF" mask="url(#mask-2)" points="679 -19 689 -19 689 327 679 327"></polygon>
                    <polygon id="Detail" fill="#FFFFFF" mask="url(#mask-2)" points="1074 26 1084 26 1084 327 1074 327"></polygon>
                </g>
                <path d="M876,266 L1227,266 C1228.65685,266 1230,267.343146 1230,269 L1230,360 C1230,361.656854 1228.65685,363 1227,363 L876,363 C874.343146,363 873,361.656854 873,360 L873,269 C873,267.343146 874.343146,266 876,266 Z" id="Detail" fill="#B6C5D9"></path>
                <path d="M876,373 L1227,373 C1228.65685,373 1230,374.343146 1230,376 L1230,407 C1230,408.656854 1228.65685,410 1227,410 L876,410 C874.343146,410 873,408.656854 873,407 L873,376 C873,374.343146 874.343146,373 876,373 Z" id="Detail" fill="#B6C5D9"></path>
                <path d="M876,400 L900,400 C901.656854,400 903,401.343146 903,403 L903,434 C903,435.656854 901.656854,437 900,437 L876,437 C874.343146,437 873,435.656854 873,434 L873,403 C873,401.343146 874.343146,400 876,400 Z" id="Detail" fill="#B6C5D9"></path>
                <path d="M1203,400 L1227,400 C1228.65685,400 1230,401.343146 1230,403 L1230,434 C1230,435.656854 1228.65685,437 1227,437 L1203,437 C1201.34315,437 1200,435.656854 1200,434 L1200,403 C1200,401.343146 1201.34315,400 1203,400 Z" id="Detail" fill="#B6C5D9"></path>
            </g>
        </g>
    </g>
</svg>