<?xml version="1.0" encoding="UTF-8"?>
<svg width="1317px" height="706px" viewBox="0 0 1317 706" version="1.1" xmlns="http://www.w3.org/2000/svg" xmlns:xlink="http://www.w3.org/1999/xlink">
    <!-- Generator: Sketch 51 (57462) - http://www.bohemiancoding.com/sketch -->
    <title>Schedule</title>
    <desc>Created with Sketch.</desc>
    <defs></defs>
    <g id="Handsome" stroke="none" stroke-width="1" fill="none" fill-rule="evenodd">
        <g id="Backgrounds" transform="translate(-6230.000000, -2641.000000)">
            <g id="Schedule" transform="translate(6230.000000, 2641.000000)">
                <path d="M13.0093383,169.58556 C49.4657582,169.58556 477.379497,169.58556 477.379497,169.58556 C477.379497,169.58556 489.963472,119.392882 401.791016,136.123775 C313.618561,152.854668 327.41992,105.650114 274.649252,94.7522484 C221.878584,83.8543829 196.586943,128.264108 116.141946,105.650114 C35.6969496,83.0361203 -23.4470816,169.58556 13.0093383,169.58556 Z" id="Detail" fill="#F2F5F9"></path>
                <path d="M843.009338,74.8333119 C864.596164,74.8333119 995.562805,74.8333119 1098.2286,74.8333119 C1181.27607,74.8333119 1153.54176,0 1104.64925,0 C1036.1979,1.96507593e-15 1026.58694,33.5118591 946.141946,10.8978655 C865.69695,-11.7161281 806.552918,74.8333119 843.009338,74.8333119 Z" id="Detail" fill="#F2F5F9"></path>
                <path d="M1225,681 L97,681 C101.282389,580.579056 161.207188,530.368584 209.8,530.368584 C258.392812,530.368584 283.240548,615.111979 322.6,615 C426.863904,615.293819 370.298461,285.482793 435.4,285 C500.661937,285.482793 484.795039,455.800308 548.2,456 C611.845875,455.741649 568.451997,170 661,170 C753.141929,170 678.436779,615.293819 773.8,615 C870.292036,615.293819 814.711947,324.02443 886.6,324 C959.151757,324.02443 921.046289,455.741649 999.4,456 C1077.9523,455.741649 1034.05243,170 1112.2,170 C1164.1207,170 1200.9207,340.333333 1225,681 Z" id="Detail" stroke="#E2EAF5" stroke-width="10" fill="#F2F5F9" stroke-linecap="round" stroke-linejoin="round"></path>
                <circle id="Detail" fill="#E2EAF5" cx="322" cy="612" r="15"></circle>
                <circle id="Detail" fill="#E2EAF5" cx="658" cy="171" r="15"></circle>
                <circle id="Detail" fill="#E2EAF5" cx="546" cy="453" r="15"></circle>
                <circle id="Detail" fill="#E2EAF5" cx="777" cy="612" r="15"></circle>
                <circle id="Detail" fill="#E2EAF5" cx="890" cy="327" r="15"></circle>
                <circle id="Detail" fill="#E2EAF5" cx="997" cy="453" r="15"></circle>
                <circle id="Detail" fill="#E2EAF5" cx="1110" cy="170" r="15"></circle>
                <path d="M169,706 C140.116167,706 -30.885962,618.735334 5,587 C40.6064538,554.751505 89.9679931,630.175406 103,595 C115.226473,559.012155 -9.40627089,542.784543 11,490 C30.0590677,438.368316 149.151535,534.792774 106,475 C62.5719697,414.670216 61.6511238,309.535126 114,301 C166.068449,292.217079 175.873565,367.85934 149,467 C121.703444,567.364491 195.883842,381.564453 236,429 C275.719535,476.702195 139.425671,563.543949 166,584 C192.893751,604.559412 268.255768,454.881052 282,552 C290.948073,612.694973 197.70975,706 169,706 Z" id="Detail" fill="#B6C5D9"></path>
                <path d="M1164.3159,699.570315 C1015.15108,604.363784 1141.48178,573.140102 1150.76173,553.486472 C1160.38885,533.538429 1101.35366,488.076358 1120.64135,461.619313 C1139.78045,436.601412 1190.64431,473.68062 1190.92224,444.049091 C1190.64431,414.347708 1144.64619,406.19121 1129.17546,355.19397 C1115.15601,304.192595 1211.49265,278.770159 1235.6008,349.6719 C1259.06221,420.091232 1220.7048,450.218126 1250.15899,454.089218 C1279.81804,459.243093 1313.32099,444.312194 1316.92583,476.679503 C1319.85102,509.603358 1235.27743,529.142765 1235.6008,559.510548 C1235.27743,588.851946 1343.23837,659.807159 1164.3159,699.570315 Z" id="Detail" fill="#B6C5D9"></path>
                <path d="M35,676 L1283,676 C1291.28427,676 1298,682.715729 1298,691 C1298,699.284271 1291.28427,706 1283,706 L35,706 C26.7157288,706 20,699.284271 20,691 C20,682.715729 26.7157288,676 35,676 Z" id="Detail" fill="#D3E0F1"></path>
            </g>
        </g>
    </g>
</svg>