<?xml version="1.0" encoding="UTF-8"?>
<svg width="1167px" height="733px" viewBox="0 0 1167 733" version="1.1" xmlns="http://www.w3.org/2000/svg" xmlns:xlink="http://www.w3.org/1999/xlink">
    <!-- Generator: Sketch 51 (57462) - http://www.bohemiancoding.com/sketch -->
    <title>Spot 01</title>
    <desc>Created with Sketch.</desc>
    <defs></defs>
    <g id="Handsome" stroke="none" stroke-width="1" fill="none" fill-rule="evenodd">
        <g id="Backgrounds" transform="translate(-3405.000000, -3785.000000)">
            <g id="Spot-01" transform="translate(3405.000000, 3785.000000)">
                <path d="M217,733 C118.05898,733 15.6051654,634.579037 83,482 C149.797933,329.287664 50.1898056,289.691978 9,196 C-33.2897332,103.124018 76.8465261,-83.3893906 316,42 C554.412766,167.259027 576.550936,258.215454 739,213 C900.868308,167.259027 1009.09532,71.4111013 1127,134 C1244.95093,196.407998 1040.85275,370.53286 1084,470 C1126.85832,569.455377 1244.95093,733 1084,733 C922.760143,733 315.729654,733 217,733 Z" id="Details" fill="#F2F5F9"></path>
                <circle id="Details" fill="#E2EAF5" cx="1088" cy="377" r="40"></circle>
                <circle id="Details" fill="#E2EAF5" cx="182" cy="260" r="50"></circle>
                <circle id="Details" fill="#E2EAF5" cx="120" cy="382" r="35"></circle>
                <circle id="Details" fill="#E2EAF5" cx="75" cy="296" r="25"></circle>
            </g>
        </g>
    </g>
</svg>