<?xml version="1.0" encoding="UTF-8"?>
<svg width="1278px" height="689px" viewBox="0 0 1278 689" version="1.1" xmlns="http://www.w3.org/2000/svg" xmlns:xlink="http://www.w3.org/1999/xlink">
    <!-- Generator: Sketch 51 (57462) - http://www.bohemiancoding.com/sketch -->
    <title>Street</title>
    <desc>Created with Sketch.</desc>
    <defs></defs>
    <g id="Handsome" stroke="none" stroke-width="1" fill="none" fill-rule="evenodd">
        <g id="Backgrounds" transform="translate(-449.000000, -1493.000000)">
            <g id="Street" transform="translate(449.000000, 1493.000000)">
                <path d="M15,659 L1263,659 C1271.28427,659 1278,665.715729 1278,674 C1278,682.284271 1271.28427,689 1263,689 L15,689 C6.71572875,689 1.01453063e-15,682.284271 0,674 C-1.01453063e-15,665.715729 6.71572875,659 15,659 Z" id="Detail" fill="#D3E0F1"></path>
                <g id="House" transform="translate(10.000000, 94.000000)">
                    <polygon id="Detail" fill="#D3E0F1" points="11 30 391 30 391 565 11 565"></polygon>
                    <g id="Detail" transform="translate(61.000000, 80.000000)">
                        <path d="M13,0 L107,0 C108.656854,-3.04359188e-16 110,1.34314575 110,3 L110,118 C110,119.656854 108.656854,121 107,121 L13,121 C11.3431458,121 10,119.656854 10,118 L10,3 C10,1.34314575 11.3431458,3.04359188e-16 13,0 Z" fill="#FFFFFF"></path>
                        <polygon fill="#F2F5F9" points="0 101 120 101 120 121 0 121"></polygon>
                    </g>
                    <g id="Detail" transform="translate(61.000000, 241.000000)">
                        <path d="M13,0 L107,0 C108.656854,-3.04359188e-16 110,1.34314575 110,3 L110,118 C110,119.656854 108.656854,121 107,121 L13,121 C11.3431458,121 10,119.656854 10,118 L10,3 C10,1.34314575 11.3431458,3.04359188e-16 13,0 Z" fill="#FFFFFF"></path>
                        <polygon fill="#F2F5F9" points="0 101 120 101 120 121 0 121"></polygon>
                    </g>
                    <g id="Detail" transform="translate(61.000000, 402.000000)">
                        <path d="M13,0 L107,0 C108.656854,-3.04359188e-16 110,1.34314575 110,3 L110,118 C110,119.656854 108.656854,121 107,121 L13,121 C11.3431458,121 10,119.656854 10,118 L10,3 C10,1.34314575 11.3431458,3.04359188e-16 13,0 Z" fill="#FFFFFF"></path>
                        <polygon fill="#F2F5F9" points="0 101 120 101 120 121 0 121"></polygon>
                    </g>
                    <g id="Detail" transform="translate(221.000000, 80.000000)">
                        <path d="M13,0 L107,0 C108.656854,-3.04359188e-16 110,1.34314575 110,3 L110,118 C110,119.656854 108.656854,121 107,121 L13,121 C11.3431458,121 10,119.656854 10,118 L10,3 C10,1.34314575 11.3431458,3.04359188e-16 13,0 Z" fill="#FFFFFF"></path>
                        <polygon fill="#F2F5F9" points="0 101 120 101 120 121 0 121"></polygon>
                    </g>
                    <g id="Detail" transform="translate(221.000000, 241.000000)">
                        <path d="M13,0 L107,0 C108.656854,-3.04359188e-16 110,1.34314575 110,3 L110,118 C110,119.656854 108.656854,121 107,121 L13,121 C11.3431458,121 10,119.656854 10,118 L10,3 C10,1.34314575 11.3431458,3.04359188e-16 13,0 Z" fill="#FFFFFF"></path>
                        <polygon fill="#F2F5F9" points="0 101 120 101 120 121 0 121"></polygon>
                    </g>
                    <g id="Detail" transform="translate(222.000000, 403.000000)">
                        <path d="M3,0 L117,0 C118.656854,-3.04359188e-16 120,1.34314575 120,3 L120,162 L0,162 L0,3 C-2.02906125e-16,1.34314575 1.34314575,3.04359188e-16 3,0 Z" fill="#FFFFFF"></path>
                        <path d="M13,10 L107,10 C108.656854,10 110,11.3431458 110,13 L110,162 L10,162 L10,13 C10,11.3431458 11.3431458,10 13,10 Z" fill="#F2F5F9"></path>
                    </g>
                    <path d="M3,0 L397,0 C398.656854,-3.04359188e-16 400,1.34314575 400,3 L400,27 C400,28.6568542 398.656854,30 397,30 L3,30 C1.34314575,30 2.02906125e-16,28.6568542 0,27 L0,3 C-2.02906125e-16,1.34314575 1.34314575,3.04359188e-16 3,0 Z" id="Detail" fill="#B6C5D9"></path>
                </g>
                <path d="M934,427 L1264,427 C1265.65685,427 1267,428.343146 1267,430 L1267,454 C1267,455.656854 1265.65685,457 1264,457 L934,457 C932.343146,457 931,455.656854 931,454 L931,430 C931,428.343146 932.343146,427 934,427 Z" id="Detail" fill="#B6C5D9"></path>
                <g id="House" transform="translate(401.000000, 30.000000)">
                    <polygon id="Detail" fill="#E2EAF5" points="0 0 540 0 540 629 0 629"></polygon>
                    <g id="Detail" transform="translate(50.000000, 50.000000)">
                        <path d="M13,0 L107,0 C108.656854,-3.04359188e-16 110,1.34314575 110,3 L110,118 C110,119.656854 108.656854,121 107,121 L13,121 C11.3431458,121 10,119.656854 10,118 L10,3 C10,1.34314575 11.3431458,3.04359188e-16 13,0 Z" fill="#FFFFFF"></path>
                        <polygon fill="#F2F5F9" points="0 101 120 101 120 121 0 121"></polygon>
                    </g>
                    <g id="Detail" transform="translate(50.000000, 211.000000)">
                        <path d="M13,0 L107,0 C108.656854,-3.04359188e-16 110,1.34314575 110,3 L110,118 C110,119.656854 108.656854,121 107,121 L13,121 C11.3431458,121 10,119.656854 10,118 L10,3 C10,1.34314575 11.3431458,3.04359188e-16 13,0 Z" fill="#FFFFFF"></path>
                        <polygon fill="#F2F5F9" points="0 101 120 101 120 121 0 121"></polygon>
                    </g>
                    <g id="Detail" transform="translate(50.000000, 467.000000)">
                        <path d="M23,0 L257,0 C258.656854,1.58830449e-14 260,1.34314575 260,3 L260,159 C260,160.656854 258.656854,162 257,162 L23,162 C21.3431458,162 20,160.656854 20,159 L20,3 C20,1.34314575 21.3431458,3.04359188e-16 23,0 Z" fill="#FFFFFF"></path>
                        <polygon fill="#F2F5F9" points="0 142 280 142 280 162 0 162"></polygon>
                    </g>
                    <g id="Detail" transform="translate(210.000000, 50.000000)">
                        <path d="M13,0 L107,0 C108.656854,-3.04359188e-16 110,1.34314575 110,3 L110,118 C110,119.656854 108.656854,121 107,121 L13,121 C11.3431458,121 10,119.656854 10,118 L10,3 C10,1.34314575 11.3431458,3.04359188e-16 13,0 Z" fill="#FFFFFF"></path>
                        <polygon fill="#F2F5F9" points="0 101 120 101 120 121 0 121"></polygon>
                    </g>
                    <g id="Detail" transform="translate(210.000000, 211.000000)">
                        <path d="M13,0 L107,0 C108.656854,-3.04359188e-16 110,1.34314575 110,3 L110,118 C110,119.656854 108.656854,121 107,121 L13,121 C11.3431458,121 10,119.656854 10,118 L10,3 C10,1.34314575 11.3431458,3.04359188e-16 13,0 Z" fill="#FFFFFF"></path>
                        <polygon fill="#F2F5F9" points="0 101 120 101 120 121 0 121"></polygon>
                    </g>
                    <g id="Detail" transform="translate(370.000000, 50.000000)">
                        <path d="M13,0 L107,0 C108.656854,-3.04359188e-16 110,1.34314575 110,3 L110,118 C110,119.656854 108.656854,121 107,121 L13,121 C11.3431458,121 10,119.656854 10,118 L10,3 C10,1.34314575 11.3431458,3.04359188e-16 13,0 Z" fill="#FFFFFF"></path>
                        <polygon fill="#F2F5F9" points="0 101 120 101 120 121 0 121"></polygon>
                    </g>
                    <g id="Detail" transform="translate(370.000000, 211.000000)">
                        <path d="M13,0 L107,0 C108.656854,-3.04359188e-16 110,1.34314575 110,3 L110,118 C110,119.656854 108.656854,121 107,121 L13,121 C11.3431458,121 10,119.656854 10,118 L10,3 C10,1.34314575 11.3431458,3.04359188e-16 13,0 Z" fill="#FFFFFF"></path>
                        <polygon fill="#F2F5F9" points="0 101 120 101 120 121 0 121"></polygon>
                    </g>
                    <g id="Detail" transform="translate(370.000000, 467.000000)">
                        <path d="M3,0 L117,0 C118.656854,-3.04359188e-16 120,1.34314575 120,3 L120,162 L0,162 L0,3 C-2.02906125e-16,1.34314575 1.34314575,3.04359188e-16 3,0 Z" fill="#FFFFFF"></path>
                        <path d="M13,10 L107,10 C108.656854,10 110,11.3431458 110,13 L110,162 L10,162 L10,13 C10,11.3431458 11.3431458,10 13,10 Z" fill="#F2F5F9"></path>
                    </g>
                    <path d="M0,372 L54,372 L54,470 C54,484.911688 41.9116882,497 27,497 C12.0883118,497 1.82615513e-15,484.911688 0,470 L0,372 Z" id="Detail" fill="#B6C5D9"></path>
                    <path d="M54,372 L108,372 L108,470 C108,484.911688 95.9116882,497 81,497 C66.0883118,497 54,484.911688 54,470 L54,372 Z" id="Detail" fill="#D6DFEA"></path>
                    <path d="M108,372 L162,372 L162,470 C162,484.911688 149.911688,497 135,497 C120.088312,497 108,484.911688 108,470 L108,372 Z" id="Detail" fill="#B6C5D9"></path>
                    <path d="M162,372 L216,372 L216,470 C216,484.911688 203.911688,497 189,497 C174.088312,497 162,484.911688 162,470 L162,372 Z" id="Detail" fill="#D6DFEA"></path>
                    <path d="M216,372 L270,372 L270,470 C270,484.911688 257.911688,497 243,497 C228.088312,497 216,484.911688 216,470 L216,372 Z" id="Detail" fill="#B6C5D9"></path>
                    <path d="M270,372 L324,372 L324,470 C324,484.911688 311.911688,497 297,497 C282.088312,497 270,484.911688 270,470 L270,372 Z" id="Detail" fill="#D6DFEA"></path>
                    <path d="M324,372 L378,372 L378,470 C378,484.911688 365.911688,497 351,497 C336.088312,497 324,484.911688 324,470 L324,372 Z" id="Detail" fill="#B6C5D9"></path>
                    <path d="M378,372 L432,372 L432,470 C432,484.911688 419.911688,497 405,497 C390.088312,497 378,484.911688 378,470 L378,372 Z" id="Detail" fill="#D6DFEA"></path>
                    <path d="M432,372 L486,372 L486,470 C486,484.911688 473.911688,497 459,497 C444.088312,497 432,484.911688 432,470 L432,372 Z" id="Detail" fill="#B6C5D9"></path>
                    <path d="M486,372 L540,372 L540,470 C540,484.911688 527.911688,497 513,497 C498.088312,497 486,484.911688 486,470 L486,372 Z" id="Detail" fill="#D6DFEA"></path>
                    <polygon id="Detail" fill="#B6C5D9" points="540 80 580 80 580 90 540 90"></polygon>
                    <path d="M614,30 C632.777681,30 648,45.2223185 648,64 L648,216 C648,234.777681 632.777681,250 614,250 C595.222319,250 580,234.777681 580,216 L580,64 C580,45.2223185 595.222319,30 614,30 Z" id="Detail" fill="#B6C5D9"></path>
                    <polygon id="Detail" fill="#B6C5D9" points="540 190 580 190 580 200 540 200"></polygon>
                </g>
                <path d="M394,0 L948,0 C949.656854,-3.04359188e-16 951,1.34314575 951,3 L951,27 C951,28.6568542 949.656854,30 948,30 L394,30 C392.343146,30 391,28.6568542 391,27 L391,3 C391,1.34314575 392.343146,3.04359188e-16 394,0 Z" id="Detail" fill="#B6C5D9"></path>
                <polygon id="Detail" fill="#D3E0F1" points="941 457 1257 457 1257 659 941 659"></polygon>
                <g id="Detail" transform="translate(1117.000000, 497.000000)">
                    <path d="M3,0 L117,0 C118.656854,-3.04359188e-16 120,1.34314575 120,3 L120,162 L0,162 L0,3 C-2.02906125e-16,1.34314575 1.34314575,3.04359188e-16 3,0 Z" fill="#FFFFFF"></path>
                    <path d="M13,10 L107,10 C108.656854,10 110,11.3431458 110,13 L110,162 L10,162 L10,13 C10,11.3431458 11.3431458,10 13,10 Z" fill="#F2F5F9"></path>
                </g>
                <g id="Detail" transform="translate(961.000000, 497.000000)">
                    <path d="M13,0 L107,0 C108.656854,-3.04359188e-16 110,1.34314575 110,3 L110,118 C110,119.656854 108.656854,121 107,121 L13,121 C11.3431458,121 10,119.656854 10,118 L10,3 C10,1.34314575 11.3431458,3.04359188e-16 13,0 Z" fill="#FFFFFF"></path>
                    <polygon fill="#F2F5F9" points="0 101 120 101 120 121 0 121"></polygon>
                </g>
            </g>
        </g>
    </g>
</svg>