<?xml version="1.0" encoding="UTF-8"?>
<svg width="1339px" height="775px" viewBox="0 0 1339 775" version="1.1" xmlns="http://www.w3.org/2000/svg" xmlns:xlink="http://www.w3.org/1999/xlink">
    <!-- Generator: Sketch 51 (57462) - http://www.bohemiancoding.com/sketch -->
    <title>Tables</title>
    <desc>Created with Sketch.</desc>
    <defs>
        <path d="M1329,377.48771 C1401.71965,571.585728 1006.44198,749.800977 829,764.988357 C652.060729,780.934997 323.377814,803.298955 99,554.716688 C-124.738695,305.217869 33.8376559,-143.966738 539,45.0582147 C1044.56773,234.606704 1256.72719,184.022075 1329,377.48771 Z" id="path-1"></path>
    </defs>
    <g id="Handsome" stroke="none" stroke-width="1" fill="none" fill-rule="evenodd">
        <g id="Backgrounds" transform="translate(-3318.000000, -2606.000000)">
            <g id="Tables" transform="translate(3319.000000, 2607.000000)">
                <mask id="mask-2" fill="white">
                    <use xlink:href="#path-1"></use>
                </mask>
                <use id="Detail" fill="#F2F5F9" xlink:href="#path-1"></use>
                <g id="Detail" mask="url(#mask-2)">
                    <g transform="translate(-183.000000, 492.000000)">
                        <path d="M137,0 L543,0 C548.522847,-3.04461744e-14 553,4.4771525 553,10 L553,291 C553,296.522847 548.522847,301 543,301 L137,301 C131.477153,301 127,296.522847 127,291 L127,10 C127,4.4771525 131.477153,1.01453063e-15 137,0 Z" fill="#D3E0F1"></path>
                        <path d="M10,45 L498,45 C503.522847,45 508,49.4771525 508,55 L508,185 C508,190.522847 503.522847,195 498,195 L10,195 C4.4771525,195 6.76353751e-16,190.522847 0,185 L0,55 C-6.76353751e-16,49.4771525 4.4771525,45 10,45 Z" fill="#E2EAF5"></path>
                    </g>
                </g>
                <g id="Detail" mask="url(#mask-2)">
                    <g transform="translate(968.000000, 492.000000)">
                        <path d="M10,0 L416,0 C421.522847,-3.04461744e-14 426,4.4771525 426,10 L426,291 C426,296.522847 421.522847,301 416,301 L10,301 C4.4771525,301 6.76353751e-16,296.522847 0,291 L0,10 C-6.76353751e-16,4.4771525 4.4771525,1.01453063e-15 10,0 Z" fill="#D3E0F1"></path>
                        <path d="M55,45 L543,45 C548.522847,45 553,49.4771525 553,55 L553,185 C553,190.522847 548.522847,195 543,195 L55,195 C49.4771525,195 45,190.522847 45,185 L45,55 C45,49.4771525 49.4771525,45 55,45 Z" fill="#E2EAF5"></path>
                    </g>
                </g>
                <g id="Detail" mask="url(#mask-2)">
                    <g transform="translate(370.000000, 406.000000)">
                        <path d="M10,0 L588,0 C593.522847,-1.01453063e-15 598,4.4771525 598,10 L598,530 C598,535.522847 593.522847,540 588,540 L10,540 C4.4771525,540 6.76353751e-16,535.522847 0,530 L0,10 C-6.76353751e-16,4.4771525 4.4771525,1.01453063e-15 10,0 Z" fill="#E2EAF5"></path>
                        <path d="M55,45 L543,45 C548.522847,45 553,49.4771525 553,55 L553,185 C553,190.522847 548.522847,195 543,195 L55,195 C49.4771525,195 45,190.522847 45,185 L45,55 C45,49.4771525 49.4771525,45 55,45 Z" fill="#D3E0F1"></path>
                        <circle fill="#E2EAF5" cx="299" cy="120" r="22"></circle>
                        <path d="M55,225 L543,225 C548.522847,225 553,229.477153 553,235 L553,365 C553,370.522847 548.522847,375 543,375 L55,375 C49.4771525,375 45,370.522847 45,365 L45,235 C45,229.477153 49.4771525,225 55,225 Z" fill="#D3E0F1"></path>
                        <circle fill="#E2EAF5" cx="299" cy="300" r="22"></circle>
                    </g>
                </g>
            </g>
        </g>
    </g>
</svg>