<?xml version="1.0" encoding="UTF-8"?>
<svg width="1376px" height="835px" viewBox="0 0 1376 835" version="1.1" xmlns="http://www.w3.org/2000/svg" xmlns:xlink="http://www.w3.org/1999/xlink">
    <!-- Generator: Sketch 51 (57462) - http://www.bohemiancoding.com/sketch -->
    <title>Tropic</title>
    <desc>Created with Sketch.</desc>
    <defs>
        <path d="M21,504 C-87.1189539,110.003044 246.25979,-32.2493758 452,6 C657.120834,44.2405288 649.541305,164.543986 1035,165 C1419.66476,164.543986 1462.62345,591.253031 1245,740 C1028.36107,889.281613 129.277181,897.899684 21,504 Z" id="path-1"></path>
    </defs>
    <g id="Handsome" stroke="none" stroke-width="1" fill="none" fill-rule="evenodd">
        <g id="Backgrounds" transform="translate(-1850.000000, -263.000000)">
            <g id="Tropic" transform="translate(1850.000000, 263.000000)">
                <mask id="mask-2" fill="white">
                    <use xlink:href="#path-1"></use>
                </mask>
                <use id="Bg" fill="#F2F5F9" xlink:href="#path-1"></use>
                <path d="M1488,769 C1324.9008,750.510453 1301.47599,710.311352 1298,664 C1294.27774,617.427654 1312.39408,608.480885 1302,579 C1292.27624,550.316453 1200.15156,567.769888 1189,522 C1179.03877,476.820873 1274.00768,470.789442 1242,441 C1208.35918,411.769154 1156.43123,451.232046 1086,416 C1016.06954,380.272908 1077.79591,255.342262 1178,301 C1278.52862,346.716948 1276.0857,416.358642 1308,390 C1341.20726,364.194512 1355.93584,314.689787 1395,344 C1434.26749,372.88284 1377.00349,479.794777 1410,510 C1443.06832,539.189352 1591.34941,520.047251 1488,769 Z" id="Flower" fill="#D3E0F1" mask="url(#mask-2)"></path>
                <path d="M876,-111 C907.563026,-100.129156 1166.6772,-74.3426129 1094,40 C1021.90993,153.904811 969.008976,8.56878454 929,-1 C889.980881,-11.1195885 1071.74569,106.9785 994,206 C915.590199,304.892098 942.498216,197.055073 877,138 C811.094804,78.138186 992.482381,266.175788 881,334 C769.601559,401.57106 862.680569,254.992692 809,242 C756.286376,228.486567 859.639588,364.36593 743,423 C627.07201,481.224895 716.601029,344.364628 677,334 C637.189159,324.580645 688.36674,484.805317 602,479 C515.061438,472.869206 478.611985,377.858002 553,304 C627.333457,229.341384 497.523831,306.752642 476,251 C454.444129,194.626689 503.901342,191.20648 602,159 C699.162122,126.093604 473.361304,183.598 517,87 C560.230301,-9.33496593 655.977949,73.7568109 693,18 C730.532704,-37.2879717 569.551303,52.2252272 555,-16 C540.545895,-84.6196347 666.966816,-177.97364 725,-109 C783.134863,-40.4059874 790.266069,-107.811046 722,-149 C653.803365,-190.372112 701.439065,-274.24338 772,-257 C843.125783,-238.944783 845.349539,-121.111508 876,-111 Z" id="Flowers" fill="#E2EAF5" mask="url(#mask-2)"></path>
                <path d="M-166.049627,495.499715 C-162.913605,456.952559 -207.259159,153.430622 -56.0847761,203.616235 C95.0896064,253.801848 -56.0847761,355.718457 -56.0847761,403.690633 C-56.0847761,451.662809 27.2082128,210.2233 162.655849,271.242985 C298.103484,332.26267 167.080183,332.26267 117.789334,424.317659 C68.4984851,516.372648 231.902938,255.417081 341.100904,363.485615 C450.29887,471.554148 256.10173,406.970016 256.10173,471.554148 C256.10173,536.138281 382.080638,379.25186 482.057018,495.499715 C582.033398,611.747569 399.964498,548.449407 399.964498,596.654544 C399.964498,644.859682 568.661166,540.666547 586.528726,641.412636 C604.396287,742.158725 506.100198,810.918286 399.964498,747.102961 C293.828798,683.287636 419.37309,809.581785 361.380997,850.191374 C303.388904,890.800963 285.382111,835.246848 220.317842,732.940655 C155.253573,630.634462 285.382111,872.324094 162.655849,850.191374 C39.9295865,828.058654 107.692108,694.920773 33.5565488,668.148105 C-40.5790104,641.375438 107.692108,799.847363 33.5565488,835.938495 C-40.5790104,872.029628 -183.394526,754.155748 -121.265451,668.148105 C-59.1363756,582.140463 -138.273432,593.21388 -166.049627,682.975789 C-193.825821,772.737698 -303.341656,742.210764 -303.341656,656.203121 C-303.341656,570.195479 -169.185648,534.04687 -166.049627,495.499715 Z" id="Flowers" fill="#E2EAF5" mask="url(#mask-2)" transform="translate(142.650205, 530.796210) rotate(-93.000000) translate(-142.650205, -530.796210) "></path>
                <path d="M1372.6618,980.459472 C1221.65749,1054.26374 1173.5658,1025.71823 1138.05446,979.414636 C1102.15119,932.979461 1111.18755,913.311725 1081.65938,888.504968 C1053.25913,864.14701 987.58578,934.921851 945.960822,893.563365 C905.758496,852.141511 981.871364,791.652794 933.838575,778.859464 C884.816814,767.580617 868.633562,838.363251 784.262276,841.823884 C699.966538,844.482551 664.331881,678.993306 781.226732,669.411472 C898.437812,659.706163 945.349038,733.713567 953.814498,688.016355 C963.762979,642.157992 941.408945,582.135196 995.075299,590.401629 C1048.61312,598.106414 1075.35111,742.261389 1124.51297,754.923907 C1173.02115,766.486223 1285.02171,661.901505 1372.6618,980.459472 Z" id="Flowers" fill="#E2EAF5" mask="url(#mask-2)" transform="translate(1039.637067, 807.637067) rotate(135.000000) translate(-1039.637067, -807.637067) "></path>
                <path d="M1278,775 C1279.07515,774.93957 1279.46574,775.51245 1280,776 C1310.39156,820.967666 1298.87831,881.730964 1255,912 C1253.7148,912.523355 1253.11181,912.924718 1253,913 C1207.27005,942.707711 1146.7938,929.856798 1117,885 C1117.03661,884.014727 1116.65293,883.409153 1116,883 C1101.68956,859.260961 1088.28351,837.015719 1076,815 L1107,779 L1061,789 C1037.36366,748.659295 1017.95842,711.885176 1002,680 L1021,647 L988,649 C949.508551,558.361072 944.711464,504.03016 974,485 C1008.50685,462.582856 1068.38972,502.698312 1153,606 L1127,640 L1172,627 C1200.48707,663.849499 1232.25154,707.040143 1266,757 L1246,783 L1278,775 Z" id="Flowers" fill="#D3E0F1" mask="url(#mask-2)"></path>
                <path d="M1513.04946,422.827698 C1362.04515,496.631961 1313.95347,468.086455 1278.44212,421.782862 C1242.53885,375.347686 1251.57522,355.679951 1222.04704,330.873194 C1193.64679,306.515236 1127.97344,377.290077 1086.34849,335.931591 C1046.14616,294.509737 1122.25903,234.02102 1074.22624,221.227689 C1025.20448,209.948843 1009.02123,280.731477 924.649941,284.192109 C840.354203,286.850777 804.719545,121.361531 921.614397,111.779698 C1038.82548,102.074389 1085.7367,176.081792 1094.20216,130.384581 C1104.15064,84.5262181 1081.79661,24.5034218 1135.46296,32.7698546 C1189.00079,40.4746397 1215.73877,184.629615 1264.90064,197.292133 C1313.40881,208.854449 1425.40938,104.26973 1513.04946,422.827698 Z" id="Flowers" fill="#B6C5D9" mask="url(#mask-2)"></path>
                <path d="M957.661799,943.459472 C806.657486,1017.26374 758.565804,988.71823 723.054458,942.414636 C687.151188,895.979461 696.187551,876.311725 666.659378,851.504968 C638.25913,827.14701 572.58578,897.921851 530.960822,856.563365 C490.758496,815.141511 566.871364,754.652794 518.838575,741.859464 C469.816814,730.580617 453.633562,801.363251 369.262276,804.823884 C284.966538,807.482551 249.331881,641.993306 366.226732,632.411472 C483.437812,622.706163 530.349038,696.713567 538.814498,651.016355 C548.762979,605.157992 526.408945,545.135196 580.075299,553.401629 C633.613121,561.106414 660.351108,705.261389 709.512971,717.923907 C758.021146,729.486223 870.02171,624.901505 957.661799,943.459472 Z" id="Flowers" fill="#B6C5D9" mask="url(#mask-2)" transform="translate(624.637067, 770.637067) rotate(135.000000) translate(-624.637067, -770.637067) "></path>
                <path d="M310.495124,790.33335 C310.445211,790.893674 310.459485,791.523926 310.495124,792.154977 C311.542147,841.498962 272.684387,882.123449 223.967836,883.236333 C223.001594,883.229008 222.343098,883.236333 222.146209,883.236333 C172.642744,883.236333 132.88648,843.482099 132.88648,794.887418 C132.88648,793.790987 132.893657,793.139229 132.88648,792.154977 C133.436454,767.316063 134.224858,743.715164 135.618921,721.111519 L177.516344,708.36013 L136.529734,693.787113 C139.131567,651.127297 142.537005,613.477567 146.548683,580.846231 L177.516344,565.3624 L151.102751,549.87857 C166.334065,462.520873 189.569955,418.721417 221.235395,418.721417 C258.735122,418.721417 284.542836,478.968905 298.654548,599.062502 L261.311192,612.724706 L301.386989,625.476095 C305.506139,667.267888 308.349307,715.931775 309.584311,771.206265 L281.34909,781.225214 L310.495124,790.33335 Z" id="Flowers" fill="#D3E0F1" mask="url(#mask-2)" transform="translate(221.701138, 650.978875) rotate(52.000000) translate(-221.701138, -650.978875) "></path>
                <path d="M-2.29372219,286.279807 C-0.614535192,265.639683 -24.3594192,103.11847 56.5870986,129.990422 C137.533616,156.862373 56.5870986,211.433752 56.5870986,237.120516 C56.5870986,262.807279 101.186437,133.528183 173.712048,166.201252 C246.237659,198.874321 176.081063,198.874321 149.688215,248.165283 C123.295366,297.456246 210.790491,157.727251 269.260682,215.592687 C327.730874,273.458122 223.747766,238.876465 223.747766,273.458122 C223.747766,308.039779 291.203334,224.034743 344.735815,286.279807 C398.268297,348.52487 300.77927,314.631787 300.77927,340.44329 C300.77927,366.254793 391.108118,310.464445 400.675326,364.409068 C410.242534,418.353691 357.609767,455.171087 300.77927,421.001089 C243.948773,386.831091 311.171625,454.455456 280.119684,476.199913 C249.067743,497.944369 239.425983,468.197847 204.587236,413.417864 C169.74849,358.637881 239.425983,488.050906 173.712048,476.199913 C107.998113,464.348919 144.281642,393.060069 104.585661,378.72461 C64.8896808,364.38915 144.281642,449.243147 104.585661,468.56819 C64.8896808,487.893234 -11.5810709,424.777513 21.6860224,378.72461 C54.9531157,332.671707 12.5790769,338.600982 -2.29372219,386.664112 C-17.1665213,434.727242 -75.8069159,418.381556 -75.8069159,372.328653 C-75.8069159,326.27575 -3.97290919,306.919931 -2.29372219,286.279807 Z" id="Flowers" fill="#B6C5D9" mask="url(#mask-2)"></path>
                <circle id="Detail" fill="#D3E0F1" mask="url(#mask-2)" cx="459.5" cy="362.5" r="21.5"></circle>
                <circle id="Detail" fill="#B6C5D9" mask="url(#mask-2)" cx="416.5" cy="650.5" r="21.5"></circle>
                <circle id="Detail" fill="#D3E0F1" mask="url(#mask-2)" cx="954.5" cy="283.5" r="21.5"></circle>
                <circle id="Detail" fill="#E2EAF5" mask="url(#mask-2)" cx="1257.5" cy="380.5" r="21.5"></circle>
                <circle id="Detail" fill="#B6C5D9" mask="url(#mask-2)" cx="624.5" cy="439.5" r="21.5"></circle>
                <circle id="Detail" fill="#B6C5D9" mask="url(#mask-2)" cx="890.5" cy="769.5" r="21.5"></circle>
                <circle id="Detail" fill="#B6C5D9" mask="url(#mask-2)" cx="1094.5" cy="530.5" r="21.5"></circle>
            </g>
        </g>
    </g>
</svg>