<?xml version="1.0" encoding="UTF-8"?>
<svg width="560px" height="621px" viewBox="0 0 560 621" version="1.1" xmlns="http://www.w3.org/2000/svg" xmlns:xlink="http://www.w3.org/1999/xlink">
    <!-- Generator: Sketch 51 (57462) - http://www.bohemiancoding.com/sketch -->
    <title>Bubble</title>
    <desc>Created with Sketch.</desc>
    <defs></defs>
    <g id="Handsome" stroke="none" stroke-width="1" fill="none" fill-rule="evenodd">
        <g id="Secondary" transform="translate(-2176.000000, -2817.000000)">
            <g id="Bubble" transform="translate(2176.000000, 2817.000000)">
                <g transform="translate(344.000000, 367.000000)">
                    <path d="M79,221 L39,252 C38.3267537,252.77352 37.6731572,253 37,253 C35.3431458,253 34,251.65637 34,250 L34,216 L27,216 C11.8031672,214.258707 0,201.307502 0,186 L0,64 C0,48.9599613 11.8031672,36.0087566 27,35 L183,20 C199.732025,18.601669 214.34463,30.7419323 216,47 C215.957361,48.1657014 216,49.0889987 216,50 L216,200 C216,216.829184 202.568542,230.26548 186,230 C185.076543,230.26548 184.153578,230.222826 183,230 L79,221 Z" id="Bubble-Copy-2" fill="#B6C5D9"></path>
                    <path d="M79,201 L39,232 C38.3267537,232.77352 37.6731572,233 37,233 C35.3431458,233 34,231.65637 34,230 L34,196 L27,196 C11.8031672,194.258707 0,181.307502 0,166 L0,44 C0,28.9599613 11.8031672,16.0087566 27,15 L183,0 C199.732025,-1.39833095 214.34463,10.7419323 216,27 C215.957361,28.1657014 216,29.0889987 216,30 L216,180 C216,196.829184 202.568542,210.26548 186,210 C185.076543,210.26548 184.153578,210.222826 183,210 L79,201 Z" fill="#D6DFEA"></path>
                    <path d="M69,72 L88,72 L85,118 L72,118 L69,72 Z M72,140 C69.907109,138.583325 69,136.433346 69,134 C69,131.366654 69.8906161,129.250009 72,128 C73.4531339,125.849991 75.7291528,125 79,125 C81.2708472,125 83.5468661,125.849991 85,128 C87.1093839,129.250009 88,131.366654 88,134 C88,136.433346 87.092891,138.583325 85,140 C83.4644007,142.116676 81.2048746,143 79,143 C75.7951254,143 73.5355993,142.116676 72,140 Z M117,109 C118.860343,107.110152 121.156409,104.604847 124,102 C126.385486,99.8613972 128.011168,98.1744916 129,97 C130.089391,95.4353165 130.608939,93.8820272 131,92 C130.608939,89.6730509 129.620122,87.7189127 128,86 C125.664795,84.8461193 123.033536,84.1279318 120,84 C116.59775,84.1279318 113.798895,84.7793112 111,86 C108.905016,87.3848679 106.843584,89.2053899 105,92 L93,84 C95.8156565,80.152786 99.6200878,76.8457828 104,75 C109.206728,72.1691425 114.888235,71 121,71 C129.167636,71 135.351932,72.6367996 140,76 C144.670414,79.184096 147,83.7270498 147,90 C147,92.2786207 146.547491,94.6837139 146,97 C144.737426,98.825881 143.631291,100.579595 142,102 C141.016753,103.452388 139.324033,105.10589 137,107 C134.765351,109.181248 132.955313,111.035174 132,113 C130.675972,114.041585 130.106145,115.862107 130,118 L115,118 C114.921788,114.525924 115.709489,111.653174 117,109 Z M116,140 C113.907109,138.583325 113,136.433346 113,134 C113,131.366654 113.890616,129.250009 116,128 C117.453134,125.849991 119.729153,125 122,125 C125.270847,125 127.546866,125.849991 129,128 C131.109384,129.250009 132,131.366654 132,134 C132,136.433346 131.092891,138.583325 129,140 C127.464401,142.116676 125.204875,143 122,143 C119.795125,143 117.535599,142.116676 116,140 Z" id="!?" fill="#B6C5D9"></path>
                </g>
                <g transform="translate(0.000000, 367.000000)">
                    <path d="M181,208 L181,251 C181,252.655822 179.656854,254 178,254 C177.326843,254 176.673246,253.773427 176,253 L146,229 C133.979743,233.771187 121.269334,236.166068 108,236 C48.353247,236.166068 0,187.775646 0,128 C0,68.3904227 48.353247,20 108,20 C167.646753,20 216,68.3904227 216,128 C216,159.607955 202.51371,187.980561 181,208 Z" id="Bubble-Copy-3" fill="#B6C5D9"></path>
                    <path d="M181,188 L181,231 C181,232.655822 179.656854,234 178,234 C177.326843,234 176.673246,233.773427 176,233 L146,209 C133.979743,213.771187 121.269334,216.166068 108,216 C48.353247,216.166068 0,167.775646 0,108 C0,48.3904227 48.353247,0 108,0 C167.646753,0 216,48.3904227 216,108 C216,139.607955 202.51371,167.980561 181,188 Z" fill="#D6DFEA"></path>
                    <circle id="Dot" fill="#B6C5D9" cx="108" cy="107" r="14"></circle>
                    <circle id="Dot" fill="#B6C5D9" cx="162" cy="107" r="14"></circle>
                    <circle id="Dot" fill="#B6C5D9" cx="54" cy="107" r="14"></circle>
                </g>
                <g>
                    <path d="M403,278.205877 L403,312.011988 C403,312.675925 402.77845,313.320992 402.370255,313.845558 C401.354609,315.150755 399.470065,315.387909 398.161009,314.375256 L354.907083,280.915106 L31.6922946,299.122839 C15.1501343,300.054712 0.982397569,287.439606 0.0477690502,270.946211 C0.0159293578,270.384336 2.84217094e-14,269.821676 2.84217094e-14,269.258905 L0,49.9148465 C0,33.3951469 13.4314575,20.0032844 30,20.0032844 C30.5644353,20.0032844 31.1287581,20.0191668 31.6922946,20.0509126 L501.692295,46.52753 C517.578067,47.4224268 530,60.5272606 530,76.3914638 L530,242.782288 C530,258.646491 517.578067,271.751325 501.692295,272.646221 L403,278.205877 Z" id="Bubble-Copy" fill="#B6C5D9"></path>
                    <path d="M403,258.205877 L403,292.011988 C403,292.675925 402.77845,293.320992 402.370255,293.845558 C401.354609,295.150755 399.470065,295.387909 398.161009,294.375256 L354.907083,260.915106 L31.6922946,279.122839 C15.1501343,280.054712 0.982397569,267.439606 0.0477690502,250.946211 C0.0159293578,250.384336 2.84217094e-14,249.821676 2.84217094e-14,249.258905 L0,29.9148465 C0,13.3951469 13.4314575,0.00328438545 30,0.00328438545 C30.5644353,0.00328438545 31.1287581,0.0191667846 31.6922946,0.0509126158 L501.692295,26.52753 C517.578067,27.4224268 530,40.5272606 530,56.3914638 L530,222.782288 C530,238.646491 517.578067,251.751325 501.692295,252.646221 L403,258.205877 Z" fill="#D6DFEA"></path>
                    <path d="M62.5,82 L287.5,82 C294.403559,82 300,87.5964406 300,94.5 C300,101.403559 294.403559,107 287.5,107 L62.5,107 C55.5964406,107 50,101.403559 50,94.5 C50,87.5964406 55.5964406,82 62.5,82 Z" id="Text" fill="#B6C5D9"></path>
                    <path d="M62.5,127 L467.5,127 C474.403559,127 480,132.596441 480,139.5 C480,146.403559 474.403559,152 467.5,152 L62.5,152 C55.5964406,152 50,146.403559 50,139.5 C50,132.596441 55.5964406,127 62.5,127 Z" id="Text" fill="#B6C5D9"></path>
                    <path d="M62.5,172 L387.5,172 C394.403559,172 400,177.596441 400,184.5 C400,191.403559 394.403559,197 387.5,197 L62.5,197 C55.5964406,197 50,191.403559 50,184.5 C50,177.596441 55.5964406,172 62.5,172 Z" id="Text" fill="#B6C5D9"></path>
                </g>
            </g>
        </g>
    </g>
</svg>