<?xml version="1.0" encoding="UTF-8"?>
<svg width="656px" height="512px" viewBox="0 0 656 512" version="1.1" xmlns="http://www.w3.org/2000/svg" xmlns:xlink="http://www.w3.org/1999/xlink">
    <!-- Generator: Sketch 51 (57462) - http://www.bohemiancoding.com/sketch -->
    <title>Calendar</title>
    <desc>Created with Sketch.</desc>
    <defs>
        <linearGradient x1="50%" y1="0%" x2="50%" y2="100%" id="linearGradient-1">
            <stop stop-color="#E478A3" stop-opacity="0" offset="0%"></stop>
            <stop stop-color="#AF3B6E" stop-opacity="0.3" offset="100%"></stop>
        </linearGradient>
        <path d="M31.3875598,0 L624.61244,0 C641.947311,0 656,13.9774517 656,31.2195122 L656,480.780488 C656,498.022548 641.947311,512 624.61244,512 L31.3875598,512 C14.0526892,512 0,498.022548 0,480.780488 L0,31.2195122 C0,13.9774517 14.0526892,0 31.3875598,0 Z M134.5,103 C153.553824,103 169,87.5538239 169,68.5 C169,49.4461761 153.553824,34 134.5,34 C115.446176,34 100,49.4461761 100,68.5 C100,87.5538239 115.446176,103 134.5,103 Z M521.5,103 C540.553824,103 556,87.5538239 556,68.5 C556,49.4461761 540.553824,34 521.5,34 C502.446176,34 487,49.4461761 487,68.5 C487,87.5538239 502.446176,103 521.5,103 Z" id="path-2"></path>
        <linearGradient x1="100%" y1="100%" x2="0%" y2="0%" id="linearGradient-3">
            <stop stop-color="#000000" stop-opacity="0.1" offset="0%"></stop>
            <stop stop-color="#E478A3" stop-opacity="0" offset="100%"></stop>
        </linearGradient>
        <linearGradient x1="50%" y1="0%" x2="50%" y2="100%" id="linearGradient-4">
            <stop stop-color="#FFFFFF" stop-opacity="0" offset="0%"></stop>
            <stop stop-color="#000000" stop-opacity="0.05" offset="100%"></stop>
        </linearGradient>
        <path d="M70,137 L586,137 C602.568542,137 616,150.431458 616,167 L616,442 C616,458.568542 602.568542,472 586,472 L70,472 C53.4314575,472 40,458.568542 40,442 L40,167 C40,150.431458 53.4314575,137 70,137 Z" id="path-5"></path>
    </defs>
    <g id="Handsome" stroke="none" stroke-width="1" fill="none" fill-rule="evenodd">
        <g id="Secondary" transform="translate(-1258.000000, -1714.000000)">
            <g id="Calendar" transform="translate(1258.000000, 1714.000000)">
                <g>
                    <use fill="#E478A3" xlink:href="#path-2"></use>
                    <use fill="url(#linearGradient-1)" xlink:href="#path-2"></use>
                </g>
                <path d="M615,158 C627.028635,161.736816 636,173.189946 636,187 L636,462 C636,478.557058 622.561874,492 606,492 L90,492 C76.1845036,492 64.7354776,483.02542 61,471 C63.7592653,471.533058 66.6866055,471.982898 70,472 L586,472 C602.551943,471.982898 615.99007,458.539956 616,442 L616,167 C615.99007,163.688644 615.54039,160.760254 615,158 Z" id="Sh" fill="url(#linearGradient-3)"></path>
                <g>
                    <use fill="#FFFFFF" xlink:href="#path-5"></use>
                    <use fill="url(#linearGradient-4)" xlink:href="#path-5"></use>
                </g>
                <path d="M318,370 L318,409 L160,409 L160,378 L240,301 C249.023216,293.126364 254.812819,286.096237 258,280 C260.802154,274.329325 262.299465,268.495815 262,263 C262.299465,254.335632 259.454574,247.903815 254,243 C248.074838,238.929051 239.739805,236.685393 229,237 C219.575712,236.685393 211.29059,238.43046 204,242 C196.516897,245.410832 190.328011,250.646033 185,258 L150,235 C158.185424,222.724658 169.465169,213.201579 184,206 C198.213976,199.440275 214.684399,196 233,196 C248.823607,196 262.449139,198.542812 274,204 C285.807545,208.714211 294.891233,215.893914 301,225 C307.868125,234.44176 311.112299,245.360892 311,258 C311.112299,269.293596 308.716601,279.963433 304,290 C299.133666,299.907353 289.850336,311.275217 276,324 L228,370 L318,370 Z M481,223 C497.719229,240.708883 506,266.434915 506,300 C506,323.782347 501.56031,344.163359 493,361 C483.801282,378.132221 471.280358,391.020214 455,400 C438.954936,408.604096 420.29826,413 399,413 C387.972839,413 377.297629,411.751164 367,409 C356.944586,406.755743 348.264742,403.209047 341,399 L359,363 C369.216314,369.939722 382.285964,373.436464 398,373 C416.008163,373.436464 430.075496,368.191351 440,358 C450.827618,347.210583 456.414644,332.074685 457,312 C444.641806,324.881278 427.282118,331.175414 405,331 C391.764062,331.175414 379.592327,328.477928 369,323 C357.642967,317.687818 348.963123,310.044939 343,300 C336.192586,290.263072 333,278.82373 333,266 C333,251.848457 336.491891,239.559906 343,229 C350.459666,218.379321 359.987541,210.236907 372,205 C384.131837,198.847347 397.550676,196 412,196 C441.648936,196 464.59565,204.941669 481,223 Z M442,286 C448.636017,280.179396 452,272.593348 452,263 C452,254.105217 448.736434,246.569407 442,241 C435.681976,234.913846 426.694618,232 415,232 C404.803295,232 396.318024,234.813369 390,240 C383.263566,246.067014 380,253.703301 380,263 C380,272.995264 383.263566,280.68179 390,286 C396.318024,292.136392 405.00413,295 416,295 C426.493777,295 435.179883,292.035915 442,286 Z" id="Date" fill="#AF3B6E"></path>
            </g>
        </g>
    </g>
</svg>