<?xml version="1.0" encoding="UTF-8"?>
<svg width="488px" height="818px" viewBox="0 0 488 818" version="1.1" xmlns="http://www.w3.org/2000/svg" xmlns:xlink="http://www.w3.org/1999/xlink">
    <!-- Generator: Sketch 51 (57462) - http://www.bohemiancoding.com/sketch -->
    <title>Flowers</title>
    <desc>Created with Sketch.</desc>
    <defs>
        <linearGradient x1="50%" y1="0%" x2="50%" y2="100%" id="linearGradient-1">
            <stop stop-color="#403F9F" stop-opacity="0" offset="0%"></stop>
            <stop stop-color="#000000" stop-opacity="0.4" offset="100%"></stop>
        </linearGradient>
        <path d="M279,632 C247.885608,549.879005 124.569051,574.876472 110,516 C96.0245754,456.487349 162.207094,452.356769 162,406 C162.207094,359.640078 26.6697878,369.373508 13,322 C-0.418996439,274.671259 48.9988403,263.811638 102,247 C155.726941,230.899864 -14.8889798,146.068216 1,61 C17.0024176,-23.8105544 148.246033,-23.275263 171,82 C194.603723,187.129736 215.784456,219.660393 248,177 C279.98676,134.748622 369.186654,150.056365 331,271 C293.055188,392.550543 403.333346,354.507675 420,433 C435.68382,512.379891 315.749131,536.352997 279,632 Z" id="path-2"></path>
        <linearGradient x1="0%" y1="0%" x2="100%" y2="100%" id="linearGradient-4">
            <stop stop-color="#000000" offset="0%"></stop>
            <stop stop-color="#403F9F" stop-opacity="0" offset="100%"></stop>
        </linearGradient>
        <path d="M404.433565,401.560084 C411.555495,409.550301 417.148162,419.569147 420,433 C421.191996,439.033003 421.600626,444.745963 421.321945,450.194668 C401.52196,471.863936 366.662538,494.186045 308,516 C300.078028,504.303336 293.079337,493.398457 286.925705,483.214522 C356.684911,455.931473 390.195355,427.96188 404.433565,401.560084 Z" id="path-5"></path>
        <linearGradient x1="50%" y1="0%" x2="45.3482855%" y2="100%" id="linearGradient-7">
            <stop stop-color="#A7A7EE" stop-opacity="0" offset="0%"></stop>
            <stop stop-color="#464D89" stop-opacity="0.5" offset="100%"></stop>
        </linearGradient>
        <path d="M60,526 C-18.1728383,410.62497 -6.48285951,372.289782 20,343 C46.2961149,313.858464 61.7085669,320.313489 74,297 C86.1873348,273.695429 24.9401801,224.62567 47,191 C68.8968257,158.376474 124.729441,215.890081 125,178 C124.729441,139.527539 72.1118957,129.029977 55,63 C38.377891,-2.24410599 148.577997,-34.9632459 176,56 C202.99312,146.91956 159.115827,185.693423 193,191 C226.735848,197.308721 265.060075,178.092381 269,220 C272.529823,262.123303 175.785559,287.270877 176,326 C175.785559,364.117684 268.900373,448.283828 60,526 Z" id="path-8"></path>
        <linearGradient x1="50%" y1="0%" x2="50%" y2="100%" id="linearGradient-9">
            <stop stop-color="#E6E6EF" stop-opacity="0" offset="0%"></stop>
            <stop stop-color="#000000" stop-opacity="0.1" offset="100%"></stop>
        </linearGradient>
        <path d="M3,0 L77,0 C78.6568542,0 80,1.34314575 80,3 L80,167 C80,168.656854 78.6568542,170 77,170 L3,170 C1.34314575,170 0,168.656854 0,167 L0,3 C0,1.34314575 1.34314575,0 3,0 Z" id="path-10"></path>
    </defs>
    <g id="Handsome" stroke="none" stroke-width="1" fill="none" fill-rule="evenodd">
        <g id="Secondary" transform="translate(-472.000000, -403.000000)">
            <g id="Flowers" transform="translate(473.000000, 403.000000)">
                <g id="Flower" transform="translate(0.000000, 39.000000)">
                    <g>
                        <mask id="mask-3" fill="white">
                            <use xlink:href="#path-2"></use>
                        </mask>
                        <g>
                            <use fill="#403F9F" xlink:href="#path-2"></use>
                            <use fill="url(#linearGradient-1)" xlink:href="#path-2"></use>
                        </g>
                        <mask id="mask-6" fill="white">
                            <use xlink:href="#path-5"></use>
                        </mask>
                        <use id="Sh" fill="url(#linearGradient-4)" xlink:href="#path-5"></use>
                    </g>
                    <path d="M95.6098703,108.556811 C94.1977828,107.236778 94.1231573,105.021958 95.4431895,103.60987 C96.7632217,102.197783 98.9780422,102.123157 100.39013,103.443189 C156.765149,156.14307 203.557063,254.054224 237.990958,377.740966 C265.420477,476.267949 282.5,585.349658 282.5,648 C282.5,649.932997 280.932997,651.5 279,651.5 C277.067003,651.5 275.5,649.932997 275.5,648 C275.5,586.036002 258.517038,477.571004 231.247409,379.618343 C197.129119,257.065254 150.822938,160.170488 95.6098703,108.556811 Z" id="Stem" fill="#403F9F" fill-rule="nonzero"></path>
                </g>
                <g id="Flower" transform="translate(217.000000, 0.000000)">
                    <g>
                        <use fill="#A7A7EE" xlink:href="#path-8"></use>
                        <use fill="url(#linearGradient-7)" xlink:href="#path-8"></use>
                    </g>
                    <path d="M63.4999652,656.984396 C63.5085832,658.917373 61.9485816,660.491347 60.0156042,660.499965 C58.0826268,660.508583 56.5086527,658.948582 56.5000348,657.015604 C56.456975,647.35745 56.2225773,641.831511 55.0366441,618.672188 C52.6004758,571.097834 52.8316403,542.872815 57.8873721,505.9416 C64.7064285,456.129615 80.1188029,404.716219 106.840825,348.493477 C139.279196,280.470267 151.354685,219.359205 146.342115,165.980139 C142.378919,123.775904 127.788052,88.4380052 107.283829,63.2073543 C106.06474,61.7072542 106.292546,59.5029167 107.792646,58.2838286 C109.292746,57.0647405 111.497083,57.2925457 112.716171,58.7926457 C134.087764,85.0906036 149.218059,121.734952 153.311454,165.325682 C158.446917,220.013445 146.123102,282.381223 113.161118,351.502443 C86.7483937,407.074433 71.5437483,457.794877 64.8226881,506.891017 C59.8400506,543.288291 59.6119246,571.142301 62.0274843,618.314204 C63.2201431,641.604865 63.4562095,647.170144 63.4999652,656.984396 Z" id="Stem" fill="#A7A7EE" fill-rule="nonzero"></path>
                </g>
                <g id="Vase" transform="translate(238.000000, 648.000000)">
                    <g>
                        <use fill="#E6E6EF" xlink:href="#path-10"></use>
                        <use fill="url(#linearGradient-9)" xlink:href="#path-10"></use>
                    </g>
                    <path d="M18,40 L62,40 C63.6568542,40 65,41.3431458 65,43 L65,87 C65,88.6568542 63.6568542,90 62,90 L18,90 C16.3431458,90 15,88.6568542 15,87 L15,43 C15,41.3431458 16.3431458,40 18,40 Z" id="Plate" fill="#F7F7F8"></path>
                </g>
            </g>
        </g>
    </g>
</svg>