<?xml version="1.0" encoding="UTF-8"?>
<svg width="764px" height="576px" viewBox="0 0 764 576" version="1.1" xmlns="http://www.w3.org/2000/svg" xmlns:xlink="http://www.w3.org/1999/xlink">
    <!-- Generator: Sketch 51 (57462) - http://www.bohemiancoding.com/sketch -->
    <title>Folder</title>
    <desc>Created with Sketch.</desc>
    <defs>
        <linearGradient x1="50%" y1="0%" x2="50%" y2="100%" id="linearGradient-1">
            <stop stop-color="#AF3B6E" stop-opacity="0" offset="0%"></stop>
            <stop stop-color="#000000" stop-opacity="0.2" offset="100%"></stop>
        </linearGradient>
        <path d="M67,59 L108.5,59 C124.7924,59 138,45.7924001 138,29.5 L138,29.5 C138,13.2075999 151.2076,2.43091474e-14 167.5,2.13162821e-14 L317.5,-7.10542736e-15 C333.7924,-1.00982927e-14 347,13.2075999 347,29.5 L347,29.5 C347,45.7924001 360.2076,59 376.5,59 L696,59 C712.568542,59 726,72.4314575 726,89 L726,546 C726,562.568542 712.568542,576 696,576 L67,576 C50.4314575,576 37,562.568542 37,546 L37,89 C37,72.4314575 50.4314575,59 67,59 Z" id="path-2"></path>
        <linearGradient x1="50%" y1="0%" x2="50%" y2="100%" id="linearGradient-3">
            <stop stop-color="#FFFFFF" stop-opacity="0" offset="0%"></stop>
            <stop stop-color="#000000" stop-opacity="0.05" offset="100%"></stop>
        </linearGradient>
        <rect id="path-4" x="92" y="118" width="579" height="458" rx="30"></rect>
        <linearGradient x1="0%" y1="0%" x2="100%" y2="0%" id="linearGradient-5">
            <stop stop-color="#AF3B6E" stop-opacity="0" offset="0%"></stop>
            <stop stop-color="#000000" stop-opacity="0.1" offset="100%"></stop>
        </linearGradient>
        <linearGradient x1="50%" y1="0%" x2="50%" y2="100%" id="linearGradient-6">
            <stop stop-color="#E478A3" stop-opacity="0" offset="0%"></stop>
            <stop stop-color="#AF3B6E" stop-opacity="0.3" offset="100%"></stop>
        </linearGradient>
        <path d="M29.5701195,221 L732.429881,221 C748.998423,221 762.429881,234.431458 762.429881,251 C762.429881,252.122323 762.3669,253.243761 762.241237,254.359026 L729.0018,549.359026 C727.292194,564.53178 714.45921,576 699.190444,576 L62.8095561,576 C47.5407902,576 34.7078062,564.53178 32.9982001,549.359026 L-0.241236504,254.359026 C-2.09637535,237.894669 9.74673616,223.043783 26.2110934,221.188644 C27.3263586,221.06298 28.4477969,221 29.5701195,221 Z" id="path-7"></path>
    </defs>
    <g id="Handsome" stroke="none" stroke-width="1" fill="none" fill-rule="evenodd">
        <g id="Secondary" transform="translate(-1204.000000, -524.000000)">
            <g id="Folder" transform="translate(1205.000000, 524.000000)">
                <g>
                    <use fill="#AF3B6E" xlink:href="#path-2"></use>
                    <use fill="url(#linearGradient-1)" xlink:href="#path-2"></use>
                </g>
                <g id="Paper">
                    <use fill="#FFFFFF" xlink:href="#path-4"></use>
                    <use fill="url(#linearGradient-3)" xlink:href="#path-4"></use>
                </g>
                <rect id="Sh" fill="url(#linearGradient-5)" x="37" y="175" width="689" height="46"></rect>
                <g>
                    <use fill="#E478A3" xlink:href="#path-7"></use>
                    <use fill="url(#linearGradient-6)" xlink:href="#path-7"></use>
                </g>
            </g>
        </g>
    </g>
</svg>