<?xml version="1.0" encoding="UTF-8"?>
<svg width="696px" height="243px" viewBox="0 0 696 243" version="1.1" xmlns="http://www.w3.org/2000/svg" xmlns:xlink="http://www.w3.org/1999/xlink">
    <!-- Generator: Sketch 51 (57462) - http://www.bohemiancoding.com/sketch -->
    <title>Glasses</title>
    <desc>Created with Sketch.</desc>
    <defs>
        <linearGradient x1="50%" y1="0%" x2="50%" y2="100%" id="linearGradient-1">
            <stop stop-color="#393E41" stop-opacity="0" offset="0%"></stop>
            <stop stop-color="#000000" stop-opacity="0.4" offset="100%"></stop>
        </linearGradient>
        <path d="M569.002827,0.871242279 C636.99886,3.50141033 650.982164,14.7738674 694.004425,14.8656868 C696.665192,14.7738674 696.665192,38.4084895 694.004425,38.8561632 C685.1742,38.4084895 672.574116,43.1456487 672.004144,82.8387033 C672.574116,122.357845 650.160115,223.870082 555.002648,240.776006 C460.619666,256.29894 391.326948,189.030938 376.000358,86.837116 C375.487828,81.3212008 376.116226,72.9757731 381.000422,63.8462428 C383.942917,58.3461358 365.925999,52.8506078 348,52.8506078 C330.074001,52.8506078 311.693717,58.3713324 314.999578,63.8462428 C320.512172,72.9757731 320.512172,81.3212008 319.999642,86.837116 C304.673052,189.030938 235.380334,256.29894 140.997352,240.776006 C45.8398853,223.870082 23.425884,122.357845 23.995856,82.8387033 C23.425884,43.1456487 10.8258,38.4084895 1.99557464,38.8561632 C-0.665191547,38.4084895 -0.665191547,14.7738674 1.99557464,14.8656868 C45.0178356,14.7738674 59.00114,3.50141033 126.997173,0.871242279 C194.940185,-3.53092579 261.966369,9.14981406 289.999258,29.8597346 C307.312807,26.4451836 319.999642,22.8625123 348,22.8625123 C376.000358,22.8625123 388.687193,26.4451836 406.000742,29.8597346 C434.033631,9.14981406 501.059815,-3.53092579 569.002827,0.871242279 Z M405.906977,63.3045455 C383.275715,112.614537 427.770779,230 528.968992,230 C629.326699,230 669.014607,123.673382 649.077519,54.4272727 C627.778341,-15.24865 427.521374,13.5803951 405.906977,63.3045455 Z M290.225174,63.2968118 C268.605581,13.5703545 68.3004711,-15.260028 46.9961717,54.4191272 C27.054291,123.668449 66.7517399,230 167.133574,230 C268.356115,230 312.861877,112.609091 290.225174,63.2968118 Z" id="path-2"></path>
        <linearGradient x1="50%" y1="0%" x2="50%" y2="100%" id="linearGradient-3">
            <stop stop-color="#403F9F" stop-opacity="0.400673687" offset="0%"></stop>
            <stop stop-color="#1F1845" stop-opacity="0" offset="100%"></stop>
        </linearGradient>
        <linearGradient x1="50%" y1="0%" x2="50%" y2="100%" id="linearGradient-4">
            <stop stop-color="#403F9F" stop-opacity="0.4" offset="0%"></stop>
            <stop stop-color="#1F1845" stop-opacity="0" offset="100%"></stop>
        </linearGradient>
    </defs>
    <g id="Handsome" stroke="none" stroke-width="1" fill="none" fill-rule="evenodd">
        <g id="Secondary" transform="translate(-3848.000000, -1848.000000)">
            <g id="Glasses" transform="translate(3848.000000, 1848.000000)">
                <path d="M620,24 C620.184642,23.6299015 636.256016,30.387889 640,38 C629.569091,44.0984352 621.524401,47.8242214 605,73 C585.972,100.651236 579.008521,132 561,132 C543.704132,132 533.314753,105.65573 548,91 C562.769717,76.0719822 596.191608,57.01212 620,24 Z" id="Dedail" fill="#B6C5D9"></path>
                <path d="M76,24 C99.8083033,57.0011782 133.230126,76.0638215 148,91 C162.685031,105.651886 152.295673,132 135,132 C116.991355,132 110.02789,100.646662 91,73 C74.4755614,47.8119389 66.4308874,44.085609 56,38 C59.7439766,30.3730623 75.8153175,23.6140886 76,24 Z" id="Dedail" fill="#B6C5D9"></path>
                <g>
                    <use fill="#393E41" xlink:href="#path-2"></use>
                    <use fill="url(#linearGradient-1)" xlink:href="#path-2"></use>
                </g>
                <path d="M405.906977,63.3045455 C383.275715,112.614537 427.770779,230 528.968992,230 C629.326699,230 669.014607,123.673382 649.077519,54.4272727 C627.778341,-15.24865 427.521374,13.5803951 405.906977,63.3045455 Z" id="Lens-R" fill="url(#linearGradient-3)"></path>
                <path d="M290.225174,63.2968118 C312.861877,112.609091 268.356115,230 167.133574,230 C66.7517399,230 27.054291,123.668449 46.9961717,54.4191272 C68.3004711,-15.260028 268.605581,13.5703545 290.225174,63.2968118 Z" id="Lens-L" fill="url(#linearGradient-4)"></path>
                <path d="M98.8699688,114.814724 C100.768761,122.878454 95.7710908,130.954674 87.7073609,132.853466 C79.643631,134.752258 71.5674115,129.754588 69.6686197,121.690858 C65.7404352,105.008766 66.1384268,87.7809704 70.9299977,72.6988922 C77.3253659,53.7316757 96.3509876,43.4791904 122.865575,39.6568485 C131.065083,38.4748077 138.670331,44.1635888 139.852372,52.3630967 C141.034412,60.5626046 135.345631,68.1678525 127.146123,69.3498932 C110.750125,71.7135397 101.314277,76.7585135 99.4723881,81.9387879 C96.4187545,91.6658069 96.165177,103.328099 98.8699688,114.814724 Z" id="Detail" fill="#FFFFFF" fill-rule="nonzero" opacity="0.300000012"></path>
            </g>
        </g>
    </g>
</svg>