<?xml version="1.0" encoding="UTF-8"?>
<svg width="750px" height="639px" viewBox="0 0 750 639" version="1.1" xmlns="http://www.w3.org/2000/svg" xmlns:xlink="http://www.w3.org/1999/xlink">
    <!-- Generator: Sketch 51 (57462) - http://www.bohemiancoding.com/sketch -->
    <title>Map</title>
    <desc>Created with Sketch.</desc>
    <defs>
        <linearGradient x1="50%" y1="0%" x2="50%" y2="100%" id="linearGradient-1">
            <stop stop-color="#E6E6EF" stop-opacity="0" offset="0%"></stop>
            <stop stop-color="#000000" stop-opacity="0.05" offset="100%"></stop>
        </linearGradient>
        <path d="M25.3686936,16.0361416 L128,0 L256,20 L720,20 C736.568542,20 750,33.4314575 750,50 L750,510 C750,526.568542 736.568542,540 720,540 L256,540 L128,520 L34.6313064,534.588858 C18.261387,537.146658 2.91743889,525.949723 0.359638987,509.579804 C0.120240022,508.04765 7.29533868e-15,506.499241 7.10542736e-15,504.948497 L0,45.6765026 C-1.81008276e-15,30.8960553 10.7654337,18.317901 25.3686936,16.0361416 Z" id="path-2"></path>
        <path d="M73.8646685,61.3103257 L128,50 L256,66.2962963 L670,66.2962963 C686.568542,66.2962963 700,79.7277538 700,96.2962963 L700,460 C700,476.568542 686.568542,490 670,490 L256,490 L128,473.703704 L86.1353315,482.450358 C69.9169775,485.838808 54.0225224,475.438116 50.6340723,459.219762 C50.2124802,457.201869 50,455.145894 50,453.08443 L50,90.6762533 C50,76.472387 59.9610114,64.2151733 73.8646685,61.3103257 Z" id="path-4"></path>
        <path d="M581.822203,66.2962963 C578.952352,75.7548302 578.131145,84.6799678 580.026073,93 C591.784145,155.183755 671.089841,258.198695 643.029172,286 C613.836717,312.621198 543.619974,269.030618 514.022826,320 C483.254645,373.371416 395.81989,366.739207 402.017316,459 C402.865686,476.168587 395.301729,485.260916 382.376171,490 L256.010134,490 L128.003837,473.703704 L86.1350423,482.45079 C69.9166549,485.83908 54.0223022,475.438232 50.6340119,459.219844 C50.2124598,457.202043 50,455.146167 50,453.084802 L50,90.6764986 C50,76.4725213 59.9611634,64.2152439 73.8649577,61.3105105 L128.003837,50 L256.010134,66.2962963 L581.822203,66.2962963 Z" id="path-6"></path>
        <linearGradient x1="50%" y1="0%" x2="50%" y2="100%" id="linearGradient-8">
            <stop stop-color="#403F9F" stop-opacity="0" offset="0%"></stop>
            <stop stop-color="#000000" stop-opacity="0.2" offset="100%"></stop>
        </linearGradient>
        <path d="M136,0 C61.1193315,0.668541637 0,61.6157552 0,137 C0,215.201454 105.674525,335.306109 131,363 C133.563716,365.776218 138.436284,365.776218 141,363 C166.325475,335.306109 272,215.200455 272,137 C272.000999,61.6157552 210.881667,0.667542322 136,0 Z" id="path-9"></path>
        <linearGradient x1="100%" y1="100%" x2="0%" y2="0%" id="linearGradient-10">
            <stop stop-color="#000000" stop-opacity="0" offset="0%"></stop>
            <stop stop-color="#000000" stop-opacity="0.2" offset="100%"></stop>
        </linearGradient>
    </defs>
    <g id="Handsome" stroke="none" stroke-width="1" fill="none" fill-rule="evenodd">
        <g id="Secondary" transform="translate(-341.000000, -1650.000000)">
            <g id="Map" transform="translate(341.000000, 1650.000000)">
                <g transform="translate(0.000000, 99.000000)">
                    <mask id="mask-3" fill="white">
                        <use xlink:href="#path-2"></use>
                    </mask>
                    <g>
                        <use fill="#E6E6EF" xlink:href="#path-2"></use>
                        <use fill="url(#linearGradient-1)" xlink:href="#path-2"></use>
                    </g>
                    <mask id="mask-5" fill="white">
                        <use xlink:href="#path-4"></use>
                    </mask>
                    <use id="Sea" fill="#7BC1EB" xlink:href="#path-4"></use>
                    <mask id="mask-7" fill="white">
                        <use xlink:href="#path-6"></use>
                    </mask>
                    <use id="Combined-Shape" fill="#00A07D" xlink:href="#path-6"></use>
                    <path d="M280,538 L254,522 L321,412 C326.754135,402.891497 330.438458,393.323981 332,383 L345,317 C350.8321,286.340878 368.471158,259.694672 394,243 L459,199 C486.708574,180.550615 501.019521,148.009556 496,115 L473,-31 L503,-36 L526,111 C532.442242,154.95705 513.080372,198.983188 476,224 L411,267 C391.83936,280.137749 378.801795,299.832772 375,322 L362,389 C359.23849,402.460002 354.253818,415.404289 347,427 L280,538 Z" id="Road" fill="#FFFFFF" fill-rule="nonzero" mask="url(#mask-7)"></path>
                </g>
                <g id="Point" transform="translate(342.000000, 0.000000)">
                    <g fill-rule="nonzero">
                        <use fill="#403F9F" xlink:href="#path-9"></use>
                        <use fill="url(#linearGradient-8)" xlink:href="#path-9"></use>
                    </g>
                    <path d="M136,104 C141.577796,88.090207 157.343503,76 175,76 C199.160614,76 218,94.9196336 218,119 C218,167.316598 147.463872,201 136,201 C124.536128,201 54,167.316598 54,119 C54,94.9196456 72.8393864,76 97,76 C114.656497,76 130.422204,88.090207 136,104 Z" id="Heart" fill="#FFFFFF"></path>
                </g>
                <polygon id="Sh" fill="url(#linearGradient-10)" points="128 99 256 119 256 639 128 619"></polygon>
            </g>
        </g>
    </g>
</svg>