<?xml version="1.0" encoding="UTF-8"?>
<svg width="658px" height="648px" viewBox="0 0 658 648" version="1.1" xmlns="http://www.w3.org/2000/svg" xmlns:xlink="http://www.w3.org/1999/xlink">
    <!-- Generator: Sketch 51 (57462) - http://www.bohemiancoding.com/sketch -->
    <title>Pointer</title>
    <desc>Created with Sketch.</desc>
    <defs>
        <linearGradient x1="29.1677147%" y1="0%" x2="29.1677134%" y2="100%" id="linearGradient-1">
            <stop stop-color="#403F9F" stop-opacity="0" offset="0%"></stop>
            <stop stop-color="#000000" stop-opacity="0.2" offset="100%"></stop>
        </linearGradient>
        <path d="M0,0 L250.122369,3.12638804e-13 C252.779701,3.12638804e-13 255.327752,1.05772806 257.203923,2.93964261 L297.081848,42.9396426 C300.972717,46.8424227 300.972717,53.1575773 297.081848,57.0603574 L257.203923,97.0603574 C255.327752,98.9422719 252.779701,100 250.122369,100 L0,100 L0,0 Z" id="path-2"></path>
        <linearGradient x1="78.5564601%" y1="0%" x2="78.5564618%" y2="100%" id="linearGradient-3">
            <stop stop-color="#403F9F" stop-opacity="0" offset="0%"></stop>
            <stop stop-color="#000000" stop-opacity="0.2" offset="100%"></stop>
        </linearGradient>
        <path d="M47.749693,0 L300,0 L300,100 L47.749693,100 C44.9997085,100 42.3712193,98.8663421 40.4830957,96.8659427 L2.72816155,56.8659427 C-0.909387182,53.0120902 -0.909387182,46.9879098 2.72816155,43.1340573 L40.4830957,3.13405726 C42.3712193,1.1336579 44.9997085,0 47.749693,0 Z" id="path-4"></path>
        <linearGradient x1="50%" y1="0%" x2="50%" y2="100%" id="linearGradient-5">
            <stop stop-color="#FF6663" stop-opacity="0" offset="0%"></stop>
            <stop stop-color="#000000" stop-opacity="0.1" offset="100%"></stop>
        </linearGradient>
        <path d="M29,0 C45.0162577,-2.94213882e-15 58,12.9837423 58,29 L58,639.866109 C58,644.358333 56.6568542,648 55,648 L3,648 C1.34314575,648 0,644.358333 0,639.866109 L0,29 C-1.96142588e-15,12.9837423 12.9837423,2.94213882e-15 29,0 Z" id="path-6"></path>
        <linearGradient x1="100%" y1="100%" x2="0%" y2="0%" id="linearGradient-8">
            <stop stop-color="#000000" stop-opacity="0.3" offset="0%"></stop>
            <stop stop-color="#FF6663" stop-opacity="0" offset="100%"></stop>
        </linearGradient>
        <linearGradient x1="50%" y1="-19.9791751%" x2="50%" y2="100%" id="linearGradient-9">
            <stop stop-color="#9FB1FB" stop-opacity="0" offset="0%"></stop>
            <stop stop-color="#000000" stop-opacity="0.272078804" offset="100%"></stop>
        </linearGradient>
        <path d="M69,89 C67.6832528,73.4811028 71.7155319,60.6120561 81,51 C89.6371465,41.2911585 101.656231,36.3561769 117,36 C118.490393,35.9629483 119.845471,37.2333066 120,39 C120.629582,54.1433014 116.571102,66.5411922 108,76 C99.5554695,84.8853703 88.6151323,89.7710263 75,91 L53,172 L47,172 L69,89 Z" id="path-10"></path>
        <path d="M39,63 L80,172 L74,172 L33,66 C19.6972097,60.6457159 10.0425655,52.5460146 5,41 C-1.2123705,29.5129451 -1.49052931,16.4344387 4,2 C4.23081335,0.457832579 5.91190518,-0.360564096 7,0 C22.0475483,4.97552192 32.20153,13.2462396 38,25 C43.4479888,36.2619607 43.9056396,48.8211981 39,63 Z" id="path-11"></path>
    </defs>
    <g id="Handsome" stroke="none" stroke-width="1" fill="none" fill-rule="evenodd">
        <g id="Secondary" transform="translate(-3867.000000, -488.000000)">
            <g id="Pointer" transform="translate(3867.000000, 488.000000)">
                <g id="Point-R" transform="translate(358.000000, 65.000000)">
                    <g id="Point">
                        <use fill="#403F9F" xlink:href="#path-2"></use>
                        <use fill="url(#linearGradient-1)" xlink:href="#path-2"></use>
                    </g>
                </g>
                <g id="Point-L" transform="translate(0.000000, 215.000000)">
                    <g id="point">
                        <use fill="#403F9F" xlink:href="#path-4"></use>
                        <use fill="url(#linearGradient-3)" xlink:href="#path-4"></use>
                    </g>
                    <path d="M162,34 C164.584832,26.609856 171.890892,21 180,21 C191.269553,21 200,29.77871 200,41 C200,63.3709017 167.312526,79 162,79 C156.687474,79 124,63.3709017 124,41 C124,29.7787156 132.730447,21 144,21 C152.109108,21 159.415168,26.609856 162,34 Z" id="Heart" fill="#A7A7EE"></path>
                </g>
                <g id="Leg" transform="translate(300.000000, 0.000000)">
                    <mask id="mask-7" fill="white">
                        <use xlink:href="#path-6"></use>
                    </mask>
                    <g>
                        <use fill="#FF6663" xlink:href="#path-6"></use>
                        <use fill="url(#linearGradient-5)" xlink:href="#path-6"></use>
                    </g>
                    <path d="M58,543.455026 L58,577.045176 C57.6682838,577.079773 57.3349513,577.112155 57,577.142329 L46.32121,616.380875 L57.6438466,646.422176 C57.1376357,647.361468 56.1435362,648 55,648 L52.1320755,648 L43.6630108,626.148262 L37.7160494,648 L31.6506024,648 L39.9789015,616.642585 L15,552.192445 C9.30656612,549.90547 4.28137659,547.116614 -4.36539693e-13,543.771042 L0,491 C9.15122286,495.937592 15.7471255,502.671148 20,511.274635 C25.4479888,522.51402 25.9056396,535.04808 21,549.198459 L42.6414411,606.617686 L51,575.146338 C49.9502997,562.799598 52.2999865,552.133501 58,543.455026 Z" id="Sh" fill="url(#linearGradient-8)" mask="url(#mask-7)"></path>
                </g>
                <g id="Flowers" transform="translate(272.000000, 476.000000)">
                    <g id="Flower">
                        <use fill="#403F9F" xlink:href="#path-10"></use>
                        <use fill="url(#linearGradient-9)" xlink:href="#path-10"></use>
                    </g>
                    <g id="Flower">
                        <use fill="#403F9F" xlink:href="#path-11"></use>
                        <use fill="url(#linearGradient-9)" xlink:href="#path-11"></use>
                    </g>
                </g>
            </g>
        </g>
    </g>
</svg>