<?xml version="1.0" encoding="UTF-8"?>
<svg width="800px" height="518px" viewBox="0 0 800 518" version="1.1" xmlns="http://www.w3.org/2000/svg" xmlns:xlink="http://www.w3.org/1999/xlink">
    <!-- Generator: Sketch 51 (57462) - http://www.bohemiancoding.com/sketch -->
    <title>Schedule</title>
    <desc>Created with Sketch.</desc>
    <defs>
        <linearGradient x1="50%" y1="0%" x2="50%" y2="100%" id="linearGradient-1">
            <stop stop-color="#4E565C" stop-opacity="0" offset="0%"></stop>
            <stop stop-color="#000000" stop-opacity="0.1" offset="100%"></stop>
        </linearGradient>
        <rect id="path-2" x="0" y="0" width="720" height="518" rx="10"></rect>
        <linearGradient x1="50%" y1="0%" x2="50%" y2="100%" id="linearGradient-4">
            <stop stop-color="#000000" stop-opacity="0.2" offset="0%"></stop>
            <stop stop-color="#000000" stop-opacity="0" offset="100%"></stop>
        </linearGradient>
        <linearGradient x1="50%" y1="0%" x2="50%" y2="100%" id="linearGradient-5">
            <stop stop-color="#FF6663" stop-opacity="0" offset="0%"></stop>
            <stop stop-color="#000000" stop-opacity="0.04" offset="100%"></stop>
        </linearGradient>
        <path d="M45.8595767,425.24759 C46.5999279,427.531757 47,429.969157 47,432.5 C47,445.478692 36.4786916,456 23.5,456 C10.5213084,456 0,445.478692 0,432.5 C0,419.521308 10.5213084,409 23.5,409 C26.5623051,409 29.4878034,409.58574 32.1705695,410.651295 L108.052134,344.077869 C108.017561,343.556381 108,343.030241 108,342.5 C108,329.521308 118.521308,319 131.5,319 C144.478692,319 155,329.521308 155,342.5 C155,343.774448 154.89855,345.025201 154.703285,346.244623 L228.677756,411.144893 C231.666453,409.767972 234.993542,409 238.5,409 C239.691459,409 240.862208,409.088668 242.006009,409.259765 L323.088615,302.555055 C323.029947,301.877847 323,301.192421 323,300.5 C323,287.521308 333.521308,277 346.5,277 C359.478692,277 370,287.521308 370,300.5 C370,301.007819 369.983893,301.511877 369.952161,302.011689 L442.582234,373.189161 C445.595496,371.784442 448.95614,371 452.5,371 C453.747612,371 454.972517,371.097223 456.167552,371.284505 L539.011986,248.343364 C538.353912,246.178069 538,243.880365 538,241.5 C538,228.521308 548.521308,218 561.5,218 C571.70477,218 580.390331,224.504507 583.636888,233.593725 L648.255568,251.686955 C652.564391,246.3865 659.136716,243 666.5,243 C667.989477,243 669.446589,243.138572 670.859146,243.403527 L753.912027,131.005296 C753.318143,128.939437 753,126.756872 753,124.5 C753,111.521308 763.521308,101 776.5,101 C789.478692,101 800,111.521308 800,124.5 C800,137.478692 789.478692,148 776.5,148 C773.323909,148 770.29498,147.369923 767.531391,146.227945 L687.067236,255.122768 C688.935964,258.493764 690,262.372622 690,266.5 C690,279.478692 679.478692,290 666.5,290 C655.099558,290 645.595186,281.881957 643.452245,271.111233 L581.54234,253.776459 C577.409503,260.50928 569.979183,265 561.5,265 C558.494205,265 555.620215,264.435678 552.978197,263.407204 L472.717662,382.513838 C474.8027,386.023207 476,390.121781 476,394.5 C476,407.478692 465.478692,418 452.5,418 C439.521308,418 429,407.478692 429,394.5 C429,392.466182 429.258364,390.492708 429.744062,388.610609 L359.686648,319.954344 C355.926711,322.507892 351.387606,324 346.5,324 C342.090969,324 337.965532,322.785789 334.439832,320.673509 L258.654112,420.407515 C260.778354,423.940312 262,428.077491 262,432.5 C262,445.478692 251.478692,456 238.5,456 C225.521308,456 215,445.478692 215,432.5 C215,430.405539 215.274001,428.375075 215.788113,426.442497 L143.286874,362.834743 C139.822017,364.847459 135.795604,366 131.5,366 C126.536507,366 121.93242,364.461198 118.138781,361.834635 L45.8595767,425.24759 Z" id="path-6"></path>
    </defs>
    <g id="Handsome" stroke="none" stroke-width="1" fill="none" fill-rule="evenodd">
        <g id="Secondary" transform="translate(-1186.000000, -5185.000000)">
            <g id="Schedule" transform="translate(1186.000000, 5185.000000)">
                <g id="Detail" transform="translate(38.000000, 0.000000)">
                    <mask id="mask-3" fill="white">
                        <use xlink:href="#path-2"></use>
                    </mask>
                    <g id="Bg" opacity="0.99000001">
                        <use fill="#4E565C" xlink:href="#path-2"></use>
                        <use fill="url(#linearGradient-1)" xlink:href="#path-2"></use>
                    </g>
                    <rect fill="#6F7981" mask="url(#mask-3)" x="60" y="203" width="67" height="285"></rect>
                    <rect fill="#6F7981" mask="url(#mask-3)" x="167" y="125" width="67" height="364"></rect>
                    <rect fill="#6F7981" mask="url(#mask-3)" x="274" y="161" width="67" height="327"></rect>
                    <rect fill="#6F7981" mask="url(#mask-3)" x="381" y="277" width="67" height="211"></rect>
                    <rect fill="#6F7981" mask="url(#mask-3)" x="488" y="101" width="67" height="387"></rect>
                    <rect fill="#6F7981" mask="url(#mask-3)" x="595" y="148" width="67" height="340"></rect>
                    <path d="M7.85957668,445.24759 C8.59992795,447.531757 9,449.969157 9,452.5 C9,465.478692 -1.52130838,476 -14.5,476 C-27.4786916,476 -38,465.478692 -38,452.5 C-38,439.521308 -27.4786916,429 -14.5,429 C-11.4376949,429 -8.51219664,429.58574 -5.82943046,430.651295 L70.0521338,364.077869 C70.0175612,363.556381 70,363.030241 70,362.5 C70,349.521308 80.5213084,339 93.5,339 C106.478692,339 117,349.521308 117,362.5 C117,363.774448 116.89855,365.025201 116.703285,366.244623 L190.677756,431.144893 C193.666453,429.767972 196.993542,429 200.5,429 C201.691459,429 202.862208,429.088668 204.006009,429.259765 L285.088615,322.555055 C285.029947,321.877847 285,321.192421 285,320.5 C285,307.521308 295.521308,297 308.5,297 C321.478692,297 332,307.521308 332,320.5 C332,321.007819 331.983893,321.511877 331.952161,322.011689 L404.582234,393.189161 C407.595496,391.784442 410.95614,391 414.5,391 C415.747612,391 416.972517,391.097223 418.167552,391.284505 L501.011986,268.343364 C500.353912,266.178069 500,263.880365 500,261.5 C500,248.521308 510.521308,238 523.5,238 C533.70477,238 542.390331,244.504507 545.636888,253.593725 L610.255568,271.686955 C614.564391,266.3865 621.136716,263 628.5,263 C629.989477,263 631.446589,263.138572 632.859146,263.403527 L715.912027,151.005296 C715.318143,148.939437 715,146.756872 715,144.5 C715,131.521308 725.521308,121 738.5,121 C751.478692,121 762,131.521308 762,144.5 C762,157.478692 751.478692,168 738.5,168 C735.323909,168 732.29498,167.369923 729.531391,166.227945 L649.067236,275.122768 C650.935964,278.493764 652,282.372622 652,286.5 C652,299.478692 641.478692,310 628.5,310 C617.099558,310 607.595186,301.881957 605.452245,291.111233 L543.54234,273.776459 C539.409503,280.50928 531.979183,285 523.5,285 C520.494205,285 517.620215,284.435678 514.978197,283.407204 L434.717662,402.513838 C436.8027,406.023207 438,410.121781 438,414.5 C438,427.478692 427.478692,438 414.5,438 C401.521308,438 391,427.478692 391,414.5 C391,412.466182 391.258364,410.492708 391.744062,408.610609 L321.686648,339.954344 C317.926711,342.507892 313.387606,344 308.5,344 C304.090969,344 299.965532,342.785789 296.439832,340.673509 L220.654112,440.407515 C222.778354,443.940312 224,448.077491 224,452.5 C224,465.478692 213.478692,476 200.5,476 C187.521308,476 177,465.478692 177,452.5 C177,450.405539 177.274001,448.375075 177.788113,446.442497 L105.286874,382.834743 C101.822017,384.847459 97.7956036,386 93.5,386 C88.536507,386 83.9324204,384.461198 80.1387813,381.834635 L7.85957668,445.24759 Z" id="Sh" fill="url(#linearGradient-4)" fill-rule="nonzero" mask="url(#mask-3)"></path>
                </g>
                <g id="Detail" fill-rule="nonzero">
                    <use fill="#FF6663" xlink:href="#path-6"></use>
                    <use fill="url(#linearGradient-5)" xlink:href="#path-6"></use>
                </g>
            </g>
        </g>
    </g>
</svg>