<?xml version="1.0" encoding="UTF-8"?>
<svg width="421px" height="680px" viewBox="0 0 421 680" version="1.1" xmlns="http://www.w3.org/2000/svg" xmlns:xlink="http://www.w3.org/1999/xlink">
    <!-- Generator: Sketch 51 (57462) - http://www.bohemiancoding.com/sketch -->
    <title>Table</title>
    <desc>Created with Sketch.</desc>
    <defs>
        <linearGradient x1="50%" y1="0%" x2="50%" y2="100%" id="linearGradient-1">
            <stop stop-color="#F4B99A" stop-opacity="0" offset="0%"></stop>
            <stop stop-color="#000000" stop-opacity="0.05" offset="100%"></stop>
        </linearGradient>
        <rect id="path-2" x="0" y="0" width="421" height="680" rx="10"></rect>
        <linearGradient x1="0%" y1="0%" x2="100%" y2="100%" id="linearGradient-4">
            <stop stop-color="#000000" stop-opacity="0.2" offset="0%"></stop>
            <stop stop-color="#E39E79" stop-opacity="0" offset="100%"></stop>
        </linearGradient>
        <circle id="path-5" cx="210.5" cy="161.5" r="91.5"></circle>
        <circle id="path-6" cx="210.5" cy="419.5" r="136.5"></circle>
        <linearGradient x1="50%" y1="0%" x2="50%" y2="100%" id="linearGradient-7">
            <stop stop-color="#393E41" stop-opacity="0" offset="0%"></stop>
            <stop stop-color="#000000" stop-opacity="0.1" offset="100%"></stop>
        </linearGradient>
        <circle id="path-8" cx="210.5" cy="161.5" r="54.5"></circle>
        <circle id="path-9" cx="210.5" cy="419.5" r="99.5"></circle>
        <path d="M77.6539589,600 L343.346041,600 C353.096053,600 361,608.954305 361,620 C361,631.045695 353.096053,640 343.346041,640 L77.6539589,640 C67.9039466,640 60,631.045695 60,620 C60,608.954305 67.9039466,600 77.6539589,600 Z" id="path-10"></path>
    </defs>
    <g id="Handsome" stroke="none" stroke-width="1" fill="none" fill-rule="evenodd">
        <g id="Secondary" transform="translate(-1376.000000, -3946.000000)">
            <g id="Table" transform="translate(1376.000000, 3946.000000)">
                <g id="Detail">
                    <mask id="mask-3" fill="white">
                        <use xlink:href="#path-2"></use>
                    </mask>
                    <g>
                        <use fill="#F4B99A" xlink:href="#path-2"></use>
                        <use fill="url(#linearGradient-1)" xlink:href="#path-2"></use>
                    </g>
                    <rect id="Rectangle" fill="#E39E79" mask="url(#mask-3)" x="385" y="0" width="36" height="680"></rect>
                    <rect id="Rectangle-Copy" fill="#E39E79" mask="url(#mask-3)" x="0" y="0" width="36" height="680"></rect>
                    <path d="M73,512 C70.1178094,505.267008 68.1447746,500.479704 66,496 C61.4309718,483.987476 57.712993,474.433175 55,466 C46.9644587,444.493988 43.0645994,428.715961 43,417 C43.0366212,407.955867 44.6045941,398.789859 48,388 C48.9366393,383.080325 50.3779981,378.374546 52,372 C52.8576892,370.70045 56.6133692,359.224072 58,356 C66.4427428,328.496692 70.8891677,308.291958 72,284 C73.647389,253.026018 68.8048839,219.739934 56,182 C39.3625652,133.728008 31.6584326,99.6514626 31,74 C30.5313323,52.6441185 34.464171,37.9318947 44,19 C45.5516733,16.1072287 53.0401075,2.12554654 55,-2 C55.4605686,-2.66074193 55.7972911,-3.33313955 56,-4 L59,-3 C58.4830534,-1.99386414 58.1426951,-1.31420618 58,-1 C55.6978038,3.52039124 48.2076258,17.5053292 47,21 C37.3504218,38.8766756 33.5447816,53.1130666 34,74 C34.6502032,99.2162676 42.2920036,133.017109 59,181 C71.7667713,219.128467 76.6641559,252.791778 75,284 C73.871557,308.746536 69.3738333,329.184374 61,357 C59.4683847,360.14957 55.7108023,371.631762 55,373 C53.2462506,379.259004 51.8164051,383.927194 51,388 C47.5617504,399.356082 46.0354598,408.278426 46,417 C46.062364,428.268562 49.8950381,443.774771 57,465 C60.5215153,473.373977 64.2254002,482.89206 69,495 C70.9217658,499.341455 72.8925558,504.123312 76,511 C76.382099,512.53589 79.6611303,520.43198 79,519 C80.3458269,522.081107 81.366353,524.542863 82,527 C86.2689705,536.402863 89.3122646,543.882384 92,551 C110.12025,596.451487 119,628.039005 119,654 C119,684.310087 105.964395,715.117213 82,750 C78.1955383,756.256238 75.7324501,754.541205 80,749 C103.171467,713.89083 115.998657,683.576255 116,654 C115.998657,628.53128 107.196283,597.219009 89,552 C86.5278973,545.002589 83.4898642,537.535998 80,528 C78.5932238,525.690458 77.5732344,523.229997 76,520 C76.889313,521.582736 73.609933,513.685807 73,512 Z" fill="#E39E79" fill-rule="nonzero" mask="url(#mask-3)"></path>
                    <path d="M19,684 L16,686 C5.25769767,670.430599 1.55167628,627.18445 6,584 C7.47805207,563.306706 10.9028722,545.698108 15,534 C20.4234096,521.308691 27.1054623,516.425728 34,523 C63.3682285,548.318667 78,590.215409 78,656 C78,686.91685 65.1032112,717.927643 42,753 C37.6016868,759.262876 35.1167744,757.565678 39,752 C62.2953576,716.71583 74.9883364,686.195106 75,656 C74.9883364,591.003348 60.6422398,549.924609 32,525 C27.2986244,520.59121 22.5928893,524.029963 18,535 C13.8292333,546.480425 10.4533247,563.837547 9,584 C4.61422155,626.774617 8.27547723,669.498388 19,684 Z" fill="#E39E79" fill-rule="nonzero" mask="url(#mask-3)"></path>
                    <path d="M189,-36 L192,-36 C192,-24.7041556 186.329599,-11.7354968 175,4 C170.605947,11.140524 165.171969,18.2806659 158,27 C155.366989,30.4379877 152.469276,33.9735205 149,39 C149.071333,38.0840483 140.914238,47.9371081 139,51 C119.407894,74.0538394 108.273533,89.090511 100,105 C90.6549184,120.829173 86,135.371268 86,149 C86,174.171305 94.6736485,208.656752 114,269 C115.243597,272.443064 116.468825,276.2215 118,281 C132.927373,326.795363 135.105512,333.635341 140,351 C146.609616,374.414624 150.003197,391.609718 150,404 C150.004429,420.452688 147.718222,434.681773 143,454 C142.040696,456.200808 141.321899,458.838608 140,462 C140.164706,463.009477 138.451412,469.1572 138,471 C129.605699,501.1707 126.098811,521.488882 126,551 C126.084006,575.584741 129.083914,614.964133 134,668 C135.562227,678.189716 136.721886,689.111303 138,701 C139.314199,712.867048 136.332419,713.197038 135,701 C133.738894,689.430185 132.57855,678.502145 132,668 C126.089724,615.173964 123.08446,575.724262 123,551 C123.099871,521.170619 126.649059,500.607361 135,470 C135.560725,468.35517 137.274615,462.205309 137,461 C138.427889,458.048562 139.143627,455.421988 140,453 C144.756912,434.146438 147.004351,420.158648 147,404 C147.003105,391.959369 143.651993,374.979461 137,352 C132.233994,334.505402 130.057513,327.670631 115,282 C113.615179,277.146589 112.389165,273.365729 111,270 C91.7124207,209.248249 83,174.608648 83,149 C83,134.793638 87.8049462,119.782852 97,103 C105.763739,87.4313833 116.981691,72.2818236 136,49 C138.600821,46.028128 146.760885,36.1714824 146,37 C150.149484,32.0722586 153.040325,28.5451105 156,25 C162.79235,16.4534478 168.18345,9.36964632 173,3 C183.542608,-12.9760797 189,-25.4575692 189,-36 Z" fill="#E39E79" fill-rule="nonzero" mask="url(#mask-3)"></path>
                    <path d="M384,414 C381.125784,407.920299 379.153071,403.135021 377,399 C372.440363,386.64977 368.722991,377.099512 366,368 C357.97621,347.172993 354.076987,331.401642 354,319 C354.049014,310.650331 355.616731,301.488201 359,290 C359.948069,285.785314 361.389193,281.081526 363,275 C363.868479,273.410678 367.623547,261.939155 369,258 C377.451317,231.224776 381.897016,211.028591 383,187 C384.654788,155.786034 379.813072,122.514034 367,85 C350.375557,36.5384997 342.672681,2.47637231 342,-23 C341.545765,-44.5110827 344.558722,-44.0423329 345,-23 C345.663964,2.04136145 353.304517,35.827901 370,84 C382.774477,121.902825 387.671062,155.551893 386,187 C384.878919,211.482976 380.381929,231.912166 372,259 C370.478096,262.864261 366.721127,274.341595 366,276 C364.256977,281.96561 362.827365,286.631825 362,291 C358.573405,302.054185 357.047363,310.972753 357,319 C357.074263,330.954432 360.906312,346.45408 368,367 C371.531055,376.040762 375.234336,385.554818 380,397 C381.929609,401.997254 383.900078,406.777087 387,413 C387.389417,415.186987 390.670599,423.086199 390,421 C391.351656,424.726134 392.372258,427.187432 393,430 C397.27431,439.04298 400.317108,446.519337 403,454 C421.121699,499.066197 430,530.640351 430,556 C430,586.887624 416.966521,617.681715 393,653 C389.202195,658.803334 385.035167,664.665741 380,672 C378.942941,672.975576 370.378685,684.563046 368,688 C360.44822,698.289856 357.553192,697.172936 366,686 C367.95755,682.791067 376.530296,671.19211 377,670 C382.593526,662.921826 386.739509,657.089026 391,651 C414.17405,616.455851 426.999146,586.154102 427,556 C426.999146,531.132417 418.198209,499.833394 400,455 C397.533195,447.639068 394.495657,440.175636 391,431 C389.599816,428.335108 388.579993,425.875688 387,423 C387.896183,424.229124 384.617338,416.335536 384,414 Z" fill="#E39E79" fill-rule="nonzero" mask="url(#mask-3)"></path>
                    <path d="M288,0 C273.883154,27.805639 264.934324,52.7974529 261,81 C256.058253,117.530418 260.073046,156.532244 275,200 C287.825012,237.478628 299.221708,264.912962 311,288 C312.938375,292.463519 315.006072,296.473732 317,301 C318.173601,302.457721 319.0503,304.099442 320,306 C320.1813,306.206291 322.232347,310.022701 323,311 C326.990023,318.907127 329.164239,323.28157 331,328 C335.285534,338.375339 337,348.530136 337,364 C337,385.78856 335.902452,400.217047 330,460 C328.515566,481.151087 327.317827,495.330039 326,510 C324.830306,531.063755 324.043692,549.545463 324,567 C324.052776,586.918614 321.853929,612.126732 318,642 C315.749042,656.529989 313.345573,671.847216 310,689 C308.98094,697.437086 306.024802,696.921256 308,688 C310.382522,671.371913 312.781139,656.085605 315,642 C318.863795,611.844046 321.051589,586.762646 321,567 C321.043162,549.462911 321.83251,530.916969 323,510 C324.326183,495.09488 325.525442,480.897932 328,459 C332.903051,400.065526 333.999254,385.654729 334,364 C333.999254,348.895025 332.348694,339.118748 328,329 C326.434833,324.536464 324.297396,320.236019 320,312 C319.588535,311.44275 317.538633,307.62847 318,308 C316.404155,305.515142 315.524892,303.868621 315,302 C312.343225,297.857921 310.264316,293.825965 308,290 C296.475956,266.131408 285.028899,238.575845 272,201 C257.084256,157.067053 253.02084,117.592879 258,81 C262.01408,52.0053991 271.075255,26.6998349 285,-1 C289.466607,-8.57290056 292.092186,-7.11742524 288,0 Z" fill="#E39E79" fill-rule="nonzero" mask="url(#mask-3)"></path>
                    <path d="M411,540 C409.172084,553.443804 403.468928,566.955097 396,577 C388.397542,587.719648 379.985451,593.73183 373,593 C365.308407,592.000105 361,582.659098 361,566 C361,525.454666 362.91968,502.091484 368,490 C374.598969,475.169267 386.152796,478.538716 403,501 C410.899473,511.295394 413.512527,525.120702 411,540 Z M400,502 C384.891963,481.745943 376.084013,479.174193 371,491 C365.904365,502.65978 364,525.856548 364,566 C364,581.312609 367.660773,589.256331 374,590 C378.951438,590.58965 386.542066,585.159896 393,576 C400.764542,565.548037 406.2805,552.468964 408,540 C410.433196,525.347624 407.972818,512.322477 400,502 Z" fill="#E39E79" fill-rule="nonzero" mask="url(#mask-3)"></path>
                    <path d="M364,184 C362.015817,202.062824 355.888382,220.416393 348,235 C339.633523,248.709111 330.551582,256.940709 323,256 C314.565845,254.744186 310,242.404466 310,219 C310,164.502652 312.074783,132.497157 318,116 C320.969189,106.482713 325.872302,102.260151 332,105 C338.565617,106.936104 345.934026,115.4482 355,131 C363.762278,145.062169 366.614918,163.710194 364,184 Z M352,132 C343.686884,117.516552 336.656236,109.395774 331,107 C326.84307,105.781697 323.340581,108.797299 320,117 C315.066555,132.9913 313,164.862025 313,219 C313,241.01185 317.090329,252.063714 323,253 C329.299152,253.740857 337.586141,246.231626 345,233 C353.082629,219.265538 359.084327,201.293014 361,184 C363.56414,163.944333 360.809622,145.949174 352,132 Z" fill="#E39E79" fill-rule="nonzero" mask="url(#mask-3)"></path>
                    <path d="M550,326 C543.37511,342.313837 524.302458,359.100317 499,372 C474.684247,384.551932 447.610539,391.788176 427,391 C403.06461,389.953181 389,378.694512 389,357 C389,306.973571 395.482087,277.528682 413,263 C433.200611,245.16991 467.935673,249.003341 522,276 C549.288143,289.131294 558.158642,306.615348 550,326 Z M522,276 C522.002034,276.000988 522.004069,276.001977 522,276 C522.008105,276.00396 522.010118,276.00496 522,276 Z M521,279 C467.576246,252.173232 433.972117,248.464172 415,265 C398.33846,279.032188 392,307.822632 392,357 C392,376.889226 404.651423,387.015933 427,388 C447.165704,388.767115 473.747537,381.662838 498,369 C522.367937,356.724798 540.937246,340.382475 547,325 C554.730406,307.077821 546.666999,291.188084 521,279 Z" fill="#E39E79" fill-rule="nonzero" mask="url(#mask-3)"></path>
                    <path d="M40,302 C35.2163511,340.293076 21.4841723,379.542007 3,410 C-14.6020759,439.585644 -34.5134723,456.86514 -50,455 C-68.0254189,452.547198 -78,426.830042 -78,378 C-78,260.578107 -73.3378098,191.997499 -61,157 C-53.6599501,137.071155 -43.4866327,128.648515 -30,133 C-16.6844734,137.777805 -0.246639702,155.657041 20,188 C39.3663887,218.507492 45.6166777,258.321345 40,302 Z M17,189 C-2.44098087,157.781731 -18.5184582,140.294817 -31,136 C-42.5222106,132.118955 -51.3140999,139.397677 -58,158 C-70.3476217,192.523936 -75,260.958205 -75,378 C-75,425.448666 -65.538159,449.843125 -50,452 C-35.7250861,453.684363 -16.6140743,437.099942 1,408 C18.6976709,378.346718 32.292639,339.491099 37,302 C42.5606763,258.5644 36.4170053,219.432053 17,189 Z" fill="#E39E79" fill-rule="nonzero" mask="url(#mask-3)"></path>
                    <path d="M212,-32 C216.13245,-22.3912703 217.301182,-11.965069 217,0 C215.958994,9.54915864 215.881537,10.0574885 211,37 C207.195135,61.9938662 205.515115,78.897937 206,100 C206.900166,126.596693 212.117847,155.006614 223,187 C237.39843,228.492494 244.54869,258.577771 246,282 C247.462804,299.104516 246.095637,309.1243 241,328 C237.351482,344.039069 236.047115,351.718586 236,364 C236.046382,375.918669 237.253852,390.920659 240,411 C240.610583,418.800843 241.780448,427.695579 243,439 C243.892358,442.970699 244.518887,447.440026 245,453 C245.305902,453.01286 247.017342,465.115056 248,469 C249.133226,480.143977 250.331212,488.859675 251,497 C256.470715,535.617433 259,563.938798 259,588 L259,786 L256,786 L256,588 C256.003965,564.09975 253.484545,535.888848 248,498 C247.362164,489.261493 246.165324,480.554133 245,469 C244.050781,465.53473 242.339485,453.433549 242,454 C241.55198,447.857254 240.925087,443.385327 240,439 C238.810497,428.090825 237.638489,419.179789 237,411 C234.266354,391.171666 233.050543,376.066054 233,364 C233.05149,351.412577 234.390636,343.5283 238,328 C243.119014,308.67653 244.447306,298.941656 243,282 C241.581812,259.091082 234.488468,229.245279 220,188 C209.186766,155.696461 203.914223,126.987816 203,100 C202.513571,78.7518293 204.210815,61.6744651 208,37 C212.899967,9.72164632 212.978524,9.2060933 214,0 C214.286814,-11.7647759 213.163694,-21.7840754 210,-31 C208.685049,-34.0068901 211.454347,-35.1584346 212,-32 Z" fill="#E39E79" fill-rule="nonzero" mask="url(#mask-3)"></path>
                    <path d="M401,-25 C397.866629,-0.0937832976 397.013092,26.1167747 397,67 C397.013092,91.981433 405.50655,123.499439 424,176 C425.567481,179.723963 427.127387,184.056445 429,189 C444.078944,230.879967 441.221949,231.833625 426,190 C424.290841,185.066588 422.729473,180.730045 421,177 C402.547932,124.167492 394,92.4473398 394,67 C394,26.0155919 394.856382,-0.282316172 398,-25 C400.959308,-55.9994368 403.919559,-55.354465 401,-25 Z" fill="#E39E79" fill-rule="nonzero" mask="url(#mask-3)"></path>
                </g>
                <g id="Detail">
                    <use fill="#E39E79" xlink:href="#path-5"></use>
                    <use fill="url(#linearGradient-4)" xlink:href="#path-5"></use>
                </g>
                <g id="Detail">
                    <use fill="#E39E79" xlink:href="#path-6"></use>
                    <use fill="url(#linearGradient-4)" xlink:href="#path-6"></use>
                </g>
                <g id="Detail">
                    <use fill="#393E41" xlink:href="#path-8"></use>
                    <use fill="url(#linearGradient-7)" xlink:href="#path-8"></use>
                </g>
                <g id="Detail">
                    <use fill="#393E41" xlink:href="#path-9"></use>
                    <use fill="url(#linearGradient-7)" xlink:href="#path-9"></use>
                </g>
                <g id="Detail">
                    <use fill="#393E41" xlink:href="#path-10"></use>
                    <use fill="url(#linearGradient-7)" xlink:href="#path-10"></use>
                </g>
            </g>
        </g>
    </g>
</svg>